<?xml version="1.0" encoding="utf-8" standalone="no"?>
<!DOCTYPE svg PUBLIC "-//W3C//DTD SVG 1.1//EN"
  "http://www.w3.org/Graphics/SVG/1.1/DTD/svg11.dtd">
<svg xmlns:xlink="http://www.w3.org/1999/xlink" width="1080pt" height="288pt" viewBox="0 0 1080 288" xmlns="http://www.w3.org/2000/svg" version="1.1">
 <metadata>
  <rdf:RDF xmlns:dc="http://purl.org/dc/elements/1.1/" xmlns:cc="http://creativecommons.org/ns#" xmlns:rdf="http://www.w3.org/1999/02/22-rdf-syntax-ns#">
   <cc:Work>
    <dc:type rdf:resource="http://purl.org/dc/dcmitype/StillImage"/>
    <dc:date>2024-10-07T19:07:38.013491</dc:date>
    <dc:format>image/svg+xml</dc:format>
    <dc:creator>
     <cc:Agent>
      <dc:title>Matplotlib v3.8.4, https://matplotlib.org/</dc:title>
     </cc:Agent>
    </dc:creator>
   </cc:Work>
  </rdf:RDF>
 </metadata>
 <defs>
  <style type="text/css">*{stroke-linejoin: round; stroke-linecap: butt}</style>
 </defs>
 <g id="figure_1">
  <g id="patch_1">
   <path d="M 0 288 
L 1080 288 
L 1080 0 
L 0 0 
z
" style="fill: #ffffff"/>
  </g>
  <g id="axes_1">
   <g id="patch_2">
    <path d="M 135 256.32 
L 972 256.32 
L 972 34.56 
L 135 34.56 
z
" style="fill: #ffffff"/>
   </g>
   <g id="matplotlib.axis_1">
    <g id="xtick_1">
     <g id="line2d_1">
      <defs>
       <path id="mbc179725be" d="M 0 0 
L 0 3.5 
" style="stroke: #000000; stroke-width: 0.8"/>
      </defs>
      <g>
       <use xlink:href="#mbc179725be" x="135" y="256.32" style="stroke: #000000; stroke-width: 0.8"/>
      </g>
     </g>
     <g id="text_1">
      <!-- 0 -->
      <g transform="translate(131.81875 270.918437) scale(0.1 -0.1)">
       <defs>
        <path id="DejaVuSans-30" d="M 2034 4250 
Q 1547 4250 1301 3770 
Q 1056 3291 1056 2328 
Q 1056 1369 1301 889 
Q 1547 409 2034 409 
Q 2525 409 2770 889 
Q 3016 1369 3016 2328 
Q 3016 3291 2770 3770 
Q 2525 4250 2034 4250 
z
M 2034 4750 
Q 2819 4750 3233 4129 
Q 3647 3509 3647 2328 
Q 3647 1150 3233 529 
Q 2819 -91 2034 -91 
Q 1250 -91 836 529 
Q 422 1150 422 2328 
Q 422 3509 836 4129 
Q 1250 4750 2034 4750 
z
" transform="scale(0.015625)"/>
       </defs>
       <use xlink:href="#DejaVuSans-30"/>
      </g>
     </g>
    </g>
    <g id="xtick_2">
     <g id="line2d_2">
      <g>
       <use xlink:href="#mbc179725be" x="240.442177" y="256.32" style="stroke: #000000; stroke-width: 0.8"/>
      </g>
     </g>
     <g id="text_2">
      <!-- 5 -->
      <g transform="translate(237.260927 270.918437) scale(0.1 -0.1)">
       <defs>
        <path id="DejaVuSans-35" d="M 691 4666 
L 3169 4666 
L 3169 4134 
L 1269 4134 
L 1269 2991 
Q 1406 3038 1543 3061 
Q 1681 3084 1819 3084 
Q 2600 3084 3056 2656 
Q 3513 2228 3513 1497 
Q 3513 744 3044 326 
Q 2575 -91 1722 -91 
Q 1428 -91 1123 -41 
Q 819 9 494 109 
L 494 744 
Q 775 591 1075 516 
Q 1375 441 1709 441 
Q 2250 441 2565 725 
Q 2881 1009 2881 1497 
Q 2881 1984 2565 2268 
Q 2250 2553 1709 2553 
Q 1456 2553 1204 2497 
Q 953 2441 691 2322 
L 691 4666 
z
" transform="scale(0.015625)"/>
       </defs>
       <use xlink:href="#DejaVuSans-35"/>
      </g>
     </g>
    </g>
    <g id="xtick_3">
     <g id="line2d_3">
      <g>
       <use xlink:href="#mbc179725be" x="345.884354" y="256.32" style="stroke: #000000; stroke-width: 0.8"/>
      </g>
     </g>
     <g id="text_3">
      <!-- 10 -->
      <g transform="translate(339.521854 270.918437) scale(0.1 -0.1)">
       <defs>
        <path id="DejaVuSans-31" d="M 794 531 
L 1825 531 
L 1825 4091 
L 703 3866 
L 703 4441 
L 1819 4666 
L 2450 4666 
L 2450 531 
L 3481 531 
L 3481 0 
L 794 0 
L 794 531 
z
" transform="scale(0.015625)"/>
       </defs>
       <use xlink:href="#DejaVuSans-31"/>
       <use xlink:href="#DejaVuSans-30" x="63.623047"/>
      </g>
     </g>
    </g>
    <g id="xtick_4">
     <g id="line2d_4">
      <g>
       <use xlink:href="#mbc179725be" x="451.326531" y="256.32" style="stroke: #000000; stroke-width: 0.8"/>
      </g>
     </g>
     <g id="text_4">
      <!-- 15 -->
      <g transform="translate(444.964031 270.918437) scale(0.1 -0.1)">
       <use xlink:href="#DejaVuSans-31"/>
       <use xlink:href="#DejaVuSans-35" x="63.623047"/>
      </g>
     </g>
    </g>
    <g id="xtick_5">
     <g id="line2d_5">
      <g>
       <use xlink:href="#mbc179725be" x="556.768707" y="256.32" style="stroke: #000000; stroke-width: 0.8"/>
      </g>
     </g>
     <g id="text_5">
      <!-- 20 -->
      <g transform="translate(550.406207 270.918437) scale(0.1 -0.1)">
       <defs>
        <path id="DejaVuSans-32" d="M 1228 531 
L 3431 531 
L 3431 0 
L 469 0 
L 469 531 
Q 828 903 1448 1529 
Q 2069 2156 2228 2338 
Q 2531 2678 2651 2914 
Q 2772 3150 2772 3378 
Q 2772 3750 2511 3984 
Q 2250 4219 1831 4219 
Q 1534 4219 1204 4116 
Q 875 4013 500 3803 
L 500 4441 
Q 881 4594 1212 4672 
Q 1544 4750 1819 4750 
Q 2544 4750 2975 4387 
Q 3406 4025 3406 3419 
Q 3406 3131 3298 2873 
Q 3191 2616 2906 2266 
Q 2828 2175 2409 1742 
Q 1991 1309 1228 531 
z
" transform="scale(0.015625)"/>
       </defs>
       <use xlink:href="#DejaVuSans-32"/>
       <use xlink:href="#DejaVuSans-30" x="63.623047"/>
      </g>
     </g>
    </g>
    <g id="xtick_6">
     <g id="line2d_6">
      <g>
       <use xlink:href="#mbc179725be" x="662.210884" y="256.32" style="stroke: #000000; stroke-width: 0.8"/>
      </g>
     </g>
     <g id="text_6">
      <!-- 25 -->
      <g transform="translate(655.848384 270.918437) scale(0.1 -0.1)">
       <use xlink:href="#DejaVuSans-32"/>
       <use xlink:href="#DejaVuSans-35" x="63.623047"/>
      </g>
     </g>
    </g>
    <g id="xtick_7">
     <g id="line2d_7">
      <g>
       <use xlink:href="#mbc179725be" x="767.653061" y="256.32" style="stroke: #000000; stroke-width: 0.8"/>
      </g>
     </g>
     <g id="text_7">
      <!-- 30 -->
      <g transform="translate(761.290561 270.918437) scale(0.1 -0.1)">
       <defs>
        <path id="DejaVuSans-33" d="M 2597 2516 
Q 3050 2419 3304 2112 
Q 3559 1806 3559 1356 
Q 3559 666 3084 287 
Q 2609 -91 1734 -91 
Q 1441 -91 1130 -33 
Q 819 25 488 141 
L 488 750 
Q 750 597 1062 519 
Q 1375 441 1716 441 
Q 2309 441 2620 675 
Q 2931 909 2931 1356 
Q 2931 1769 2642 2001 
Q 2353 2234 1838 2234 
L 1294 2234 
L 1294 2753 
L 1863 2753 
Q 2328 2753 2575 2939 
Q 2822 3125 2822 3475 
Q 2822 3834 2567 4026 
Q 2313 4219 1838 4219 
Q 1578 4219 1281 4162 
Q 984 4106 628 3988 
L 628 4550 
Q 988 4650 1302 4700 
Q 1616 4750 1894 4750 
Q 2613 4750 3031 4423 
Q 3450 4097 3450 3541 
Q 3450 3153 3228 2886 
Q 3006 2619 2597 2516 
z
" transform="scale(0.015625)"/>
       </defs>
       <use xlink:href="#DejaVuSans-33"/>
       <use xlink:href="#DejaVuSans-30" x="63.623047"/>
      </g>
     </g>
    </g>
    <g id="xtick_8">
     <g id="line2d_8">
      <g>
       <use xlink:href="#mbc179725be" x="873.095238" y="256.32" style="stroke: #000000; stroke-width: 0.8"/>
      </g>
     </g>
     <g id="text_8">
      <!-- 35 -->
      <g transform="translate(866.732738 270.918437) scale(0.1 -0.1)">
       <use xlink:href="#DejaVuSans-33"/>
       <use xlink:href="#DejaVuSans-35" x="63.623047"/>
      </g>
     </g>
    </g>
    <g id="text_9">
     <!-- time in process (seconds) -->
     <g transform="translate(489.328125 284.596563) scale(0.1 -0.1)">
      <defs>
       <path id="DejaVuSans-74" d="M 1172 4494 
L 1172 3500 
L 2356 3500 
L 2356 3053 
L 1172 3053 
L 1172 1153 
Q 1172 725 1289 603 
Q 1406 481 1766 481 
L 2356 481 
L 2356 0 
L 1766 0 
Q 1100 0 847 248 
Q 594 497 594 1153 
L 594 3053 
L 172 3053 
L 172 3500 
L 594 3500 
L 594 4494 
L 1172 4494 
z
" transform="scale(0.015625)"/>
       <path id="DejaVuSans-69" d="M 603 3500 
L 1178 3500 
L 1178 0 
L 603 0 
L 603 3500 
z
M 603 4863 
L 1178 4863 
L 1178 4134 
L 603 4134 
L 603 4863 
z
" transform="scale(0.015625)"/>
       <path id="DejaVuSans-6d" d="M 3328 2828 
Q 3544 3216 3844 3400 
Q 4144 3584 4550 3584 
Q 5097 3584 5394 3201 
Q 5691 2819 5691 2113 
L 5691 0 
L 5113 0 
L 5113 2094 
Q 5113 2597 4934 2840 
Q 4756 3084 4391 3084 
Q 3944 3084 3684 2787 
Q 3425 2491 3425 1978 
L 3425 0 
L 2847 0 
L 2847 2094 
Q 2847 2600 2669 2842 
Q 2491 3084 2119 3084 
Q 1678 3084 1418 2786 
Q 1159 2488 1159 1978 
L 1159 0 
L 581 0 
L 581 3500 
L 1159 3500 
L 1159 2956 
Q 1356 3278 1631 3431 
Q 1906 3584 2284 3584 
Q 2666 3584 2933 3390 
Q 3200 3197 3328 2828 
z
" transform="scale(0.015625)"/>
       <path id="DejaVuSans-65" d="M 3597 1894 
L 3597 1613 
L 953 1613 
Q 991 1019 1311 708 
Q 1631 397 2203 397 
Q 2534 397 2845 478 
Q 3156 559 3463 722 
L 3463 178 
Q 3153 47 2828 -22 
Q 2503 -91 2169 -91 
Q 1331 -91 842 396 
Q 353 884 353 1716 
Q 353 2575 817 3079 
Q 1281 3584 2069 3584 
Q 2775 3584 3186 3129 
Q 3597 2675 3597 1894 
z
M 3022 2063 
Q 3016 2534 2758 2815 
Q 2500 3097 2075 3097 
Q 1594 3097 1305 2825 
Q 1016 2553 972 2059 
L 3022 2063 
z
" transform="scale(0.015625)"/>
       <path id="DejaVuSans-20" transform="scale(0.015625)"/>
       <path id="DejaVuSans-6e" d="M 3513 2113 
L 3513 0 
L 2938 0 
L 2938 2094 
Q 2938 2591 2744 2837 
Q 2550 3084 2163 3084 
Q 1697 3084 1428 2787 
Q 1159 2491 1159 1978 
L 1159 0 
L 581 0 
L 581 3500 
L 1159 3500 
L 1159 2956 
Q 1366 3272 1645 3428 
Q 1925 3584 2291 3584 
Q 2894 3584 3203 3211 
Q 3513 2838 3513 2113 
z
" transform="scale(0.015625)"/>
       <path id="DejaVuSans-70" d="M 1159 525 
L 1159 -1331 
L 581 -1331 
L 581 3500 
L 1159 3500 
L 1159 2969 
Q 1341 3281 1617 3432 
Q 1894 3584 2278 3584 
Q 2916 3584 3314 3078 
Q 3713 2572 3713 1747 
Q 3713 922 3314 415 
Q 2916 -91 2278 -91 
Q 1894 -91 1617 61 
Q 1341 213 1159 525 
z
M 3116 1747 
Q 3116 2381 2855 2742 
Q 2594 3103 2138 3103 
Q 1681 3103 1420 2742 
Q 1159 2381 1159 1747 
Q 1159 1113 1420 752 
Q 1681 391 2138 391 
Q 2594 391 2855 752 
Q 3116 1113 3116 1747 
z
" transform="scale(0.015625)"/>
       <path id="DejaVuSans-72" d="M 2631 2963 
Q 2534 3019 2420 3045 
Q 2306 3072 2169 3072 
Q 1681 3072 1420 2755 
Q 1159 2438 1159 1844 
L 1159 0 
L 581 0 
L 581 3500 
L 1159 3500 
L 1159 2956 
Q 1341 3275 1631 3429 
Q 1922 3584 2338 3584 
Q 2397 3584 2469 3576 
Q 2541 3569 2628 3553 
L 2631 2963 
z
" transform="scale(0.015625)"/>
       <path id="DejaVuSans-6f" d="M 1959 3097 
Q 1497 3097 1228 2736 
Q 959 2375 959 1747 
Q 959 1119 1226 758 
Q 1494 397 1959 397 
Q 2419 397 2687 759 
Q 2956 1122 2956 1747 
Q 2956 2369 2687 2733 
Q 2419 3097 1959 3097 
z
M 1959 3584 
Q 2709 3584 3137 3096 
Q 3566 2609 3566 1747 
Q 3566 888 3137 398 
Q 2709 -91 1959 -91 
Q 1206 -91 779 398 
Q 353 888 353 1747 
Q 353 2609 779 3096 
Q 1206 3584 1959 3584 
z
" transform="scale(0.015625)"/>
       <path id="DejaVuSans-63" d="M 3122 3366 
L 3122 2828 
Q 2878 2963 2633 3030 
Q 2388 3097 2138 3097 
Q 1578 3097 1268 2742 
Q 959 2388 959 1747 
Q 959 1106 1268 751 
Q 1578 397 2138 397 
Q 2388 397 2633 464 
Q 2878 531 3122 666 
L 3122 134 
Q 2881 22 2623 -34 
Q 2366 -91 2075 -91 
Q 1284 -91 818 406 
Q 353 903 353 1747 
Q 353 2603 823 3093 
Q 1294 3584 2113 3584 
Q 2378 3584 2631 3529 
Q 2884 3475 3122 3366 
z
" transform="scale(0.015625)"/>
       <path id="DejaVuSans-73" d="M 2834 3397 
L 2834 2853 
Q 2591 2978 2328 3040 
Q 2066 3103 1784 3103 
Q 1356 3103 1142 2972 
Q 928 2841 928 2578 
Q 928 2378 1081 2264 
Q 1234 2150 1697 2047 
L 1894 2003 
Q 2506 1872 2764 1633 
Q 3022 1394 3022 966 
Q 3022 478 2636 193 
Q 2250 -91 1575 -91 
Q 1294 -91 989 -36 
Q 684 19 347 128 
L 347 722 
Q 666 556 975 473 
Q 1284 391 1588 391 
Q 1994 391 2212 530 
Q 2431 669 2431 922 
Q 2431 1156 2273 1281 
Q 2116 1406 1581 1522 
L 1381 1569 
Q 847 1681 609 1914 
Q 372 2147 372 2553 
Q 372 3047 722 3315 
Q 1072 3584 1716 3584 
Q 2034 3584 2315 3537 
Q 2597 3491 2834 3397 
z
" transform="scale(0.015625)"/>
       <path id="DejaVuSans-28" d="M 1984 4856 
Q 1566 4138 1362 3434 
Q 1159 2731 1159 2009 
Q 1159 1288 1364 580 
Q 1569 -128 1984 -844 
L 1484 -844 
Q 1016 -109 783 600 
Q 550 1309 550 2009 
Q 550 2706 781 3412 
Q 1013 4119 1484 4856 
L 1984 4856 
z
" transform="scale(0.015625)"/>
       <path id="DejaVuSans-64" d="M 2906 2969 
L 2906 4863 
L 3481 4863 
L 3481 0 
L 2906 0 
L 2906 525 
Q 2725 213 2448 61 
Q 2172 -91 1784 -91 
Q 1150 -91 751 415 
Q 353 922 353 1747 
Q 353 2572 751 3078 
Q 1150 3584 1784 3584 
Q 2172 3584 2448 3432 
Q 2725 3281 2906 2969 
z
M 947 1747 
Q 947 1113 1208 752 
Q 1469 391 1925 391 
Q 2381 391 2643 752 
Q 2906 1113 2906 1747 
Q 2906 2381 2643 2742 
Q 2381 3103 1925 3103 
Q 1469 3103 1208 2742 
Q 947 2381 947 1747 
z
" transform="scale(0.015625)"/>
       <path id="DejaVuSans-29" d="M 513 4856 
L 1013 4856 
Q 1481 4119 1714 3412 
Q 1947 2706 1947 2009 
Q 1947 1309 1714 600 
Q 1481 -109 1013 -844 
L 513 -844 
Q 928 -128 1133 580 
Q 1338 1288 1338 2009 
Q 1338 2731 1133 3434 
Q 928 4138 513 4856 
z
" transform="scale(0.015625)"/>
      </defs>
      <use xlink:href="#DejaVuSans-74"/>
      <use xlink:href="#DejaVuSans-69" x="39.208984"/>
      <use xlink:href="#DejaVuSans-6d" x="66.992188"/>
      <use xlink:href="#DejaVuSans-65" x="164.404297"/>
      <use xlink:href="#DejaVuSans-20" x="225.927734"/>
      <use xlink:href="#DejaVuSans-69" x="257.714844"/>
      <use xlink:href="#DejaVuSans-6e" x="285.498047"/>
      <use xlink:href="#DejaVuSans-20" x="348.876953"/>
      <use xlink:href="#DejaVuSans-70" x="380.664062"/>
      <use xlink:href="#DejaVuSans-72" x="444.140625"/>
      <use xlink:href="#DejaVuSans-6f" x="483.003906"/>
      <use xlink:href="#DejaVuSans-63" x="544.185547"/>
      <use xlink:href="#DejaVuSans-65" x="599.166016"/>
      <use xlink:href="#DejaVuSans-73" x="660.689453"/>
      <use xlink:href="#DejaVuSans-73" x="712.789062"/>
      <use xlink:href="#DejaVuSans-20" x="764.888672"/>
      <use xlink:href="#DejaVuSans-28" x="796.675781"/>
      <use xlink:href="#DejaVuSans-73" x="835.689453"/>
      <use xlink:href="#DejaVuSans-65" x="887.789062"/>
      <use xlink:href="#DejaVuSans-63" x="949.3125"/>
      <use xlink:href="#DejaVuSans-6f" x="1004.292969"/>
      <use xlink:href="#DejaVuSans-6e" x="1065.474609"/>
      <use xlink:href="#DejaVuSans-64" x="1128.853516"/>
      <use xlink:href="#DejaVuSans-73" x="1192.330078"/>
      <use xlink:href="#DejaVuSans-29" x="1244.429688"/>
     </g>
    </g>
   </g>
   <g id="matplotlib.axis_2">
    <g id="ytick_1">
     <g id="line2d_9">
      <defs>
       <path id="m4559793cf4" d="M 0 0 
L -3.5 0 
" style="stroke: #000000; stroke-width: 0.8"/>
      </defs>
      <g>
       <use xlink:href="#m4559793cf4" x="135" y="256.32" style="stroke: #000000; stroke-width: 0.8"/>
      </g>
     </g>
     <g id="text_10">
      <!-- 0 -->
      <g transform="translate(121.6375 260.119219) scale(0.1 -0.1)">
       <use xlink:href="#DejaVuSans-30"/>
      </g>
     </g>
    </g>
    <g id="ytick_2">
     <g id="line2d_10">
      <g>
       <use xlink:href="#m4559793cf4" x="135" y="224.082756" style="stroke: #000000; stroke-width: 0.8"/>
      </g>
     </g>
     <g id="text_11">
      <!-- 500 -->
      <g transform="translate(108.9125 227.881975) scale(0.1 -0.1)">
       <use xlink:href="#DejaVuSans-35"/>
       <use xlink:href="#DejaVuSans-30" x="63.623047"/>
       <use xlink:href="#DejaVuSans-30" x="127.246094"/>
      </g>
     </g>
    </g>
    <g id="ytick_3">
     <g id="line2d_11">
      <g>
       <use xlink:href="#m4559793cf4" x="135" y="191.845512" style="stroke: #000000; stroke-width: 0.8"/>
      </g>
     </g>
     <g id="text_12">
      <!-- 1000 -->
      <g transform="translate(102.55 195.644731) scale(0.1 -0.1)">
       <use xlink:href="#DejaVuSans-31"/>
       <use xlink:href="#DejaVuSans-30" x="63.623047"/>
       <use xlink:href="#DejaVuSans-30" x="127.246094"/>
       <use xlink:href="#DejaVuSans-30" x="190.869141"/>
      </g>
     </g>
    </g>
    <g id="ytick_4">
     <g id="line2d_12">
      <g>
       <use xlink:href="#m4559793cf4" x="135" y="159.608269" style="stroke: #000000; stroke-width: 0.8"/>
      </g>
     </g>
     <g id="text_13">
      <!-- 1500 -->
      <g transform="translate(102.55 163.407487) scale(0.1 -0.1)">
       <use xlink:href="#DejaVuSans-31"/>
       <use xlink:href="#DejaVuSans-35" x="63.623047"/>
       <use xlink:href="#DejaVuSans-30" x="127.246094"/>
       <use xlink:href="#DejaVuSans-30" x="190.869141"/>
      </g>
     </g>
    </g>
    <g id="ytick_5">
     <g id="line2d_13">
      <g>
       <use xlink:href="#m4559793cf4" x="135" y="127.371025" style="stroke: #000000; stroke-width: 0.8"/>
      </g>
     </g>
     <g id="text_14">
      <!-- 2000 -->
      <g transform="translate(102.55 131.170244) scale(0.1 -0.1)">
       <use xlink:href="#DejaVuSans-32"/>
       <use xlink:href="#DejaVuSans-30" x="63.623047"/>
       <use xlink:href="#DejaVuSans-30" x="127.246094"/>
       <use xlink:href="#DejaVuSans-30" x="190.869141"/>
      </g>
     </g>
    </g>
    <g id="ytick_6">
     <g id="line2d_14">
      <g>
       <use xlink:href="#m4559793cf4" x="135" y="95.133781" style="stroke: #000000; stroke-width: 0.8"/>
      </g>
     </g>
     <g id="text_15">
      <!-- 2500 -->
      <g transform="translate(102.55 98.933) scale(0.1 -0.1)">
       <use xlink:href="#DejaVuSans-32"/>
       <use xlink:href="#DejaVuSans-35" x="63.623047"/>
       <use xlink:href="#DejaVuSans-30" x="127.246094"/>
       <use xlink:href="#DejaVuSans-30" x="190.869141"/>
      </g>
     </g>
    </g>
    <g id="ytick_7">
     <g id="line2d_15">
      <g>
       <use xlink:href="#m4559793cf4" x="135" y="62.896537" style="stroke: #000000; stroke-width: 0.8"/>
      </g>
     </g>
     <g id="text_16">
      <!-- 3000 -->
      <g transform="translate(102.55 66.695756) scale(0.1 -0.1)">
       <use xlink:href="#DejaVuSans-33"/>
       <use xlink:href="#DejaVuSans-30" x="63.623047"/>
       <use xlink:href="#DejaVuSans-30" x="127.246094"/>
       <use xlink:href="#DejaVuSans-30" x="190.869141"/>
      </g>
     </g>
    </g>
    <g id="text_17">
     <!-- % CPU usilization -->
     <g transform="translate(96.470312 188.740781) rotate(-90) scale(0.1 -0.1)">
      <defs>
       <path id="DejaVuSans-25" d="M 4653 2053 
Q 4381 2053 4226 1822 
Q 4072 1591 4072 1178 
Q 4072 772 4226 539 
Q 4381 306 4653 306 
Q 4919 306 5073 539 
Q 5228 772 5228 1178 
Q 5228 1588 5073 1820 
Q 4919 2053 4653 2053 
z
M 4653 2450 
Q 5147 2450 5437 2106 
Q 5728 1763 5728 1178 
Q 5728 594 5436 251 
Q 5144 -91 4653 -91 
Q 4153 -91 3862 251 
Q 3572 594 3572 1178 
Q 3572 1766 3864 2108 
Q 4156 2450 4653 2450 
z
M 1428 4353 
Q 1159 4353 1004 4120 
Q 850 3888 850 3481 
Q 850 3069 1003 2837 
Q 1156 2606 1428 2606 
Q 1700 2606 1854 2837 
Q 2009 3069 2009 3481 
Q 2009 3884 1853 4118 
Q 1697 4353 1428 4353 
z
M 4250 4750 
L 4750 4750 
L 1831 -91 
L 1331 -91 
L 4250 4750 
z
M 1428 4750 
Q 1922 4750 2215 4408 
Q 2509 4066 2509 3481 
Q 2509 2891 2217 2550 
Q 1925 2209 1428 2209 
Q 931 2209 642 2551 
Q 353 2894 353 3481 
Q 353 4063 643 4406 
Q 934 4750 1428 4750 
z
" transform="scale(0.015625)"/>
       <path id="DejaVuSans-43" d="M 4122 4306 
L 4122 3641 
Q 3803 3938 3442 4084 
Q 3081 4231 2675 4231 
Q 1875 4231 1450 3742 
Q 1025 3253 1025 2328 
Q 1025 1406 1450 917 
Q 1875 428 2675 428 
Q 3081 428 3442 575 
Q 3803 722 4122 1019 
L 4122 359 
Q 3791 134 3420 21 
Q 3050 -91 2638 -91 
Q 1578 -91 968 557 
Q 359 1206 359 2328 
Q 359 3453 968 4101 
Q 1578 4750 2638 4750 
Q 3056 4750 3426 4639 
Q 3797 4528 4122 4306 
z
" transform="scale(0.015625)"/>
       <path id="DejaVuSans-50" d="M 1259 4147 
L 1259 2394 
L 2053 2394 
Q 2494 2394 2734 2622 
Q 2975 2850 2975 3272 
Q 2975 3691 2734 3919 
Q 2494 4147 2053 4147 
L 1259 4147 
z
M 628 4666 
L 2053 4666 
Q 2838 4666 3239 4311 
Q 3641 3956 3641 3272 
Q 3641 2581 3239 2228 
Q 2838 1875 2053 1875 
L 1259 1875 
L 1259 0 
L 628 0 
L 628 4666 
z
" transform="scale(0.015625)"/>
       <path id="DejaVuSans-55" d="M 556 4666 
L 1191 4666 
L 1191 1831 
Q 1191 1081 1462 751 
Q 1734 422 2344 422 
Q 2950 422 3222 751 
Q 3494 1081 3494 1831 
L 3494 4666 
L 4128 4666 
L 4128 1753 
Q 4128 841 3676 375 
Q 3225 -91 2344 -91 
Q 1459 -91 1007 375 
Q 556 841 556 1753 
L 556 4666 
z
" transform="scale(0.015625)"/>
       <path id="DejaVuSans-75" d="M 544 1381 
L 544 3500 
L 1119 3500 
L 1119 1403 
Q 1119 906 1312 657 
Q 1506 409 1894 409 
Q 2359 409 2629 706 
Q 2900 1003 2900 1516 
L 2900 3500 
L 3475 3500 
L 3475 0 
L 2900 0 
L 2900 538 
Q 2691 219 2414 64 
Q 2138 -91 1772 -91 
Q 1169 -91 856 284 
Q 544 659 544 1381 
z
M 1991 3584 
L 1991 3584 
z
" transform="scale(0.015625)"/>
       <path id="DejaVuSans-6c" d="M 603 4863 
L 1178 4863 
L 1178 0 
L 603 0 
L 603 4863 
z
" transform="scale(0.015625)"/>
       <path id="DejaVuSans-7a" d="M 353 3500 
L 3084 3500 
L 3084 2975 
L 922 459 
L 3084 459 
L 3084 0 
L 275 0 
L 275 525 
L 2438 3041 
L 353 3041 
L 353 3500 
z
" transform="scale(0.015625)"/>
       <path id="DejaVuSans-61" d="M 2194 1759 
Q 1497 1759 1228 1600 
Q 959 1441 959 1056 
Q 959 750 1161 570 
Q 1363 391 1709 391 
Q 2188 391 2477 730 
Q 2766 1069 2766 1631 
L 2766 1759 
L 2194 1759 
z
M 3341 1997 
L 3341 0 
L 2766 0 
L 2766 531 
Q 2569 213 2275 61 
Q 1981 -91 1556 -91 
Q 1019 -91 701 211 
Q 384 513 384 1019 
Q 384 1609 779 1909 
Q 1175 2209 1959 2209 
L 2766 2209 
L 2766 2266 
Q 2766 2663 2505 2880 
Q 2244 3097 1772 3097 
Q 1472 3097 1187 3025 
Q 903 2953 641 2809 
L 641 3341 
Q 956 3463 1253 3523 
Q 1550 3584 1831 3584 
Q 2591 3584 2966 3190 
Q 3341 2797 3341 1997 
z
" transform="scale(0.015625)"/>
      </defs>
      <use xlink:href="#DejaVuSans-25"/>
      <use xlink:href="#DejaVuSans-20" x="95.019531"/>
      <use xlink:href="#DejaVuSans-43" x="126.806641"/>
      <use xlink:href="#DejaVuSans-50" x="196.630859"/>
      <use xlink:href="#DejaVuSans-55" x="256.933594"/>
      <use xlink:href="#DejaVuSans-20" x="330.126953"/>
      <use xlink:href="#DejaVuSans-75" x="361.914062"/>
      <use xlink:href="#DejaVuSans-73" x="425.292969"/>
      <use xlink:href="#DejaVuSans-69" x="477.392578"/>
      <use xlink:href="#DejaVuSans-6c" x="505.175781"/>
      <use xlink:href="#DejaVuSans-69" x="532.958984"/>
      <use xlink:href="#DejaVuSans-7a" x="560.742188"/>
      <use xlink:href="#DejaVuSans-61" x="613.232422"/>
      <use xlink:href="#DejaVuSans-74" x="674.511719"/>
      <use xlink:href="#DejaVuSans-69" x="713.720703"/>
      <use xlink:href="#DejaVuSans-6f" x="741.503906"/>
      <use xlink:href="#DejaVuSans-6e" x="802.685547"/>
     </g>
    </g>
   </g>
   <g id="line2d_16">
    <path d="M 135 80.949394 
L 137.108844 166.700462 
L 139.217687 62.251792 
L 141.326531 67.409751 
L 143.435374 77.080925 
L 145.544218 129.950004 
L 147.653061 247.293572 
L 149.761905 95.133781 
L 151.870748 46.133171 
L 153.979592 56.449089 
L 156.088435 124.1473 
L 158.197279 158.447728 
L 160.306122 70.633476 
L 162.414966 46.133171 
L 164.52381 82.238884 
L 166.632653 130.594749 
L 168.741497 193.135002 
L 170.85034 140.910667 
L 172.959184 46.777915 
L 175.068027 46.133171 
L 177.176871 84.817863 
L 179.285714 193.779747 
L 181.394558 47.42266 
L 183.503401 46.133171 
L 185.612245 97.454863 
L 187.721088 194.424492 
L 189.829932 46.133171 
L 191.938776 46.777915 
L 194.047619 69.343986 
L 196.156463 184.753319 
L 198.265306 46.133171 
L 200.37415 46.777915 
L 202.482993 68.054496 
L 204.591837 160.897758 
L 206.70068 48.71215 
L 208.809524 195.069237 
L 210.918367 172.503166 
L 213.027211 64.637348 
L 215.136054 48.067405 
L 217.244898 87.396843 
L 219.353741 191.845512 
L 221.462585 56.449089 
L 223.571429 48.067405 
L 225.680272 66.120262 
L 227.789116 159.608269 
L 229.897959 80.949394 
L 232.006803 48.067405 
L 234.115646 62.251792 
L 236.22449 141.555412 
L 238.333333 115.120872 
L 240.442177 229.240715 
L 242.55102 64.057078 
L 244.659864 46.777915 
L 246.768707 68.054496 
L 248.877551 163.476738 
L 250.986395 66.765007 
L 253.095238 46.777915 
L 255.204082 71.278221 
L 257.312925 167.345207 
L 259.421769 67.409751 
L 261.530612 46.133171 
L 263.639456 66.120262 
L 265.748299 171.213676 
L 267.857143 60.962303 
L 269.965986 65.217619 
L 272.07483 72.56771 
L 274.183673 162.831993 
L 276.292517 48.71215 
L 278.401361 158.963524 
L 280.510204 195.713982 
L 282.619048 141.555412 
L 284.727891 46.777915 
L 286.836735 48.71215 
L 288.945578 124.792045 
L 291.054422 152.516075 
L 293.163265 45.488426 
L 295.272109 48.067405 
L 297.380952 89.975822 
L 299.489796 201.22655 
L 301.598639 44.843681 
L 303.707483 47.42266 
L 305.816327 77.080925 
L 307.92517 142.844902 
L 310.034014 175.726891 
L 312.142857 124.1473 
L 314.251701 46.133171 
L 316.360544 46.133171 
L 318.469388 97.068016 
L 320.578231 166.700462 
L 322.687075 46.133171 
L 324.795918 45.488426 
L 326.904762 98.357505 
L 329.013605 173.663707 
L 331.122449 46.133171 
L 333.231293 46.133171 
L 335.340136 93.199546 
L 337.44898 165.410973 
L 339.557823 45.488426 
L 341.666667 47.42266 
L 343.77551 96.423271 
L 345.884354 133.173729 
L 347.993197 71.922966 
L 350.102041 240.846123 
L 352.210884 69.988731 
L 354.319728 46.133171 
L 356.428571 60.962303 
L 358.537415 144.39229 
L 360.646259 120.278831 
L 362.755102 46.777915 
L 364.863946 46.777915 
L 366.972789 120.923576 
L 369.081633 143.489647 
L 371.190476 46.133171 
L 373.29932 48.067405 
L 375.408163 100.936485 
L 377.517007 130.594749 
L 379.62585 233.109184 
L 381.734694 52.580619 
L 383.843537 46.777915 
L 385.952381 77.532246 
L 388.061224 141.555412 
L 390.170068 106.094444 
L 392.278912 46.777915 
L 394.387755 59.028068 
L 396.496599 137.686943 
L 398.605442 107.383934 
L 400.714286 46.777915 
L 402.823129 58.383323 
L 404.931973 142.200157 
L 407.040816 97.068016 
L 409.14966 46.133171 
L 411.258503 65.475517 
L 413.367347 151.87133 
L 415.47619 79.337532 
L 417.585034 141.555412 
L 419.693878 211.187859 
L 421.802721 44.843681 
L 423.911565 46.133171 
L 426.020408 79.659904 
L 428.129252 177.661125 
L 430.238095 55.804344 
L 432.346939 46.133171 
L 434.455782 77.725669 
L 436.564626 162.187248 
L 438.673469 84.817863 
L 440.782313 46.133171 
L 442.891156 65.475517 
L 445 153.74109 
L 447.108844 105.449699 
L 449.217687 211.187859 
L 451.326531 46.777915 
L 453.435374 47.42266 
L 455.544218 71.922966 
L 457.653061 175.082146 
L 459.761905 60.317558 
L 461.870748 46.777915 
L 463.979592 70.633476 
L 466.088435 171.213676 
L 468.197279 65.475517 
L 470.306122 47.42266 
L 472.414966 86.365251 
L 474.52381 172.503166 
L 476.632653 62.251792 
L 478.741497 47.42266 
L 480.85034 68.054496 
L 482.959184 160.253014 
L 485.068027 46.777915 
L 487.176871 166.700462 
L 489.285714 197.003471 
L 491.394558 44.843681 
L 493.503401 48.067405 
L 495.612245 73.8572 
L 497.721088 187.977043 
L 499.829932 48.067405 
L 501.938776 68.183445 
L 504.047619 73.8572 
L 506.156463 171.858421 
L 508.265306 69.343986 
L 510.37415 48.067405 
L 512.482993 66.765007 
L 514.591837 148.002861 
L 516.70068 120.923576 
L 518.809524 181.529594 
L 520.918367 46.133171 
L 523.027211 46.133171 
L 525.136054 74.501945 
L 527.244898 184.753319 
L 529.353741 64.057078 
L 531.462585 46.777915 
L 533.571429 75.791435 
L 535.680272 185.398064 
L 537.789116 44.843681 
L 539.897959 46.777915 
L 542.006803 77.080925 
L 544.115646 188.621788 
L 546.22449 44.843681 
L 548.333333 46.777915 
L 550.442177 73.212455 
L 552.55102 155.739799 
L 554.659864 54.514854 
L 556.768707 201.806821 
L 558.877551 244.714592 
L 560.986395 249.872551 
L 575.748299 249.872551 
L 575.748299 249.872551 
" clip-path="url(#p5450a35053)" style="fill: none; stroke: #ff7f0e; stroke-width: 1.5; stroke-linecap: square"/>
   </g>
   <g id="line2d_17">
    <path d="M 135 119.763035 
L 137.108844 168.634697 
L 139.217687 128.660515 
L 141.326531 123.502556 
L 143.435374 122.213066 
L 145.544218 182.819084 
L 147.653061 204.74041 
L 149.761905 221.503777 
L 151.870748 216.990563 
L 153.979592 232.46444 
L 156.088435 249.227806 
L 160.306122 128.660515 
L 162.414966 138.331688 
L 164.52381 131.239494 
L 166.632653 190.556023 
L 168.741497 189.911278 
L 170.85034 228.59597 
L 172.959184 211.187859 
L 175.068027 226.661736 
L 177.176871 233.753929 
L 179.285714 117.055107 
L 181.394558 130.594749 
L 183.503401 101.58123 
L 185.612245 191.200768 
L 187.721088 201.516686 
L 189.829932 226.016991 
L 191.938776 200.871941 
L 194.047619 224.727501 
L 196.156463 167.989952 
L 198.265306 244.069847 
L 200.37415 238.267143 
L 202.482993 94.489036 
L 204.591837 115.120872 
L 206.70068 109.962913 
L 208.809524 183.657253 
L 210.918367 229.88546 
L 213.027211 204.095665 
L 215.136054 227.306481 
L 217.244898 136.397453 
L 219.353741 115.765617 
L 221.462585 80.304649 
L 223.571429 182.819084 
L 225.680272 215.701073 
L 227.789116 211.832604 
L 229.897959 222.793266 
L 232.006803 211.832604 
L 234.115646 104.804954 
L 236.22449 99.00225 
L 238.333333 132.528984 
L 240.442177 188.621788 
L 242.55102 227.306481 
L 244.659864 201.22655 
L 246.768707 242.780358 
L 248.877551 160.897758 
L 250.986395 108.673423 
L 253.095238 88.686332 
L 255.204082 166.055717 
L 257.312925 206.674645 
L 259.421769 215.701073 
L 261.530612 211.832604 
L 265.748299 124.792045 
L 267.857143 215.056328 
L 269.965986 232.46444 
L 272.07483 242.780358 
L 274.183673 172.503166 
L 276.292517 124.792045 
L 278.401361 104.160209 
L 280.510204 157.287187 
L 282.619048 181.529594 
L 284.727891 229.240715 
L 286.836735 213.766838 
L 288.945578 213.122093 
L 291.054422 233.109184 
L 293.163265 133.818474 
L 295.272109 146.068626 
L 297.380952 146.068626 
L 299.489796 142.844902 
L 301.598639 182.819084 
L 303.707483 230.530205 
L 305.816327 211.187859 
L 307.92517 228.59597 
L 310.034014 176.371635 
L 312.142857 127.371025 
L 314.251701 114.476127 
L 318.469388 186.687553 
L 320.578231 233.753929 
L 322.687075 212.477348 
L 324.795918 222.148522 
L 326.904762 162.831993 
L 329.013605 236.332909 
L 331.122449 247.938317 
L 333.231293 111.252403 
L 335.340136 118.344597 
L 337.44898 98.357505 
L 339.557823 183.463829 
L 341.666667 218.280052 
L 343.77551 215.056328 
L 345.884354 214.411583 
L 347.993197 188.621788 
L 350.102041 131.239494 
L 352.210884 120.923576 
L 354.319728 133.818474 
L 356.428571 186.687553 
L 358.537415 229.88546 
L 360.646259 202.16143 
L 362.755102 238.911888 
L 364.863946 120.278831 
L 366.972789 121.568321 
L 369.081633 94.489036 
L 371.190476 187.977043 
L 373.29932 217.635307 
L 375.408163 214.411583 
L 377.517007 220.859032 
L 379.62585 200.871941 
L 381.734694 115.765617 
L 383.843537 99.646995 
L 385.952381 140.910667 
L 388.061224 196.532808 
L 390.170068 229.240715 
L 392.278912 206.0299 
L 394.387755 238.267143 
L 396.496599 115.120872 
L 398.605442 161.542503 
L 400.714286 226.016991 
L 402.823129 245.359337 
L 404.931973 215.056328 
L 407.040816 114.476127 
L 409.14966 140.910667 
L 411.258503 124.792045 
L 413.367347 184.753319 
L 415.47619 204.095665 
L 417.585034 227.306481 
L 419.693878 208.608879 
L 421.802721 228.770051 
L 423.911565 200.227196 
L 426.020408 118.989341 
L 428.129252 126.081535 
L 430.238095 124.1473 
L 432.346939 191.200768 
L 434.455782 214.411583 
L 436.564626 218.924797 
L 438.673469 208.608879 
L 440.782313 242.780358 
L 442.891156 120.278831 
L 445 131.239494 
L 447.108844 103.515464 
L 449.217687 182.819084 
L 451.326531 202.16143 
L 453.435374 230.530205 
L 455.544218 202.16143 
L 457.653061 222.322603 
L 459.761905 175.726891 
L 461.870748 243.425102 
L 463.979592 216.345818 
L 466.088435 99.646995 
L 468.197279 109.318168 
L 470.306122 120.923576 
L 472.414966 182.819084 
L 474.52381 228.59597 
L 476.632653 210.543114 
L 478.741497 228.59597 
L 480.85034 135.107963 
L 482.959184 117.699852 
L 485.068027 86.107353 
L 487.176871 186.042809 
L 489.285714 206.0299 
L 491.394558 220.859032 
L 493.503401 211.187859 
L 495.612245 233.753929 
L 497.721088 102.225975 
L 499.829932 128.01577 
L 501.938776 110.607658 
L 504.047619 184.108574 
L 506.156463 225.372246 
L 508.265306 210.543114 
L 510.37415 220.214287 
L 512.482993 224.082756 
L 514.591837 98.357505 
L 516.70068 115.120872 
L 518.809524 124.1473 
L 520.918367 180.240105 
L 523.027211 227.306481 
L 525.136054 204.74041 
L 527.244898 229.943487 
L 529.353741 117.699852 
L 531.462585 153.16082 
L 533.571429 222.148522 
L 535.680272 247.938317 
L 537.789116 190.556023 
L 539.897959 155.739799 
L 542.006803 133.173729 
L 544.115646 104.804954 
L 546.22449 193.135002 
L 548.333333 207.964134 
L 550.442177 226.661736 
L 552.55102 199.582451 
L 554.659864 244.714592 
L 556.768707 150.58184 
L 558.877551 133.173729 
L 560.986395 108.673423 
L 563.095238 164.121483 
L 565.204082 197.119526 
L 567.312925 233.109184 
L 569.421769 211.832604 
L 571.530612 227.951225 
L 573.639456 193.135002 
L 575.748299 120.923576 
L 577.857143 129.305259 
L 579.965986 126.72628 
L 582.07483 185.398064 
L 584.183673 228.59597 
L 586.292517 215.056328 
L 588.401361 222.793266 
L 590.510204 160.253014 
L 592.619048 240.201378 
L 594.727891 247.293572 
L 596.836735 102.225975 
L 598.945578 114.476127 
L 601.054422 119.182765 
L 605.272109 233.753929 
L 607.380952 207.964134 
L 609.489796 224.727501 
L 611.598639 162.831993 
L 613.707483 112.541893 
L 615.816327 90.620567 
L 617.92517 167.989952 
L 620.034014 213.766838 
L 622.142857 224.082756 
L 624.251701 203.45092 
L 626.360544 225.372246 
L 628.469388 110.607658 
L 630.578231 124.792045 
L 632.687075 113.831382 
L 634.795918 177.661125 
L 636.904762 235.804218 
L 639.013605 207.319389 
L 641.122449 235.688164 
L 643.231293 164.766228 
L 645.340136 113.186638 
L 647.44898 88.041587 
L 649.557823 175.082146 
L 651.666667 203.45092 
L 653.77551 224.082756 
L 655.884354 205.385155 
L 657.993197 175.726891 
L 660.102041 124.1473 
L 662.210884 215.056328 
L 664.319728 233.109184 
L 666.428571 239.556633 
L 668.537415 119.634086 
L 670.646259 146.713371 
L 672.755102 104.804954 
L 674.863946 184.108574 
L 676.972789 205.385155 
L 679.081633 229.240715 
L 681.190476 207.319389 
L 683.29932 234.398674 
L 685.408163 191.845512 
L 687.517007 124.1473 
L 689.62585 132.528984 
L 691.734694 124.1473 
L 693.843537 193.135002 
L 695.952381 216.990563 
L 698.061224 222.793266 
L 700.170068 204.74041 
L 702.278912 241.490868 
L 704.387755 153.16082 
L 706.496599 145.55283 
L 708.605442 109.318168 
L 710.714286 159.608269 
L 714.931973 233.109184 
L 717.040816 211.187859 
L 719.14966 223.438011 
L 721.258503 158.318779 
L 723.367347 240.846123 
L 725.47619 236.977654 
L 727.585034 99.00225 
L 729.693878 115.120872 
L 731.802721 119.634086 
L 733.911565 178.950615 
L 736.020408 231.17495 
L 738.129252 213.122093 
L 740.238095 221.503777 
L 742.346939 189.524431 
L 744.455782 115.120872 
L 746.564626 91.910057 
L 748.673469 157.674034 
L 750.782313 197.648216 
L 752.891156 229.88546 
L 755 201.516686 
L 757.108844 242.780358 
L 759.217687 123.502556 
L 761.326531 125.43679 
L 763.435374 87.396843 
L 765.544218 186.042809 
L 767.653061 213.766838 
L 769.761905 213.766838 
L 771.870748 219.569542 
L 773.979592 226.016991 
L 776.088435 99.00225 
L 778.197279 120.923576 
L 780.306122 128.660515 
L 782.414966 186.687553 
L 784.52381 231.17495 
L 786.632653 202.16143 
L 788.741497 225.372246 
L 790.85034 114.476127 
L 792.959184 171.858421 
L 795.068027 226.016991 
L 797.176871 249.872551 
L 799.285714 186.042809 
L 801.394558 131.884239 
L 803.503401 137.042198 
L 805.612245 144.779137 
L 807.721088 187.977043 
L 809.829932 201.516686 
L 811.938776 230.530205 
L 814.047619 211.774577 
L 816.156463 240.201378 
L 818.265306 170.568932 
L 820.37415 131.239494 
L 822.482993 117.699852 
L 824.591837 141.555412 
L 826.70068 186.687553 
L 828.809524 236.332909 
L 830.918367 223.438011 
L 833.027211 206.674645 
L 835.136054 246.004082 
L 837.244898 123.502556 
L 839.353741 141.555412 
L 841.462585 114.476127 
L 843.571429 168.634697 
L 845.680272 198.937706 
L 847.789116 233.109184 
L 849.897959 212.361294 
L 852.006803 229.88546 
L 854.115646 160.253014 
L 856.22449 241.490868 
L 858.333333 218.280052 
L 860.442177 102.225975 
L 862.55102 108.673423 
L 864.659864 128.660515 
L 866.768707 186.042809 
L 868.877551 232.46444 
L 870.986395 201.516686 
L 873.095238 228.59597 
L 875.204082 124.1473 
L 877.312925 120.923576 
L 879.421769 99.00225 
L 881.530612 184.753319 
L 883.639456 219.569542 
L 885.748299 215.288436 
L 887.857143 224.727501 
L 889.965986 178.950615 
L 892.07483 120.278831 
L 894.183673 98.357505 
L 896.292517 152.516075 
L 898.401361 198.292961 
L 900.510204 224.727501 
L 902.619048 210.543114 
L 904.727891 240.846123 
L 906.836735 107.383934 
L 908.945578 120.278831 
L 911.054422 110.607658 
L 915.272109 234.398674 
L 917.380952 211.832604 
L 919.489796 227.016345 
L 921.598639 133.818474 
L 923.707483 140.265922 
L 925.816327 229.88546 
L 927.92517 242.135613 
L 930.034014 250.517296 
L 932.142857 249.872551 
L 932.142857 249.872551 
" clip-path="url(#p5450a35053)" style="fill: none; stroke: #1f77b4; stroke-width: 1.5; stroke-linecap: square"/>
   </g>
   <g id="patch_3">
    <path d="M 135 256.32 
L 135 34.56 
" style="fill: none; stroke: #000000; stroke-width: 0.8; stroke-linejoin: miter; stroke-linecap: square"/>
   </g>
   <g id="patch_4">
    <path d="M 972 256.32 
L 972 34.56 
" style="fill: none; stroke: #000000; stroke-width: 0.8; stroke-linejoin: miter; stroke-linecap: square"/>
   </g>
   <g id="patch_5">
    <path d="M 135 256.32 
L 972 256.32 
" style="fill: none; stroke: #000000; stroke-width: 0.8; stroke-linejoin: miter; stroke-linecap: square"/>
   </g>
   <g id="patch_6">
    <path d="M 135 34.56 
L 972 34.56 
" style="fill: none; stroke: #000000; stroke-width: 0.8; stroke-linejoin: miter; stroke-linecap: square"/>
   </g>
   <g id="legend_1">
    <g id="patch_7">
     <path d="M 806.409375 71.91625 
L 965 71.91625 
Q 967 71.91625 967 69.91625 
L 967 41.56 
Q 967 39.56 965 39.56 
L 806.409375 39.56 
Q 804.409375 39.56 804.409375 41.56 
L 804.409375 69.91625 
Q 804.409375 71.91625 806.409375 71.91625 
z
" style="fill: #ffffff; opacity: 0.8; stroke: #cccccc; stroke-linejoin: miter"/>
    </g>
    <g id="line2d_18">
     <path d="M 808.409375 47.658437 
L 818.409375 47.658437 
L 828.409375 47.658437 
" style="fill: none; stroke: #ff7f0e; stroke-width: 1.5; stroke-linecap: square"/>
    </g>
    <g id="text_18">
     <!-- 32 thread, free-threading -->
     <g transform="translate(836.409375 51.158437) scale(0.1 -0.1)">
      <defs>
       <path id="DejaVuSans-68" d="M 3513 2113 
L 3513 0 
L 2938 0 
L 2938 2094 
Q 2938 2591 2744 2837 
Q 2550 3084 2163 3084 
Q 1697 3084 1428 2787 
Q 1159 2491 1159 1978 
L 1159 0 
L 581 0 
L 581 4863 
L 1159 4863 
L 1159 2956 
Q 1366 3272 1645 3428 
Q 1925 3584 2291 3584 
Q 2894 3584 3203 3211 
Q 3513 2838 3513 2113 
z
" transform="scale(0.015625)"/>
       <path id="DejaVuSans-2c" d="M 750 794 
L 1409 794 
L 1409 256 
L 897 -744 
L 494 -744 
L 750 256 
L 750 794 
z
" transform="scale(0.015625)"/>
       <path id="DejaVuSans-66" d="M 2375 4863 
L 2375 4384 
L 1825 4384 
Q 1516 4384 1395 4259 
Q 1275 4134 1275 3809 
L 1275 3500 
L 2222 3500 
L 2222 3053 
L 1275 3053 
L 1275 0 
L 697 0 
L 697 3053 
L 147 3053 
L 147 3500 
L 697 3500 
L 697 3744 
Q 697 4328 969 4595 
Q 1241 4863 1831 4863 
L 2375 4863 
z
" transform="scale(0.015625)"/>
       <path id="DejaVuSans-2d" d="M 313 2009 
L 1997 2009 
L 1997 1497 
L 313 1497 
L 313 2009 
z
" transform="scale(0.015625)"/>
       <path id="DejaVuSans-67" d="M 2906 1791 
Q 2906 2416 2648 2759 
Q 2391 3103 1925 3103 
Q 1463 3103 1205 2759 
Q 947 2416 947 1791 
Q 947 1169 1205 825 
Q 1463 481 1925 481 
Q 2391 481 2648 825 
Q 2906 1169 2906 1791 
z
M 3481 434 
Q 3481 -459 3084 -895 
Q 2688 -1331 1869 -1331 
Q 1566 -1331 1297 -1286 
Q 1028 -1241 775 -1147 
L 775 -588 
Q 1028 -725 1275 -790 
Q 1522 -856 1778 -856 
Q 2344 -856 2625 -561 
Q 2906 -266 2906 331 
L 2906 616 
Q 2728 306 2450 153 
Q 2172 0 1784 0 
Q 1141 0 747 490 
Q 353 981 353 1791 
Q 353 2603 747 3093 
Q 1141 3584 1784 3584 
Q 2172 3584 2450 3431 
Q 2728 3278 2906 2969 
L 2906 3500 
L 3481 3500 
L 3481 434 
z
" transform="scale(0.015625)"/>
      </defs>
      <use xlink:href="#DejaVuSans-33"/>
      <use xlink:href="#DejaVuSans-32" x="63.623047"/>
      <use xlink:href="#DejaVuSans-20" x="127.246094"/>
      <use xlink:href="#DejaVuSans-74" x="159.033203"/>
      <use xlink:href="#DejaVuSans-68" x="198.242188"/>
      <use xlink:href="#DejaVuSans-72" x="261.621094"/>
      <use xlink:href="#DejaVuSans-65" x="300.484375"/>
      <use xlink:href="#DejaVuSans-61" x="362.007812"/>
      <use xlink:href="#DejaVuSans-64" x="423.287109"/>
      <use xlink:href="#DejaVuSans-2c" x="486.763672"/>
      <use xlink:href="#DejaVuSans-20" x="518.550781"/>
      <use xlink:href="#DejaVuSans-66" x="550.337891"/>
      <use xlink:href="#DejaVuSans-72" x="585.542969"/>
      <use xlink:href="#DejaVuSans-65" x="624.40625"/>
      <use xlink:href="#DejaVuSans-65" x="685.929688"/>
      <use xlink:href="#DejaVuSans-2d" x="747.453125"/>
      <use xlink:href="#DejaVuSans-74" x="783.537109"/>
      <use xlink:href="#DejaVuSans-68" x="822.746094"/>
      <use xlink:href="#DejaVuSans-72" x="886.125"/>
      <use xlink:href="#DejaVuSans-65" x="924.988281"/>
      <use xlink:href="#DejaVuSans-61" x="986.511719"/>
      <use xlink:href="#DejaVuSans-64" x="1047.791016"/>
      <use xlink:href="#DejaVuSans-69" x="1111.267578"/>
      <use xlink:href="#DejaVuSans-6e" x="1139.050781"/>
      <use xlink:href="#DejaVuSans-67" x="1202.429688"/>
     </g>
    </g>
    <g id="line2d_19">
     <path d="M 808.409375 62.336562 
L 818.409375 62.336562 
L 828.409375 62.336562 
" style="fill: none; stroke: #1f77b4; stroke-width: 1.5; stroke-linecap: square"/>
    </g>
    <g id="text_19">
     <!-- 32 thread, GIL-bound -->
     <g transform="translate(836.409375 65.836562) scale(0.1 -0.1)">
      <defs>
       <path id="DejaVuSans-47" d="M 3809 666 
L 3809 1919 
L 2778 1919 
L 2778 2438 
L 4434 2438 
L 4434 434 
Q 4069 175 3628 42 
Q 3188 -91 2688 -91 
Q 1594 -91 976 548 
Q 359 1188 359 2328 
Q 359 3472 976 4111 
Q 1594 4750 2688 4750 
Q 3144 4750 3555 4637 
Q 3966 4525 4313 4306 
L 4313 3634 
Q 3963 3931 3569 4081 
Q 3175 4231 2741 4231 
Q 1884 4231 1454 3753 
Q 1025 3275 1025 2328 
Q 1025 1384 1454 906 
Q 1884 428 2741 428 
Q 3075 428 3337 486 
Q 3600 544 3809 666 
z
" transform="scale(0.015625)"/>
       <path id="DejaVuSans-49" d="M 628 4666 
L 1259 4666 
L 1259 0 
L 628 0 
L 628 4666 
z
" transform="scale(0.015625)"/>
       <path id="DejaVuSans-4c" d="M 628 4666 
L 1259 4666 
L 1259 531 
L 3531 531 
L 3531 0 
L 628 0 
L 628 4666 
z
" transform="scale(0.015625)"/>
       <path id="DejaVuSans-62" d="M 3116 1747 
Q 3116 2381 2855 2742 
Q 2594 3103 2138 3103 
Q 1681 3103 1420 2742 
Q 1159 2381 1159 1747 
Q 1159 1113 1420 752 
Q 1681 391 2138 391 
Q 2594 391 2855 752 
Q 3116 1113 3116 1747 
z
M 1159 2969 
Q 1341 3281 1617 3432 
Q 1894 3584 2278 3584 
Q 2916 3584 3314 3078 
Q 3713 2572 3713 1747 
Q 3713 922 3314 415 
Q 2916 -91 2278 -91 
Q 1894 -91 1617 61 
Q 1341 213 1159 525 
L 1159 0 
L 581 0 
L 581 4863 
L 1159 4863 
L 1159 2969 
z
" transform="scale(0.015625)"/>
      </defs>
      <use xlink:href="#DejaVuSans-33"/>
      <use xlink:href="#DejaVuSans-32" x="63.623047"/>
      <use xlink:href="#DejaVuSans-20" x="127.246094"/>
      <use xlink:href="#DejaVuSans-74" x="159.033203"/>
      <use xlink:href="#DejaVuSans-68" x="198.242188"/>
      <use xlink:href="#DejaVuSans-72" x="261.621094"/>
      <use xlink:href="#DejaVuSans-65" x="300.484375"/>
      <use xlink:href="#DejaVuSans-61" x="362.007812"/>
      <use xlink:href="#DejaVuSans-64" x="423.287109"/>
      <use xlink:href="#DejaVuSans-2c" x="486.763672"/>
      <use xlink:href="#DejaVuSans-20" x="518.550781"/>
      <use xlink:href="#DejaVuSans-47" x="550.337891"/>
      <use xlink:href="#DejaVuSans-49" x="627.828125"/>
      <use xlink:href="#DejaVuSans-4c" x="657.320312"/>
      <use xlink:href="#DejaVuSans-2d" x="711.283203"/>
      <use xlink:href="#DejaVuSans-62" x="747.367188"/>
      <use xlink:href="#DejaVuSans-6f" x="810.84375"/>
      <use xlink:href="#DejaVuSans-75" x="872.025391"/>
      <use xlink:href="#DejaVuSans-6e" x="935.404297"/>
      <use xlink:href="#DejaVuSans-64" x="998.783203"/>
     </g>
    </g>
   </g>
  </g>
 </g>
 <defs>
  <clipPath id="p5450a35053">
   <rect x="135" y="34.56" width="837" height="221.76"/>
  </clipPath>
 </defs>
</svg>
