<?xml version="1.0" encoding="UTF-8" standalone="no"?>
<svg
   width="887.16565pt"
   height="262.51624pt"
   viewBox="0 0 887.16565 262.51624"
   version="1.1"
   id="svg2531"
   sodipodi:docname="cpu-of-compute-gil-threads.svg"
   inkscape:version="1.1.2 (0a00cf5339, 2022-02-04)"
   xmlns:inkscape="http://www.inkscape.org/namespaces/inkscape"
   xmlns:sodipodi="http://sodipodi.sourceforge.net/DTD/sodipodi-0.dtd"
   xmlns:xlink="http://www.w3.org/1999/xlink"
   xmlns="http://www.w3.org/2000/svg"
   xmlns:svg="http://www.w3.org/2000/svg"
   xmlns:rdf="http://www.w3.org/1999/02/22-rdf-syntax-ns#"
   xmlns:cc="http://creativecommons.org/ns#"
   xmlns:dc="http://purl.org/dc/elements/1.1/">
  <sodipodi:namedview
     id="namedview2533"
     pagecolor="#ffffff"
     bordercolor="#666666"
     borderopacity="1.0"
     inkscape:pageshadow="2"
     inkscape:pageopacity="0.0"
     inkscape:pagecheckerboard="0"
     inkscape:document-units="pt"
     showgrid="false"
     fit-margin-top="5"
     fit-margin-left="5"
     fit-margin-right="5"
     fit-margin-bottom="5"
     inkscape:zoom="0.86805556"
     inkscape:cx="251.136"
     inkscape:cy="153.216"
     inkscape:window-width="2554"
     inkscape:window-height="1365"
     inkscape:window-x="1920"
     inkscape:window-y="32"
     inkscape:window-maximized="1"
     inkscape:current-layer="svg2531" />
  <metadata
     id="metadata2034">
    <rdf:RDF>
      <cc:Work>
        <dc:type
           rdf:resource="http://purl.org/dc/dcmitype/StillImage" />
        <dc:date>2024-10-07T19:07:12.175701</dc:date>
        <dc:format>image/svg+xml</dc:format>
        <dc:creator>
          <cc:Agent>
            <dc:title>Matplotlib v3.8.4, https://matplotlib.org/</dc:title>
          </cc:Agent>
        </dc:creator>
      </cc:Work>
    </rdf:RDF>
  </metadata>
  <defs
     id="defs2038">
    <style
       type="text/css"
       id="style2036">*{stroke-linejoin: round; stroke-linecap: butt}</style>
  </defs>
  <g
     id="axes_1"
     transform="translate(-90.234372,-29.16)">
    <g
       id="patch_2">
      <path
         d="M 135,256.32 H 972 V 34.56 H 135 Z"
         style="fill:#ffffff"
         id="path2043" />
    </g>
    <g
       id="matplotlib.axis_1">
      <g
         id="xtick_1">
        <g
           id="line2d_1">
          <defs
             id="defs2047">
            <path
               id="m13aa7aa5ba"
               d="M 0,0 V 3.5"
               style="stroke:#000000;stroke-width:0.8" />
          </defs>
          <g
             id="g2051">
            <use
               xlink:href="#m13aa7aa5ba"
               x="135"
               y="256.32001"
               style="stroke:#000000;stroke-width:0.8"
               id="use2049"
               width="100%"
               height="100%" />
          </g>
        </g>
        <g
           id="text_1">
          <!-- 0 -->
          <g
             transform="matrix(0.1,0,0,-0.1,131.81875,270.91844)"
             id="g2059">
            <defs
               id="defs2055">
              <path
                 id="DejaVuSans-30"
                 d="m 2034,4250 q -487,0 -733,-480 -245,-479 -245,-1442 0,-959 245,-1439 246,-480 733,-480 491,0 736,480 246,480 246,1439 0,963 -246,1442 -245,480 -736,480 z m 0,500 q 785,0 1199,-621 414,-620 414,-1801 0,-1178 -414,-1799 -414,-620 -1199,-620 -784,0 -1198,620 -414,621 -414,1799 0,1181 414,1801 414,621 1198,621 z"
                 transform="scale(0.015625)" />
            </defs>
            <use
               xlink:href="#DejaVuSans-30"
               id="use2057"
               x="0"
               y="0"
               width="100%"
               height="100%" />
          </g>
        </g>
      </g>
      <g
         id="xtick_2">
        <g
           id="line2d_2">
          <g
             id="g2065">
            <use
               xlink:href="#m13aa7aa5ba"
               x="282.00974"
               y="256.32001"
               style="stroke:#000000;stroke-width:0.8"
               id="use2063"
               width="100%"
               height="100%" />
          </g>
        </g>
        <g
           id="text_2">
          <!-- 20 -->
          <g
             transform="matrix(0.1,0,0,-0.1,275.64725,270.91844)"
             id="g2075">
            <defs
               id="defs2069">
              <path
                 id="DejaVuSans-32"
                 d="M 1228,531 H 3431 V 0 H 469 v 531 q 359,372 979,998 621,627 780,809 303,340 423,576 121,236 121,464 0,372 -261,606 -261,235 -680,235 -297,0 -627,-103 -329,-103 -704,-313 v 638 q 381,153 712,231 332,78 607,78 725,0 1156,-363 431,-362 431,-968 0,-288 -108,-546 -107,-257 -392,-607 -78,-91 -497,-524 Q 1991,1309 1228,531 Z"
                 transform="scale(0.015625)" />
            </defs>
            <use
               xlink:href="#DejaVuSans-32"
               id="use2071"
               x="0"
               y="0"
               width="100%"
               height="100%" />
            <use
               xlink:href="#DejaVuSans-30"
               x="63.623047"
               id="use2073"
               y="0"
               width="100%"
               height="100%" />
          </g>
        </g>
      </g>
      <g
         id="xtick_3">
        <g
           id="line2d_3">
          <g
             id="g2081">
            <use
               xlink:href="#m13aa7aa5ba"
               x="429.0195"
               y="256.32001"
               style="stroke:#000000;stroke-width:0.8"
               id="use2079"
               width="100%"
               height="100%" />
          </g>
        </g>
        <g
           id="text_3">
          <!-- 40 -->
          <g
             transform="matrix(0.1,0,0,-0.1,422.657,270.91844)"
             id="g2091">
            <defs
               id="defs2085">
              <path
                 id="DejaVuSans-34"
                 d="M 2419,4116 825,1625 h 1594 z m -166,550 h 794 V 1625 h 666 V 1100 H 3047 V 0 H 2419 V 1100 H 313 v 609 z"
                 transform="scale(0.015625)" />
            </defs>
            <use
               xlink:href="#DejaVuSans-34"
               id="use2087"
               x="0"
               y="0"
               width="100%"
               height="100%" />
            <use
               xlink:href="#DejaVuSans-30"
               x="63.623047"
               id="use2089"
               y="0"
               width="100%"
               height="100%" />
          </g>
        </g>
      </g>
      <g
         id="xtick_4">
        <g
           id="line2d_4">
          <g
             id="g2097">
            <use
               xlink:href="#m13aa7aa5ba"
               x="576.02924"
               y="256.32001"
               style="stroke:#000000;stroke-width:0.8"
               id="use2095"
               width="100%"
               height="100%" />
          </g>
        </g>
        <g
           id="text_4">
          <!-- 60 -->
          <g
             transform="matrix(0.1,0,0,-0.1,569.66674,270.91844)"
             id="g2107">
            <defs
               id="defs2101">
              <path
                 id="DejaVuSans-36"
                 d="m 2113,2584 q -425,0 -674,-291 -248,-290 -248,-796 0,-503 248,-796 249,-292 674,-292 425,0 673,292 248,293 248,796 0,506 -248,796 -248,291 -673,291 z m 1253,1979 v -575 q -238,112 -480,171 -242,60 -480,60 -625,0 -955,-422 -329,-422 -376,-1275 184,272 462,417 279,145 613,145 703,0 1111,-427 408,-426 408,-1160 0,-719 -425,-1154 -425,-434 -1131,-434 -810,0 -1238,620 -428,621 -428,1799 0,1106 525,1764 525,658 1409,658 238,0 480,-47 242,-47 505,-140 z"
                 transform="scale(0.015625)" />
            </defs>
            <use
               xlink:href="#DejaVuSans-36"
               id="use2103"
               x="0"
               y="0"
               width="100%"
               height="100%" />
            <use
               xlink:href="#DejaVuSans-30"
               x="63.623047"
               id="use2105"
               y="0"
               width="100%"
               height="100%" />
          </g>
        </g>
      </g>
      <g
         id="xtick_5">
        <g
           id="line2d_5">
          <g
             id="g2113">
            <use
               xlink:href="#m13aa7aa5ba"
               x="723.039"
               y="256.32001"
               style="stroke:#000000;stroke-width:0.8"
               id="use2111"
               width="100%"
               height="100%" />
          </g>
        </g>
        <g
           id="text_5">
          <!-- 80 -->
          <g
             transform="matrix(0.1,0,0,-0.1,716.67649,270.91844)"
             id="g2123">
            <defs
               id="defs2117">
              <path
                 id="DejaVuSans-38"
                 d="m 2034,2216 q -450,0 -708,-241 -257,-241 -257,-662 0,-422 257,-663 258,-241 708,-241 450,0 709,242 260,243 260,662 0,421 -258,662 -257,241 -711,241 z m -631,268 q -406,100 -633,378 -226,279 -226,679 0,559 398,884 399,325 1092,325 697,0 1094,-325 397,-325 397,-884 0,-400 -227,-679 -226,-278 -629,-378 456,-106 710,-416 255,-309 255,-755 Q 3634,634 3220,271 2806,-91 2034,-91 1263,-91 848,271 434,634 434,1313 q 0,446 256,755 257,310 713,416 z m -231,997 q 0,-362 226,-565 227,-203 636,-203 407,0 636,203 230,203 230,565 0,363 -230,566 -229,203 -636,203 -409,0 -636,-203 -226,-203 -226,-566 z"
                 transform="scale(0.015625)" />
            </defs>
            <use
               xlink:href="#DejaVuSans-38"
               id="use2119"
               x="0"
               y="0"
               width="100%"
               height="100%" />
            <use
               xlink:href="#DejaVuSans-30"
               x="63.623047"
               id="use2121"
               y="0"
               width="100%"
               height="100%" />
          </g>
        </g>
      </g>
      <g
         id="xtick_6">
        <g
           id="line2d_6">
          <g
             id="g2129">
            <use
               xlink:href="#m13aa7aa5ba"
               x="870.04877"
               y="256.32001"
               style="stroke:#000000;stroke-width:0.8"
               id="use2127"
               width="100%"
               height="100%" />
          </g>
        </g>
        <g
           id="text_6">
          <!-- 100 -->
          <g
             transform="matrix(0.1,0,0,-0.1,860.50499,270.91844)"
             id="g2141">
            <defs
               id="defs2133">
              <path
                 id="DejaVuSans-31"
                 d="M 794,531 H 1825 V 4091 L 703,3866 v 575 l 1116,225 h 631 V 531 H 3481 V 0 H 794 Z"
                 transform="scale(0.015625)" />
            </defs>
            <use
               xlink:href="#DejaVuSans-31"
               id="use2135"
               x="0"
               y="0"
               width="100%"
               height="100%" />
            <use
               xlink:href="#DejaVuSans-30"
               x="63.623047"
               id="use2137"
               y="0"
               width="100%"
               height="100%" />
            <use
               xlink:href="#DejaVuSans-30"
               x="127.24609"
               id="use2139"
               y="0"
               width="100%"
               height="100%" />
          </g>
        </g>
      </g>
      <g
         id="text_7">
        <!-- time in process (seconds) -->
        <g
           transform="matrix(0.1,0,0,-0.1,489.32812,284.59656)"
           id="g2211">
          <defs
             id="defs2159">
            <path
               id="DejaVuSans-74"
               d="M 1172,4494 V 3500 H 2356 V 3053 H 1172 V 1153 q 0,-428 117,-550 117,-122 477,-122 h 590 V 0 H 1766 Q 1100,0 847,248 594,497 594,1153 V 3053 H 172 v 447 h 422 v 994 z"
               transform="scale(0.015625)" />
            <path
               id="DejaVuSans-69"
               d="m 603,3500 h 575 V 0 H 603 Z m 0,1363 h 575 V 4134 H 603 Z"
               transform="scale(0.015625)" />
            <path
               id="DejaVuSans-6d"
               d="m 3328,2828 q 216,388 516,572 300,184 706,184 547,0 844,-383 297,-382 297,-1088 V 0 h -578 v 2094 q 0,503 -179,746 -178,244 -543,244 -447,0 -707,-297 -259,-296 -259,-809 V 0 h -578 v 2094 q 0,506 -178,748 -178,242 -550,242 -441,0 -701,-298 -259,-298 -259,-808 V 0 H 581 v 3500 h 578 v -544 q 197,322 472,475 275,153 653,153 382,0 649,-194 267,-193 395,-562 z"
               transform="scale(0.015625)" />
            <path
               id="DejaVuSans-65"
               d="M 3597,1894 V 1613 H 953 q 38,-594 358,-905 320,-311 892,-311 331,0 642,81 311,81 618,244 V 178 Q 3153,47 2828,-22 2503,-91 2169,-91 1331,-91 842,396 353,884 353,1716 q 0,859 464,1363 464,505 1252,505 706,0 1117,-455 411,-454 411,-1235 z m -575,169 q -6,471 -264,752 -258,282 -683,282 -481,0 -770,-272 -289,-272 -333,-766 z"
               transform="scale(0.015625)" />
            <path
               id="DejaVuSans-20"
               transform="scale(0.015625)"
               d="" />
            <path
               id="DejaVuSans-6e"
               d="M 3513,2113 V 0 h -575 v 2094 q 0,497 -194,743 -194,247 -581,247 -466,0 -735,-297 -269,-296 -269,-809 V 0 H 581 v 3500 h 578 v -544 q 207,316 486,472 280,156 646,156 603,0 912,-373 310,-373 310,-1098 z"
               transform="scale(0.015625)" />
            <path
               id="DejaVuSans-70"
               d="M 1159,525 V -1331 H 581 v 4831 h 578 v -531 q 182,312 458,463 277,152 661,152 638,0 1036,-506 399,-506 399,-1331 0,-825 -399,-1332 -398,-506 -1036,-506 -384,0 -661,152 -276,152 -458,464 z m 1957,1222 q 0,634 -261,995 -261,361 -717,361 -457,0 -718,-361 -261,-361 -261,-995 0,-634 261,-995 261,-361 718,-361 456,0 717,361 261,361 261,995 z"
               transform="scale(0.015625)" />
            <path
               id="DejaVuSans-72"
               d="m 2631,2963 q -97,56 -211,82 -114,27 -251,27 -488,0 -749,-317 -261,-317 -261,-911 V 0 H 581 v 3500 h 578 v -544 q 182,319 472,473 291,155 707,155 59,0 131,-8 72,-7 159,-23 z"
               transform="scale(0.015625)" />
            <path
               id="DejaVuSans-6f"
               d="m 1959,3097 q -462,0 -731,-361 -269,-361 -269,-989 0,-628 267,-989 268,-361 733,-361 460,0 728,362 269,363 269,988 0,622 -269,986 -268,364 -728,364 z m 0,487 q 750,0 1178,-488 429,-487 429,-1349 Q 3566,888 3137,398 2709,-91 1959,-91 1206,-91 779,398 353,888 353,1747 q 0,862 426,1349 427,488 1180,488 z"
               transform="scale(0.015625)" />
            <path
               id="DejaVuSans-63"
               d="m 3122,3366 v -538 q -244,135 -489,202 -245,67 -495,67 -560,0 -870,-355 -309,-354 -309,-995 0,-641 309,-996 310,-354 870,-354 250,0 495,67 245,67 489,202 V 134 Q 2881,22 2623,-34 2366,-91 2075,-91 1284,-91 818,406 353,903 353,1747 q 0,856 470,1346 471,491 1290,491 265,0 518,-55 253,-54 491,-163 z"
               transform="scale(0.015625)" />
            <path
               id="DejaVuSans-73"
               d="m 2834,3397 v -544 q -243,125 -506,187 -262,63 -544,63 -428,0 -642,-131 -214,-131 -214,-394 0,-200 153,-314 153,-114 616,-217 l 197,-44 q 612,-131 870,-370 258,-239 258,-667 0,-488 -386,-773 Q 2250,-91 1575,-91 1294,-91 989,-36 684,19 347,128 v 594 q 319,-166 628,-249 309,-82 613,-82 406,0 624,139 219,139 219,392 0,234 -158,359 -157,125 -692,241 l -200,47 q -534,112 -772,345 -237,233 -237,639 0,494 350,762 350,269 994,269 318,0 599,-47 282,-46 519,-140 z"
               transform="scale(0.015625)" />
            <path
               id="DejaVuSans-28"
               d="m 1984,4856 q -418,-718 -622,-1422 -203,-703 -203,-1425 0,-721 205,-1429 205,-708 620,-1424 h -500 q -468,735 -701,1444 -233,709 -233,1409 0,697 231,1403 232,707 703,1444 z"
               transform="scale(0.015625)" />
            <path
               id="DejaVuSans-64"
               d="m 2906,2969 v 1894 h 575 V 0 H 2906 V 525 Q 2725,213 2448,61 2172,-91 1784,-91 1150,-91 751,415 353,922 353,1747 q 0,825 398,1331 399,506 1033,506 388,0 664,-152 277,-151 458,-463 z M 947,1747 q 0,-634 261,-995 261,-361 717,-361 456,0 718,361 263,361 263,995 0,634 -263,995 -262,361 -718,361 -456,0 -717,-361 -261,-361 -261,-995 z"
               transform="scale(0.015625)" />
            <path
               id="DejaVuSans-29"
               d="m 513,4856 h 500 q 468,-737 701,-1444 233,-706 233,-1403 0,-700 -233,-1409 -233,-709 -701,-1444 H 513 q 415,716 620,1424 205,708 205,1429 0,722 -205,1425 -205,704 -620,1422 z"
               transform="scale(0.015625)" />
          </defs>
          <use
             xlink:href="#DejaVuSans-74"
             id="use2161"
             x="0"
             y="0"
             width="100%"
             height="100%" />
          <use
             xlink:href="#DejaVuSans-69"
             x="39.208984"
             id="use2163"
             y="0"
             width="100%"
             height="100%" />
          <use
             xlink:href="#DejaVuSans-6d"
             x="66.992188"
             id="use2165"
             y="0"
             width="100%"
             height="100%" />
          <use
             xlink:href="#DejaVuSans-65"
             x="164.4043"
             id="use2167"
             y="0"
             width="100%"
             height="100%" />
          <use
             xlink:href="#DejaVuSans-20"
             x="225.92773"
             id="use2169"
             y="0"
             width="100%"
             height="100%" />
          <use
             xlink:href="#DejaVuSans-69"
             x="257.71484"
             id="use2171"
             y="0"
             width="100%"
             height="100%" />
          <use
             xlink:href="#DejaVuSans-6e"
             x="285.49805"
             id="use2173"
             y="0"
             width="100%"
             height="100%" />
          <use
             xlink:href="#DejaVuSans-20"
             x="348.87695"
             id="use2175"
             y="0"
             width="100%"
             height="100%" />
          <use
             xlink:href="#DejaVuSans-70"
             x="380.66406"
             id="use2177"
             y="0"
             width="100%"
             height="100%" />
          <use
             xlink:href="#DejaVuSans-72"
             x="444.14062"
             id="use2179"
             y="0"
             width="100%"
             height="100%" />
          <use
             xlink:href="#DejaVuSans-6f"
             x="483.00391"
             id="use2181"
             y="0"
             width="100%"
             height="100%" />
          <use
             xlink:href="#DejaVuSans-63"
             x="544.18555"
             id="use2183"
             y="0"
             width="100%"
             height="100%" />
          <use
             xlink:href="#DejaVuSans-65"
             x="599.16602"
             id="use2185"
             y="0"
             width="100%"
             height="100%" />
          <use
             xlink:href="#DejaVuSans-73"
             x="660.68945"
             id="use2187"
             y="0"
             width="100%"
             height="100%" />
          <use
             xlink:href="#DejaVuSans-73"
             x="712.78906"
             id="use2189"
             y="0"
             width="100%"
             height="100%" />
          <use
             xlink:href="#DejaVuSans-20"
             x="764.88867"
             id="use2191"
             y="0"
             width="100%"
             height="100%" />
          <use
             xlink:href="#DejaVuSans-28"
             x="796.67578"
             id="use2193"
             y="0"
             width="100%"
             height="100%" />
          <use
             xlink:href="#DejaVuSans-73"
             x="835.68945"
             id="use2195"
             y="0"
             width="100%"
             height="100%" />
          <use
             xlink:href="#DejaVuSans-65"
             x="887.78906"
             id="use2197"
             y="0"
             width="100%"
             height="100%" />
          <use
             xlink:href="#DejaVuSans-63"
             x="949.3125"
             id="use2199"
             y="0"
             width="100%"
             height="100%" />
          <use
             xlink:href="#DejaVuSans-6f"
             x="1004.293"
             id="use2201"
             y="0"
             width="100%"
             height="100%" />
          <use
             xlink:href="#DejaVuSans-6e"
             x="1065.4746"
             id="use2203"
             y="0"
             width="100%"
             height="100%" />
          <use
             xlink:href="#DejaVuSans-64"
             x="1128.8535"
             id="use2205"
             y="0"
             width="100%"
             height="100%" />
          <use
             xlink:href="#DejaVuSans-73"
             x="1192.3301"
             id="use2207"
             y="0"
             width="100%"
             height="100%" />
          <use
             xlink:href="#DejaVuSans-29"
             x="1244.4297"
             id="use2209"
             y="0"
             width="100%"
             height="100%" />
        </g>
      </g>
    </g>
    <g
       id="matplotlib.axis_2">
      <g
         id="ytick_1">
        <g
           id="line2d_7">
          <defs
             id="defs2216">
            <path
               id="md178b596e7"
               d="M 0,0 H -3.5"
               style="stroke:#000000;stroke-width:0.8" />
          </defs>
          <g
             id="g2220">
            <use
               xlink:href="#md178b596e7"
               x="135"
               y="256.32001"
               style="stroke:#000000;stroke-width:0.8"
               id="use2218"
               width="100%"
               height="100%" />
          </g>
        </g>
        <g
           id="text_8">
          <!-- 0 -->
          <g
             transform="matrix(0.1,0,0,-0.1,121.6375,260.11922)"
             id="g2225">
            <use
               xlink:href="#DejaVuSans-30"
               id="use2223"
               x="0"
               y="0"
               width="100%"
               height="100%" />
          </g>
        </g>
      </g>
      <g
         id="ytick_2">
        <g
           id="line2d_8">
          <g
             id="g2231">
            <use
               xlink:href="#md178b596e7"
               x="135"
               y="221.12"
               style="stroke:#000000;stroke-width:0.8"
               id="use2229"
               width="100%"
               height="100%" />
          </g>
        </g>
        <g
           id="text_9">
          <!-- 20 -->
          <g
             transform="matrix(0.1,0,0,-0.1,115.275,224.91922)"
             id="g2238">
            <use
               xlink:href="#DejaVuSans-32"
               id="use2234"
               x="0"
               y="0"
               width="100%"
               height="100%" />
            <use
               xlink:href="#DejaVuSans-30"
               x="63.623047"
               id="use2236"
               y="0"
               width="100%"
               height="100%" />
          </g>
        </g>
      </g>
      <g
         id="ytick_3">
        <g
           id="line2d_9">
          <g
             id="g2244">
            <use
               xlink:href="#md178b596e7"
               x="135"
               y="185.92"
               style="stroke:#000000;stroke-width:0.8"
               id="use2242"
               width="100%"
               height="100%" />
          </g>
        </g>
        <g
           id="text_10">
          <!-- 40 -->
          <g
             transform="matrix(0.1,0,0,-0.1,115.275,189.71922)"
             id="g2251">
            <use
               xlink:href="#DejaVuSans-34"
               id="use2247"
               x="0"
               y="0"
               width="100%"
               height="100%" />
            <use
               xlink:href="#DejaVuSans-30"
               x="63.623047"
               id="use2249"
               y="0"
               width="100%"
               height="100%" />
          </g>
        </g>
      </g>
      <g
         id="ytick_4">
        <g
           id="line2d_10">
          <g
             id="g2257">
            <use
               xlink:href="#md178b596e7"
               x="135"
               y="150.72"
               style="stroke:#000000;stroke-width:0.8"
               id="use2255"
               width="100%"
               height="100%" />
          </g>
        </g>
        <g
           id="text_11">
          <!-- 60 -->
          <g
             transform="matrix(0.1,0,0,-0.1,115.275,154.51922)"
             id="g2264">
            <use
               xlink:href="#DejaVuSans-36"
               id="use2260"
               x="0"
               y="0"
               width="100%"
               height="100%" />
            <use
               xlink:href="#DejaVuSans-30"
               x="63.623047"
               id="use2262"
               y="0"
               width="100%"
               height="100%" />
          </g>
        </g>
      </g>
      <g
         id="ytick_5">
        <g
           id="line2d_11">
          <g
             id="g2270">
            <use
               xlink:href="#md178b596e7"
               x="135"
               y="115.52"
               style="stroke:#000000;stroke-width:0.8"
               id="use2268"
               width="100%"
               height="100%" />
          </g>
        </g>
        <g
           id="text_12">
          <!-- 80 -->
          <g
             transform="matrix(0.1,0,0,-0.1,115.275,119.31922)"
             id="g2277">
            <use
               xlink:href="#DejaVuSans-38"
               id="use2273"
               x="0"
               y="0"
               width="100%"
               height="100%" />
            <use
               xlink:href="#DejaVuSans-30"
               x="63.623047"
               id="use2275"
               y="0"
               width="100%"
               height="100%" />
          </g>
        </g>
      </g>
      <g
         id="ytick_6">
        <g
           id="line2d_12">
          <g
             id="g2283">
            <use
               xlink:href="#md178b596e7"
               x="135"
               y="80.32"
               style="stroke:#000000;stroke-width:0.8"
               id="use2281"
               width="100%"
               height="100%" />
          </g>
        </g>
        <g
           id="text_13">
          <!-- 100 -->
          <g
             transform="matrix(0.1,0,0,-0.1,108.9125,84.119219)"
             id="g2292">
            <use
               xlink:href="#DejaVuSans-31"
               id="use2286"
               x="0"
               y="0"
               width="100%"
               height="100%" />
            <use
               xlink:href="#DejaVuSans-30"
               x="63.623047"
               id="use2288"
               y="0"
               width="100%"
               height="100%" />
            <use
               xlink:href="#DejaVuSans-30"
               x="127.24609"
               id="use2290"
               y="0"
               width="100%"
               height="100%" />
          </g>
        </g>
      </g>
      <g
         id="ytick_7">
        <g
           id="line2d_13">
          <g
             id="g2298">
            <use
               xlink:href="#md178b596e7"
               x="135"
               y="45.119999"
               style="stroke:#000000;stroke-width:0.8"
               id="use2296"
               width="100%"
               height="100%" />
          </g>
        </g>
        <g
           id="text_14">
          <!-- 120 -->
          <g
             transform="matrix(0.1,0,0,-0.1,108.9125,48.919219)"
             id="g2307">
            <use
               xlink:href="#DejaVuSans-31"
               id="use2301"
               x="0"
               y="0"
               width="100%"
               height="100%" />
            <use
               xlink:href="#DejaVuSans-32"
               x="63.623047"
               id="use2303"
               y="0"
               width="100%"
               height="100%" />
            <use
               xlink:href="#DejaVuSans-30"
               x="127.24609"
               id="use2305"
               y="0"
               width="100%"
               height="100%" />
          </g>
        </g>
      </g>
      <g
         id="text_15">
        <!-- % CPU usilization -->
        <g
           transform="matrix(0,-0.1,-0.1,0,102.83281,188.74078)"
           id="g2355">
          <defs
             id="defs2319">
            <path
               id="DejaVuSans-25"
               d="m 4653,2053 q -272,0 -427,-231 -154,-231 -154,-644 0,-406 154,-639 155,-233 427,-233 266,0 420,233 155,233 155,639 0,410 -155,642 -154,233 -420,233 z m 0,397 q 494,0 784,-344 291,-343 291,-928 0,-584 -292,-927 -292,-342 -783,-342 -500,0 -791,342 -290,343 -290,927 0,588 292,930 292,342 789,342 z M 1428,4353 q -269,0 -424,-233 -154,-232 -154,-639 0,-412 153,-644 153,-231 425,-231 272,0 426,231 155,232 155,644 0,403 -156,637 -156,235 -425,235 z m 2822,397 h 500 L 1831,-91 h -500 z m -2822,0 q 494,0 787,-342 294,-342 294,-927 0,-590 -292,-931 -292,-341 -789,-341 -497,0 -786,342 -289,343 -289,930 0,582 290,925 291,344 785,344 z"
               transform="scale(0.015625)" />
            <path
               id="DejaVuSans-43"
               d="m 4122,4306 v -665 q -319,297 -680,443 -361,147 -767,147 -800,0 -1225,-489 -425,-489 -425,-1414 0,-922 425,-1411 425,-489 1225,-489 406,0 767,147 361,147 680,444 V 359 Q 3791,134 3420,21 3050,-91 2638,-91 1578,-91 968,557 359,1206 359,2328 q 0,1125 609,1773 610,649 1670,649 418,0 788,-111 371,-111 696,-333 z"
               transform="scale(0.015625)" />
            <path
               id="DejaVuSans-50"
               d="M 1259,4147 V 2394 h 794 q 441,0 681,228 241,228 241,650 0,419 -241,647 -240,228 -681,228 z m -631,519 h 1425 q 785,0 1186,-355 402,-355 402,-1039 0,-691 -402,-1044 -401,-353 -1186,-353 H 1259 V 0 H 628 Z"
               transform="scale(0.015625)" />
            <path
               id="DejaVuSans-55"
               d="m 556,4666 h 635 V 1831 q 0,-750 271,-1080 272,-329 882,-329 606,0 878,329 272,330 272,1080 v 2835 h 634 V 1753 Q 4128,841 3676,375 3225,-91 2344,-91 1459,-91 1007,375 556,841 556,1753 Z"
               transform="scale(0.015625)" />
            <path
               id="DejaVuSans-75"
               d="m 544,1381 v 2119 h 575 V 1403 q 0,-497 193,-746 194,-248 582,-248 465,0 735,297 271,297 271,810 v 1984 h 575 V 0 H 2900 V 538 Q 2691,219 2414,64 2138,-91 1772,-91 1169,-91 856,284 544,659 544,1381 Z m 1447,2203 z"
               transform="scale(0.015625)" />
            <path
               id="DejaVuSans-6c"
               d="m 603,4863 h 575 V 0 H 603 Z"
               transform="scale(0.015625)" />
            <path
               id="DejaVuSans-7a"
               d="M 353,3500 H 3084 V 2975 L 922,459 H 3084 V 0 H 275 V 525 L 2438,3041 H 353 Z"
               transform="scale(0.015625)" />
            <path
               id="DejaVuSans-61"
               d="m 2194,1759 q -697,0 -966,-159 -269,-159 -269,-544 0,-306 202,-486 202,-179 548,-179 479,0 768,339 289,339 289,901 v 128 z m 1147,238 V 0 H 2766 V 531 Q 2569,213 2275,61 1981,-91 1556,-91 q -537,0 -855,302 -317,302 -317,808 0,590 395,890 396,300 1180,300 h 807 v 57 q 0,397 -261,614 -261,217 -733,217 -300,0 -585,-72 -284,-72 -546,-216 v 532 q 315,122 612,182 297,61 578,61 760,0 1135,-394 375,-393 375,-1193 z"
               transform="scale(0.015625)" />
          </defs>
          <use
             xlink:href="#DejaVuSans-25"
             id="use2321"
             x="0"
             y="0"
             width="100%"
             height="100%" />
          <use
             xlink:href="#DejaVuSans-20"
             x="95.019531"
             id="use2323"
             y="0"
             width="100%"
             height="100%" />
          <use
             xlink:href="#DejaVuSans-43"
             x="126.80664"
             id="use2325"
             y="0"
             width="100%"
             height="100%" />
          <use
             xlink:href="#DejaVuSans-50"
             x="196.63086"
             id="use2327"
             y="0"
             width="100%"
             height="100%" />
          <use
             xlink:href="#DejaVuSans-55"
             x="256.93359"
             id="use2329"
             y="0"
             width="100%"
             height="100%" />
          <use
             xlink:href="#DejaVuSans-20"
             x="330.12695"
             id="use2331"
             y="0"
             width="100%"
             height="100%" />
          <use
             xlink:href="#DejaVuSans-75"
             x="361.91406"
             id="use2333"
             y="0"
             width="100%"
             height="100%" />
          <use
             xlink:href="#DejaVuSans-73"
             x="425.29297"
             id="use2335"
             y="0"
             width="100%"
             height="100%" />
          <use
             xlink:href="#DejaVuSans-69"
             x="477.39258"
             id="use2337"
             y="0"
             width="100%"
             height="100%" />
          <use
             xlink:href="#DejaVuSans-6c"
             x="505.17578"
             id="use2339"
             y="0"
             width="100%"
             height="100%" />
          <use
             xlink:href="#DejaVuSans-69"
             x="532.95898"
             id="use2341"
             y="0"
             width="100%"
             height="100%" />
          <use
             xlink:href="#DejaVuSans-7a"
             x="560.74219"
             id="use2343"
             y="0"
             width="100%"
             height="100%" />
          <use
             xlink:href="#DejaVuSans-61"
             x="613.23242"
             id="use2345"
             y="0"
             width="100%"
             height="100%" />
          <use
             xlink:href="#DejaVuSans-74"
             x="674.51172"
             id="use2347"
             y="0"
             width="100%"
             height="100%" />
          <use
             xlink:href="#DejaVuSans-69"
             x="713.7207"
             id="use2349"
             y="0"
             width="100%"
             height="100%" />
          <use
             xlink:href="#DejaVuSans-6f"
             x="741.50391"
             id="use2351"
             y="0"
             width="100%"
             height="100%" />
          <use
             xlink:href="#DejaVuSans-6e"
             x="802.68555"
             id="use2353"
             y="0"
             width="100%"
             height="100%" />
        </g>
      </g>
    </g>
    <g
       id="line2d_14">
      <path
         d="m 135,256.32 h 0.73505 l 0.73505,-16.016 0.73505,-159.984 h 2.94019 l 0.73505,-17.6 0.73505,17.6 0.73505,-17.6 0.73505,17.6 h 2.94019 l 0.73505,16.016 0.73505,-16.016 h 0.73505 l 0.73505,-17.6 0.73504,17.6 h 0.73505 l 0.73505,-17.6 0.73505,17.6 0.73505,-17.6 0.73505,17.6 h 1.4701 l 0.73504,-17.6 0.73505,17.6 h 0.73505 l 0.73505,16.016 1.4701,-33.616 0.73505,17.6 h 1.47009 l 0.73505,-17.6 0.73505,17.6 0.73505,-17.6 0.73505,17.6 h 0.73505 l 0.73505,-17.6 0.73505,17.6 h 2.20514 l 0.73505,16.016 0.73505,-33.616 h 0.73505 l 0.73505,17.6 h 0.73505 l 0.73504,-17.6 0.73505,35.2 0.73505,-35.2 h 0.73505 l 0.73505,17.6 h 1.4701 l 0.73505,-17.6 0.73504,17.6 h 0.73505 l 0.73505,-17.6 0.73505,33.616 1.4701,-33.616 0.73505,17.6 h 0.73505 l 0.73504,-17.6 0.73505,17.6 h 0.73505 l 0.73505,-17.6 0.73505,17.6 h 1.4701 l 0.73504,-17.6 1.4701,33.616 0.73505,-16.016 h 0.73505 l 0.73505,-17.6 h 0.73505 l 0.73505,17.6 h 2.94019 l 0.73505,-17.6 h 0.73505 l 0.73505,17.6 h 0.73505 l 0.73504,16.016 1.4701,-33.616 0.73505,17.6 0.73505,-17.6 0.73505,17.6 h 2.20514 l 0.73505,-17.6 h 0.73505 l 1.4701,33.616 0.73505,-16.016 h 1.4701 l 0.73504,-17.6 h 0.73505 l 0.73505,17.6 h 1.4701 l 0.73505,-17.6 0.73505,17.6 0.73505,-17.6 0.73504,35.2 0.73505,-35.2 0.73505,17.6 h 2.20515 l 0.73505,-17.6 0.73505,17.6 h 2.20514 l 0.73505,-17.6 0.73505,17.6 0.73505,-17.6 0.73505,17.6 h 4.41029 l 0.73505,-17.6 0.73505,17.6 h 0.73505 l 0.73504,-17.6 0.73505,17.6 h 0.73505 l 0.73505,-17.6 0.73505,17.6 h 2.20515 l 0.73504,-17.6 0.73505,17.6 h 1.4701 l 0.73505,-17.6 0.73505,17.6 h 1.4701 l 0.73504,-17.6 0.73505,17.6 0.73505,-17.6 0.73505,33.616 0.73505,-16.016 h 2.20515 l 0.73505,-35.2 0.73504,35.2 h 2.9402 l 0.73505,-17.6 1.47009,33.616 0.73505,-33.616 h 0.73505 l 0.73505,17.6 h 2.20515 l 0.73505,-17.6 0.73504,17.6 h 1.4701 l 0.73505,-17.6 0.73505,17.6 h 0.73505 l 0.73505,-17.6 0.73505,17.6 h 4.41029 l 0.73505,-17.6 h 0.73505 l 0.73504,17.6 h 2.20515 l 0.73505,-17.6 0.73505,17.6 h 2.94019 l 0.73505,-17.6 0.73505,17.6 h 2.20515 l 0.73504,-17.6 0.73505,17.6 0.73505,-17.6 1.4701,33.616 0.73505,-33.616 0.73505,17.6 h 2.20514 l 0.73505,-17.6 h 0.73505 l 0.73505,17.6 h 1.4701 l 0.73505,-17.6 0.73504,17.6 0.73505,-17.6 0.73505,33.616 0.73505,-16.016 h 0.73505 l 0.73505,-17.6 0.73505,17.6 h 1.47009 l 0.73505,-17.6 0.73505,17.6 h 1.4701 l 0.73505,-17.6 0.73505,17.6 h 1.47009 l 0.73505,16.016 0.73505,-33.616 h 0.73505 l 0.73505,17.6 h 2.20515 l 0.73504,-17.6 0.73505,17.6 h 0.73505 l 0.73505,-17.6 0.73505,17.6 0.73505,-17.6 1.4701,33.616 1.47009,-33.616 0.73505,17.6 h 0.73505 l 0.73505,-17.6 0.73505,17.6 h 2.94019 l 0.73505,-35.2 0.73505,35.2 h 5.14534 l 0.73505,-35.2 0.73505,35.2 h 3.67524 l 0.73505,-17.6 h 0.73505 l 0.73505,17.6 h 1.4701 l 0.73505,16.016 1.47009,-33.616 0.73505,17.6 h 2.9402 l 0.73505,-17.6 h 0.73504 l 0.73505,17.6 h 2.9402 l 0.73505,-17.6 0.73505,17.6 h 2.94019 l 0.73505,-17.6 1.4701,35.2 0.73505,-52.8 0.73504,35.2 h 1.4701 l 0.73505,-17.6 0.73505,35.2 0.73505,-17.6 h 1.47009 l 0.73505,-17.6 0.73505,17.6 0.73505,-17.6 0.73505,17.6 h 1.4701 l 0.73505,-17.6 0.73504,17.6 h 2.20515 l 0.73505,-17.6 0.73505,17.6 h 2.20515 l 0.73504,-17.6 0.73505,17.6 h 0.73505 l 0.73505,-17.6 0.73505,17.6 h 5.88039 l 0.73505,-17.6 h 0.73505 l 0.73504,17.6 h 2.9402 l 0.73505,-17.6 0.73505,17.6 0.73505,-17.6 0.73504,17.6 h 0.73505 l 0.73505,16.016 0.73505,-16.016 h 0.73505 l 0.73505,-17.6 0.73505,17.6 h 1.47009 l 0.73505,-17.6 0.73505,17.6 0.73505,-17.6 0.73505,17.6 h 1.4701 l 0.73505,-17.6 1.47009,33.616 0.73505,-16.016 h 0.73505 l 0.73505,-17.6 0.73505,17.6 0.73505,-17.6 0.73505,17.6 h 1.47009 l 0.73505,-17.6 0.73505,35.2 0.73505,-35.2 0.73505,17.6 0.73505,-17.6 0.73505,17.6 h 0.73504 l 0.73505,16.016 1.4701,-33.616 h 0.73505 l 1.4701,35.2 0.73505,-35.2 h 0.73504 l 0.73505,17.6 h 1.4701 l 0.73505,-17.6 0.73505,17.6 h 2.94019 l 0.73505,-17.6 0.73505,17.6 h 2.20515 l 0.73505,-17.6 h 0.73504 l 0.73505,17.6 h 1.4701 l 0.73505,16.016 0.73505,-33.616 0.73505,17.6 h 0.73505 l 0.73504,-17.6 0.73505,17.6 h 0.73505 l 0.73505,-17.6 0.73505,17.6 h 0.73505 l 0.73505,-17.6 0.73505,33.616 0.73504,-16.016 h 1.4701 l 0.73505,-17.6 h 0.73505 l 0.73505,17.6 h 3.67524 l 0.73505,-17.6 h 0.73505 l 0.73505,17.6 h 0.73505 l 0.73504,16.016 1.4701,-33.616 0.73505,17.6 h 1.4701 l 0.73505,-17.6 0.73505,17.6 h 0.73505 l 0.73504,-17.6 0.73505,17.6 h 1.4701 l 0.73505,-17.6 0.73505,17.6 h 1.47009 l 0.73505,16.016 0.73505,-33.616 0.73505,17.6 0.73505,-17.6 0.73505,17.6 h 1.4701 l 0.73505,-17.6 0.73504,17.6 0.73505,-17.6 0.73505,17.6 h 2.20515 l 0.73505,16.016 0.73504,-33.616 0.73505,17.6 h 0.73505 l 0.73505,-17.6 0.73505,17.6 h 1.4701 l 0.73505,-17.6 0.73504,17.6 h 0.73505 l 0.73505,-17.6 0.73505,17.6 h 5.14534 l 0.73505,-17.6 0.73505,17.6 0.73505,-17.6 0.73505,17.6 h 1.47009 l 0.73505,-17.6 0.73505,17.6 0.73505,-17.6 0.73505,17.6 h 0.73505 l 0.73505,16.016 0.73505,-33.616 0.73505,17.6 h 1.47009 l 0.73505,-17.6 h 0.73505 l 0.73505,17.6 h 2.20514 l 0.73505,-17.6 1.4701,33.616 1.4701,-33.616 h 0.73505 l 0.73505,17.6 h 1.47009 l 0.73505,-17.6 0.73505,17.6 h 1.4701 l 0.73505,-17.6 h 0.73505 l 0.73505,33.616 1.47009,-33.616 0.73505,17.6 h 2.20515 l 0.73505,-17.6 0.73504,17.6 h 1.4701 l 0.73505,-17.6 h 0.73505 l 1.4701,33.616 1.47009,-33.616 0.73505,17.6 h 1.4701 l 0.73505,-17.6 0.73505,17.6 0.73505,-17.6 0.73505,17.6 h 0.73504 l 0.73505,-17.6 0.73505,17.6 h 0.73505 l 0.73505,16.016 1.4701,-33.616 0.73505,17.6 h 0.73504 l 0.73505,-17.6 0.73505,17.6 h 0.73505 l 0.73505,-17.6 0.73505,17.6 h 0.73505 l 0.73504,-17.6 0.73505,17.6 h 0.73505 l 0.73505,-17.6 0.73505,33.616 0.73505,-16.016 h 0.73505 l 0.73505,-17.6 0.73504,17.6 h 2.9402 l 0.73505,-17.6 h 0.73505 l 0.73505,17.6 h 0.73505 l 0.73504,-17.6 0.73505,33.616 0.73505,-16.016 h 1.4701 l 0.73505,-17.6 0.73505,17.6 h 0.73504 l 0.73505,-17.6 0.73505,17.6 h 0.73505 l 0.73505,-17.6 0.73505,17.6 h 1.4701 l 0.73504,-17.6 1.4701,33.616 0.73505,-16.016 h 1.4701 l 0.73505,-35.2 0.73505,35.2 h 3.67524 l 0.73505,-17.6 0.73505,17.6 h 3.67524 l 0.73505,-17.6 h 0.73505 l 0.73505,17.6 h 2.20514 l 0.73505,-17.6 0.73505,17.6 h 0.73505 l 0.73505,16.016 1.4701,-33.616 h 0.73504 l 0.73505,17.6 h 2.20515 l 0.73505,-17.6 0.73505,17.6 h 0.73505 l 0.73505,-17.6 0.73504,17.6 h 2.20515 l 0.73505,16.016 0.73505,-33.616 0.73505,17.6 h 2.94019 l 0.73505,-17.6 0.73505,17.6 0.73505,-17.6 0.73505,17.6 h 0.73504 l 0.73505,-17.6 1.4701,33.616 1.4701,-33.616 0.73505,17.6 h 0.73505 l 0.73504,-17.6 0.73505,17.6 h 1.4701 l 0.73505,-17.6 0.73505,17.6 h 2.20514 l 0.73505,-17.6 0.73505,17.6 h 4.41029 l 0.73505,-17.6 0.73505,17.6 h 1.4701 l 0.73505,-35.2 0.73505,35.2 h 0.73504 l 0.73505,16.016 0.73505,-16.016 h 0.73505 l 0.73505,-17.6 0.73505,17.6 h 1.4701 l 0.73505,-17.6 0.73504,17.6 h 2.20515 l 0.73505,-17.6 0.73505,33.616 0.73505,-16.016 h 1.47009 l 0.73505,-17.6 0.73505,17.6 h 0.73505 l 0.73505,-17.6 0.73505,17.6 0.73505,-17.6 0.73504,17.6 h 0.73505 l 0.73505,16.016 0.73505,-16.016 h 2.20515 l 0.73505,-17.6 h 0.73505 l 0.73504,17.6 h 2.9402 l 0.73505,-17.6 0.73505,33.616 0.73504,-16.016 h 2.20515 l 0.73505,-17.6 0.73505,17.6 h 0.73505 l 0.73505,-17.6 0.73504,17.6 h 2.20515 l 0.73505,-17.6 1.4701,33.616 1.4701,-33.616 0.73504,17.6 h 3.67525 l 0.73505,-17.6 0.73505,17.6 0.73504,-17.6 1.4701,33.616 0.73505,-16.016 h 0.73505 l 0.73505,-17.6 0.73505,17.6 h 0.73504 l 0.73505,-17.6 0.73505,17.6 h 3.67525 l 0.73504,-35.2 0.73505,51.216 0.73505,-16.016 h 3.67525 l 0.73505,-17.6 0.73504,17.6 h 1.4701 l 0.73505,-17.6 1.4701,33.616 1.47009,-33.616 0.73505,17.6 h 2.9402 l 0.73505,-17.6 0.73505,17.6 h 0.73504 l 0.73505,-17.6 0.73505,33.616 0.73505,-16.016 h 3.67524 l 0.73505,-35.2 0.73505,35.2 h 2.9402 l 0.73504,16.016 0.73505,-33.616 0.73505,17.6 h 2.20515 l 0.73505,-17.6 0.73505,17.6 h 2.20514 l 0.73505,-17.6 1.4701,33.616 1.4701,-33.616 0.73505,17.6 h 5.14534 l 0.73505,-17.6 0.73504,17.6 h 5.14534 l 0.73505,-17.6 0.73505,17.6 h 3.67525 l 0.73504,-17.6 0.73505,33.616 0.73505,-16.016 h 1.4701 l 0.73505,-17.6 0.73505,17.6 h 5.14534 l 0.73505,16.016 0.73505,-33.616 0.73504,17.6 h 2.20515 l 0.73505,-17.6 0.73505,17.6 h 3.67524 l 0.73505,16.016 0.73505,-16.016 h 2.20515 l 0.73505,-17.6 0.73504,17.6 0.73505,-17.6 0.73505,17.6 h 2.20515 l 0.73505,176 h 1.47009 v 0"
         clip-path="url(#p955992c5c7)"
         style="fill:none;stroke:#1f77b4;stroke-width:1.5;stroke-linecap:square"
         id="path2359" />
    </g>
    <g
       id="line2d_15">
      <path
         d="m 135,256.32 h 0.73505 l 0.73505,-158.4 0.73505,-17.6 h 1.47009 l 0.73505,16.016 0.73505,-16.016 h 2.20515 l 0.73505,-17.6 0.73504,17.6 h 7.35049 l 0.73505,16.016 0.73505,-16.016 h 6.61544 l 0.73505,-17.6 0.73505,17.6 h 11.02573 l 0.73505,16.016 0.73504,-16.016 h 2.9402 l 0.73505,-17.6 0.73505,35.2 0.73505,-35.2 0.73504,17.6 h 13.23088 l 0.73505,16.016 0.73505,-16.016 h 0.73505 l 0.73505,-17.6 0.73504,17.6 h 13.96593 l 0.73505,-17.6 0.73505,17.6 h 2.94019 l 0.73505,16.016 0.73505,-16.016 h 8.82059 l 0.73505,-17.6 0.73504,35.2 0.73505,-35.2 0.73505,17.6 h 0.73505 l 0.73505,-17.6 1.4701,35.2 0.73504,-35.2 0.73505,17.6 h 2.9402 l 0.73505,16.016 0.73505,-16.016 h 15.43602 l 0.73505,-17.6 0.73505,17.6 h 0.73505 l 0.73505,-17.6 0.73504,17.6 h 1.4701 l 0.73505,16.016 0.73505,-16.016 h 10.29068 l 0.73505,-17.6 0.73505,17.6 h 5.88039 l 0.73505,16.016 0.73505,-16.016 h 5.14534 l 0.73504,-17.6 0.73505,17.6 h 12.49583 l 0.73505,16.016 0.73505,-33.616 0.73505,17.6 h 13.23088 l 0.73504,-17.6 0.73505,17.6 h 5.14534 l 0.73505,16.016 0.73505,-16.016 h 10.29068 l 0.73505,-17.6 0.73505,17.6 h 8.08554 l 0.73505,16.016 0.73505,-16.016 h 5.88039 l 0.73504,-17.6 0.73505,17.6 h 11.02573 l 0.73505,16.016 0.73505,-16.016 h 0.73505 l 0.73505,-17.6 0.73505,17.6 h 9.55563 l 0.73505,-17.6 0.73505,17.6 h 6.61544 l 0.73505,16.016 0.73505,-16.016 h 2.94019 l 0.73505,-17.6 0.73505,17.6 h 15.43602 l 0.73505,16.016 0.73505,-16.016 h 2.20514 l 0.73505,-17.6 0.73505,17.6 h 2.9402 l 0.73505,-17.6 0.73505,17.6 h 10.29068 l 0.73505,16.016 0.73504,-16.016 h 2.9402 l 0.73505,-17.6 0.73505,17.6 h 14.70097 l 0.73505,-17.6 0.73505,33.616 0.73505,-16.016 h 15.43602 l 0.73505,-17.6 0.73505,17.6 h 0.73505 l 0.73505,-17.6 0.73504,17.6 h 0.73505 l 0.73505,16.016 0.73505,-16.016 h 16.17107 l 0.73505,-17.6 0.73505,17.6 h 2.20515 l 0.73505,16.016 0.73504,-16.016 h 15.43603 l 0.73505,-17.6 0.73505,17.6 h 2.20514 l 0.73505,-17.6 0.73505,33.616 0.73505,-16.016 h 19.11127 l 0.73505,16.016 0.73504,-16.016 h 1.4701 l 0.73505,-17.6 0.73505,17.6 h 0.73505 l 0.73505,-17.6 0.73504,17.6 h 13.23088 l 0.73505,16.016 0.73505,-16.016 h 6.61544 l 0.73505,-17.6 0.73504,17.6 h 9.55564 l 0.73505,16.016 1.4701,-33.616 0.73504,17.6 h 2.20515 l 0.73505,-17.6 0.73505,17.6 h 13.23088 l 0.73504,16.016 0.73505,-16.016 h 2.20515 l 0.73505,-17.6 0.73505,35.2 1.47009,-35.2 0.73505,35.2 1.4701,-35.2 0.73505,17.6 h 11.02573 l 0.73505,16.016 0.73505,-16.016 h 1.4701 l 0.73504,-17.6 0.73505,17.6 h 0.73505 l 0.73505,-17.6 0.73505,17.6 h 11.76078 l 0.73505,-17.6 0.73505,35.2 0.73504,-35.2 0.73505,33.616 0.73505,-16.016 h 13.23088 l 0.73505,-17.6 0.73505,17.6 h 2.94019 l 0.73505,16.016 0.73505,-16.016 h 5.14534 l 0.73505,-17.6 0.73505,17.6 h 10.29068 l 0.73505,16.016 0.73505,-16.016 h 1.4701 l 0.73504,-17.6 0.73505,17.6 h 16.17108 l 0.73504,-17.6 0.73505,17.6 h 0.73505 l 0.73505,16.016 0.73505,-16.016 h 12.49583 l 0.73505,-17.6 0.73504,17.6 h 5.14535 l 0.73505,16.016 0.73504,-16.016 h 9.55564 l 0.73505,-17.6 0.73504,17.6 h 0.73505 l 0.73505,-17.6 0.73505,17.6 h 5.14534 l 0.73505,16.016 0.73505,-16.016 h 8.82058 l 0.73505,-17.6 0.73505,35.2 1.4701,-35.2 0.73505,17.6 h 8.08553 l 0.73505,16.016 0.73505,-16.016 h 1.4701 l 0.73505,176 h 1.47009 v 0"
         clip-path="url(#p955992c5c7)"
         style="fill:none;stroke:#1f77b4;stroke-width:1.5;stroke-dasharray:9.6, 2.4, 1.5, 2.4;stroke-dashoffset:0"
         id="path2362" />
    </g>
    <g
       id="line2d_16">
      <path
         d="m 135,256.32 h 0.73505 l 0.73505,-158.4 0.73505,-17.6 h 2.20514 l 0.73505,-17.6 0.73505,17.6 h 2.94019 l 0.73505,16.016 0.73505,-16.016 h 6.61544 l 0.73505,-17.6 0.73505,17.6 h 1.4701 l 0.73504,16.016 0.73505,-16.016 h 7.35049 l 0.73505,-17.6 0.73505,33.616 0.73505,-16.016 h 8.82058 l 0.73505,16.016 0.73505,-33.616 0.73505,17.6 h 2.94019 l 0.73505,-17.6 0.73505,17.6 h 2.20515 l 0.73505,16.016 1.47009,-33.616 0.73505,17.6 h 7.35049 l 0.73505,16.016 0.73505,-16.016 h 13.23087 l 0.73505,-17.6 0.73505,17.6 h 3.67524 l 0.73505,16.016 0.73505,-16.016 H 225.411 l 0.73504,-17.6 0.73505,17.6 h 8.08554 l 0.73505,16.016 0.73505,-16.016 h 14.70097 l 0.73505,-17.6 0.73505,17.6 h 5.88039 l 0.73505,16.016 0.73505,-16.016 h 20.58136 l 0.73505,16.016 0.73505,-16.016 h 9.55563 l 0.73505,-17.6 0.73505,17.6 h 2.94019 l 0.73505,-17.6 0.73505,17.6 h 4.41029 l 0.73505,16.016 0.73505,-16.016 h 39.69263 l 0.73505,16.016 0.73505,-16.016 h 9.55563 l 0.73505,-17.6 0.73505,17.6 h 8.08554 l 0.73505,16.016 0.73505,-16.016 h 0.73504 l 0.73505,-17.6 0.73505,35.2 0.73505,-17.6 h 0.73505 l 0.73505,-17.6 0.73505,17.6 h 15.43602 l 0.73505,16.016 0.73505,-16.016 h 17.64117 l 0.73505,-17.6 0.73504,17.6 h 22.05147 l 0.73505,16.016 0.73504,-16.016 h 7.35049 l 0.73505,-17.6 0.73505,17.6 h 1.4701 l 0.73505,17.6 0.73504,-17.6 h 0.73505 l 0.73505,-17.6 0.73505,17.6 h 6.61544 l 0.73505,16.016 0.73505,-16.016 h 52.92351 l 0.73504,-17.6 0.73505,17.6 h 9.55564 l 0.73505,16.016 0.73504,-16.016 h 15.43603 l 0.73505,-17.6 0.73505,17.6 h 2.94019 l 0.73505,16.016 0.73505,-16.016 h 19.84631 l 0.73505,16.016 0.73505,-16.016 h 0.73505 l 0.73505,-17.6 0.73505,17.6 h 17.64117 l 0.73505,16.016 0.73504,-16.016 h 6.61544 l 0.73505,-17.6 0.73505,17.6 h 1.4701 l 0.73505,-17.6 0.73505,35.2 1.47009,-35.2 0.73505,17.6 h 6.61544 l 0.73505,16.016 0.73505,-16.016 h 18.37622 l 0.73505,-17.6 1.47009,33.616 0.73505,-16.016 h 16.17107 l 0.73505,-17.6 0.73505,17.6 h 2.9402 l 0.73504,16.016 0.73505,-16.016 h 20.58137 l 0.73505,16.016 0.73505,-16.016 h 8.08553 l 0.73505,-17.6 0.73505,17.6 h 2.94019 l 0.73505,-17.6 0.73505,17.6 h 5.88039 l 0.73505,16.016 0.73505,-16.016 h 19.11127 l 0.73505,16.016 0.73505,-16.016 h 12.49582 l 0.73505,-17.6 0.73505,17.6 h 4.41029 l 0.73505,16.016 0.73505,-16.016 h 4.41029 l 0.73505,-17.6 0.73505,17.6 h 27.93185 l 0.73505,158.4 0.73505,17.6 h 1.4701 v 0"
         clip-path="url(#p955992c5c7)"
         style="fill:none;stroke:#1f77b4;stroke-width:1.5;stroke-dasharray:1.5, 2.475;stroke-dashoffset:0"
         id="path2365" />
    </g>
    <g
       id="patch_3">
      <path
         d="M 135,256.32 V 34.56"
         style="fill:none;stroke:#000000;stroke-width:0.8;stroke-linecap:square;stroke-linejoin:miter"
         id="path2368" />
    </g>
    <g
       id="patch_4">
      <path
         d="M 972,256.32 V 34.56"
         style="fill:none;stroke:#000000;stroke-width:0.8;stroke-linecap:square;stroke-linejoin:miter"
         id="path2371" />
    </g>
    <g
       id="patch_5">
      <path
         d="M 135,256.32 H 972"
         style="fill:none;stroke:#000000;stroke-width:0.8;stroke-linecap:square;stroke-linejoin:miter"
         id="path2374" />
    </g>
    <g
       id="patch_6">
      <path
         d="M 135,34.56 H 972"
         style="fill:none;stroke:#000000;stroke-width:0.8;stroke-linecap:square;stroke-linejoin:miter"
         id="path2377" />
    </g>
    <g
       id="legend_1">
      <g
         id="patch_7">
        <path
           d="M 824.74219,86.594375 H 965 q 2,0 2,-2 V 41.56 q 0,-2 -2,-2 H 824.74219 q -2,0 -2,2 v 43.034375 q 0,2 2,2 z"
           style="opacity:0.8;fill:#ffffff;stroke:#cccccc;stroke-linejoin:miter"
           id="path2380" />
      </g>
      <g
         id="line2d_17">
        <path
           d="m 826.74219,47.658438 h 10 10"
           style="fill:none;stroke:#1f77b4;stroke-width:1.5;stroke-linecap:square"
           id="path2383" />
      </g>
      <g
         id="text_16">
        <!-- 16 GIL-bound threads -->
        <g
           transform="matrix(0.1,0,0,-0.1,854.74219,51.158438)"
           id="g2434">
          <defs
             id="defs2392">
            <path
               id="DejaVuSans-47"
               d="M 3809,666 V 1919 H 2778 v 519 H 4434 V 434 Q 4069,175 3628,42 3188,-91 2688,-91 1594,-91 976,548 359,1188 359,2328 q 0,1144 617,1783 618,639 1712,639 456,0 867,-113 411,-112 758,-331 v -672 q -350,297 -744,447 -394,150 -828,150 -857,0 -1287,-478 -429,-478 -429,-1425 0,-944 429,-1422 430,-478 1287,-478 334,0 596,58 263,58 472,180 z"
               transform="scale(0.015625)" />
            <path
               id="DejaVuSans-49"
               d="m 628,4666 h 631 V 0 H 628 Z"
               transform="scale(0.015625)" />
            <path
               id="DejaVuSans-4c"
               d="m 628,4666 h 631 V 531 H 3531 V 0 H 628 Z"
               transform="scale(0.015625)" />
            <path
               id="DejaVuSans-2d"
               d="M 313,2009 H 1997 V 1497 H 313 Z"
               transform="scale(0.015625)" />
            <path
               id="DejaVuSans-62"
               d="m 3116,1747 q 0,634 -261,995 -261,361 -717,361 -457,0 -718,-361 -261,-361 -261,-995 0,-634 261,-995 261,-361 718,-361 456,0 717,361 261,361 261,995 z M 1159,2969 q 182,312 458,463 277,152 661,152 638,0 1036,-506 399,-506 399,-1331 Q 3713,922 3314,415 2916,-91 2278,-91 1894,-91 1617,61 1341,213 1159,525 V 0 H 581 v 4863 h 578 z"
               transform="scale(0.015625)" />
            <path
               id="DejaVuSans-68"
               d="M 3513,2113 V 0 h -575 v 2094 q 0,497 -194,743 -194,247 -581,247 -466,0 -735,-297 -269,-296 -269,-809 V 0 H 581 v 4863 h 578 V 2956 q 207,316 486,472 280,156 646,156 603,0 912,-373 310,-373 310,-1098 z"
               transform="scale(0.015625)" />
          </defs>
          <use
             xlink:href="#DejaVuSans-31"
             id="use2394"
             x="0"
             y="0"
             width="100%"
             height="100%" />
          <use
             xlink:href="#DejaVuSans-36"
             x="63.623047"
             id="use2396"
             y="0"
             width="100%"
             height="100%" />
          <use
             xlink:href="#DejaVuSans-20"
             x="127.24609"
             id="use2398"
             y="0"
             width="100%"
             height="100%" />
          <use
             xlink:href="#DejaVuSans-47"
             x="159.0332"
             id="use2400"
             y="0"
             width="100%"
             height="100%" />
          <use
             xlink:href="#DejaVuSans-49"
             x="236.52344"
             id="use2402"
             y="0"
             width="100%"
             height="100%" />
          <use
             xlink:href="#DejaVuSans-4c"
             x="266.01562"
             id="use2404"
             y="0"
             width="100%"
             height="100%" />
          <use
             xlink:href="#DejaVuSans-2d"
             x="319.97852"
             id="use2406"
             y="0"
             width="100%"
             height="100%" />
          <use
             xlink:href="#DejaVuSans-62"
             x="356.0625"
             id="use2408"
             y="0"
             width="100%"
             height="100%" />
          <use
             xlink:href="#DejaVuSans-6f"
             x="419.53906"
             id="use2410"
             y="0"
             width="100%"
             height="100%" />
          <use
             xlink:href="#DejaVuSans-75"
             x="480.7207"
             id="use2412"
             y="0"
             width="100%"
             height="100%" />
          <use
             xlink:href="#DejaVuSans-6e"
             x="544.09961"
             id="use2414"
             y="0"
             width="100%"
             height="100%" />
          <use
             xlink:href="#DejaVuSans-64"
             x="607.47852"
             id="use2416"
             y="0"
             width="100%"
             height="100%" />
          <use
             xlink:href="#DejaVuSans-20"
             x="670.95508"
             id="use2418"
             y="0"
             width="100%"
             height="100%" />
          <use
             xlink:href="#DejaVuSans-74"
             x="702.74219"
             id="use2420"
             y="0"
             width="100%"
             height="100%" />
          <use
             xlink:href="#DejaVuSans-68"
             x="741.95117"
             id="use2422"
             y="0"
             width="100%"
             height="100%" />
          <use
             xlink:href="#DejaVuSans-72"
             x="805.33008"
             id="use2424"
             y="0"
             width="100%"
             height="100%" />
          <use
             xlink:href="#DejaVuSans-65"
             x="844.19336"
             id="use2426"
             y="0"
             width="100%"
             height="100%" />
          <use
             xlink:href="#DejaVuSans-61"
             x="905.7168"
             id="use2428"
             y="0"
             width="100%"
             height="100%" />
          <use
             xlink:href="#DejaVuSans-64"
             x="966.99609"
             id="use2430"
             y="0"
             width="100%"
             height="100%" />
          <use
             xlink:href="#DejaVuSans-73"
             x="1030.4727"
             id="use2432"
             y="0"
             width="100%"
             height="100%" />
        </g>
      </g>
      <g
         id="line2d_18">
        <path
           d="m 826.74219,62.336563 h 10 10"
           style="fill:none;stroke:#1f77b4;stroke-width:1.5;stroke-dasharray:9.6, 2.4, 1.5, 2.4;stroke-dashoffset:0"
           id="path2437" />
      </g>
      <g
         id="text_17">
        <!-- 2 GIL-bound threads -->
        <g
           transform="matrix(0.1,0,0,-0.1,854.74219,65.836563)"
           id="g2478">
          <use
             xlink:href="#DejaVuSans-32"
             id="use2440"
             x="0"
             y="0"
             width="100%"
             height="100%" />
          <use
             xlink:href="#DejaVuSans-20"
             x="63.623047"
             id="use2442"
             y="0"
             width="100%"
             height="100%" />
          <use
             xlink:href="#DejaVuSans-47"
             x="95.410156"
             id="use2444"
             y="0"
             width="100%"
             height="100%" />
          <use
             xlink:href="#DejaVuSans-49"
             x="172.90039"
             id="use2446"
             y="0"
             width="100%"
             height="100%" />
          <use
             xlink:href="#DejaVuSans-4c"
             x="202.39258"
             id="use2448"
             y="0"
             width="100%"
             height="100%" />
          <use
             xlink:href="#DejaVuSans-2d"
             x="256.35547"
             id="use2450"
             y="0"
             width="100%"
             height="100%" />
          <use
             xlink:href="#DejaVuSans-62"
             x="292.43945"
             id="use2452"
             y="0"
             width="100%"
             height="100%" />
          <use
             xlink:href="#DejaVuSans-6f"
             x="355.91602"
             id="use2454"
             y="0"
             width="100%"
             height="100%" />
          <use
             xlink:href="#DejaVuSans-75"
             x="417.09766"
             id="use2456"
             y="0"
             width="100%"
             height="100%" />
          <use
             xlink:href="#DejaVuSans-6e"
             x="480.47656"
             id="use2458"
             y="0"
             width="100%"
             height="100%" />
          <use
             xlink:href="#DejaVuSans-64"
             x="543.85547"
             id="use2460"
             y="0"
             width="100%"
             height="100%" />
          <use
             xlink:href="#DejaVuSans-20"
             x="607.33203"
             id="use2462"
             y="0"
             width="100%"
             height="100%" />
          <use
             xlink:href="#DejaVuSans-74"
             x="639.11914"
             id="use2464"
             y="0"
             width="100%"
             height="100%" />
          <use
             xlink:href="#DejaVuSans-68"
             x="678.32812"
             id="use2466"
             y="0"
             width="100%"
             height="100%" />
          <use
             xlink:href="#DejaVuSans-72"
             x="741.70703"
             id="use2468"
             y="0"
             width="100%"
             height="100%" />
          <use
             xlink:href="#DejaVuSans-65"
             x="780.57031"
             id="use2470"
             y="0"
             width="100%"
             height="100%" />
          <use
             xlink:href="#DejaVuSans-61"
             x="842.09375"
             id="use2472"
             y="0"
             width="100%"
             height="100%" />
          <use
             xlink:href="#DejaVuSans-64"
             x="903.37305"
             id="use2474"
             y="0"
             width="100%"
             height="100%" />
          <use
             xlink:href="#DejaVuSans-73"
             x="966.84961"
             id="use2476"
             y="0"
             width="100%"
             height="100%" />
        </g>
      </g>
      <g
         id="line2d_19">
        <path
           d="m 826.74219,77.014688 h 10 10"
           style="fill:none;stroke:#1f77b4;stroke-width:1.5;stroke-dasharray:1.5, 2.475;stroke-dashoffset:0"
           id="path2481" />
      </g>
      <g
         id="text_18">
        <!-- 1 GIL-bound thread -->
        <g
           transform="matrix(0.1,0,0,-0.1,854.74219,80.514688)"
           id="g2520">
          <use
             xlink:href="#DejaVuSans-31"
             id="use2484"
             x="0"
             y="0"
             width="100%"
             height="100%" />
          <use
             xlink:href="#DejaVuSans-20"
             x="63.623047"
             id="use2486"
             y="0"
             width="100%"
             height="100%" />
          <use
             xlink:href="#DejaVuSans-47"
             x="95.410156"
             id="use2488"
             y="0"
             width="100%"
             height="100%" />
          <use
             xlink:href="#DejaVuSans-49"
             x="172.90039"
             id="use2490"
             y="0"
             width="100%"
             height="100%" />
          <use
             xlink:href="#DejaVuSans-4c"
             x="202.39258"
             id="use2492"
             y="0"
             width="100%"
             height="100%" />
          <use
             xlink:href="#DejaVuSans-2d"
             x="256.35547"
             id="use2494"
             y="0"
             width="100%"
             height="100%" />
          <use
             xlink:href="#DejaVuSans-62"
             x="292.43945"
             id="use2496"
             y="0"
             width="100%"
             height="100%" />
          <use
             xlink:href="#DejaVuSans-6f"
             x="355.91602"
             id="use2498"
             y="0"
             width="100%"
             height="100%" />
          <use
             xlink:href="#DejaVuSans-75"
             x="417.09766"
             id="use2500"
             y="0"
             width="100%"
             height="100%" />
          <use
             xlink:href="#DejaVuSans-6e"
             x="480.47656"
             id="use2502"
             y="0"
             width="100%"
             height="100%" />
          <use
             xlink:href="#DejaVuSans-64"
             x="543.85547"
             id="use2504"
             y="0"
             width="100%"
             height="100%" />
          <use
             xlink:href="#DejaVuSans-20"
             x="607.33203"
             id="use2506"
             y="0"
             width="100%"
             height="100%" />
          <use
             xlink:href="#DejaVuSans-74"
             x="639.11914"
             id="use2508"
             y="0"
             width="100%"
             height="100%" />
          <use
             xlink:href="#DejaVuSans-68"
             x="678.32812"
             id="use2510"
             y="0"
             width="100%"
             height="100%" />
          <use
             xlink:href="#DejaVuSans-72"
             x="741.70703"
             id="use2512"
             y="0"
             width="100%"
             height="100%" />
          <use
             xlink:href="#DejaVuSans-65"
             x="780.57031"
             id="use2514"
             y="0"
             width="100%"
             height="100%" />
          <use
             xlink:href="#DejaVuSans-61"
             x="842.09375"
             id="use2516"
             y="0"
             width="100%"
             height="100%" />
          <use
             xlink:href="#DejaVuSans-64"
             x="903.37305"
             id="use2518"
             y="0"
             width="100%"
             height="100%" />
        </g>
      </g>
    </g>
  </g>
  <defs
     id="defs2529">
    <clipPath
       id="p955992c5c7">
      <rect
         x="135"
         y="34.560001"
         width="837"
         height="221.75999"
         id="rect2526" />
    </clipPath>
  </defs>
</svg>
