<?xml version="1.0" encoding="utf-8" standalone="no"?>
<!DOCTYPE svg PUBLIC "-//W3C//DTD SVG 1.1//EN"
  "http://www.w3.org/Graphics/SVG/1.1/DTD/svg11.dtd">
<svg xmlns:xlink="http://www.w3.org/1999/xlink" width="1080pt" height="288pt" viewBox="0 0 1080 288" xmlns="http://www.w3.org/2000/svg" version="1.1">
 <metadata>
  <rdf:RDF xmlns:dc="http://purl.org/dc/elements/1.1/" xmlns:cc="http://creativecommons.org/ns#" xmlns:rdf="http://www.w3.org/1999/02/22-rdf-syntax-ns#">
   <cc:Work>
    <dc:type rdf:resource="http://purl.org/dc/dcmitype/StillImage"/>
    <dc:date>2024-10-07T19:07:37.496967</dc:date>
    <dc:format>image/svg+xml</dc:format>
    <dc:creator>
     <cc:Agent>
      <dc:title>Matplotlib v3.8.4, https://matplotlib.org/</dc:title>
     </cc:Agent>
    </dc:creator>
   </cc:Work>
  </rdf:RDF>
 </metadata>
 <defs>
  <style type="text/css">*{stroke-linejoin: round; stroke-linecap: butt}</style>
 </defs>
 <g id="figure_1">
  <g id="patch_1">
   <path d="M 0 288 
L 1080 288 
L 1080 0 
L 0 0 
z
" style="fill: #ffffff"/>
  </g>
  <g id="axes_1">
   <g id="patch_2">
    <path d="M 135 256.32 
L 972 256.32 
L 972 34.56 
L 135 34.56 
z
" style="fill: #ffffff"/>
   </g>
   <g id="matplotlib.axis_1">
    <g id="xtick_1">
     <g id="line2d_1">
      <defs>
       <path id="mcb87ab244a" d="M 0 0 
L 0 3.5 
" style="stroke: #000000; stroke-width: 0.8"/>
      </defs>
      <g>
       <use xlink:href="#mcb87ab244a" x="135" y="256.32" style="stroke: #000000; stroke-width: 0.8"/>
      </g>
     </g>
     <g id="text_1">
      <!-- 0 -->
      <g transform="translate(131.81875 270.918437) scale(0.1 -0.1)">
       <defs>
        <path id="DejaVuSans-30" d="M 2034 4250 
Q 1547 4250 1301 3770 
Q 1056 3291 1056 2328 
Q 1056 1369 1301 889 
Q 1547 409 2034 409 
Q 2525 409 2770 889 
Q 3016 1369 3016 2328 
Q 3016 3291 2770 3770 
Q 2525 4250 2034 4250 
z
M 2034 4750 
Q 2819 4750 3233 4129 
Q 3647 3509 3647 2328 
Q 3647 1150 3233 529 
Q 2819 -91 2034 -91 
Q 1250 -91 836 529 
Q 422 1150 422 2328 
Q 422 3509 836 4129 
Q 1250 4750 2034 4750 
z
" transform="scale(0.015625)"/>
       </defs>
       <use xlink:href="#DejaVuSans-30"/>
      </g>
     </g>
    </g>
    <g id="xtick_2">
     <g id="line2d_2">
      <g>
       <use xlink:href="#mcb87ab244a" x="314.133226" y="256.32" style="stroke: #000000; stroke-width: 0.8"/>
      </g>
     </g>
     <g id="text_2">
      <!-- 10 -->
      <g transform="translate(307.770726 270.918437) scale(0.1 -0.1)">
       <defs>
        <path id="DejaVuSans-31" d="M 794 531 
L 1825 531 
L 1825 4091 
L 703 3866 
L 703 4441 
L 1819 4666 
L 2450 4666 
L 2450 531 
L 3481 531 
L 3481 0 
L 794 0 
L 794 531 
z
" transform="scale(0.015625)"/>
       </defs>
       <use xlink:href="#DejaVuSans-31"/>
       <use xlink:href="#DejaVuSans-30" x="63.623047"/>
      </g>
     </g>
    </g>
    <g id="xtick_3">
     <g id="line2d_3">
      <g>
       <use xlink:href="#mcb87ab244a" x="493.266453" y="256.32" style="stroke: #000000; stroke-width: 0.8"/>
      </g>
     </g>
     <g id="text_3">
      <!-- 20 -->
      <g transform="translate(486.903953 270.918437) scale(0.1 -0.1)">
       <defs>
        <path id="DejaVuSans-32" d="M 1228 531 
L 3431 531 
L 3431 0 
L 469 0 
L 469 531 
Q 828 903 1448 1529 
Q 2069 2156 2228 2338 
Q 2531 2678 2651 2914 
Q 2772 3150 2772 3378 
Q 2772 3750 2511 3984 
Q 2250 4219 1831 4219 
Q 1534 4219 1204 4116 
Q 875 4013 500 3803 
L 500 4441 
Q 881 4594 1212 4672 
Q 1544 4750 1819 4750 
Q 2544 4750 2975 4387 
Q 3406 4025 3406 3419 
Q 3406 3131 3298 2873 
Q 3191 2616 2906 2266 
Q 2828 2175 2409 1742 
Q 1991 1309 1228 531 
z
" transform="scale(0.015625)"/>
       </defs>
       <use xlink:href="#DejaVuSans-32"/>
       <use xlink:href="#DejaVuSans-30" x="63.623047"/>
      </g>
     </g>
    </g>
    <g id="xtick_4">
     <g id="line2d_4">
      <g>
       <use xlink:href="#mcb87ab244a" x="672.399679" y="256.32" style="stroke: #000000; stroke-width: 0.8"/>
      </g>
     </g>
     <g id="text_4">
      <!-- 30 -->
      <g transform="translate(666.037179 270.918437) scale(0.1 -0.1)">
       <defs>
        <path id="DejaVuSans-33" d="M 2597 2516 
Q 3050 2419 3304 2112 
Q 3559 1806 3559 1356 
Q 3559 666 3084 287 
Q 2609 -91 1734 -91 
Q 1441 -91 1130 -33 
Q 819 25 488 141 
L 488 750 
Q 750 597 1062 519 
Q 1375 441 1716 441 
Q 2309 441 2620 675 
Q 2931 909 2931 1356 
Q 2931 1769 2642 2001 
Q 2353 2234 1838 2234 
L 1294 2234 
L 1294 2753 
L 1863 2753 
Q 2328 2753 2575 2939 
Q 2822 3125 2822 3475 
Q 2822 3834 2567 4026 
Q 2313 4219 1838 4219 
Q 1578 4219 1281 4162 
Q 984 4106 628 3988 
L 628 4550 
Q 988 4650 1302 4700 
Q 1616 4750 1894 4750 
Q 2613 4750 3031 4423 
Q 3450 4097 3450 3541 
Q 3450 3153 3228 2886 
Q 3006 2619 2597 2516 
z
" transform="scale(0.015625)"/>
       </defs>
       <use xlink:href="#DejaVuSans-33"/>
       <use xlink:href="#DejaVuSans-30" x="63.623047"/>
      </g>
     </g>
    </g>
    <g id="xtick_5">
     <g id="line2d_5">
      <g>
       <use xlink:href="#mcb87ab244a" x="851.532905" y="256.32" style="stroke: #000000; stroke-width: 0.8"/>
      </g>
     </g>
     <g id="text_5">
      <!-- 40 -->
      <g transform="translate(845.170405 270.918437) scale(0.1 -0.1)">
       <defs>
        <path id="DejaVuSans-34" d="M 2419 4116 
L 825 1625 
L 2419 1625 
L 2419 4116 
z
M 2253 4666 
L 3047 4666 
L 3047 1625 
L 3713 1625 
L 3713 1100 
L 3047 1100 
L 3047 0 
L 2419 0 
L 2419 1100 
L 313 1100 
L 313 1709 
L 2253 4666 
z
" transform="scale(0.015625)"/>
       </defs>
       <use xlink:href="#DejaVuSans-34"/>
       <use xlink:href="#DejaVuSans-30" x="63.623047"/>
      </g>
     </g>
    </g>
    <g id="text_6">
     <!-- time in process (seconds) -->
     <g transform="translate(489.328125 284.596563) scale(0.1 -0.1)">
      <defs>
       <path id="DejaVuSans-74" d="M 1172 4494 
L 1172 3500 
L 2356 3500 
L 2356 3053 
L 1172 3053 
L 1172 1153 
Q 1172 725 1289 603 
Q 1406 481 1766 481 
L 2356 481 
L 2356 0 
L 1766 0 
Q 1100 0 847 248 
Q 594 497 594 1153 
L 594 3053 
L 172 3053 
L 172 3500 
L 594 3500 
L 594 4494 
L 1172 4494 
z
" transform="scale(0.015625)"/>
       <path id="DejaVuSans-69" d="M 603 3500 
L 1178 3500 
L 1178 0 
L 603 0 
L 603 3500 
z
M 603 4863 
L 1178 4863 
L 1178 4134 
L 603 4134 
L 603 4863 
z
" transform="scale(0.015625)"/>
       <path id="DejaVuSans-6d" d="M 3328 2828 
Q 3544 3216 3844 3400 
Q 4144 3584 4550 3584 
Q 5097 3584 5394 3201 
Q 5691 2819 5691 2113 
L 5691 0 
L 5113 0 
L 5113 2094 
Q 5113 2597 4934 2840 
Q 4756 3084 4391 3084 
Q 3944 3084 3684 2787 
Q 3425 2491 3425 1978 
L 3425 0 
L 2847 0 
L 2847 2094 
Q 2847 2600 2669 2842 
Q 2491 3084 2119 3084 
Q 1678 3084 1418 2786 
Q 1159 2488 1159 1978 
L 1159 0 
L 581 0 
L 581 3500 
L 1159 3500 
L 1159 2956 
Q 1356 3278 1631 3431 
Q 1906 3584 2284 3584 
Q 2666 3584 2933 3390 
Q 3200 3197 3328 2828 
z
" transform="scale(0.015625)"/>
       <path id="DejaVuSans-65" d="M 3597 1894 
L 3597 1613 
L 953 1613 
Q 991 1019 1311 708 
Q 1631 397 2203 397 
Q 2534 397 2845 478 
Q 3156 559 3463 722 
L 3463 178 
Q 3153 47 2828 -22 
Q 2503 -91 2169 -91 
Q 1331 -91 842 396 
Q 353 884 353 1716 
Q 353 2575 817 3079 
Q 1281 3584 2069 3584 
Q 2775 3584 3186 3129 
Q 3597 2675 3597 1894 
z
M 3022 2063 
Q 3016 2534 2758 2815 
Q 2500 3097 2075 3097 
Q 1594 3097 1305 2825 
Q 1016 2553 972 2059 
L 3022 2063 
z
" transform="scale(0.015625)"/>
       <path id="DejaVuSans-20" transform="scale(0.015625)"/>
       <path id="DejaVuSans-6e" d="M 3513 2113 
L 3513 0 
L 2938 0 
L 2938 2094 
Q 2938 2591 2744 2837 
Q 2550 3084 2163 3084 
Q 1697 3084 1428 2787 
Q 1159 2491 1159 1978 
L 1159 0 
L 581 0 
L 581 3500 
L 1159 3500 
L 1159 2956 
Q 1366 3272 1645 3428 
Q 1925 3584 2291 3584 
Q 2894 3584 3203 3211 
Q 3513 2838 3513 2113 
z
" transform="scale(0.015625)"/>
       <path id="DejaVuSans-70" d="M 1159 525 
L 1159 -1331 
L 581 -1331 
L 581 3500 
L 1159 3500 
L 1159 2969 
Q 1341 3281 1617 3432 
Q 1894 3584 2278 3584 
Q 2916 3584 3314 3078 
Q 3713 2572 3713 1747 
Q 3713 922 3314 415 
Q 2916 -91 2278 -91 
Q 1894 -91 1617 61 
Q 1341 213 1159 525 
z
M 3116 1747 
Q 3116 2381 2855 2742 
Q 2594 3103 2138 3103 
Q 1681 3103 1420 2742 
Q 1159 2381 1159 1747 
Q 1159 1113 1420 752 
Q 1681 391 2138 391 
Q 2594 391 2855 752 
Q 3116 1113 3116 1747 
z
" transform="scale(0.015625)"/>
       <path id="DejaVuSans-72" d="M 2631 2963 
Q 2534 3019 2420 3045 
Q 2306 3072 2169 3072 
Q 1681 3072 1420 2755 
Q 1159 2438 1159 1844 
L 1159 0 
L 581 0 
L 581 3500 
L 1159 3500 
L 1159 2956 
Q 1341 3275 1631 3429 
Q 1922 3584 2338 3584 
Q 2397 3584 2469 3576 
Q 2541 3569 2628 3553 
L 2631 2963 
z
" transform="scale(0.015625)"/>
       <path id="DejaVuSans-6f" d="M 1959 3097 
Q 1497 3097 1228 2736 
Q 959 2375 959 1747 
Q 959 1119 1226 758 
Q 1494 397 1959 397 
Q 2419 397 2687 759 
Q 2956 1122 2956 1747 
Q 2956 2369 2687 2733 
Q 2419 3097 1959 3097 
z
M 1959 3584 
Q 2709 3584 3137 3096 
Q 3566 2609 3566 1747 
Q 3566 888 3137 398 
Q 2709 -91 1959 -91 
Q 1206 -91 779 398 
Q 353 888 353 1747 
Q 353 2609 779 3096 
Q 1206 3584 1959 3584 
z
" transform="scale(0.015625)"/>
       <path id="DejaVuSans-63" d="M 3122 3366 
L 3122 2828 
Q 2878 2963 2633 3030 
Q 2388 3097 2138 3097 
Q 1578 3097 1268 2742 
Q 959 2388 959 1747 
Q 959 1106 1268 751 
Q 1578 397 2138 397 
Q 2388 397 2633 464 
Q 2878 531 3122 666 
L 3122 134 
Q 2881 22 2623 -34 
Q 2366 -91 2075 -91 
Q 1284 -91 818 406 
Q 353 903 353 1747 
Q 353 2603 823 3093 
Q 1294 3584 2113 3584 
Q 2378 3584 2631 3529 
Q 2884 3475 3122 3366 
z
" transform="scale(0.015625)"/>
       <path id="DejaVuSans-73" d="M 2834 3397 
L 2834 2853 
Q 2591 2978 2328 3040 
Q 2066 3103 1784 3103 
Q 1356 3103 1142 2972 
Q 928 2841 928 2578 
Q 928 2378 1081 2264 
Q 1234 2150 1697 2047 
L 1894 2003 
Q 2506 1872 2764 1633 
Q 3022 1394 3022 966 
Q 3022 478 2636 193 
Q 2250 -91 1575 -91 
Q 1294 -91 989 -36 
Q 684 19 347 128 
L 347 722 
Q 666 556 975 473 
Q 1284 391 1588 391 
Q 1994 391 2212 530 
Q 2431 669 2431 922 
Q 2431 1156 2273 1281 
Q 2116 1406 1581 1522 
L 1381 1569 
Q 847 1681 609 1914 
Q 372 2147 372 2553 
Q 372 3047 722 3315 
Q 1072 3584 1716 3584 
Q 2034 3584 2315 3537 
Q 2597 3491 2834 3397 
z
" transform="scale(0.015625)"/>
       <path id="DejaVuSans-28" d="M 1984 4856 
Q 1566 4138 1362 3434 
Q 1159 2731 1159 2009 
Q 1159 1288 1364 580 
Q 1569 -128 1984 -844 
L 1484 -844 
Q 1016 -109 783 600 
Q 550 1309 550 2009 
Q 550 2706 781 3412 
Q 1013 4119 1484 4856 
L 1984 4856 
z
" transform="scale(0.015625)"/>
       <path id="DejaVuSans-64" d="M 2906 2969 
L 2906 4863 
L 3481 4863 
L 3481 0 
L 2906 0 
L 2906 525 
Q 2725 213 2448 61 
Q 2172 -91 1784 -91 
Q 1150 -91 751 415 
Q 353 922 353 1747 
Q 353 2572 751 3078 
Q 1150 3584 1784 3584 
Q 2172 3584 2448 3432 
Q 2725 3281 2906 2969 
z
M 947 1747 
Q 947 1113 1208 752 
Q 1469 391 1925 391 
Q 2381 391 2643 752 
Q 2906 1113 2906 1747 
Q 2906 2381 2643 2742 
Q 2381 3103 1925 3103 
Q 1469 3103 1208 2742 
Q 947 2381 947 1747 
z
" transform="scale(0.015625)"/>
       <path id="DejaVuSans-29" d="M 513 4856 
L 1013 4856 
Q 1481 4119 1714 3412 
Q 1947 2706 1947 2009 
Q 1947 1309 1714 600 
Q 1481 -109 1013 -844 
L 513 -844 
Q 928 -128 1133 580 
Q 1338 1288 1338 2009 
Q 1338 2731 1133 3434 
Q 928 4138 513 4856 
z
" transform="scale(0.015625)"/>
      </defs>
      <use xlink:href="#DejaVuSans-74"/>
      <use xlink:href="#DejaVuSans-69" x="39.208984"/>
      <use xlink:href="#DejaVuSans-6d" x="66.992188"/>
      <use xlink:href="#DejaVuSans-65" x="164.404297"/>
      <use xlink:href="#DejaVuSans-20" x="225.927734"/>
      <use xlink:href="#DejaVuSans-69" x="257.714844"/>
      <use xlink:href="#DejaVuSans-6e" x="285.498047"/>
      <use xlink:href="#DejaVuSans-20" x="348.876953"/>
      <use xlink:href="#DejaVuSans-70" x="380.664062"/>
      <use xlink:href="#DejaVuSans-72" x="444.140625"/>
      <use xlink:href="#DejaVuSans-6f" x="483.003906"/>
      <use xlink:href="#DejaVuSans-63" x="544.185547"/>
      <use xlink:href="#DejaVuSans-65" x="599.166016"/>
      <use xlink:href="#DejaVuSans-73" x="660.689453"/>
      <use xlink:href="#DejaVuSans-73" x="712.789062"/>
      <use xlink:href="#DejaVuSans-20" x="764.888672"/>
      <use xlink:href="#DejaVuSans-28" x="796.675781"/>
      <use xlink:href="#DejaVuSans-73" x="835.689453"/>
      <use xlink:href="#DejaVuSans-65" x="887.789062"/>
      <use xlink:href="#DejaVuSans-63" x="949.3125"/>
      <use xlink:href="#DejaVuSans-6f" x="1004.292969"/>
      <use xlink:href="#DejaVuSans-6e" x="1065.474609"/>
      <use xlink:href="#DejaVuSans-64" x="1128.853516"/>
      <use xlink:href="#DejaVuSans-73" x="1192.330078"/>
      <use xlink:href="#DejaVuSans-29" x="1244.429688"/>
     </g>
    </g>
   </g>
   <g id="matplotlib.axis_2">
    <g id="ytick_1">
     <g id="line2d_6">
      <defs>
       <path id="m78a5239b37" d="M 0 0 
L -3.5 0 
" style="stroke: #000000; stroke-width: 0.8"/>
      </defs>
      <g>
       <use xlink:href="#m78a5239b37" x="135" y="256.32" style="stroke: #000000; stroke-width: 0.8"/>
      </g>
     </g>
     <g id="text_7">
      <!-- 0 -->
      <g transform="translate(121.6375 260.119219) scale(0.1 -0.1)">
       <use xlink:href="#DejaVuSans-30"/>
      </g>
     </g>
    </g>
    <g id="ytick_2">
     <g id="line2d_7">
      <g>
       <use xlink:href="#m78a5239b37" x="135" y="228.82" style="stroke: #000000; stroke-width: 0.8"/>
      </g>
     </g>
     <g id="text_8">
      <!-- 2500 -->
      <g transform="translate(102.55 232.619219) scale(0.1 -0.1)">
       <defs>
        <path id="DejaVuSans-35" d="M 691 4666 
L 3169 4666 
L 3169 4134 
L 1269 4134 
L 1269 2991 
Q 1406 3038 1543 3061 
Q 1681 3084 1819 3084 
Q 2600 3084 3056 2656 
Q 3513 2228 3513 1497 
Q 3513 744 3044 326 
Q 2575 -91 1722 -91 
Q 1428 -91 1123 -41 
Q 819 9 494 109 
L 494 744 
Q 775 591 1075 516 
Q 1375 441 1709 441 
Q 2250 441 2565 725 
Q 2881 1009 2881 1497 
Q 2881 1984 2565 2268 
Q 2250 2553 1709 2553 
Q 1456 2553 1204 2497 
Q 953 2441 691 2322 
L 691 4666 
z
" transform="scale(0.015625)"/>
       </defs>
       <use xlink:href="#DejaVuSans-32"/>
       <use xlink:href="#DejaVuSans-35" x="63.623047"/>
       <use xlink:href="#DejaVuSans-30" x="127.246094"/>
       <use xlink:href="#DejaVuSans-30" x="190.869141"/>
      </g>
     </g>
    </g>
    <g id="ytick_3">
     <g id="line2d_8">
      <g>
       <use xlink:href="#m78a5239b37" x="135" y="201.32" style="stroke: #000000; stroke-width: 0.8"/>
      </g>
     </g>
     <g id="text_9">
      <!-- 5000 -->
      <g transform="translate(102.55 205.119219) scale(0.1 -0.1)">
       <use xlink:href="#DejaVuSans-35"/>
       <use xlink:href="#DejaVuSans-30" x="63.623047"/>
       <use xlink:href="#DejaVuSans-30" x="127.246094"/>
       <use xlink:href="#DejaVuSans-30" x="190.869141"/>
      </g>
     </g>
    </g>
    <g id="ytick_4">
     <g id="line2d_9">
      <g>
       <use xlink:href="#m78a5239b37" x="135" y="173.82" style="stroke: #000000; stroke-width: 0.8"/>
      </g>
     </g>
     <g id="text_10">
      <!-- 7500 -->
      <g transform="translate(102.55 177.619219) scale(0.1 -0.1)">
       <defs>
        <path id="DejaVuSans-37" d="M 525 4666 
L 3525 4666 
L 3525 4397 
L 1831 0 
L 1172 0 
L 2766 4134 
L 525 4134 
L 525 4666 
z
" transform="scale(0.015625)"/>
       </defs>
       <use xlink:href="#DejaVuSans-37"/>
       <use xlink:href="#DejaVuSans-35" x="63.623047"/>
       <use xlink:href="#DejaVuSans-30" x="127.246094"/>
       <use xlink:href="#DejaVuSans-30" x="190.869141"/>
      </g>
     </g>
    </g>
    <g id="ytick_5">
     <g id="line2d_10">
      <g>
       <use xlink:href="#m78a5239b37" x="135" y="146.32" style="stroke: #000000; stroke-width: 0.8"/>
      </g>
     </g>
     <g id="text_11">
      <!-- 10000 -->
      <g transform="translate(96.1875 150.119219) scale(0.1 -0.1)">
       <use xlink:href="#DejaVuSans-31"/>
       <use xlink:href="#DejaVuSans-30" x="63.623047"/>
       <use xlink:href="#DejaVuSans-30" x="127.246094"/>
       <use xlink:href="#DejaVuSans-30" x="190.869141"/>
       <use xlink:href="#DejaVuSans-30" x="254.492188"/>
      </g>
     </g>
    </g>
    <g id="ytick_6">
     <g id="line2d_11">
      <g>
       <use xlink:href="#m78a5239b37" x="135" y="118.82" style="stroke: #000000; stroke-width: 0.8"/>
      </g>
     </g>
     <g id="text_12">
      <!-- 12500 -->
      <g transform="translate(96.1875 122.619219) scale(0.1 -0.1)">
       <use xlink:href="#DejaVuSans-31"/>
       <use xlink:href="#DejaVuSans-32" x="63.623047"/>
       <use xlink:href="#DejaVuSans-35" x="127.246094"/>
       <use xlink:href="#DejaVuSans-30" x="190.869141"/>
       <use xlink:href="#DejaVuSans-30" x="254.492188"/>
      </g>
     </g>
    </g>
    <g id="ytick_7">
     <g id="line2d_12">
      <g>
       <use xlink:href="#m78a5239b37" x="135" y="91.32" style="stroke: #000000; stroke-width: 0.8"/>
      </g>
     </g>
     <g id="text_13">
      <!-- 15000 -->
      <g transform="translate(96.1875 95.119219) scale(0.1 -0.1)">
       <use xlink:href="#DejaVuSans-31"/>
       <use xlink:href="#DejaVuSans-35" x="63.623047"/>
       <use xlink:href="#DejaVuSans-30" x="127.246094"/>
       <use xlink:href="#DejaVuSans-30" x="190.869141"/>
       <use xlink:href="#DejaVuSans-30" x="254.492188"/>
      </g>
     </g>
    </g>
    <g id="ytick_8">
     <g id="line2d_13">
      <g>
       <use xlink:href="#m78a5239b37" x="135" y="63.82" style="stroke: #000000; stroke-width: 0.8"/>
      </g>
     </g>
     <g id="text_14">
      <!-- 17500 -->
      <g transform="translate(96.1875 67.619219) scale(0.1 -0.1)">
       <use xlink:href="#DejaVuSans-31"/>
       <use xlink:href="#DejaVuSans-37" x="63.623047"/>
       <use xlink:href="#DejaVuSans-35" x="127.246094"/>
       <use xlink:href="#DejaVuSans-30" x="190.869141"/>
       <use xlink:href="#DejaVuSans-30" x="254.492188"/>
      </g>
     </g>
    </g>
    <g id="ytick_9">
     <g id="line2d_14">
      <g>
       <use xlink:href="#m78a5239b37" x="135" y="36.32" style="stroke: #000000; stroke-width: 0.8"/>
      </g>
     </g>
     <g id="text_15">
      <!-- 20000 -->
      <g transform="translate(96.1875 40.119219) scale(0.1 -0.1)">
       <use xlink:href="#DejaVuSans-32"/>
       <use xlink:href="#DejaVuSans-30" x="63.623047"/>
       <use xlink:href="#DejaVuSans-30" x="127.246094"/>
       <use xlink:href="#DejaVuSans-30" x="190.869141"/>
       <use xlink:href="#DejaVuSans-30" x="254.492188"/>
      </g>
     </g>
    </g>
    <g id="text_16">
     <!-- % CPU usilization -->
     <g transform="translate(90.107812 188.740781) rotate(-90) scale(0.1 -0.1)">
      <defs>
       <path id="DejaVuSans-25" d="M 4653 2053 
Q 4381 2053 4226 1822 
Q 4072 1591 4072 1178 
Q 4072 772 4226 539 
Q 4381 306 4653 306 
Q 4919 306 5073 539 
Q 5228 772 5228 1178 
Q 5228 1588 5073 1820 
Q 4919 2053 4653 2053 
z
M 4653 2450 
Q 5147 2450 5437 2106 
Q 5728 1763 5728 1178 
Q 5728 594 5436 251 
Q 5144 -91 4653 -91 
Q 4153 -91 3862 251 
Q 3572 594 3572 1178 
Q 3572 1766 3864 2108 
Q 4156 2450 4653 2450 
z
M 1428 4353 
Q 1159 4353 1004 4120 
Q 850 3888 850 3481 
Q 850 3069 1003 2837 
Q 1156 2606 1428 2606 
Q 1700 2606 1854 2837 
Q 2009 3069 2009 3481 
Q 2009 3884 1853 4118 
Q 1697 4353 1428 4353 
z
M 4250 4750 
L 4750 4750 
L 1831 -91 
L 1331 -91 
L 4250 4750 
z
M 1428 4750 
Q 1922 4750 2215 4408 
Q 2509 4066 2509 3481 
Q 2509 2891 2217 2550 
Q 1925 2209 1428 2209 
Q 931 2209 642 2551 
Q 353 2894 353 3481 
Q 353 4063 643 4406 
Q 934 4750 1428 4750 
z
" transform="scale(0.015625)"/>
       <path id="DejaVuSans-43" d="M 4122 4306 
L 4122 3641 
Q 3803 3938 3442 4084 
Q 3081 4231 2675 4231 
Q 1875 4231 1450 3742 
Q 1025 3253 1025 2328 
Q 1025 1406 1450 917 
Q 1875 428 2675 428 
Q 3081 428 3442 575 
Q 3803 722 4122 1019 
L 4122 359 
Q 3791 134 3420 21 
Q 3050 -91 2638 -91 
Q 1578 -91 968 557 
Q 359 1206 359 2328 
Q 359 3453 968 4101 
Q 1578 4750 2638 4750 
Q 3056 4750 3426 4639 
Q 3797 4528 4122 4306 
z
" transform="scale(0.015625)"/>
       <path id="DejaVuSans-50" d="M 1259 4147 
L 1259 2394 
L 2053 2394 
Q 2494 2394 2734 2622 
Q 2975 2850 2975 3272 
Q 2975 3691 2734 3919 
Q 2494 4147 2053 4147 
L 1259 4147 
z
M 628 4666 
L 2053 4666 
Q 2838 4666 3239 4311 
Q 3641 3956 3641 3272 
Q 3641 2581 3239 2228 
Q 2838 1875 2053 1875 
L 1259 1875 
L 1259 0 
L 628 0 
L 628 4666 
z
" transform="scale(0.015625)"/>
       <path id="DejaVuSans-55" d="M 556 4666 
L 1191 4666 
L 1191 1831 
Q 1191 1081 1462 751 
Q 1734 422 2344 422 
Q 2950 422 3222 751 
Q 3494 1081 3494 1831 
L 3494 4666 
L 4128 4666 
L 4128 1753 
Q 4128 841 3676 375 
Q 3225 -91 2344 -91 
Q 1459 -91 1007 375 
Q 556 841 556 1753 
L 556 4666 
z
" transform="scale(0.015625)"/>
       <path id="DejaVuSans-75" d="M 544 1381 
L 544 3500 
L 1119 3500 
L 1119 1403 
Q 1119 906 1312 657 
Q 1506 409 1894 409 
Q 2359 409 2629 706 
Q 2900 1003 2900 1516 
L 2900 3500 
L 3475 3500 
L 3475 0 
L 2900 0 
L 2900 538 
Q 2691 219 2414 64 
Q 2138 -91 1772 -91 
Q 1169 -91 856 284 
Q 544 659 544 1381 
z
M 1991 3584 
L 1991 3584 
z
" transform="scale(0.015625)"/>
       <path id="DejaVuSans-6c" d="M 603 4863 
L 1178 4863 
L 1178 0 
L 603 0 
L 603 4863 
z
" transform="scale(0.015625)"/>
       <path id="DejaVuSans-7a" d="M 353 3500 
L 3084 3500 
L 3084 2975 
L 922 459 
L 3084 459 
L 3084 0 
L 275 0 
L 275 525 
L 2438 3041 
L 353 3041 
L 353 3500 
z
" transform="scale(0.015625)"/>
       <path id="DejaVuSans-61" d="M 2194 1759 
Q 1497 1759 1228 1600 
Q 959 1441 959 1056 
Q 959 750 1161 570 
Q 1363 391 1709 391 
Q 2188 391 2477 730 
Q 2766 1069 2766 1631 
L 2766 1759 
L 2194 1759 
z
M 3341 1997 
L 3341 0 
L 2766 0 
L 2766 531 
Q 2569 213 2275 61 
Q 1981 -91 1556 -91 
Q 1019 -91 701 211 
Q 384 513 384 1019 
Q 384 1609 779 1909 
Q 1175 2209 1959 2209 
L 2766 2209 
L 2766 2266 
Q 2766 2663 2505 2880 
Q 2244 3097 1772 3097 
Q 1472 3097 1187 3025 
Q 903 2953 641 2809 
L 641 3341 
Q 956 3463 1253 3523 
Q 1550 3584 1831 3584 
Q 2591 3584 2966 3190 
Q 3341 2797 3341 1997 
z
" transform="scale(0.015625)"/>
      </defs>
      <use xlink:href="#DejaVuSans-25"/>
      <use xlink:href="#DejaVuSans-20" x="95.019531"/>
      <use xlink:href="#DejaVuSans-43" x="126.806641"/>
      <use xlink:href="#DejaVuSans-50" x="196.630859"/>
      <use xlink:href="#DejaVuSans-55" x="256.933594"/>
      <use xlink:href="#DejaVuSans-20" x="330.126953"/>
      <use xlink:href="#DejaVuSans-75" x="361.914062"/>
      <use xlink:href="#DejaVuSans-73" x="425.292969"/>
      <use xlink:href="#DejaVuSans-69" x="477.392578"/>
      <use xlink:href="#DejaVuSans-6c" x="505.175781"/>
      <use xlink:href="#DejaVuSans-69" x="532.958984"/>
      <use xlink:href="#DejaVuSans-7a" x="560.742188"/>
      <use xlink:href="#DejaVuSans-61" x="613.232422"/>
      <use xlink:href="#DejaVuSans-74" x="674.511719"/>
      <use xlink:href="#DejaVuSans-69" x="713.720703"/>
      <use xlink:href="#DejaVuSans-6f" x="741.503906"/>
      <use xlink:href="#DejaVuSans-6e" x="802.685547"/>
     </g>
    </g>
   </g>
   <g id="line2d_15">
    <path d="M 135 256.32 
L 149.330658 256.32 
L 151.12199 238.94 
L 152.913323 81.09 
L 154.704655 45.12 
L 156.495987 62.324 
L 158.287319 45.12 
L 165.452648 45.12 
L 167.243981 62.423 
L 169.035313 45.12 
L 174.40931 45.12 
L 176.200642 62.423 
L 177.991974 45.12 
L 186.948636 45.12 
L 188.739968 60.421 
L 190.5313 45.12 
L 195.905297 45.12 
L 197.696629 54.723 
L 199.487961 45.12 
L 204.861958 45.12 
L 206.653291 56.725 
L 208.444623 45.12 
L 215.609952 45.12 
L 217.401284 58.617 
L 219.192616 45.12 
L 222.775281 45.12 
L 224.566613 62.324 
L 226.357945 45.12 
L 233.523274 45.12 
L 235.314607 62.324 
L 237.105939 45.12 
L 244.271268 45.12 
L 246.0626 54.723 
L 247.853933 45.12 
L 253.227929 45.12 
L 255.019262 60.421 
L 256.810594 45.12 
L 260.393258 45.12 
L 262.184591 62.423 
L 263.975923 45.12 
L 272.932584 45.12 
L 274.723917 56.615 
L 276.515249 45.12 
L 280.097913 45.12 
L 281.889246 56.516 
L 283.680578 45.12 
L 290.845907 45.12 
L 292.637239 56.725 
L 294.428571 45.12 
L 299.802568 45.12 
L 301.5939 56.615 
L 303.385233 45.12 
L 310.550562 45.12 
L 312.341894 58.518 
L 314.133226 45.12 
L 319.507223 45.12 
L 321.298555 62.522 
L 323.089888 45.12 
L 330.255217 45.12 
L 332.046549 62.423 
L 333.837881 45.12 
L 339.211878 45.12 
L 341.00321 62.423 
L 342.794543 45.12 
L 349.959872 45.12 
L 351.751204 58.617 
L 353.542536 45.12 
L 358.916533 45.12 
L 360.707865 62.423 
L 362.499197 45.12 
L 369.664526 45.12 
L 371.455859 60.421 
L 373.247191 45.12 
L 376.829856 45.12 
L 378.621188 54.723 
L 380.41252 45.12 
L 382.203852 45.12 
L 383.995185 45.67 
L 385.786517 62.72 
L 387.577849 89.89 
L 389.369181 93.96 
L 391.160514 103.09 
L 392.951846 123.77 
L 394.743178 148.3 
L 396.53451 159.421 
L 398.325843 149.62 
L 400.117175 150.72 
L 401.908507 149.62 
L 403.699839 151.49 
L 405.491172 158.2 
L 407.282504 176.57 
L 409.073836 189.44 
L 410.865169 198.35 
L 412.656501 226.4 
L 414.447833 244.66 
L 416.239165 256.32 
L 466.396469 256.32 
L 466.396469 256.32 
" clip-path="url(#p60a4c096aa)" style="fill: none; stroke: #ff0000; stroke-width: 1.5; stroke-linecap: square"/>
   </g>
   <g id="line2d_16">
    <path d="M 135 256.32 
L 149.330658 256.32 
L 151.12199 251.26 
L 152.913323 135.54 
L 154.704655 115.52 
L 156.495987 127.015 
L 158.287319 114.09 
L 161.869984 114.09 
L 163.661316 115.63 
L 165.452648 114.09 
L 167.243981 113.98 
L 169.035313 114.2 
L 170.826645 115.52 
L 172.617978 114.2 
L 174.40931 113.98 
L 176.200642 114.2 
L 177.991974 115.52 
L 179.783307 127.015 
L 181.574639 114.09 
L 183.365971 114.2 
L 185.157303 114.09 
L 186.948636 115.52 
L 188.739968 114.09 
L 192.322632 114.09 
L 194.113965 115.52 
L 195.905297 114.09 
L 197.696629 114.2 
L 199.487961 114.09 
L 201.279294 115.52 
L 203.070626 127.015 
L 204.861958 114.09 
L 206.653291 114.2 
L 208.444623 115.52 
L 210.235955 114.2 
L 213.81862 113.98 
L 215.609952 114.2 
L 217.401284 115.52 
L 219.192616 114.09 
L 222.775281 114.09 
L 224.566613 115.52 
L 226.357945 127.015 
L 228.149278 114.2 
L 229.94061 114.09 
L 231.731942 115.52 
L 233.523274 114.09 
L 235.314607 114.2 
L 237.105939 114.09 
L 238.897271 115.41 
L 240.688604 114.2 
L 244.271268 114.09 
L 246.0626 114.2 
L 247.853933 114.97 
L 249.645265 127.521 
L 251.436597 114.09 
L 253.227929 114.2 
L 256.810594 114.09 
L 258.601926 115.52 
L 260.393258 114.09 
L 262.184591 114.09 
L 263.975923 114.53 
L 265.767255 113.98 
L 267.558587 115.52 
L 269.34992 114.2 
L 271.141252 127.015 
L 272.932584 114.09 
L 274.723917 114.09 
L 276.515249 114.86 
L 278.306581 114.86 
L 280.097913 114.2 
L 283.680578 114.09 
L 285.47191 115.52 
L 287.263242 114.09 
L 290.845907 114.09 
L 292.637239 115.52 
L 294.428571 127.125 
L 296.219904 114.09 
L 301.5939 114.09 
L 303.385233 115.52 
L 305.176565 114.2 
L 308.75923 114.09 
L 310.550562 115.08 
L 314.133226 114.09 
L 315.924559 127.125 
L 317.715891 118.27 
L 319.507223 125.09 
L 321.298555 126.08 
L 323.089888 127.51 
L 324.88122 131.36 
L 326.672552 146.1 
L 328.463884 149.51 
L 330.255217 150.72 
L 332.046549 149.73 
L 333.837881 151.71 
L 335.629213 150.72 
L 337.420546 151.82 
L 339.211878 150.72 
L 341.00321 151.93 
L 342.794543 151.16 
L 344.585875 151.82 
L 346.377207 162.325 
L 348.168539 151.93 
L 349.959872 153.47 
L 351.751204 153.03 
L 353.542536 154.13 
L 355.333868 153.58 
L 357.125201 155.12 
L 358.916533 154.02 
L 360.707865 155.23 
L 362.499197 154.02 
L 364.29053 156 
L 366.081862 155.12 
L 367.873194 156.33 
L 369.664526 155.45 
L 371.455859 157.43 
L 373.247191 156.33 
L 375.038523 157.32 
L 376.829856 156.22 
L 378.621188 157.43 
L 380.41252 166.021 
L 382.203852 158.53 
L 383.995185 157.43 
L 385.786517 158.53 
L 387.577849 158.64 
L 389.369181 159.52 
L 391.160514 158.53 
L 392.951846 159.52 
L 394.743178 158.64 
L 396.53451 159.41 
L 398.325843 158.64 
L 400.117175 159.41 
L 401.908507 158.64 
L 403.699839 158.53 
L 405.491172 160.62 
L 407.282504 160.84 
L 409.073836 161.61 
L 410.865169 160.84 
L 412.656501 161.72 
L 414.447833 169.519 
L 416.239165 161.72 
L 418.030498 161.5 
L 419.82183 164.36 
L 421.613162 164.25 
L 423.404494 167.66 
L 425.195827 167.44 
L 426.987159 168.43 
L 428.778491 169.09 
L 430.569823 170.52 
L 432.361156 169.75 
L 434.152488 170.52 
L 435.94382 170.41 
L 437.735152 171.62 
L 439.526485 170.85 
L 441.317817 172.94 
L 443.109149 172.94 
L 444.900482 173.82 
L 446.691814 172.94 
L 448.483146 174.81 
L 450.274478 182.422 
L 452.065811 175.91 
L 453.857143 175.25 
L 455.648475 176.02 
L 457.439807 176.13 
L 459.23114 177.12 
L 461.022472 177.45 
L 462.813804 178.22 
L 464.605136 177.45 
L 466.396469 180.09 
L 468.187801 179.87 
L 469.979133 181.52 
L 471.770465 180.86 
L 473.561798 181.52 
L 475.35313 180.64 
L 477.144462 182.29 
L 478.935795 181.85 
L 480.727127 182.73 
L 482.518459 181.85 
L 484.309791 183.06 
L 486.101124 183.61 
L 487.892456 192.124 
L 489.683788 188.45 
L 491.47512 193.29 
L 493.266453 197.25 
L 495.057785 202.53 
L 496.849117 205.06 
L 498.640449 208.14 
L 500.431782 211.99 
L 502.223114 212.98 
L 504.014446 219.47 
L 507.597111 228.49 
L 509.388443 237.07 
L 511.179775 251.26 
L 512.971108 256.32 
L 563.128411 256.32 
L 563.128411 256.32 
" clip-path="url(#p60a4c096aa)" style="fill: none; stroke-dasharray: 5.55,2.4; stroke-dashoffset: 0; stroke: #ffa500; stroke-width: 1.5"/>
   </g>
   <g id="line2d_17">
    <path d="M 135 256.21 
L 138.582665 256.32 
L 151.12199 256.32 
L 152.913323 183.17 
L 154.704655 150.83 
L 156.495987 149.62 
L 158.287319 158.42 
L 160.078652 150.72 
L 161.869984 149.73 
L 163.661316 150.61 
L 165.452648 149.73 
L 167.243981 150.61 
L 169.035313 149.73 
L 170.826645 150.83 
L 172.617978 149.62 
L 174.40931 150.72 
L 176.200642 150.72 
L 177.991974 149.73 
L 179.783307 150.61 
L 181.574639 149.73 
L 183.365971 150.61 
L 185.157303 149.73 
L 186.948636 150.72 
L 188.739968 149.73 
L 190.5313 150.72 
L 192.322632 149.62 
L 194.113965 150.72 
L 195.905297 159.322 
L 197.696629 150.72 
L 199.487961 149.73 
L 201.279294 150.72 
L 203.070626 149.73 
L 204.861958 150.61 
L 206.653291 149.73 
L 208.444623 150.61 
L 210.235955 149.73 
L 212.027287 150.72 
L 213.81862 150.72 
L 215.609952 149.73 
L 217.401284 149.62 
L 219.192616 150.72 
L 220.983949 149.62 
L 222.775281 150.72 
L 224.566613 149.73 
L 226.357945 150.72 
L 228.149278 149.73 
L 229.94061 150.61 
L 231.731942 159.421 
L 233.523274 150.72 
L 235.314607 149.62 
L 237.105939 150.83 
L 238.897271 149.62 
L 240.688604 149.62 
L 242.479936 150.72 
L 244.271268 150.72 
L 246.0626 149.62 
L 247.853933 149.73 
L 249.645265 150.72 
L 251.436597 149.62 
L 253.227929 150.72 
L 255.019262 149.73 
L 256.810594 150.72 
L 258.601926 149.62 
L 260.393258 150.72 
L 262.184591 149.73 
L 263.975923 150.61 
L 265.767255 159.421 
L 267.558587 150.72 
L 269.34992 149.62 
L 271.141252 150.72 
L 272.932584 149.73 
L 274.723917 149.62 
L 276.515249 150.72 
L 278.306581 149.73 
L 280.097913 149.62 
L 281.889246 150.72 
L 283.680578 149.62 
L 285.47191 149.73 
L 287.263242 149.62 
L 289.054575 150.83 
L 290.845907 149.62 
L 292.637239 159.322 
L 294.428571 149.73 
L 296.219904 150.72 
L 298.011236 149.62 
L 299.802568 149.62 
L 301.5939 150.72 
L 303.385233 149.73 
L 305.176565 150.72 
L 306.967897 149.73 
L 308.75923 150.61 
L 310.550562 150.39 
L 312.341894 151.82 
L 314.133226 150.83 
L 315.924559 151.82 
L 317.715891 150.72 
L 319.507223 150.83 
L 321.298555 151.82 
L 323.089888 160.422 
L 324.88122 152.15 
L 326.672552 151.93 
L 328.463884 152.92 
L 330.255217 151.93 
L 332.046549 152.81 
L 333.837881 151.93 
L 335.629213 153.25 
L 337.420546 153.8 
L 339.211878 155.12 
L 341.00321 154.13 
L 342.794543 155.12 
L 344.585875 154.35 
L 346.377207 156.22 
L 348.168539 155.23 
L 349.959872 156.22 
L 351.751204 155.23 
L 353.542536 156.22 
L 355.333868 155.23 
L 357.125201 156.11 
L 358.916533 164.525 
L 360.707865 155.12 
L 362.499197 156.33 
L 364.29053 155.34 
L 366.081862 157.43 
L 367.873194 156.22 
L 369.664526 157.32 
L 371.455859 156.33 
L 373.247191 157.43 
L 375.038523 156.22 
L 376.829856 157.32 
L 378.621188 156.33 
L 380.41252 157.32 
L 382.203852 157.43 
L 383.995185 158.42 
L 385.786517 157.43 
L 387.577849 158.42 
L 389.369181 157.43 
L 391.160514 158.42 
L 392.951846 166.417 
L 394.743178 158.42 
L 396.53451 157.54 
L 398.325843 158.31 
L 400.117175 157.87 
L 401.908507 159.74 
L 403.699839 159.74 
L 405.491172 160.62 
L 407.282504 159.63 
L 409.073836 159.74 
L 410.865169 160.51 
L 412.656501 159.74 
L 414.447833 160.62 
L 416.239165 160.62 
L 418.030498 161.61 
L 419.82183 160.84 
L 421.613162 162.05 
L 423.404494 161.83 
L 425.195827 162.93 
L 426.987159 170.421 
L 428.778491 162.82 
L 430.569823 161.83 
L 432.361156 162.93 
L 434.152488 161.83 
L 435.94382 162.82 
L 437.735152 162.38 
L 439.526485 164.03 
L 441.317817 162.93 
L 443.109149 164.47 
L 444.900482 164.25 
L 446.691814 166.01 
L 448.483146 165.13 
L 450.274478 166.23 
L 452.065811 165.35 
L 453.857143 167.99 
L 455.648475 168.1 
L 457.439807 169.42 
L 459.23114 168.54 
L 461.022472 169.42 
L 462.813804 176.515 
L 464.605136 169.53 
L 466.396469 168.43 
L 468.187801 170.41 
L 469.979133 170.52 
L 471.770465 171.62 
L 473.561798 170.96 
L 475.35313 173.05 
L 477.144462 172.94 
L 478.935795 173.93 
L 480.727127 172.83 
L 482.518459 173.93 
L 484.309791 173.6 
L 486.101124 174.81 
L 487.892456 175.36 
L 489.683788 177.78 
L 491.47512 177.45 
L 493.266453 179.65 
L 495.057785 179.76 
L 496.849117 180.31 
L 498.640449 186.723 
L 500.431782 180.31 
L 502.223114 179.65 
L 504.014446 182.51 
L 505.805778 181.96 
L 507.597111 182.62 
L 509.388443 183.61 
L 511.179775 186.58 
L 514.76244 188.12 
L 516.553772 187.46 
L 518.345104 189.22 
L 520.136437 190.1 
L 521.927769 189.55 
L 523.719101 190.43 
L 525.510433 189.66 
L 529.093098 191.97 
L 530.88443 196.15 
L 532.675762 203.322 
L 534.467095 200.66 
L 536.258427 201.43 
L 538.049759 204.73 
L 539.841091 205.39 
L 541.632424 207.48 
L 543.423756 209.24 
L 545.215088 212.76 
L 547.006421 215.62 
L 548.797753 219.8 
L 550.589085 224.97 
L 552.380417 232.45 
L 554.17175 239.05 
L 555.963082 243.01 
L 557.754414 251.04 
L 559.545746 255.99 
L 561.337079 256.32 
L 611.494382 256.32 
L 611.494382 256.32 
" clip-path="url(#p60a4c096aa)" style="fill: none; stroke-dasharray: 1.5,2.475; stroke-dashoffset: 0; stroke: #a52a2a; stroke-width: 1.5"/>
   </g>
   <g id="line2d_18">
    <path d="M 135 256.21 
L 138.582665 256.32 
L 151.12199 256.32 
L 152.913323 203.96 
L 154.704655 185.26 
L 156.495987 185.26 
L 158.287319 185.81 
L 160.078652 185.26 
L 161.869984 185.15 
L 163.661316 185.26 
L 165.452648 185.92 
L 167.243981 185.15 
L 169.035313 185.26 
L 170.826645 185.92 
L 172.617978 191.717 
L 174.40931 185.15 
L 176.200642 185.26 
L 177.991974 185.92 
L 179.783307 185.26 
L 181.574639 185.15 
L 183.365971 185.92 
L 185.157303 185.26 
L 186.948636 185.15 
L 188.739968 185.37 
L 190.5313 185.81 
L 192.322632 185.26 
L 194.113965 185.15 
L 195.905297 185.92 
L 197.696629 191.717 
L 199.487961 185.26 
L 201.279294 185.15 
L 203.070626 185.92 
L 204.861958 185.26 
L 206.653291 185.26 
L 208.444623 185.81 
L 210.235955 185.26 
L 212.027287 185.26 
L 213.81862 185.81 
L 215.609952 185.26 
L 219.192616 185.26 
L 220.983949 185.81 
L 222.775281 191.717 
L 224.566613 185.15 
L 226.357945 186.03 
L 228.149278 185.26 
L 229.94061 185.04 
L 231.731942 185.26 
L 233.523274 186.03 
L 235.314607 185.15 
L 237.105939 185.26 
L 238.897271 185.81 
L 240.688604 185.26 
L 242.479936 185.26 
L 244.271268 185.92 
L 246.0626 185.15 
L 247.853933 191.717 
L 249.645265 185.92 
L 251.436597 185.26 
L 255.019262 185.15 
L 256.810594 185.92 
L 258.601926 185.15 
L 260.393258 185.37 
L 262.184591 185.81 
L 263.975923 185.26 
L 267.558587 185.15 
L 269.34992 185.92 
L 271.141252 185.26 
L 272.932584 191.618 
L 274.723917 185.92 
L 276.515249 185.15 
L 280.097913 185.26 
L 281.889246 185.92 
L 283.680578 185.26 
L 285.47191 185.15 
L 287.263242 186.03 
L 289.054575 185.15 
L 290.845907 185.26 
L 292.637239 185.92 
L 294.428571 185.15 
L 296.219904 185.26 
L 298.011236 185.15 
L 299.802568 192.322 
L 301.5939 185.26 
L 305.176565 185.15 
L 306.967897 185.92 
L 308.75923 185.26 
L 310.550562 185.15 
L 312.341894 186.03 
L 314.133226 185.15 
L 315.924559 185.26 
L 317.715891 185.15 
L 319.507223 185.92 
L 321.298555 185.26 
L 323.089888 191.717 
L 324.88122 185.92 
L 326.672552 185.26 
L 328.463884 185.04 
L 330.255217 185.26 
L 332.046549 185.92 
L 333.837881 185.26 
L 335.629213 185.15 
L 337.420546 185.26 
L 339.211878 185.92 
L 341.00321 185.15 
L 344.585875 185.26 
L 346.377207 186.03 
L 348.168539 191.618 
L 349.959872 185.26 
L 351.751204 185.04 
L 353.542536 186.03 
L 355.333868 185.15 
L 358.916533 185.26 
L 360.707865 185.92 
L 362.499197 185.26 
L 364.29053 185.04 
L 366.081862 185.26 
L 367.873194 186.03 
L 369.664526 185.15 
L 371.455859 191.717 
L 373.247191 185.15 
L 375.038523 186.03 
L 376.829856 185.15 
L 378.621188 185.15 
L 380.41252 185.37 
L 382.203852 185.81 
L 383.995185 185.26 
L 385.786517 185.15 
L 387.577849 185.26 
L 389.369181 185.15 
L 391.160514 186.03 
L 392.951846 185.15 
L 394.743178 191.717 
L 396.53451 185.92 
L 398.325843 185.15 
L 401.908507 185.26 
L 403.699839 185.26 
L 405.491172 185.81 
L 407.282504 185.26 
L 414.447833 185.15 
L 416.239165 185.92 
L 418.030498 191.618 
L 419.82183 185.37 
L 421.613162 185.81 
L 423.404494 185.26 
L 425.195827 185.15 
L 426.987159 185.26 
L 428.778491 185.92 
L 430.569823 185.15 
L 434.152488 185.26 
L 435.94382 186.47 
L 439.526485 186.36 
L 441.317817 192.718 
L 443.109149 186.25 
L 444.900482 187.02 
L 446.691814 186.36 
L 450.274478 186.25 
L 452.065811 187.02 
L 453.857143 186.36 
L 459.23114 188.12 
L 461.022472 187.46 
L 462.813804 187.46 
L 464.605136 188.12 
L 466.396469 193.719 
L 468.187801 187.35 
L 469.979133 187.57 
L 471.770465 188.01 
L 473.561798 187.46 
L 475.35313 187.57 
L 477.144462 188.56 
L 478.935795 188.56 
L 480.727127 189.22 
L 482.518459 188.56 
L 484.309791 188.45 
L 486.101124 188.56 
L 487.892456 189.33 
L 489.683788 194.621 
L 491.47512 188.67 
L 493.266453 189.22 
L 495.057785 188.45 
L 498.640449 189 
L 500.431782 190.21 
L 502.223114 189.77 
L 504.014446 189.55 
L 507.597111 189.99 
L 511.179775 189.77 
L 512.971108 195.721 
L 514.76244 190.32 
L 516.553772 189.66 
L 518.345104 189.99 
L 521.927769 191.42 
L 523.719101 190.76 
L 527.301766 190.87 
L 529.093098 191.42 
L 530.88443 190.76 
L 532.675762 190.65 
L 534.467095 191.09 
L 536.258427 192.85 
L 538.049759 198.724 
L 539.841091 193.07 
L 541.632424 193.51 
L 543.423756 193.07 
L 545.215088 194.06 
L 547.006421 194.06 
L 548.797753 194.83 
L 550.589085 194.06 
L 554.17175 194.17 
L 555.963082 194.61 
L 557.754414 194.61 
L 561.337079 195.82 
L 563.128411 200.825 
L 564.919743 195.16 
L 566.711075 195.82 
L 568.502408 195.16 
L 570.29374 196.04 
L 572.085072 198.57 
L 573.876404 203.08 
L 575.667737 207.15 
L 577.459069 207.48 
L 579.250401 208.36 
L 581.041734 210.01 
L 582.833066 214.3 
L 586.41573 216.17 
L 588.207063 216.28 
L 589.998395 219.58 
L 591.789727 223.76 
L 593.581059 233.66 
L 595.372392 236.718 
L 597.163724 235.53 
L 598.955056 235.2 
L 600.746388 235.42 
L 602.537721 235.2 
L 604.329053 235.42 
L 606.120385 235.2 
L 607.911717 235.42 
L 609.70305 235.2 
L 611.494382 236.08 
L 616.868379 240.81 
L 618.659711 241.25 
L 622.242376 245.21 
L 624.033708 245.32 
L 625.82504 245.21 
L 629.407705 246.86 
L 631.199037 248.07 
L 632.990369 250.7199 
L 636.573034 250.82 
L 638.364366 252.25 
L 643.738363 254.78 
L 645.529695 255.22 
L 647.321027 256.32 
L 697.478331 256.32 
L 697.478331 256.32 
" clip-path="url(#p60a4c096aa)" style="fill: none; stroke-dasharray: 9.6,2.4,1.5,2.4; stroke-dashoffset: 0; stroke: #008000; stroke-width: 1.5"/>
   </g>
   <g id="line2d_19">
    <path d="M 135 255.99 
L 136.791332 256.32 
L 151.12199 256.32 
L 152.913323 221.89 
L 154.704655 202.97 
L 158.287319 203.08 
L 160.078652 203.41 
L 161.869984 203.08 
L 163.661316 202.97 
L 165.452648 207.92 
L 167.243981 203.41 
L 169.035313 202.97 
L 170.826645 203.08 
L 172.617978 202.97 
L 174.40931 203.52 
L 176.200642 202.97 
L 179.783307 202.97 
L 181.574639 203.52 
L 183.365971 203.08 
L 186.948636 202.97 
L 188.739968 203.52 
L 190.5313 207.821 
L 192.322632 202.97 
L 194.113965 203.08 
L 195.905297 203.41 
L 197.696629 203.08 
L 199.487961 202.97 
L 201.279294 203.52 
L 203.070626 202.97 
L 204.861958 203.08 
L 206.653291 203.41 
L 208.444623 203.08 
L 210.235955 203.52 
L 212.027287 202.97 
L 213.81862 202.97 
L 215.609952 203.52 
L 217.401284 207.821 
L 219.192616 202.97 
L 220.983949 203.52 
L 222.775281 203.08 
L 224.566613 203.52 
L 226.357945 202.97 
L 228.149278 202.97 
L 229.94061 203.52 
L 231.731942 202.97 
L 233.523274 203.63 
L 235.314607 202.97 
L 237.105939 202.97 
L 238.897271 203.52 
L 240.688604 202.97 
L 242.479936 203.63 
L 244.271268 202.86 
L 246.0626 203.63 
L 247.853933 207.722 
L 249.645265 203.08 
L 251.436597 203.52 
L 253.227929 202.97 
L 255.019262 203.52 
L 256.810594 202.97 
L 258.601926 202.97 
L 260.393258 203.63 
L 262.184591 202.97 
L 263.975923 203.52 
L 265.767255 202.86 
L 267.558587 203.08 
L 269.34992 203.52 
L 271.141252 202.97 
L 272.932584 203.52 
L 274.723917 203.08 
L 276.515249 203.41 
L 278.306581 207.92 
L 280.097913 202.97 
L 281.889246 203.52 
L 283.680578 202.97 
L 285.47191 203.52 
L 287.263242 202.97 
L 289.054575 203.08 
L 290.845907 203.52 
L 292.637239 202.86 
L 294.428571 203.63 
L 296.219904 202.86 
L 298.011236 203.08 
L 299.802568 203.52 
L 301.5939 202.97 
L 303.385233 203.52 
L 305.176565 203.08 
L 306.967897 202.97 
L 308.75923 208.217 
L 310.550562 203.08 
L 312.341894 203.52 
L 314.133226 202.97 
L 315.924559 202.97 
L 317.715891 203.52 
L 319.507223 203.08 
L 321.298555 203.52 
L 323.089888 202.97 
L 324.88122 203.52 
L 326.672552 202.97 
L 328.463884 202.97 
L 330.255217 203.52 
L 332.046549 202.97 
L 333.837881 203.63 
L 335.629213 202.97 
L 337.420546 203.52 
L 339.211878 207.821 
L 341.00321 202.97 
L 342.794543 203.52 
L 344.585875 202.97 
L 346.377207 203.52 
L 348.168539 202.97 
L 349.959872 203.52 
L 351.751204 203.08 
L 353.542536 202.97 
L 355.333868 203.52 
L 357.125201 202.97 
L 358.916533 203.52 
L 360.707865 202.97 
L 362.499197 203.52 
L 364.29053 203.08 
L 366.081862 203.52 
L 367.873194 202.86 
L 369.664526 207.92 
L 371.455859 203.52 
L 373.247191 202.97 
L 375.038523 203.63 
L 376.829856 202.97 
L 378.621188 203.41 
L 380.41252 202.97 
L 382.203852 203.52 
L 383.995185 202.97 
L 385.786517 203.08 
L 387.577849 203.52 
L 389.369181 202.97 
L 391.160514 203.52 
L 392.951846 202.97 
L 394.743178 203.52 
L 396.53451 202.97 
L 398.325843 203.52 
L 400.117175 203.08 
L 401.908507 203.52 
L 403.699839 207.821 
L 405.491172 203.52 
L 407.282504 202.97 
L 409.073836 202.97 
L 410.865169 203.52 
L 412.656501 203.08 
L 414.447833 203.52 
L 416.239165 202.97 
L 418.030498 203.52 
L 419.82183 202.97 
L 421.613162 203.52 
L 423.404494 203.08 
L 425.195827 203.41 
L 426.987159 202.97 
L 428.778491 203.63 
L 430.569823 202.97 
L 432.361156 203.41 
L 434.152488 203.08 
L 435.94382 203.52 
L 437.735152 207.821 
L 439.526485 203.52 
L 441.317817 202.97 
L 443.109149 203.52 
L 444.900482 202.97 
L 446.691814 203.63 
L 448.483146 202.97 
L 450.274478 203.52 
L 452.065811 202.86 
L 453.857143 203.08 
L 455.648475 203.52 
L 457.439807 202.97 
L 459.23114 203.63 
L 461.022472 202.86 
L 462.813804 203.63 
L 464.605136 202.97 
L 466.396469 203.52 
L 468.187801 202.97 
L 469.979133 203.52 
L 471.770465 207.92 
L 473.561798 203.41 
L 475.35313 203.08 
L 477.144462 203.52 
L 478.935795 202.86 
L 480.727127 203.63 
L 482.518459 202.97 
L 484.309791 203.52 
L 486.101124 202.97 
L 487.892456 203.52 
L 489.683788 202.97 
L 491.47512 203.52 
L 493.266453 203.08 
L 495.057785 204.51 
L 496.849117 204.07 
L 498.640449 204.62 
L 500.431782 204.18 
L 502.223114 204.62 
L 504.014446 204.07 
L 505.805778 204.62 
L 507.597111 208.822 
L 509.388443 204.62 
L 511.179775 204.07 
L 512.971108 205.5 
L 514.76244 205.28 
L 516.553772 205.72 
L 518.345104 205.17 
L 520.136437 205.72 
L 521.927769 205.39 
L 523.719101 206.71 
L 525.510433 206.38 
L 527.301766 206.82 
L 529.093098 206.38 
L 532.675762 206.93 
L 534.467095 208.25 
L 536.258427 209.35 
L 538.049759 210.12 
L 539.841091 209.57 
L 541.632424 210.12 
L 543.423756 213.915 
L 545.215088 210.56 
L 547.006421 210.78 
L 548.797753 211.22 
L 550.589085 210.78 
L 552.380417 211.11 
L 554.17175 210.89 
L 555.963082 211.77 
L 557.754414 211.88 
L 559.545746 212.87 
L 561.337079 213.09 
L 563.128411 214.08 
L 566.711075 214.41 
L 568.502408 214.19 
L 570.29374 214.52 
L 572.085072 214.08 
L 575.667737 214.85 
L 577.459069 215.62 
L 579.250401 218.92 
L 581.041734 215.62 
L 582.833066 215.18 
L 584.624398 215.62 
L 586.41573 215.18 
L 588.207063 215.95 
L 593.581059 217.27 
L 595.372392 218.59 
L 597.163724 218.59 
L 598.955056 218.92 
L 600.746388 220.35 
L 602.537721 221.23 
L 604.329053 220.79 
L 606.120385 222.22 
L 607.911717 222.33 
L 609.70305 223.32 
L 611.494382 223.65 
L 613.285714 224.42 
L 615.077047 223.98 
L 616.868379 227.423 
L 618.659711 224.09 
L 620.451043 224.42 
L 622.242376 224.09 
L 624.033708 224.42 
L 625.82504 224.09 
L 629.407705 224.64 
L 631.199037 225.52 
L 632.990369 225.3 
L 634.781701 226.29 
L 636.573034 226.84 
L 638.364366 228.93 
L 640.155698 228.82 
L 641.94703 228.49 
L 643.738363 228.93 
L 645.529695 228.49 
L 647.321027 228.82 
L 649.11236 228.49 
L 650.903692 228.82 
L 652.695024 232.12 
L 654.486356 230.03 
L 656.277689 230.69 
L 658.069021 232.12 
L 659.860353 233 
L 661.651685 234.1 
L 663.443018 236.96 
L 665.23435 238.94 
L 667.025682 241.25 
L 668.817014 243.12 
L 670.608347 244.66 
L 672.399679 246.42 
L 674.191011 247.52 
L 675.982343 249.17 
L 677.773676 251.92 
L 679.565008 253.79 
L 681.35634 255.99 
L 683.147673 256.32 
L 733.304976 256.32 
L 733.304976 256.32 
" clip-path="url(#p60a4c096aa)" style="fill: none; stroke: #0000ff; stroke-width: 1.5; stroke-linecap: square"/>
   </g>
   <g id="line2d_20">
    <path d="M 135 256.32 
L 149.330658 256.32 
L 151.12199 245.65 
L 152.913323 220.68 
L 154.704655 221.12 
L 156.495987 220.79 
L 158.287319 221.12 
L 160.078652 220.79 
L 161.869984 220.68 
L 163.661316 221.12 
L 165.452648 220.79 
L 167.243981 221.23 
L 169.035313 220.68 
L 170.826645 221.12 
L 172.617978 224.024 
L 174.40931 221.12 
L 176.200642 220.79 
L 177.991974 221.12 
L 179.783307 220.68 
L 181.574639 221.12 
L 183.365971 220.79 
L 185.157303 221.23 
L 186.948636 220.68 
L 188.739968 221.12 
L 190.5313 220.79 
L 192.322632 221.12 
L 194.113965 220.79 
L 195.905297 221.01 
L 197.696629 220.79 
L 199.487961 221.23 
L 201.279294 220.79 
L 203.070626 221.01 
L 204.861958 220.79 
L 206.653291 221.12 
L 208.444623 224.024 
L 210.235955 221.12 
L 212.027287 220.79 
L 213.81862 221.12 
L 215.609952 220.79 
L 217.401284 221.12 
L 219.192616 220.68 
L 220.983949 221.12 
L 222.775281 220.9 
L 224.566613 221.01 
L 226.357945 220.79 
L 228.149278 221.12 
L 229.94061 220.68 
L 231.731942 221.23 
L 233.523274 220.79 
L 235.314607 221.01 
L 237.105939 220.79 
L 238.897271 221.12 
L 240.688604 220.79 
L 242.479936 221.12 
L 244.271268 220.79 
L 246.0626 224.321 
L 247.853933 220.79 
L 249.645265 221.12 
L 251.436597 220.68 
L 253.227929 221.23 
L 255.019262 220.68 
L 256.810594 221.23 
L 258.601926 220.68 
L 260.393258 221.12 
L 262.184591 220.79 
L 263.975923 221.12 
L 265.767255 220.79 
L 267.558587 221.12 
L 269.34992 220.79 
L 271.141252 221.12 
L 272.932584 220.68 
L 274.723917 221.23 
L 276.515249 220.79 
L 278.306581 221.12 
L 280.097913 223.925 
L 281.889246 221.12 
L 283.680578 220.79 
L 285.47191 221.12 
L 287.263242 220.79 
L 289.054575 221.12 
L 290.845907 220.79 
L 292.637239 221.01 
L 294.428571 220.9 
L 296.219904 221.01 
L 298.011236 220.79 
L 299.802568 221.12 
L 301.5939 220.79 
L 303.385233 221.12 
L 305.176565 220.79 
L 306.967897 221.12 
L 308.75923 220.79 
L 310.550562 221.12 
L 312.341894 220.68 
L 314.133226 221.12 
L 315.924559 224.024 
L 317.715891 221.12 
L 319.507223 220.79 
L 321.298555 221.12 
L 323.089888 220.79 
L 324.88122 221.12 
L 326.672552 220.79 
L 328.463884 221.12 
L 330.255217 220.68 
L 332.046549 221.23 
L 333.837881 220.79 
L 335.629213 221.01 
L 337.420546 220.79 
L 339.211878 221.12 
L 341.00321 220.79 
L 342.794543 221.01 
L 344.585875 220.9 
L 346.377207 221.12 
L 348.168539 220.68 
L 349.959872 221.23 
L 351.751204 221.01 
L 353.542536 224.024 
L 355.333868 221.23 
L 357.125201 220.68 
L 358.916533 221.23 
L 360.707865 220.68 
L 362.499197 221.12 
L 364.29053 220.79 
L 366.081862 221.12 
L 367.873194 220.68 
L 369.664526 221.23 
L 371.455859 220.68 
L 373.247191 221.12 
L 375.038523 220.79 
L 376.829856 221.23 
L 378.621188 220.68 
L 380.41252 221.12 
L 382.203852 220.79 
L 383.995185 221.01 
L 385.786517 220.9 
L 387.577849 221.12 
L 389.369181 223.925 
L 391.160514 221.12 
L 392.951846 220.79 
L 394.743178 221.12 
L 396.53451 220.79 
L 398.325843 221.12 
L 400.117175 220.79 
L 401.908507 221.12 
L 403.699839 220.68 
L 405.491172 221.23 
L 407.282504 220.68 
L 409.073836 221.23 
L 410.865169 220.79 
L 412.656501 221.12 
L 414.447833 220.68 
L 416.239165 221.12 
L 418.030498 220.79 
L 419.82183 221.12 
L 421.613162 220.79 
L 423.404494 221.01 
L 425.195827 224.123 
L 426.987159 221.01 
L 428.778491 220.79 
L 430.569823 221.12 
L 432.361156 220.79 
L 434.152488 221.12 
L 435.94382 220.79 
L 437.735152 221.12 
L 439.526485 220.79 
L 441.317817 221.12 
L 443.109149 220.68 
L 444.900482 221.23 
L 446.691814 220.68 
L 448.483146 221.12 
L 450.274478 220.9 
L 452.065811 221.01 
L 453.857143 220.79 
L 455.648475 221.12 
L 457.439807 220.79 
L 459.23114 220.79 
L 461.022472 224.222 
L 462.813804 220.9 
L 464.605136 221.12 
L 466.396469 220.68 
L 468.187801 221.12 
L 469.979133 220.79 
L 471.770465 221.12 
L 473.561798 220.79 
L 475.35313 221.01 
L 477.144462 220.79 
L 478.935795 221.23 
L 480.727127 220.68 
L 482.518459 221.23 
L 484.309791 220.68 
L 486.101124 221.12 
L 487.892456 220.79 
L 489.683788 221.12 
L 491.47512 220.79 
L 493.266453 221.12 
L 495.057785 220.79 
L 496.849117 224.222 
L 498.640449 220.79 
L 500.431782 221.12 
L 502.223114 220.79 
L 504.014446 221.12 
L 505.805778 220.79 
L 507.597111 221.12 
L 509.388443 220.79 
L 511.179775 221.12 
L 512.971108 220.68 
L 514.76244 221.23 
L 516.553772 220.79 
L 518.345104 221.01 
L 520.136437 220.9 
L 521.927769 221.01 
L 523.719101 220.79 
L 525.510433 221.12 
L 527.301766 220.79 
L 529.093098 221.01 
L 530.88443 220.9 
L 532.675762 224.321 
L 534.467095 220.68 
L 536.258427 221.12 
L 538.049759 220.9 
L 539.841091 221.01 
L 541.632424 220.79 
L 543.423756 221.12 
L 545.215088 220.79 
L 547.006421 221.12 
L 548.797753 220.68 
L 550.589085 221.23 
L 552.380417 220.79 
L 554.17175 221.01 
L 555.963082 220.9 
L 557.754414 221.01 
L 559.545746 220.79 
L 561.337079 221.12 
L 563.128411 220.79 
L 566.711075 221.23 
L 568.502408 224.024 
L 570.29374 221.01 
L 572.085072 220.79 
L 573.876404 221.23 
L 575.667737 220.68 
L 577.459069 220.79 
L 579.250401 221.23 
L 581.041734 220.68 
L 582.833066 221.12 
L 584.624398 220.68 
L 586.41573 221.12 
L 588.207063 220.9 
L 589.998395 221.01 
L 591.789727 220.79 
L 593.581059 221.23 
L 595.372392 220.68 
L 597.163724 221.12 
L 598.955056 220.79 
L 600.746388 221.12 
L 602.537721 220.79 
L 604.329053 224.321 
L 606.120385 220.68 
L 607.911717 221.23 
L 609.70305 221.12 
L 611.494382 220.68 
L 613.285714 221.12 
L 615.077047 220.79 
L 616.868379 221.12 
L 618.659711 220.79 
L 620.451043 221.12 
L 622.242376 220.79 
L 624.033708 221.01 
L 625.82504 220.9 
L 627.616372 221.12 
L 629.407705 220.68 
L 631.199037 221.23 
L 632.990369 220.68 
L 634.781701 220.79 
L 636.573034 221.12 
L 638.364366 220.79 
L 640.155698 224.321 
L 641.94703 220.79 
L 643.738363 221.01 
L 645.529695 220.9 
L 647.321027 221.01 
L 649.11236 220.79 
L 650.903692 221.12 
L 652.695024 220.79 
L 654.486356 221.23 
L 656.277689 220.68 
L 658.069021 221.12 
L 659.860353 220.79 
L 661.651685 221.12 
L 663.443018 220.68 
L 665.23435 221.12 
L 667.025682 220.9 
L 668.817014 221.12 
L 670.608347 220.68 
L 672.399679 221.12 
L 674.191011 220.79 
L 675.982343 224.321 
L 677.773676 220.79 
L 679.565008 221.01 
L 681.35634 220.79 
L 683.147673 221.12 
L 684.939005 220.9 
L 686.730337 221.01 
L 688.521669 220.79 
L 690.313002 221.12 
L 692.104334 220.68 
L 693.895666 221.23 
L 695.686998 220.79 
L 697.478331 221.12 
L 699.269663 220.79 
L 701.060995 221.01 
L 702.852327 220.9 
L 704.64366 221.12 
L 706.434992 220.79 
L 708.226324 221.01 
L 710.017657 220.79 
L 711.808989 224.321 
L 713.600321 221.12 
L 715.391653 220.79 
L 717.182986 221.12 
L 718.974318 220.68 
L 720.76565 221.23 
L 722.556982 220.68 
L 724.348315 221.12 
L 726.139647 220.79 
L 727.930979 221.12 
L 729.722311 220.79 
L 731.513644 221.12 
L 733.304976 220.79 
L 735.096308 220.68 
L 736.88764 221.23 
L 738.678973 220.79 
L 740.470305 221.12 
L 742.261637 220.68 
L 744.05297 221.23 
L 745.844302 220.68 
L 747.635634 224.321 
L 749.426966 220.79 
L 751.218299 221.12 
L 753.009631 220.79 
L 754.800963 221.12 
L 756.592295 220.79 
L 758.383628 221.12 
L 760.17496 220.79 
L 763.757624 221.34 
L 765.548957 222.33 
L 767.340289 221.78 
L 769.131621 222.22 
L 770.922953 222 
L 772.714286 223.32 
L 774.505618 223.76 
L 776.29695 224.42 
L 778.088283 224.09 
L 779.879615 225.19 
L 781.670947 225.85 
L 783.462279 229.018 
L 785.253612 226.73 
L 787.044944 226.29 
L 788.836276 226.29 
L 790.627608 227.5 
L 794.210273 228.49 
L 796.001605 228.82 
L 797.792937 228.93 
L 799.58427 229.92 
L 801.375602 230.36 
L 803.166934 231.13 
L 804.958266 230.69 
L 806.749599 232.56 
L 808.540931 233.11 
L 810.332263 233.22 
L 812.123596 233 
L 813.914928 233.77 
L 815.70626 233.99 
L 817.497592 234.43 
L 819.288925 236.718 
L 821.080257 235.64 
L 822.871589 236.3 
L 824.662921 236.63 
L 826.454254 236.3 
L 828.245586 236.41 
L 830.036918 237.29 
L 831.82825 238.72 
L 833.619583 238.5 
L 835.410915 238.72 
L 838.993579 238.61 
L 847.950241 238.72 
L 849.741573 239.82 
L 851.532905 239.93 
L 853.324238 240.92 
L 855.11557 242.119 
L 856.906902 241.8 
L 858.698234 241.91 
L 860.489567 243.01 
L 864.072231 243.12 
L 867.654896 243.34 
L 869.446228 244.11 
L 871.23756 245.43 
L 873.028892 248.51 
L 876.611557 251.92 
L 878.402889 252.91 
L 880.194222 255.55 
L 881.985554 256.32 
L 932.142857 256.32 
L 932.142857 256.32 
" clip-path="url(#p60a4c096aa)" style="fill: none; stroke-dasharray: 5.55,2.4; stroke-dashoffset: 0; stroke: #800080; stroke-width: 1.5"/>
   </g>
   <g id="patch_3">
    <path d="M 135 256.32 
L 135 34.56 
" style="fill: none; stroke: #000000; stroke-width: 0.8; stroke-linejoin: miter; stroke-linecap: square"/>
   </g>
   <g id="patch_4">
    <path d="M 972 256.32 
L 972 34.56 
" style="fill: none; stroke: #000000; stroke-width: 0.8; stroke-linejoin: miter; stroke-linecap: square"/>
   </g>
   <g id="patch_5">
    <path d="M 135 256.32 
L 972 256.32 
" style="fill: none; stroke: #000000; stroke-width: 0.8; stroke-linejoin: miter; stroke-linecap: square"/>
   </g>
   <g id="patch_6">
    <path d="M 135 34.56 
L 972 34.56 
" style="fill: none; stroke: #000000; stroke-width: 0.8; stroke-linejoin: miter; stroke-linecap: square"/>
   </g>
   <g id="legend_1">
    <g id="patch_7">
     <path d="M 849.860937 130.62875 
L 965 130.62875 
Q 967 130.62875 967 128.62875 
L 967 41.56 
Q 967 39.56 965 39.56 
L 849.860937 39.56 
Q 847.860937 39.56 847.860937 41.56 
L 847.860937 128.62875 
Q 847.860937 130.62875 849.860937 130.62875 
z
" style="fill: #ffffff; opacity: 0.8; stroke: #cccccc; stroke-linejoin: miter"/>
    </g>
    <g id="line2d_21">
     <path d="M 851.860937 47.658438 
L 861.860937 47.658438 
L 871.860937 47.658438 
" style="fill: none; stroke: #ff0000; stroke-width: 1.5; stroke-linecap: square"/>
    </g>
    <g id="text_17">
     <!-- 192 free threads -->
     <g transform="translate(879.860937 51.158438) scale(0.1 -0.1)">
      <defs>
       <path id="DejaVuSans-39" d="M 703 97 
L 703 672 
Q 941 559 1184 500 
Q 1428 441 1663 441 
Q 2288 441 2617 861 
Q 2947 1281 2994 2138 
Q 2813 1869 2534 1725 
Q 2256 1581 1919 1581 
Q 1219 1581 811 2004 
Q 403 2428 403 3163 
Q 403 3881 828 4315 
Q 1253 4750 1959 4750 
Q 2769 4750 3195 4129 
Q 3622 3509 3622 2328 
Q 3622 1225 3098 567 
Q 2575 -91 1691 -91 
Q 1453 -91 1209 -44 
Q 966 3 703 97 
z
M 1959 2075 
Q 2384 2075 2632 2365 
Q 2881 2656 2881 3163 
Q 2881 3666 2632 3958 
Q 2384 4250 1959 4250 
Q 1534 4250 1286 3958 
Q 1038 3666 1038 3163 
Q 1038 2656 1286 2365 
Q 1534 2075 1959 2075 
z
" transform="scale(0.015625)"/>
       <path id="DejaVuSans-66" d="M 2375 4863 
L 2375 4384 
L 1825 4384 
Q 1516 4384 1395 4259 
Q 1275 4134 1275 3809 
L 1275 3500 
L 2222 3500 
L 2222 3053 
L 1275 3053 
L 1275 0 
L 697 0 
L 697 3053 
L 147 3053 
L 147 3500 
L 697 3500 
L 697 3744 
Q 697 4328 969 4595 
Q 1241 4863 1831 4863 
L 2375 4863 
z
" transform="scale(0.015625)"/>
       <path id="DejaVuSans-68" d="M 3513 2113 
L 3513 0 
L 2938 0 
L 2938 2094 
Q 2938 2591 2744 2837 
Q 2550 3084 2163 3084 
Q 1697 3084 1428 2787 
Q 1159 2491 1159 1978 
L 1159 0 
L 581 0 
L 581 4863 
L 1159 4863 
L 1159 2956 
Q 1366 3272 1645 3428 
Q 1925 3584 2291 3584 
Q 2894 3584 3203 3211 
Q 3513 2838 3513 2113 
z
" transform="scale(0.015625)"/>
      </defs>
      <use xlink:href="#DejaVuSans-31"/>
      <use xlink:href="#DejaVuSans-39" x="63.623047"/>
      <use xlink:href="#DejaVuSans-32" x="127.246094"/>
      <use xlink:href="#DejaVuSans-20" x="190.869141"/>
      <use xlink:href="#DejaVuSans-66" x="222.65625"/>
      <use xlink:href="#DejaVuSans-72" x="257.861328"/>
      <use xlink:href="#DejaVuSans-65" x="296.724609"/>
      <use xlink:href="#DejaVuSans-65" x="358.248047"/>
      <use xlink:href="#DejaVuSans-20" x="419.771484"/>
      <use xlink:href="#DejaVuSans-74" x="451.558594"/>
      <use xlink:href="#DejaVuSans-68" x="490.767578"/>
      <use xlink:href="#DejaVuSans-72" x="554.146484"/>
      <use xlink:href="#DejaVuSans-65" x="593.009766"/>
      <use xlink:href="#DejaVuSans-61" x="654.533203"/>
      <use xlink:href="#DejaVuSans-64" x="715.8125"/>
      <use xlink:href="#DejaVuSans-73" x="779.289062"/>
     </g>
    </g>
    <g id="line2d_22">
     <path d="M 851.860937 62.336563 
L 861.860937 62.336563 
L 871.860937 62.336563 
" style="fill: none; stroke-dasharray: 5.55,2.4; stroke-dashoffset: 0; stroke: #ffa500; stroke-width: 1.5"/>
    </g>
    <g id="text_18">
     <!-- 128 free threads -->
     <g transform="translate(879.860937 65.836563) scale(0.1 -0.1)">
      <defs>
       <path id="DejaVuSans-38" d="M 2034 2216 
Q 1584 2216 1326 1975 
Q 1069 1734 1069 1313 
Q 1069 891 1326 650 
Q 1584 409 2034 409 
Q 2484 409 2743 651 
Q 3003 894 3003 1313 
Q 3003 1734 2745 1975 
Q 2488 2216 2034 2216 
z
M 1403 2484 
Q 997 2584 770 2862 
Q 544 3141 544 3541 
Q 544 4100 942 4425 
Q 1341 4750 2034 4750 
Q 2731 4750 3128 4425 
Q 3525 4100 3525 3541 
Q 3525 3141 3298 2862 
Q 3072 2584 2669 2484 
Q 3125 2378 3379 2068 
Q 3634 1759 3634 1313 
Q 3634 634 3220 271 
Q 2806 -91 2034 -91 
Q 1263 -91 848 271 
Q 434 634 434 1313 
Q 434 1759 690 2068 
Q 947 2378 1403 2484 
z
M 1172 3481 
Q 1172 3119 1398 2916 
Q 1625 2713 2034 2713 
Q 2441 2713 2670 2916 
Q 2900 3119 2900 3481 
Q 2900 3844 2670 4047 
Q 2441 4250 2034 4250 
Q 1625 4250 1398 4047 
Q 1172 3844 1172 3481 
z
" transform="scale(0.015625)"/>
      </defs>
      <use xlink:href="#DejaVuSans-31"/>
      <use xlink:href="#DejaVuSans-32" x="63.623047"/>
      <use xlink:href="#DejaVuSans-38" x="127.246094"/>
      <use xlink:href="#DejaVuSans-20" x="190.869141"/>
      <use xlink:href="#DejaVuSans-66" x="222.65625"/>
      <use xlink:href="#DejaVuSans-72" x="257.861328"/>
      <use xlink:href="#DejaVuSans-65" x="296.724609"/>
      <use xlink:href="#DejaVuSans-65" x="358.248047"/>
      <use xlink:href="#DejaVuSans-20" x="419.771484"/>
      <use xlink:href="#DejaVuSans-74" x="451.558594"/>
      <use xlink:href="#DejaVuSans-68" x="490.767578"/>
      <use xlink:href="#DejaVuSans-72" x="554.146484"/>
      <use xlink:href="#DejaVuSans-65" x="593.009766"/>
      <use xlink:href="#DejaVuSans-61" x="654.533203"/>
      <use xlink:href="#DejaVuSans-64" x="715.8125"/>
      <use xlink:href="#DejaVuSans-73" x="779.289062"/>
     </g>
    </g>
    <g id="line2d_23">
     <path d="M 851.860937 77.014688 
L 861.860937 77.014688 
L 871.860937 77.014688 
" style="fill: none; stroke-dasharray: 1.5,2.475; stroke-dashoffset: 0; stroke: #a52a2a; stroke-width: 1.5"/>
    </g>
    <g id="text_19">
     <!-- 96 free threads -->
     <g transform="translate(879.860937 80.514688) scale(0.1 -0.1)">
      <defs>
       <path id="DejaVuSans-36" d="M 2113 2584 
Q 1688 2584 1439 2293 
Q 1191 2003 1191 1497 
Q 1191 994 1439 701 
Q 1688 409 2113 409 
Q 2538 409 2786 701 
Q 3034 994 3034 1497 
Q 3034 2003 2786 2293 
Q 2538 2584 2113 2584 
z
M 3366 4563 
L 3366 3988 
Q 3128 4100 2886 4159 
Q 2644 4219 2406 4219 
Q 1781 4219 1451 3797 
Q 1122 3375 1075 2522 
Q 1259 2794 1537 2939 
Q 1816 3084 2150 3084 
Q 2853 3084 3261 2657 
Q 3669 2231 3669 1497 
Q 3669 778 3244 343 
Q 2819 -91 2113 -91 
Q 1303 -91 875 529 
Q 447 1150 447 2328 
Q 447 3434 972 4092 
Q 1497 4750 2381 4750 
Q 2619 4750 2861 4703 
Q 3103 4656 3366 4563 
z
" transform="scale(0.015625)"/>
      </defs>
      <use xlink:href="#DejaVuSans-39"/>
      <use xlink:href="#DejaVuSans-36" x="63.623047"/>
      <use xlink:href="#DejaVuSans-20" x="127.246094"/>
      <use xlink:href="#DejaVuSans-66" x="159.033203"/>
      <use xlink:href="#DejaVuSans-72" x="194.238281"/>
      <use xlink:href="#DejaVuSans-65" x="233.101562"/>
      <use xlink:href="#DejaVuSans-65" x="294.625"/>
      <use xlink:href="#DejaVuSans-20" x="356.148438"/>
      <use xlink:href="#DejaVuSans-74" x="387.935547"/>
      <use xlink:href="#DejaVuSans-68" x="427.144531"/>
      <use xlink:href="#DejaVuSans-72" x="490.523438"/>
      <use xlink:href="#DejaVuSans-65" x="529.386719"/>
      <use xlink:href="#DejaVuSans-61" x="590.910156"/>
      <use xlink:href="#DejaVuSans-64" x="652.189453"/>
      <use xlink:href="#DejaVuSans-73" x="715.666016"/>
     </g>
    </g>
    <g id="line2d_24">
     <path d="M 851.860937 91.692813 
L 861.860937 91.692813 
L 871.860937 91.692813 
" style="fill: none; stroke-dasharray: 9.6,2.4,1.5,2.4; stroke-dashoffset: 0; stroke: #008000; stroke-width: 1.5"/>
    </g>
    <g id="text_20">
     <!-- 64 free threads -->
     <g transform="translate(879.860937 95.192813) scale(0.1 -0.1)">
      <use xlink:href="#DejaVuSans-36"/>
      <use xlink:href="#DejaVuSans-34" x="63.623047"/>
      <use xlink:href="#DejaVuSans-20" x="127.246094"/>
      <use xlink:href="#DejaVuSans-66" x="159.033203"/>
      <use xlink:href="#DejaVuSans-72" x="194.238281"/>
      <use xlink:href="#DejaVuSans-65" x="233.101562"/>
      <use xlink:href="#DejaVuSans-65" x="294.625"/>
      <use xlink:href="#DejaVuSans-20" x="356.148438"/>
      <use xlink:href="#DejaVuSans-74" x="387.935547"/>
      <use xlink:href="#DejaVuSans-68" x="427.144531"/>
      <use xlink:href="#DejaVuSans-72" x="490.523438"/>
      <use xlink:href="#DejaVuSans-65" x="529.386719"/>
      <use xlink:href="#DejaVuSans-61" x="590.910156"/>
      <use xlink:href="#DejaVuSans-64" x="652.189453"/>
      <use xlink:href="#DejaVuSans-73" x="715.666016"/>
     </g>
    </g>
    <g id="line2d_25">
     <path d="M 851.860937 106.370938 
L 861.860937 106.370938 
L 871.860937 106.370938 
" style="fill: none; stroke: #0000ff; stroke-width: 1.5; stroke-linecap: square"/>
    </g>
    <g id="text_21">
     <!-- 48 free threads -->
     <g transform="translate(879.860937 109.870938) scale(0.1 -0.1)">
      <use xlink:href="#DejaVuSans-34"/>
      <use xlink:href="#DejaVuSans-38" x="63.623047"/>
      <use xlink:href="#DejaVuSans-20" x="127.246094"/>
      <use xlink:href="#DejaVuSans-66" x="159.033203"/>
      <use xlink:href="#DejaVuSans-72" x="194.238281"/>
      <use xlink:href="#DejaVuSans-65" x="233.101562"/>
      <use xlink:href="#DejaVuSans-65" x="294.625"/>
      <use xlink:href="#DejaVuSans-20" x="356.148438"/>
      <use xlink:href="#DejaVuSans-74" x="387.935547"/>
      <use xlink:href="#DejaVuSans-68" x="427.144531"/>
      <use xlink:href="#DejaVuSans-72" x="490.523438"/>
      <use xlink:href="#DejaVuSans-65" x="529.386719"/>
      <use xlink:href="#DejaVuSans-61" x="590.910156"/>
      <use xlink:href="#DejaVuSans-64" x="652.189453"/>
      <use xlink:href="#DejaVuSans-73" x="715.666016"/>
     </g>
    </g>
    <g id="line2d_26">
     <path d="M 851.860937 121.049063 
L 861.860937 121.049063 
L 871.860937 121.049063 
" style="fill: none; stroke-dasharray: 5.55,2.4; stroke-dashoffset: 0; stroke: #800080; stroke-width: 1.5"/>
    </g>
    <g id="text_22">
     <!-- 32 free threads -->
     <g transform="translate(879.860937 124.549063) scale(0.1 -0.1)">
      <use xlink:href="#DejaVuSans-33"/>
      <use xlink:href="#DejaVuSans-32" x="63.623047"/>
      <use xlink:href="#DejaVuSans-20" x="127.246094"/>
      <use xlink:href="#DejaVuSans-66" x="159.033203"/>
      <use xlink:href="#DejaVuSans-72" x="194.238281"/>
      <use xlink:href="#DejaVuSans-65" x="233.101562"/>
      <use xlink:href="#DejaVuSans-65" x="294.625"/>
      <use xlink:href="#DejaVuSans-20" x="356.148438"/>
      <use xlink:href="#DejaVuSans-74" x="387.935547"/>
      <use xlink:href="#DejaVuSans-68" x="427.144531"/>
      <use xlink:href="#DejaVuSans-72" x="490.523438"/>
      <use xlink:href="#DejaVuSans-65" x="529.386719"/>
      <use xlink:href="#DejaVuSans-61" x="590.910156"/>
      <use xlink:href="#DejaVuSans-64" x="652.189453"/>
      <use xlink:href="#DejaVuSans-73" x="715.666016"/>
     </g>
    </g>
   </g>
  </g>
 </g>
 <defs>
  <clipPath id="p60a4c096aa">
   <rect x="135" y="34.56" width="837" height="221.76"/>
  </clipPath>
 </defs>
</svg>
