<?xml version="1.0" encoding="UTF-8" standalone="no"?>
<svg
   width="899.89062pt"
   height="263.97891pt"
   viewBox="0 0 899.89062 263.97891"
   version="1.1"
   id="svg651"
   sodipodi:docname="cpu-of-compute-free-threads-big.svg"
   inkscape:version="1.1.2 (0a00cf5339, 2022-02-04)"
   xmlns:inkscape="http://www.inkscape.org/namespaces/inkscape"
   xmlns:sodipodi="http://sodipodi.sourceforge.net/DTD/sodipodi-0.dtd"
   xmlns:xlink="http://www.w3.org/1999/xlink"
   xmlns="http://www.w3.org/2000/svg"
   xmlns:svg="http://www.w3.org/2000/svg"
   xmlns:rdf="http://www.w3.org/1999/02/22-rdf-syntax-ns#"
   xmlns:cc="http://creativecommons.org/ns#"
   xmlns:dc="http://purl.org/dc/elements/1.1/">
  <sodipodi:namedview
     id="namedview653"
     pagecolor="#ffffff"
     bordercolor="#666666"
     borderopacity="1.0"
     inkscape:pageshadow="2"
     inkscape:pageopacity="0.0"
     inkscape:pagecheckerboard="0"
     inkscape:document-units="pt"
     showgrid="false"
     fit-margin-top="5"
     fit-margin-left="5"
     fit-margin-right="5"
     fit-margin-bottom="5"
     inkscape:zoom="0.86805556"
     inkscape:cx="267.264"
     inkscape:cy="155.52"
     inkscape:window-width="2554"
     inkscape:window-height="1365"
     inkscape:window-x="1920"
     inkscape:window-y="32"
     inkscape:window-maximized="1"
     inkscape:current-layer="svg651" />
  <metadata
     id="metadata2">
    <rdf:RDF>
      <cc:Work>
        <dc:type
           rdf:resource="http://purl.org/dc/dcmitype/StillImage" />
        <dc:date>2024-10-07T19:07:37.496967</dc:date>
        <dc:format>image/svg+xml</dc:format>
        <dc:creator>
          <cc:Agent>
            <dc:title>Matplotlib v3.8.4, https://matplotlib.org/</dc:title>
          </cc:Agent>
        </dc:creator>
      </cc:Work>
    </rdf:RDF>
  </metadata>
  <defs
     id="defs6">
    <style
       type="text/css"
       id="style4">*{stroke-linejoin: round; stroke-linecap: butt}</style>
  </defs>
  <g
     id="axes_1"
     transform="translate(-77.509374,-27.697344)">
    <g
       id="patch_2">
      <path
         d="M 135,256.32 H 972 V 34.56 H 135 Z"
         style="fill:#ffffff"
         id="path11" />
    </g>
    <g
       id="matplotlib.axis_1">
      <g
         id="xtick_1">
        <g
           id="line2d_1">
          <defs
             id="defs15">
            <path
               id="mcb87ab244a"
               d="M 0,0 V 3.5"
               style="stroke:#000000;stroke-width:0.8" />
          </defs>
          <g
             id="g19">
            <use
               xlink:href="#mcb87ab244a"
               x="135"
               y="256.32001"
               style="stroke:#000000;stroke-width:0.8"
               id="use17"
               width="100%"
               height="100%" />
          </g>
        </g>
        <g
           id="text_1">
          <!-- 0 -->
          <g
             transform="matrix(0.1,0,0,-0.1,131.81875,270.91844)"
             id="g27">
            <defs
               id="defs23">
              <path
                 id="DejaVuSans-30"
                 d="m 2034,4250 q -487,0 -733,-480 -245,-479 -245,-1442 0,-959 245,-1439 246,-480 733,-480 491,0 736,480 246,480 246,1439 0,963 -246,1442 -245,480 -736,480 z m 0,500 q 785,0 1199,-621 414,-620 414,-1801 0,-1178 -414,-1799 -414,-620 -1199,-620 -784,0 -1198,620 -414,621 -414,1799 0,1181 414,1801 414,621 1198,621 z"
                 transform="scale(0.015625)" />
            </defs>
            <use
               xlink:href="#DejaVuSans-30"
               id="use25"
               x="0"
               y="0"
               width="100%"
               height="100%" />
          </g>
        </g>
      </g>
      <g
         id="xtick_2">
        <g
           id="line2d_2">
          <g
             id="g33">
            <use
               xlink:href="#mcb87ab244a"
               x="314.13324"
               y="256.32001"
               style="stroke:#000000;stroke-width:0.8"
               id="use31"
               width="100%"
               height="100%" />
          </g>
        </g>
        <g
           id="text_2">
          <!-- 10 -->
          <g
             transform="matrix(0.1,0,0,-0.1,307.77073,270.91844)"
             id="g43">
            <defs
               id="defs37">
              <path
                 id="DejaVuSans-31"
                 d="M 794,531 H 1825 V 4091 L 703,3866 v 575 l 1116,225 h 631 V 531 H 3481 V 0 H 794 Z"
                 transform="scale(0.015625)" />
            </defs>
            <use
               xlink:href="#DejaVuSans-31"
               id="use39"
               x="0"
               y="0"
               width="100%"
               height="100%" />
            <use
               xlink:href="#DejaVuSans-30"
               x="63.623047"
               id="use41"
               y="0"
               width="100%"
               height="100%" />
          </g>
        </g>
      </g>
      <g
         id="xtick_3">
        <g
           id="line2d_3">
          <g
             id="g49">
            <use
               xlink:href="#mcb87ab244a"
               x="493.26645"
               y="256.32001"
               style="stroke:#000000;stroke-width:0.8"
               id="use47"
               width="100%"
               height="100%" />
          </g>
        </g>
        <g
           id="text_3">
          <!-- 20 -->
          <g
             transform="matrix(0.1,0,0,-0.1,486.90395,270.91844)"
             id="g59">
            <defs
               id="defs53">
              <path
                 id="DejaVuSans-32"
                 d="M 1228,531 H 3431 V 0 H 469 v 531 q 359,372 979,998 621,627 780,809 303,340 423,576 121,236 121,464 0,372 -261,606 -261,235 -680,235 -297,0 -627,-103 -329,-103 -704,-313 v 638 q 381,153 712,231 332,78 607,78 725,0 1156,-363 431,-362 431,-968 0,-288 -108,-546 -107,-257 -392,-607 -78,-91 -497,-524 Q 1991,1309 1228,531 Z"
                 transform="scale(0.015625)" />
            </defs>
            <use
               xlink:href="#DejaVuSans-32"
               id="use55"
               x="0"
               y="0"
               width="100%"
               height="100%" />
            <use
               xlink:href="#DejaVuSans-30"
               x="63.623047"
               id="use57"
               y="0"
               width="100%"
               height="100%" />
          </g>
        </g>
      </g>
      <g
         id="xtick_4">
        <g
           id="line2d_4">
          <g
             id="g65">
            <use
               xlink:href="#mcb87ab244a"
               x="672.39966"
               y="256.32001"
               style="stroke:#000000;stroke-width:0.8"
               id="use63"
               width="100%"
               height="100%" />
          </g>
        </g>
        <g
           id="text_4">
          <!-- 30 -->
          <g
             transform="matrix(0.1,0,0,-0.1,666.03718,270.91844)"
             id="g75">
            <defs
               id="defs69">
              <path
                 id="DejaVuSans-33"
                 d="m 2597,2516 q 453,-97 707,-404 255,-306 255,-756 0,-690 -475,-1069 -475,-378 -1350,-378 -293,0 -604,58 -311,58 -642,174 v 609 q 262,-153 574,-231 313,-78 654,-78 593,0 904,234 311,234 311,681 0,413 -289,645 -289,233 -804,233 h -544 v 519 h 569 q 465,0 712,186 247,186 247,536 0,359 -255,551 -254,193 -729,193 -260,0 -557,-57 -297,-56 -653,-174 v 562 q 360,100 674,150 314,50 592,50 719,0 1137,-327 419,-326 419,-882 0,-388 -222,-655 -222,-267 -631,-370 z"
                 transform="scale(0.015625)" />
            </defs>
            <use
               xlink:href="#DejaVuSans-33"
               id="use71"
               x="0"
               y="0"
               width="100%"
               height="100%" />
            <use
               xlink:href="#DejaVuSans-30"
               x="63.623047"
               id="use73"
               y="0"
               width="100%"
               height="100%" />
          </g>
        </g>
      </g>
      <g
         id="xtick_5">
        <g
           id="line2d_5">
          <g
             id="g81">
            <use
               xlink:href="#mcb87ab244a"
               x="851.5329"
               y="256.32001"
               style="stroke:#000000;stroke-width:0.8"
               id="use79"
               width="100%"
               height="100%" />
          </g>
        </g>
        <g
           id="text_5">
          <!-- 40 -->
          <g
             transform="matrix(0.1,0,0,-0.1,845.1704,270.91844)"
             id="g91">
            <defs
               id="defs85">
              <path
                 id="DejaVuSans-34"
                 d="M 2419,4116 825,1625 h 1594 z m -166,550 h 794 V 1625 h 666 V 1100 H 3047 V 0 H 2419 V 1100 H 313 v 609 z"
                 transform="scale(0.015625)" />
            </defs>
            <use
               xlink:href="#DejaVuSans-34"
               id="use87"
               x="0"
               y="0"
               width="100%"
               height="100%" />
            <use
               xlink:href="#DejaVuSans-30"
               x="63.623047"
               id="use89"
               y="0"
               width="100%"
               height="100%" />
          </g>
        </g>
      </g>
      <g
         id="text_6">
        <!-- time in process (seconds) -->
        <g
           transform="matrix(0.1,0,0,-0.1,489.32812,284.59656)"
           id="g161">
          <defs
             id="defs109">
            <path
               id="DejaVuSans-74"
               d="M 1172,4494 V 3500 H 2356 V 3053 H 1172 V 1153 q 0,-428 117,-550 117,-122 477,-122 h 590 V 0 H 1766 Q 1100,0 847,248 594,497 594,1153 V 3053 H 172 v 447 h 422 v 994 z"
               transform="scale(0.015625)" />
            <path
               id="DejaVuSans-69"
               d="m 603,3500 h 575 V 0 H 603 Z m 0,1363 h 575 V 4134 H 603 Z"
               transform="scale(0.015625)" />
            <path
               id="DejaVuSans-6d"
               d="m 3328,2828 q 216,388 516,572 300,184 706,184 547,0 844,-383 297,-382 297,-1088 V 0 h -578 v 2094 q 0,503 -179,746 -178,244 -543,244 -447,0 -707,-297 -259,-296 -259,-809 V 0 h -578 v 2094 q 0,506 -178,748 -178,242 -550,242 -441,0 -701,-298 -259,-298 -259,-808 V 0 H 581 v 3500 h 578 v -544 q 197,322 472,475 275,153 653,153 382,0 649,-194 267,-193 395,-562 z"
               transform="scale(0.015625)" />
            <path
               id="DejaVuSans-65"
               d="M 3597,1894 V 1613 H 953 q 38,-594 358,-905 320,-311 892,-311 331,0 642,81 311,81 618,244 V 178 Q 3153,47 2828,-22 2503,-91 2169,-91 1331,-91 842,396 353,884 353,1716 q 0,859 464,1363 464,505 1252,505 706,0 1117,-455 411,-454 411,-1235 z m -575,169 q -6,471 -264,752 -258,282 -683,282 -481,0 -770,-272 -289,-272 -333,-766 z"
               transform="scale(0.015625)" />
            <path
               id="DejaVuSans-20"
               transform="scale(0.015625)"
               d="" />
            <path
               id="DejaVuSans-6e"
               d="M 3513,2113 V 0 h -575 v 2094 q 0,497 -194,743 -194,247 -581,247 -466,0 -735,-297 -269,-296 -269,-809 V 0 H 581 v 3500 h 578 v -544 q 207,316 486,472 280,156 646,156 603,0 912,-373 310,-373 310,-1098 z"
               transform="scale(0.015625)" />
            <path
               id="DejaVuSans-70"
               d="M 1159,525 V -1331 H 581 v 4831 h 578 v -531 q 182,312 458,463 277,152 661,152 638,0 1036,-506 399,-506 399,-1331 0,-825 -399,-1332 -398,-506 -1036,-506 -384,0 -661,152 -276,152 -458,464 z m 1957,1222 q 0,634 -261,995 -261,361 -717,361 -457,0 -718,-361 -261,-361 -261,-995 0,-634 261,-995 261,-361 718,-361 456,0 717,361 261,361 261,995 z"
               transform="scale(0.015625)" />
            <path
               id="DejaVuSans-72"
               d="m 2631,2963 q -97,56 -211,82 -114,27 -251,27 -488,0 -749,-317 -261,-317 -261,-911 V 0 H 581 v 3500 h 578 v -544 q 182,319 472,473 291,155 707,155 59,0 131,-8 72,-7 159,-23 z"
               transform="scale(0.015625)" />
            <path
               id="DejaVuSans-6f"
               d="m 1959,3097 q -462,0 -731,-361 -269,-361 -269,-989 0,-628 267,-989 268,-361 733,-361 460,0 728,362 269,363 269,988 0,622 -269,986 -268,364 -728,364 z m 0,487 q 750,0 1178,-488 429,-487 429,-1349 Q 3566,888 3137,398 2709,-91 1959,-91 1206,-91 779,398 353,888 353,1747 q 0,862 426,1349 427,488 1180,488 z"
               transform="scale(0.015625)" />
            <path
               id="DejaVuSans-63"
               d="m 3122,3366 v -538 q -244,135 -489,202 -245,67 -495,67 -560,0 -870,-355 -309,-354 -309,-995 0,-641 309,-996 310,-354 870,-354 250,0 495,67 245,67 489,202 V 134 Q 2881,22 2623,-34 2366,-91 2075,-91 1284,-91 818,406 353,903 353,1747 q 0,856 470,1346 471,491 1290,491 265,0 518,-55 253,-54 491,-163 z"
               transform="scale(0.015625)" />
            <path
               id="DejaVuSans-73"
               d="m 2834,3397 v -544 q -243,125 -506,187 -262,63 -544,63 -428,0 -642,-131 -214,-131 -214,-394 0,-200 153,-314 153,-114 616,-217 l 197,-44 q 612,-131 870,-370 258,-239 258,-667 0,-488 -386,-773 Q 2250,-91 1575,-91 1294,-91 989,-36 684,19 347,128 v 594 q 319,-166 628,-249 309,-82 613,-82 406,0 624,139 219,139 219,392 0,234 -158,359 -157,125 -692,241 l -200,47 q -534,112 -772,345 -237,233 -237,639 0,494 350,762 350,269 994,269 318,0 599,-47 282,-46 519,-140 z"
               transform="scale(0.015625)" />
            <path
               id="DejaVuSans-28"
               d="m 1984,4856 q -418,-718 -622,-1422 -203,-703 -203,-1425 0,-721 205,-1429 205,-708 620,-1424 h -500 q -468,735 -701,1444 -233,709 -233,1409 0,697 231,1403 232,707 703,1444 z"
               transform="scale(0.015625)" />
            <path
               id="DejaVuSans-64"
               d="m 2906,2969 v 1894 h 575 V 0 H 2906 V 525 Q 2725,213 2448,61 2172,-91 1784,-91 1150,-91 751,415 353,922 353,1747 q 0,825 398,1331 399,506 1033,506 388,0 664,-152 277,-151 458,-463 z M 947,1747 q 0,-634 261,-995 261,-361 717,-361 456,0 718,361 263,361 263,995 0,634 -263,995 -262,361 -718,361 -456,0 -717,-361 -261,-361 -261,-995 z"
               transform="scale(0.015625)" />
            <path
               id="DejaVuSans-29"
               d="m 513,4856 h 500 q 468,-737 701,-1444 233,-706 233,-1403 0,-700 -233,-1409 -233,-709 -701,-1444 H 513 q 415,716 620,1424 205,708 205,1429 0,722 -205,1425 -205,704 -620,1422 z"
               transform="scale(0.015625)" />
          </defs>
          <use
             xlink:href="#DejaVuSans-74"
             id="use111"
             x="0"
             y="0"
             width="100%"
             height="100%" />
          <use
             xlink:href="#DejaVuSans-69"
             x="39.208984"
             id="use113"
             y="0"
             width="100%"
             height="100%" />
          <use
             xlink:href="#DejaVuSans-6d"
             x="66.992188"
             id="use115"
             y="0"
             width="100%"
             height="100%" />
          <use
             xlink:href="#DejaVuSans-65"
             x="164.4043"
             id="use117"
             y="0"
             width="100%"
             height="100%" />
          <use
             xlink:href="#DejaVuSans-20"
             x="225.92773"
             id="use119"
             y="0"
             width="100%"
             height="100%" />
          <use
             xlink:href="#DejaVuSans-69"
             x="257.71484"
             id="use121"
             y="0"
             width="100%"
             height="100%" />
          <use
             xlink:href="#DejaVuSans-6e"
             x="285.49805"
             id="use123"
             y="0"
             width="100%"
             height="100%" />
          <use
             xlink:href="#DejaVuSans-20"
             x="348.87695"
             id="use125"
             y="0"
             width="100%"
             height="100%" />
          <use
             xlink:href="#DejaVuSans-70"
             x="380.66406"
             id="use127"
             y="0"
             width="100%"
             height="100%" />
          <use
             xlink:href="#DejaVuSans-72"
             x="444.14062"
             id="use129"
             y="0"
             width="100%"
             height="100%" />
          <use
             xlink:href="#DejaVuSans-6f"
             x="483.00391"
             id="use131"
             y="0"
             width="100%"
             height="100%" />
          <use
             xlink:href="#DejaVuSans-63"
             x="544.18555"
             id="use133"
             y="0"
             width="100%"
             height="100%" />
          <use
             xlink:href="#DejaVuSans-65"
             x="599.16602"
             id="use135"
             y="0"
             width="100%"
             height="100%" />
          <use
             xlink:href="#DejaVuSans-73"
             x="660.68945"
             id="use137"
             y="0"
             width="100%"
             height="100%" />
          <use
             xlink:href="#DejaVuSans-73"
             x="712.78906"
             id="use139"
             y="0"
             width="100%"
             height="100%" />
          <use
             xlink:href="#DejaVuSans-20"
             x="764.88867"
             id="use141"
             y="0"
             width="100%"
             height="100%" />
          <use
             xlink:href="#DejaVuSans-28"
             x="796.67578"
             id="use143"
             y="0"
             width="100%"
             height="100%" />
          <use
             xlink:href="#DejaVuSans-73"
             x="835.68945"
             id="use145"
             y="0"
             width="100%"
             height="100%" />
          <use
             xlink:href="#DejaVuSans-65"
             x="887.78906"
             id="use147"
             y="0"
             width="100%"
             height="100%" />
          <use
             xlink:href="#DejaVuSans-63"
             x="949.3125"
             id="use149"
             y="0"
             width="100%"
             height="100%" />
          <use
             xlink:href="#DejaVuSans-6f"
             x="1004.293"
             id="use151"
             y="0"
             width="100%"
             height="100%" />
          <use
             xlink:href="#DejaVuSans-6e"
             x="1065.4746"
             id="use153"
             y="0"
             width="100%"
             height="100%" />
          <use
             xlink:href="#DejaVuSans-64"
             x="1128.8535"
             id="use155"
             y="0"
             width="100%"
             height="100%" />
          <use
             xlink:href="#DejaVuSans-73"
             x="1192.3301"
             id="use157"
             y="0"
             width="100%"
             height="100%" />
          <use
             xlink:href="#DejaVuSans-29"
             x="1244.4297"
             id="use159"
             y="0"
             width="100%"
             height="100%" />
        </g>
      </g>
    </g>
    <g
       id="matplotlib.axis_2">
      <g
         id="ytick_1">
        <g
           id="line2d_6">
          <defs
             id="defs166">
            <path
               id="m78a5239b37"
               d="M 0,0 H -3.5"
               style="stroke:#000000;stroke-width:0.8" />
          </defs>
          <g
             id="g170">
            <use
               xlink:href="#m78a5239b37"
               x="135"
               y="256.32001"
               style="stroke:#000000;stroke-width:0.8"
               id="use168"
               width="100%"
               height="100%" />
          </g>
        </g>
        <g
           id="text_7">
          <!-- 0 -->
          <g
             transform="matrix(0.1,0,0,-0.1,121.6375,260.11922)"
             id="g175">
            <use
               xlink:href="#DejaVuSans-30"
               id="use173"
               x="0"
               y="0"
               width="100%"
               height="100%" />
          </g>
        </g>
      </g>
      <g
         id="ytick_2">
        <g
           id="line2d_7">
          <g
             id="g181">
            <use
               xlink:href="#m78a5239b37"
               x="135"
               y="228.82001"
               style="stroke:#000000;stroke-width:0.8"
               id="use179"
               width="100%"
               height="100%" />
          </g>
        </g>
        <g
           id="text_8">
          <!-- 2500 -->
          <g
             transform="matrix(0.1,0,0,-0.1,102.55,232.61922)"
             id="g195">
            <defs
               id="defs185">
              <path
                 id="DejaVuSans-35"
                 d="M 691,4666 H 3169 V 4134 H 1269 V 2991 q 137,47 274,70 138,23 276,23 781,0 1237,-428 457,-428 457,-1159 Q 3513,744 3044,326 2575,-91 1722,-91 1428,-91 1123,-41 819,9 494,109 v 635 q 281,-153 581,-228 300,-75 634,-75 541,0 856,284 316,284 316,772 0,487 -316,771 -315,285 -856,285 -253,0 -505,-56 -251,-56 -513,-175 z"
                 transform="scale(0.015625)" />
            </defs>
            <use
               xlink:href="#DejaVuSans-32"
               id="use187"
               x="0"
               y="0"
               width="100%"
               height="100%" />
            <use
               xlink:href="#DejaVuSans-35"
               x="63.623047"
               id="use189"
               y="0"
               width="100%"
               height="100%" />
            <use
               xlink:href="#DejaVuSans-30"
               x="127.24609"
               id="use191"
               y="0"
               width="100%"
               height="100%" />
            <use
               xlink:href="#DejaVuSans-30"
               x="190.86914"
               id="use193"
               y="0"
               width="100%"
               height="100%" />
          </g>
        </g>
      </g>
      <g
         id="ytick_3">
        <g
           id="line2d_8">
          <g
             id="g201">
            <use
               xlink:href="#m78a5239b37"
               x="135"
               y="201.32001"
               style="stroke:#000000;stroke-width:0.8"
               id="use199"
               width="100%"
               height="100%" />
          </g>
        </g>
        <g
           id="text_9">
          <!-- 5000 -->
          <g
             transform="matrix(0.1,0,0,-0.1,102.55,205.11922)"
             id="g212">
            <use
               xlink:href="#DejaVuSans-35"
               id="use204"
               x="0"
               y="0"
               width="100%"
               height="100%" />
            <use
               xlink:href="#DejaVuSans-30"
               x="63.623047"
               id="use206"
               y="0"
               width="100%"
               height="100%" />
            <use
               xlink:href="#DejaVuSans-30"
               x="127.24609"
               id="use208"
               y="0"
               width="100%"
               height="100%" />
            <use
               xlink:href="#DejaVuSans-30"
               x="190.86914"
               id="use210"
               y="0"
               width="100%"
               height="100%" />
          </g>
        </g>
      </g>
      <g
         id="ytick_4">
        <g
           id="line2d_9">
          <g
             id="g218">
            <use
               xlink:href="#m78a5239b37"
               x="135"
               y="173.82001"
               style="stroke:#000000;stroke-width:0.8"
               id="use216"
               width="100%"
               height="100%" />
          </g>
        </g>
        <g
           id="text_10">
          <!-- 7500 -->
          <g
             transform="matrix(0.1,0,0,-0.1,102.55,177.61922)"
             id="g232">
            <defs
               id="defs222">
              <path
                 id="DejaVuSans-37"
                 d="M 525,4666 H 3525 V 4397 L 1831,0 H 1172 L 2766,4134 H 525 Z"
                 transform="scale(0.015625)" />
            </defs>
            <use
               xlink:href="#DejaVuSans-37"
               id="use224"
               x="0"
               y="0"
               width="100%"
               height="100%" />
            <use
               xlink:href="#DejaVuSans-35"
               x="63.623047"
               id="use226"
               y="0"
               width="100%"
               height="100%" />
            <use
               xlink:href="#DejaVuSans-30"
               x="127.24609"
               id="use228"
               y="0"
               width="100%"
               height="100%" />
            <use
               xlink:href="#DejaVuSans-30"
               x="190.86914"
               id="use230"
               y="0"
               width="100%"
               height="100%" />
          </g>
        </g>
      </g>
      <g
         id="ytick_5">
        <g
           id="line2d_10">
          <g
             id="g238">
            <use
               xlink:href="#m78a5239b37"
               x="135"
               y="146.32001"
               style="stroke:#000000;stroke-width:0.8"
               id="use236"
               width="100%"
               height="100%" />
          </g>
        </g>
        <g
           id="text_11">
          <!-- 10000 -->
          <g
             transform="matrix(0.1,0,0,-0.1,96.1875,150.11922)"
             id="g251">
            <use
               xlink:href="#DejaVuSans-31"
               id="use241"
               x="0"
               y="0"
               width="100%"
               height="100%" />
            <use
               xlink:href="#DejaVuSans-30"
               x="63.623047"
               id="use243"
               y="0"
               width="100%"
               height="100%" />
            <use
               xlink:href="#DejaVuSans-30"
               x="127.24609"
               id="use245"
               y="0"
               width="100%"
               height="100%" />
            <use
               xlink:href="#DejaVuSans-30"
               x="190.86914"
               id="use247"
               y="0"
               width="100%"
               height="100%" />
            <use
               xlink:href="#DejaVuSans-30"
               x="254.49219"
               id="use249"
               y="0"
               width="100%"
               height="100%" />
          </g>
        </g>
      </g>
      <g
         id="ytick_6">
        <g
           id="line2d_11">
          <g
             id="g257">
            <use
               xlink:href="#m78a5239b37"
               x="135"
               y="118.82"
               style="stroke:#000000;stroke-width:0.8"
               id="use255"
               width="100%"
               height="100%" />
          </g>
        </g>
        <g
           id="text_12">
          <!-- 12500 -->
          <g
             transform="matrix(0.1,0,0,-0.1,96.1875,122.61922)"
             id="g270">
            <use
               xlink:href="#DejaVuSans-31"
               id="use260"
               x="0"
               y="0"
               width="100%"
               height="100%" />
            <use
               xlink:href="#DejaVuSans-32"
               x="63.623047"
               id="use262"
               y="0"
               width="100%"
               height="100%" />
            <use
               xlink:href="#DejaVuSans-35"
               x="127.24609"
               id="use264"
               y="0"
               width="100%"
               height="100%" />
            <use
               xlink:href="#DejaVuSans-30"
               x="190.86914"
               id="use266"
               y="0"
               width="100%"
               height="100%" />
            <use
               xlink:href="#DejaVuSans-30"
               x="254.49219"
               id="use268"
               y="0"
               width="100%"
               height="100%" />
          </g>
        </g>
      </g>
      <g
         id="ytick_7">
        <g
           id="line2d_12">
          <g
             id="g276">
            <use
               xlink:href="#m78a5239b37"
               x="135"
               y="91.32"
               style="stroke:#000000;stroke-width:0.8"
               id="use274"
               width="100%"
               height="100%" />
          </g>
        </g>
        <g
           id="text_13">
          <!-- 15000 -->
          <g
             transform="matrix(0.1,0,0,-0.1,96.1875,95.119219)"
             id="g289">
            <use
               xlink:href="#DejaVuSans-31"
               id="use279"
               x="0"
               y="0"
               width="100%"
               height="100%" />
            <use
               xlink:href="#DejaVuSans-35"
               x="63.623047"
               id="use281"
               y="0"
               width="100%"
               height="100%" />
            <use
               xlink:href="#DejaVuSans-30"
               x="127.24609"
               id="use283"
               y="0"
               width="100%"
               height="100%" />
            <use
               xlink:href="#DejaVuSans-30"
               x="190.86914"
               id="use285"
               y="0"
               width="100%"
               height="100%" />
            <use
               xlink:href="#DejaVuSans-30"
               x="254.49219"
               id="use287"
               y="0"
               width="100%"
               height="100%" />
          </g>
        </g>
      </g>
      <g
         id="ytick_8">
        <g
           id="line2d_13">
          <g
             id="g295">
            <use
               xlink:href="#m78a5239b37"
               x="135"
               y="63.82"
               style="stroke:#000000;stroke-width:0.8"
               id="use293"
               width="100%"
               height="100%" />
          </g>
        </g>
        <g
           id="text_14">
          <!-- 17500 -->
          <g
             transform="matrix(0.1,0,0,-0.1,96.1875,67.619219)"
             id="g308">
            <use
               xlink:href="#DejaVuSans-31"
               id="use298"
               x="0"
               y="0"
               width="100%"
               height="100%" />
            <use
               xlink:href="#DejaVuSans-37"
               x="63.623047"
               id="use300"
               y="0"
               width="100%"
               height="100%" />
            <use
               xlink:href="#DejaVuSans-35"
               x="127.24609"
               id="use302"
               y="0"
               width="100%"
               height="100%" />
            <use
               xlink:href="#DejaVuSans-30"
               x="190.86914"
               id="use304"
               y="0"
               width="100%"
               height="100%" />
            <use
               xlink:href="#DejaVuSans-30"
               x="254.49219"
               id="use306"
               y="0"
               width="100%"
               height="100%" />
          </g>
        </g>
      </g>
      <g
         id="ytick_9">
        <g
           id="line2d_14">
          <g
             id="g314">
            <use
               xlink:href="#m78a5239b37"
               x="135"
               y="36.32"
               style="stroke:#000000;stroke-width:0.8"
               id="use312"
               width="100%"
               height="100%" />
          </g>
        </g>
        <g
           id="text_15">
          <!-- 20000 -->
          <g
             transform="matrix(0.1,0,0,-0.1,96.1875,40.119219)"
             id="g327">
            <use
               xlink:href="#DejaVuSans-32"
               id="use317"
               x="0"
               y="0"
               width="100%"
               height="100%" />
            <use
               xlink:href="#DejaVuSans-30"
               x="63.623047"
               id="use319"
               y="0"
               width="100%"
               height="100%" />
            <use
               xlink:href="#DejaVuSans-30"
               x="127.24609"
               id="use321"
               y="0"
               width="100%"
               height="100%" />
            <use
               xlink:href="#DejaVuSans-30"
               x="190.86914"
               id="use323"
               y="0"
               width="100%"
               height="100%" />
            <use
               xlink:href="#DejaVuSans-30"
               x="254.49219"
               id="use325"
               y="0"
               width="100%"
               height="100%" />
          </g>
        </g>
      </g>
      <g
         id="text_16">
        <!-- % CPU usilization -->
        <g
           transform="matrix(0,-0.1,-0.1,0,90.107812,188.74078)"
           id="g375">
          <defs
             id="defs339">
            <path
               id="DejaVuSans-25"
               d="m 4653,2053 q -272,0 -427,-231 -154,-231 -154,-644 0,-406 154,-639 155,-233 427,-233 266,0 420,233 155,233 155,639 0,410 -155,642 -154,233 -420,233 z m 0,397 q 494,0 784,-344 291,-343 291,-928 0,-584 -292,-927 -292,-342 -783,-342 -500,0 -791,342 -290,343 -290,927 0,588 292,930 292,342 789,342 z M 1428,4353 q -269,0 -424,-233 -154,-232 -154,-639 0,-412 153,-644 153,-231 425,-231 272,0 426,231 155,232 155,644 0,403 -156,637 -156,235 -425,235 z m 2822,397 h 500 L 1831,-91 h -500 z m -2822,0 q 494,0 787,-342 294,-342 294,-927 0,-590 -292,-931 -292,-341 -789,-341 -497,0 -786,342 -289,343 -289,930 0,582 290,925 291,344 785,344 z"
               transform="scale(0.015625)" />
            <path
               id="DejaVuSans-43"
               d="m 4122,4306 v -665 q -319,297 -680,443 -361,147 -767,147 -800,0 -1225,-489 -425,-489 -425,-1414 0,-922 425,-1411 425,-489 1225,-489 406,0 767,147 361,147 680,444 V 359 Q 3791,134 3420,21 3050,-91 2638,-91 1578,-91 968,557 359,1206 359,2328 q 0,1125 609,1773 610,649 1670,649 418,0 788,-111 371,-111 696,-333 z"
               transform="scale(0.015625)" />
            <path
               id="DejaVuSans-50"
               d="M 1259,4147 V 2394 h 794 q 441,0 681,228 241,228 241,650 0,419 -241,647 -240,228 -681,228 z m -631,519 h 1425 q 785,0 1186,-355 402,-355 402,-1039 0,-691 -402,-1044 -401,-353 -1186,-353 H 1259 V 0 H 628 Z"
               transform="scale(0.015625)" />
            <path
               id="DejaVuSans-55"
               d="m 556,4666 h 635 V 1831 q 0,-750 271,-1080 272,-329 882,-329 606,0 878,329 272,330 272,1080 v 2835 h 634 V 1753 Q 4128,841 3676,375 3225,-91 2344,-91 1459,-91 1007,375 556,841 556,1753 Z"
               transform="scale(0.015625)" />
            <path
               id="DejaVuSans-75"
               d="m 544,1381 v 2119 h 575 V 1403 q 0,-497 193,-746 194,-248 582,-248 465,0 735,297 271,297 271,810 v 1984 h 575 V 0 H 2900 V 538 Q 2691,219 2414,64 2138,-91 1772,-91 1169,-91 856,284 544,659 544,1381 Z m 1447,2203 z"
               transform="scale(0.015625)" />
            <path
               id="DejaVuSans-6c"
               d="m 603,4863 h 575 V 0 H 603 Z"
               transform="scale(0.015625)" />
            <path
               id="DejaVuSans-7a"
               d="M 353,3500 H 3084 V 2975 L 922,459 H 3084 V 0 H 275 V 525 L 2438,3041 H 353 Z"
               transform="scale(0.015625)" />
            <path
               id="DejaVuSans-61"
               d="m 2194,1759 q -697,0 -966,-159 -269,-159 -269,-544 0,-306 202,-486 202,-179 548,-179 479,0 768,339 289,339 289,901 v 128 z m 1147,238 V 0 H 2766 V 531 Q 2569,213 2275,61 1981,-91 1556,-91 q -537,0 -855,302 -317,302 -317,808 0,590 395,890 396,300 1180,300 h 807 v 57 q 0,397 -261,614 -261,217 -733,217 -300,0 -585,-72 -284,-72 -546,-216 v 532 q 315,122 612,182 297,61 578,61 760,0 1135,-394 375,-393 375,-1193 z"
               transform="scale(0.015625)" />
          </defs>
          <use
             xlink:href="#DejaVuSans-25"
             id="use341"
             x="0"
             y="0"
             width="100%"
             height="100%" />
          <use
             xlink:href="#DejaVuSans-20"
             x="95.019531"
             id="use343"
             y="0"
             width="100%"
             height="100%" />
          <use
             xlink:href="#DejaVuSans-43"
             x="126.80664"
             id="use345"
             y="0"
             width="100%"
             height="100%" />
          <use
             xlink:href="#DejaVuSans-50"
             x="196.63086"
             id="use347"
             y="0"
             width="100%"
             height="100%" />
          <use
             xlink:href="#DejaVuSans-55"
             x="256.93359"
             id="use349"
             y="0"
             width="100%"
             height="100%" />
          <use
             xlink:href="#DejaVuSans-20"
             x="330.12695"
             id="use351"
             y="0"
             width="100%"
             height="100%" />
          <use
             xlink:href="#DejaVuSans-75"
             x="361.91406"
             id="use353"
             y="0"
             width="100%"
             height="100%" />
          <use
             xlink:href="#DejaVuSans-73"
             x="425.29297"
             id="use355"
             y="0"
             width="100%"
             height="100%" />
          <use
             xlink:href="#DejaVuSans-69"
             x="477.39258"
             id="use357"
             y="0"
             width="100%"
             height="100%" />
          <use
             xlink:href="#DejaVuSans-6c"
             x="505.17578"
             id="use359"
             y="0"
             width="100%"
             height="100%" />
          <use
             xlink:href="#DejaVuSans-69"
             x="532.95898"
             id="use361"
             y="0"
             width="100%"
             height="100%" />
          <use
             xlink:href="#DejaVuSans-7a"
             x="560.74219"
             id="use363"
             y="0"
             width="100%"
             height="100%" />
          <use
             xlink:href="#DejaVuSans-61"
             x="613.23242"
             id="use365"
             y="0"
             width="100%"
             height="100%" />
          <use
             xlink:href="#DejaVuSans-74"
             x="674.51172"
             id="use367"
             y="0"
             width="100%"
             height="100%" />
          <use
             xlink:href="#DejaVuSans-69"
             x="713.7207"
             id="use369"
             y="0"
             width="100%"
             height="100%" />
          <use
             xlink:href="#DejaVuSans-6f"
             x="741.50391"
             id="use371"
             y="0"
             width="100%"
             height="100%" />
          <use
             xlink:href="#DejaVuSans-6e"
             x="802.68555"
             id="use373"
             y="0"
             width="100%"
             height="100%" />
        </g>
      </g>
    </g>
    <g
       id="line2d_15">
      <path
         d="m 135,256.32 h 14.33066 l 1.79133,-17.38 1.79133,-157.85 1.79133,-35.97 1.79134,17.204 1.79133,-17.204 h 7.16533 l 1.79133,17.303 1.79133,-17.303 h 5.374 l 1.79133,17.303 1.79133,-17.303 h 8.95667 l 1.79133,15.301 1.79133,-15.301 h 5.374 l 1.79133,9.603 1.79133,-9.603 h 5.374 l 1.79133,11.605 1.79133,-11.605 h 7.16533 l 1.79133,13.497 1.79134,-13.497 h 3.58266 l 1.79133,17.204 1.79133,-17.204 h 7.16533 l 1.79134,17.204 1.79133,-17.204 h 7.16533 l 1.79133,9.603 1.79133,-9.603 h 5.374 l 1.79133,15.301 1.79133,-15.301 h 3.58267 l 1.79133,17.303 1.79133,-17.303 h 8.95666 l 1.79134,11.495 1.79133,-11.495 h 3.58266 l 1.79134,11.396 1.79133,-11.396 h 7.16533 l 1.79133,11.605 1.79133,-11.605 h 5.374 l 1.79133,11.495 1.79133,-11.495 h 7.16533 l 1.79133,13.398 1.79134,-13.398 h 5.37399 l 1.79134,17.402 1.79133,-17.402 h 7.16533 l 1.79133,17.303 1.79133,-17.303 h 5.374 l 1.79133,17.303 1.79133,-17.303 h 7.16533 l 1.79133,13.497 1.79134,-13.497 h 5.37399 l 1.79134,17.303 1.79133,-17.303 h 7.16533 l 1.79133,15.301 1.79133,-15.301 h 3.58267 l 1.79133,9.603 1.79133,-9.603 h 1.79133 l 1.79133,0.55 1.79134,17.05 1.79133,27.17 1.79133,4.07 1.79133,9.13 1.79134,20.68 1.79133,24.53 1.79133,11.121 1.79133,-9.801 1.79133,1.1 1.79134,-1.1 1.79133,1.87 1.79133,6.71 1.79133,18.37 1.79134,12.87 1.79133,8.91 1.79133,28.05 1.79133,18.26 1.79134,11.66 h 50.1573 v 0"
         clip-path="url(#p60a4c096aa)"
         style="fill:none;stroke:#ff0000;stroke-width:1.5;stroke-linecap:square"
         id="path379" />
    </g>
    <g
       id="line2d_16">
      <path
         d="m 135,256.32 h 14.33066 l 1.79133,-5.06 1.79133,-115.72 1.79133,-20.02 1.79134,11.495 1.79133,-12.925 h 3.58266 l 1.79134,1.54 1.79133,-1.54 1.79133,-0.11 1.79133,0.22 1.79134,1.32 1.79133,-1.32 1.79133,-0.22 1.79133,0.22 1.79133,1.32 1.79134,11.495 1.79133,-12.925 1.79133,0.11 1.79133,-0.11 1.79134,1.43 1.79133,-1.43 h 3.58266 l 1.79133,1.43 1.79134,-1.43 1.79133,0.11 1.79133,-0.11 1.79133,1.43 1.79134,11.495 1.79133,-12.925 1.79133,0.11 1.79133,1.32 1.79133,-1.32 3.58267,-0.22 1.79133,0.22 1.79133,1.32 1.79134,-1.43 h 3.58266 l 1.79133,1.43 1.79133,11.495 1.79134,-12.815 1.79133,-0.11 1.79133,1.43 1.79133,-1.43 1.79134,0.11 1.79133,-0.11 1.79133,1.32 1.79133,-1.21 3.58267,-0.11 1.79133,0.11 1.79133,0.77 1.79133,12.551 1.79134,-13.431 1.79133,0.11 3.58266,-0.11 1.79134,1.43 1.79133,-1.43 h 1.79133 l 1.79133,0.44 1.79133,-0.55 1.79134,1.54 1.79133,-1.32 1.79133,12.815 1.79133,-12.925 h 1.79134 l 1.79133,0.77 h 1.79133 l 1.79133,-0.66 3.58267,-0.11 1.79133,1.43 1.79133,-1.43 h 3.58267 l 1.79133,1.43 1.79133,11.605 1.79133,-13.035 h 5.374 l 1.79133,1.43 1.79133,-1.32 3.58267,-0.11 1.79133,0.99 3.58267,-0.99 1.79133,13.035 1.79133,-8.855 1.79133,6.82 1.79134,0.99 1.79133,1.43 1.79133,3.85 1.79133,14.74 1.79133,3.41 1.79134,1.21 1.79133,-0.99 1.79133,1.98 1.79133,-0.99 1.79134,1.1 1.79133,-1.1 1.79133,1.21 1.79133,-0.77 1.79133,0.66 1.79134,10.505 1.79133,-10.395 1.79133,1.54 1.79133,-0.44 1.79134,1.1 1.79133,-0.55 1.79133,1.54 1.79133,-1.1 1.79134,1.21 1.79133,-1.21 1.79133,1.98 1.79133,-0.88 1.79133,1.21 1.79134,-0.88 1.79133,1.98 1.79133,-1.1 1.79133,0.99 1.79134,-1.1 1.79133,1.21 1.79133,8.591 1.79133,-7.491 1.79133,-1.1 1.79134,1.1 1.79133,0.11 1.79133,0.88 1.79133,-0.99 1.79134,0.99 1.79133,-0.88 1.79133,0.77 1.79133,-0.77 1.79133,0.77 1.79134,-0.77 1.79133,-0.11 1.79133,2.09 1.79133,0.22 1.79134,0.77 1.79133,-0.77 1.79133,0.88 1.79133,7.799 1.79134,-7.799 1.79133,-0.22 1.79133,2.86 1.79133,-0.11 1.79133,3.41 1.79134,-0.22 1.79133,0.99 1.79133,0.66 1.79133,1.43 1.79134,-0.77 1.79133,0.77 1.79133,-0.11 1.79133,1.21 1.79133,-0.77 1.79134,2.09 h 1.79133 l 1.79133,0.88 1.79133,-0.88 1.79134,1.87 1.79133,7.612 1.79133,-6.512 1.79133,-0.66 1.79134,0.77 1.79133,0.11 1.79133,0.99 1.79133,0.33 1.79133,0.77 1.79134,-0.77 1.79133,2.64 1.79133,-0.22 1.79133,1.65 1.79133,-0.66 1.79134,0.66 1.79133,-0.88 1.79133,1.65 1.79133,-0.44 1.79134,0.88 1.79133,-0.88 1.79133,1.21 1.79133,0.55 1.79134,8.514 1.79133,-3.674 1.79133,4.84 1.79133,3.96 1.79134,5.28 1.79133,2.53 1.79133,3.08 1.79133,3.85 1.79133,0.99 1.79134,6.49 3.58266,9.02 1.79133,8.58 1.79133,14.19 1.79134,5.06 h 50.1573 v 0"
         clip-path="url(#p60a4c096aa)"
         style="fill:none;stroke:#ffa500;stroke-width:1.5;stroke-dasharray:5.55, 2.4;stroke-dashoffset:0"
         id="path382" />
    </g>
    <g
       id="line2d_17">
      <path
         d="m 135,256.21 3.58266,0.11 h 12.53933 l 1.79133,-73.15 1.79133,-32.34 1.79134,-1.21 1.79133,8.8 1.79133,-7.7 1.79133,-0.99 1.79134,0.88 1.79133,-0.88 1.79133,0.88 1.79133,-0.88 1.79134,1.1 1.79133,-1.21 1.79133,1.1 h 1.79133 l 1.79133,-0.99 1.79134,0.88 1.79133,-0.88 1.79133,0.88 1.79133,-0.88 1.79134,0.99 1.79133,-0.99 1.79133,0.99 1.79133,-1.1 1.79133,1.1 1.79134,8.602 1.79133,-8.602 1.79133,-0.99 1.79133,0.99 1.79134,-0.99 1.79133,0.88 1.79133,-0.88 1.79133,0.88 1.79133,-0.88 1.79134,0.99 h 1.79133 l 1.79133,-0.99 1.79133,-0.11 1.79134,1.1 1.79133,-1.1 1.79133,1.1 1.79133,-0.99 1.79133,0.99 1.79134,-0.99 1.79133,0.88 1.79133,8.811 1.79133,-8.701 1.79134,-1.1 1.79133,1.21 1.79133,-1.21 h 1.79133 l 1.79134,1.1 h 1.79133 l 1.79133,-1.1 1.79133,0.11 1.79133,0.99 1.79134,-1.1 1.79133,1.1 1.79133,-0.99 1.79133,0.99 1.79134,-1.1 1.79133,1.1 1.79133,-0.99 1.79133,0.88 1.79133,8.811 1.79134,-8.701 1.79133,-1.1 1.79133,1.1 1.79133,-0.99 1.79134,-0.11 1.79133,1.1 1.79133,-0.99 1.79133,-0.11 1.79134,1.1 1.79133,-1.1 1.79133,0.11 1.79133,-0.11 1.79133,1.21 1.79134,-1.21 1.79133,9.702 1.79133,-9.592 1.79133,0.99 1.79134,-1.1 h 1.79133 l 1.79133,1.1 1.79133,-0.99 1.79133,0.99 1.79134,-0.99 1.79133,0.88 1.79133,-0.22 1.79133,1.43 1.79134,-0.99 1.79133,0.99 1.79133,-1.1 1.79133,0.11 1.79134,0.99 1.79133,8.602 1.79133,-8.272 1.79133,-0.22 1.79133,0.99 1.79134,-0.99 1.79133,0.88 1.79133,-0.88 1.79133,1.32 1.79134,0.55 1.79133,1.32 1.79133,-0.99 1.79133,0.99 1.79133,-0.77 1.79134,1.87 1.79133,-0.99 1.79133,0.99 1.79133,-0.99 1.79134,0.99 1.79133,-0.99 1.79133,0.88 1.79133,8.415 1.79134,-9.405 1.79133,1.21 1.79133,-0.99 1.79133,2.09 1.79133,-1.21 1.79134,1.1 1.79133,-0.99 1.79133,1.1 1.79133,-1.21 1.79134,1.1 1.79133,-0.99 1.79133,0.99 1.79133,0.11 1.79133,0.99 1.79134,-0.99 1.79133,0.99 1.79133,-0.99 1.79133,0.99 1.79134,7.997 1.79133,-7.997 1.79133,-0.88 1.79133,0.77 1.79133,-0.44 1.79134,1.87 h 1.79133 l 1.79133,0.88 1.79133,-0.99 1.79134,0.11 1.79133,0.77 1.79133,-0.77 1.79133,0.88 h 1.79134 l 1.79133,0.99 1.79133,-0.77 1.79133,1.21 1.79133,-0.22 1.79134,1.1 1.79133,7.491 1.79133,-7.601 1.79133,-0.99 1.79134,1.1 1.79133,-1.1 1.79133,0.99 1.79133,-0.44 1.79133,1.65 1.79134,-1.1 1.79133,1.54 1.79133,-0.22 1.79133,1.76 1.79134,-0.88 1.79133,1.1 1.79133,-0.88 1.79133,2.64 1.79134,0.11 1.79133,1.32 1.79133,-0.88 1.79133,0.88 1.79133,7.095 1.79134,-6.985 1.79133,-1.1 1.79133,1.98 1.79133,0.11 1.79133,1.1 1.79134,-0.66 1.79133,2.09 1.79133,-0.11 1.79133,0.99 1.79134,-1.1 1.79133,1.1 1.79133,-0.33 1.79133,1.21 1.79134,0.55 1.79133,2.42 1.79133,-0.33 1.79133,2.2 1.79134,0.11 1.79133,0.55 1.79133,6.413 1.79133,-6.413 1.79133,-0.66 1.79134,2.86 1.79133,-0.55 1.79133,0.66 1.79133,0.99 1.79133,2.97 3.58267,1.54 1.79133,-0.66 1.79133,1.76 1.79134,0.88 1.79133,-0.55 1.79133,0.88 1.79133,-0.77 3.58267,2.31 1.79133,4.18 1.79133,7.172 1.79133,-2.662 1.79134,0.77 1.79133,3.3 1.79133,0.66 1.79133,2.09 1.79134,1.76 1.79133,3.52 1.79133,2.86 1.79133,4.18 1.79133,5.17 1.79134,7.48 1.79133,6.6 1.79133,3.96 1.79133,8.03 1.79134,4.95 1.79133,0.33 h 50.1573 v 0"
         clip-path="url(#p60a4c096aa)"
         style="fill:none;stroke:#a52a2a;stroke-width:1.5;stroke-dasharray:1.5, 2.475;stroke-dashoffset:0"
         id="path385" />
    </g>
    <g
       id="line2d_18">
      <path
         d="m 135,256.21 3.58266,0.11 h 12.53933 l 1.79133,-52.36 1.79133,-18.7 h 1.79134 l 1.79133,0.55 1.79133,-0.55 1.79133,-0.11 1.79134,0.11 1.79133,0.66 1.79133,-0.77 1.79133,0.11 1.79134,0.66 1.79133,5.797 1.79133,-6.567 1.79133,0.11 1.79133,0.66 1.79134,-0.66 1.79133,-0.11 1.79133,0.77 1.79133,-0.66 1.79134,-0.11 1.79133,0.22 1.79133,0.44 1.79133,-0.55 1.79133,-0.11 1.79134,0.77 1.79133,5.797 1.79133,-6.457 1.79133,-0.11 1.79134,0.77 1.79133,-0.66 h 1.79133 l 1.79133,0.55 1.79133,-0.55 h 1.79134 l 1.79133,0.55 1.79133,-0.55 h 3.58267 l 1.79133,0.55 1.79133,5.907 1.79133,-6.567 1.79133,0.88 1.79134,-0.77 1.79133,-0.22 1.79133,0.22 1.79133,0.77 1.79134,-0.88 1.79133,0.11 1.79133,0.55 1.79133,-0.55 h 1.79134 l 1.79133,0.66 1.79133,-0.77 1.79133,6.567 1.79133,-5.797 1.79134,-0.66 3.58266,-0.11 1.79133,0.77 1.79134,-0.77 1.79133,0.22 1.79133,0.44 1.79133,-0.55 3.58267,-0.11 1.79133,0.77 1.79133,-0.66 1.79133,6.358 1.79134,-5.698 1.79133,-0.77 3.58266,0.11 1.79134,0.66 1.79133,-0.66 1.79133,-0.11 1.79133,0.88 1.79133,-0.88 1.79134,0.11 1.79133,0.66 1.79133,-0.77 1.79133,0.11 1.79134,-0.11 1.79133,7.172 1.79133,-7.062 3.58266,-0.11 1.79134,0.77 1.79133,-0.66 1.79133,-0.11 1.79133,0.88 1.79134,-0.88 1.79133,0.11 1.79133,-0.11 1.79133,0.77 1.79134,-0.66 1.79133,6.457 1.79133,-5.797 1.79133,-0.66 1.79133,-0.22 1.79134,0.22 1.79133,0.66 1.79133,-0.66 1.79133,-0.11 1.79134,0.11 1.79133,0.66 1.79133,-0.77 3.58266,0.11 1.79134,0.77 1.79133,5.588 1.79133,-6.358 1.79133,-0.22 1.79134,0.99 1.79133,-0.88 3.58266,0.11 1.79134,0.66 1.79133,-0.66 1.79133,-0.22 1.79133,0.22 1.79133,0.77 1.79134,-0.88 1.79133,6.567 1.79133,-6.567 1.79133,0.88 1.79134,-0.88 h 1.79133 l 1.79133,0.22 1.79133,0.44 1.79133,-0.55 1.79134,-0.11 1.79133,0.11 1.79133,-0.11 1.79133,0.88 1.79134,-0.88 1.79133,6.567 1.79133,-5.797 1.79133,-0.77 3.58267,0.11 h 1.79133 l 1.79133,0.55 1.79133,-0.55 7.16533,-0.11 1.79134,0.77 1.79133,5.698 1.79133,-6.248 1.79133,0.44 1.79133,-0.55 1.79134,-0.11 1.79133,0.11 1.79133,0.66 1.79133,-0.77 3.58267,0.11 1.79133,1.21 3.58266,-0.11 1.79134,6.358 1.79133,-6.468 1.79133,0.77 1.79133,-0.66 3.58267,-0.11 1.79133,0.77 1.79133,-0.66 5.374,1.76 1.79133,-0.66 h 1.79133 l 1.79134,0.66 1.79133,5.599 1.79133,-6.369 1.79133,0.22 1.79133,0.44 1.79134,-0.55 1.79133,0.11 1.79133,0.99 h 1.79133 l 1.79134,0.66 1.79133,-0.66 1.79133,-0.11 1.79133,0.11 1.79134,0.77 1.79133,5.291 1.79133,-5.951 1.79133,0.55 1.79134,-0.77 3.58266,0.55 1.79133,1.21 1.79133,-0.44 1.79134,-0.22 3.58266,0.44 3.58266,-0.22 1.79134,5.951 1.79133,-5.401 1.79133,-0.66 1.79133,0.33 3.58267,1.43 1.79133,-0.66 3.58267,0.11 1.79133,0.55 1.79133,-0.66 1.79133,-0.11 1.79133,0.44 1.79134,1.76 1.79133,5.874 1.79133,-5.654 1.79133,0.44 1.79134,-0.44 1.79133,0.99 h 1.79133 l 1.79133,0.77 1.79133,-0.77 3.58267,0.11 1.79133,0.44 h 1.79133 l 3.58267,1.21 1.79133,5.005 1.79133,-5.665 1.79134,0.66 1.79133,-0.66 1.79133,0.88 1.79133,2.53 1.79133,4.51 1.79134,4.07 1.79133,0.33 1.79133,0.88 1.79133,1.65 1.79134,4.29 3.58266,1.87 1.79133,0.11 1.79133,3.3 1.79134,4.18 1.79133,9.9 1.79133,3.058 1.79133,-1.188 1.79134,-0.33 1.79133,0.22 1.79133,-0.22 1.79133,0.22 1.79134,-0.22 1.79133,0.22 1.79133,-0.22 1.79133,0.88 5.374,4.73 1.79133,0.44 3.58267,3.96 1.79133,0.11 1.79133,-0.11 3.58266,1.65 1.79134,1.21 1.79133,2.6499 3.58266,0.1001 1.79134,1.43 5.37399,2.53 1.79133,0.44 1.79134,1.1 h 50.1573 v 0"
         clip-path="url(#p60a4c096aa)"
         style="fill:none;stroke:#008000;stroke-width:1.5;stroke-dasharray:9.6, 2.4, 1.5, 2.4;stroke-dashoffset:0"
         id="path388" />
    </g>
    <g
       id="line2d_19">
      <path
         d="m 135,255.99 1.79133,0.33 h 14.33066 l 1.79133,-34.43 1.79133,-18.92 3.58267,0.11 1.79133,0.33 1.79133,-0.33 1.79134,-0.11 1.79133,4.95 1.79133,-4.51 1.79133,-0.44 1.79134,0.11 1.79133,-0.11 1.79133,0.55 1.79133,-0.55 h 3.58267 l 1.79133,0.55 1.79133,-0.44 3.58267,-0.11 1.79133,0.55 1.79133,4.301 1.79133,-4.851 1.79133,0.11 1.79134,0.33 1.79133,-0.33 1.79133,-0.11 1.79133,0.55 1.79134,-0.55 1.79133,0.11 1.79133,0.33 1.79133,-0.33 1.79133,0.44 1.79134,-0.55 h 1.79133 l 1.79133,0.55 1.79133,4.301 1.79134,-4.851 1.79133,0.55 1.79133,-0.44 1.79133,0.44 1.79133,-0.55 h 1.79134 l 1.79133,0.55 1.79133,-0.55 1.79133,0.66 1.79134,-0.66 h 1.79133 l 1.79133,0.55 1.79133,-0.55 1.79134,0.66 1.79133,-0.77 1.79133,0.77 1.79133,4.092 1.79133,-4.642 1.79134,0.44 1.79133,-0.55 1.79133,0.55 1.79133,-0.55 h 1.79134 l 1.79133,0.66 1.79133,-0.66 1.79133,0.55 1.79133,-0.66 1.79134,0.22 1.79133,0.44 1.79133,-0.55 1.79133,0.55 1.79134,-0.44 1.79133,0.33 1.79133,4.51 1.79133,-4.95 1.79134,0.55 1.79133,-0.55 1.79133,0.55 1.79133,-0.55 1.79133,0.11 1.79134,0.44 1.79133,-0.66 1.79133,0.77 1.79133,-0.77 1.79134,0.22 1.79133,0.44 1.79133,-0.55 1.79133,0.55 1.79133,-0.44 1.79134,-0.11 1.79133,5.247 1.79133,-5.137 1.79133,0.44 1.79134,-0.55 h 1.79133 l 1.79133,0.55 1.79133,-0.44 1.79134,0.44 1.79133,-0.55 1.79133,0.55 1.79133,-0.55 h 1.79133 l 1.79134,0.55 1.79133,-0.55 1.79133,0.66 1.79133,-0.66 1.79134,0.55 1.79133,4.301 1.79133,-4.851 1.79133,0.55 1.79133,-0.55 1.79134,0.55 1.79133,-0.55 1.79133,0.55 1.79133,-0.44 1.79134,-0.11 1.79133,0.55 1.79133,-0.55 1.79133,0.55 1.79134,-0.55 1.79133,0.55 1.79133,-0.44 1.79133,0.44 1.79133,-0.66 1.79134,5.06 1.79133,-4.4 1.79133,-0.55 1.79133,0.66 1.79134,-0.66 1.79133,0.44 1.79133,-0.44 1.79133,0.55 1.79133,-0.55 1.79134,0.11 1.79133,0.44 1.79133,-0.55 1.79133,0.55 1.79134,-0.55 1.79133,0.55 1.79133,-0.55 1.79133,0.55 1.79133,-0.44 1.79134,0.44 1.79133,4.301 1.79133,-4.301 1.79133,-0.55 h 1.79134 l 1.79133,0.55 1.79133,-0.44 1.79133,0.44 1.79134,-0.55 1.79133,0.55 1.79133,-0.55 1.79133,0.55 1.79133,-0.44 1.79134,0.33 1.79133,-0.44 1.79133,0.66 1.79133,-0.66 1.79134,0.44 1.79133,-0.33 1.79133,0.44 1.79133,4.301 1.79133,-4.301 1.79134,-0.55 1.79133,0.55 1.79133,-0.55 1.79133,0.66 1.79134,-0.66 1.79133,0.55 1.79133,-0.66 1.79133,0.22 1.79134,0.44 1.79133,-0.55 1.79133,0.66 1.79133,-0.77 1.79133,0.77 1.79134,-0.66 1.79133,0.55 1.79133,-0.55 1.79133,0.55 1.79133,4.4 1.79134,-4.51 1.79133,-0.33 1.79133,0.44 1.79133,-0.66 1.79134,0.77 1.79133,-0.66 1.79133,0.55 1.79133,-0.55 1.79134,0.55 1.79133,-0.55 1.79133,0.55 1.79133,-0.44 1.79134,1.43 1.79133,-0.44 1.79133,0.55 1.79133,-0.44 1.79133,0.44 1.79134,-0.55 1.79133,0.55 1.79133,4.202 1.79133,-4.202 1.79133,-0.55 1.79134,1.43 1.79133,-0.22 1.79133,0.44 1.79133,-0.55 1.79134,0.55 1.79133,-0.33 1.79133,1.32 1.79133,-0.33 1.79134,0.44 1.79133,-0.44 3.58266,0.55 1.79133,1.32 1.79134,1.1 1.79133,0.77 1.79133,-0.55 1.79133,0.55 1.79134,3.795 1.79133,-3.355 1.79133,0.22 1.79133,0.44 1.79133,-0.44 1.79134,0.33 1.79133,-0.22 1.79133,0.88 1.79133,0.11 1.79134,0.99 1.79133,0.22 1.79133,0.99 3.58267,0.33 1.79133,-0.22 1.79133,0.33 1.79133,-0.44 3.58267,0.77 1.79133,0.77 1.79133,3.3 1.79133,-3.3 1.79134,-0.44 1.79133,0.44 1.79133,-0.44 1.79133,0.77 5.374,1.32 1.79133,1.32 h 1.79133 l 1.79134,0.33 1.79133,1.43 1.79133,0.88 1.79133,-0.44 1.79134,1.43 1.79133,0.11 1.79133,0.99 1.79133,0.33 1.79133,0.77 1.79134,-0.44 1.79133,3.443 1.79133,-3.333 1.79133,0.33 1.79134,-0.33 1.79133,0.33 1.79133,-0.33 3.58266,0.55 1.79134,0.88 1.79133,-0.22 1.79133,0.99 1.79133,0.55 1.79134,2.09 1.79133,-0.11 1.79133,-0.33 1.79133,0.44 1.79133,-0.44 1.79134,0.33 1.79133,-0.33 1.79133,0.33 1.79133,3.3 1.79134,-2.09 1.79133,0.66 1.79133,1.43 1.79133,0.88 1.79134,1.1 1.79133,2.86 1.79133,1.98 1.79133,2.31 1.79133,1.87 1.79134,1.54 1.79133,1.76 1.79133,1.1 1.79133,1.65 1.79134,2.75 1.79133,1.87 1.79133,2.2 1.79133,0.33 h 50.15731 v 0"
         clip-path="url(#p60a4c096aa)"
         style="fill:none;stroke:#0000ff;stroke-width:1.5;stroke-linecap:square"
         id="path391" />
    </g>
    <g
       id="line2d_20">
      <path
         d="m 135,256.32 h 14.33066 l 1.79133,-10.67 1.79133,-24.97 1.79133,0.44 1.79134,-0.33 1.79133,0.33 1.79133,-0.33 1.79133,-0.11 1.79134,0.44 1.79133,-0.33 1.79133,0.44 1.79133,-0.55 1.79134,0.44 1.79133,2.904 1.79133,-2.904 1.79133,-0.33 1.79133,0.33 1.79134,-0.44 1.79133,0.44 1.79133,-0.33 1.79133,0.44 1.79134,-0.55 1.79133,0.44 1.79133,-0.33 1.79133,0.33 1.79133,-0.33 1.79134,0.22 1.79133,-0.22 1.79133,0.44 1.79133,-0.44 1.79134,0.22 1.79133,-0.22 1.79133,0.33 1.79133,2.904 1.79133,-2.904 1.79134,-0.33 1.79133,0.33 1.79133,-0.33 1.79133,0.33 1.79134,-0.44 1.79133,0.44 1.79133,-0.22 1.79133,0.11 1.79133,-0.22 1.79134,0.33 1.79133,-0.44 1.79133,0.55 1.79133,-0.44 1.79134,0.22 1.79133,-0.22 1.79133,0.33 1.79133,-0.33 1.79134,0.33 1.79133,-0.33 1.79133,3.531 1.79133,-3.531 1.79133,0.33 1.79134,-0.44 1.79133,0.55 1.79133,-0.55 1.79133,0.55 1.79134,-0.55 1.79133,0.44 1.79133,-0.33 1.79133,0.33 1.79133,-0.33 1.79134,0.33 1.79133,-0.33 1.79133,0.33 1.79133,-0.44 1.79134,0.55 1.79133,-0.44 1.79133,0.33 1.79133,2.805 1.79134,-2.805 1.79133,-0.33 1.79133,0.33 1.79133,-0.33 1.79133,0.33 1.79134,-0.33 1.79133,0.22 1.79133,-0.11 1.79133,0.11 1.79134,-0.22 1.79133,0.33 1.79133,-0.33 1.79133,0.33 1.79133,-0.33 1.79134,0.33 1.79133,-0.33 1.79133,0.33 1.79133,-0.44 1.79134,0.44 1.79133,2.904 1.79133,-2.904 1.79133,-0.33 1.79134,0.33 1.79133,-0.33 1.79133,0.33 1.79133,-0.33 1.79133,0.33 1.79134,-0.44 1.79133,0.55 1.79133,-0.44 1.79133,0.22 1.79134,-0.22 1.79133,0.33 1.79133,-0.33 1.79133,0.22 1.79133,-0.11 1.79134,0.22 1.79133,-0.44 1.79133,0.55 1.79133,-0.22 1.79134,3.014 1.79133,-2.794 1.79133,-0.55 1.79133,0.55 1.79134,-0.55 1.79133,0.44 1.79133,-0.33 1.79133,0.33 1.79133,-0.44 1.79134,0.55 1.79133,-0.55 1.79133,0.44 1.79133,-0.33 1.79134,0.44 1.79133,-0.55 1.79133,0.44 1.79133,-0.33 1.79133,0.22 1.79134,-0.11 1.79133,0.22 1.79133,2.805 1.79133,-2.805 1.79134,-0.33 1.79133,0.33 1.79133,-0.33 1.79133,0.33 1.79133,-0.33 1.79134,0.33 1.79133,-0.44 1.79133,0.55 1.79133,-0.55 1.79134,0.55 1.79133,-0.44 1.79133,0.33 1.79133,-0.44 1.79134,0.44 1.79133,-0.33 1.79133,0.33 1.79133,-0.33 1.79133,0.22 1.79134,3.113 1.79133,-3.113 1.79133,-0.22 1.79133,0.33 1.79134,-0.33 1.79133,0.33 1.79133,-0.33 1.79133,0.33 1.79133,-0.33 1.79134,0.33 1.79133,-0.44 1.79133,0.55 1.79133,-0.55 1.79134,0.44 1.79133,-0.22 1.79133,0.11 1.79133,-0.22 1.79134,0.33 1.79133,-0.33 h 1.79133 l 1.79133,3.432 1.79133,-3.322 1.79134,0.22 1.79133,-0.44 1.79133,0.44 1.79133,-0.33 1.79133,0.33 1.79134,-0.33 1.79133,0.22 1.79133,-0.22 1.79133,0.44 1.79134,-0.55 1.79133,0.55 1.79133,-0.55 1.79133,0.44 1.79134,-0.33 1.79133,0.33 1.79133,-0.33 1.79133,0.33 1.79134,-0.33 1.79133,3.432 1.79133,-3.432 1.79133,0.33 1.79133,-0.33 1.79134,0.33 1.79133,-0.33 1.79133,0.33 1.79133,-0.33 1.79133,0.33 1.79134,-0.44 1.79133,0.55 1.79133,-0.44 1.79133,0.22 1.79134,-0.11 1.79133,0.11 1.79133,-0.22 1.79133,0.33 1.79134,-0.33 1.79133,0.22 1.79133,-0.11 1.79133,3.421 1.79133,-3.641 1.79134,0.44 1.79133,-0.22 1.79133,0.11 1.79133,-0.22 1.79134,0.33 1.79133,-0.33 1.79133,0.33 1.79133,-0.44 1.79133,0.55 1.79134,-0.44 1.79133,0.22 1.79133,-0.11 1.79133,0.11 1.79134,-0.22 1.79133,0.33 1.79133,-0.33 3.58267,0.44 1.79133,2.794 1.79133,-3.014 1.79133,-0.22 1.79133,0.44 1.79134,-0.55 1.79133,0.11 1.79133,0.44 1.79133,-0.55 1.79134,0.44 1.79133,-0.44 1.79133,0.44 1.79133,-0.22 1.79133,0.11 1.79134,-0.22 1.79133,0.44 1.79133,-0.55 1.79133,0.44 1.79134,-0.33 1.79133,0.33 1.79133,-0.33 1.79133,3.531 1.79134,-3.641 1.79133,0.55 1.79133,-0.11 1.79133,-0.44 1.79133,0.44 1.79134,-0.33 1.79133,0.33 1.79133,-0.33 1.79133,0.33 1.79134,-0.33 1.79133,0.22 1.79133,-0.11 1.79133,0.22 1.79133,-0.44 1.79134,0.55 1.79133,-0.55 1.79133,0.11 1.79133,0.33 1.79134,-0.33 1.79133,3.531 1.79133,-3.531 1.79133,0.22 1.79133,-0.11 1.79134,0.11 1.79133,-0.22 1.79133,0.33 1.79133,-0.33 1.79134,0.44 1.79133,-0.55 1.79133,0.44 1.79133,-0.33 1.79134,0.33 1.79133,-0.44 1.79133,0.44 1.79133,-0.22 1.79133,0.22 1.79134,-0.44 1.79133,0.44 1.79133,-0.33 1.79133,3.531 1.79134,-3.531 1.79133,0.22 1.79133,-0.22 1.79133,0.33 1.79133,-0.22 1.79134,0.11 1.79133,-0.22 1.79133,0.33 1.79133,-0.44 1.79134,0.55 1.79133,-0.44 1.79133,0.33 1.79133,-0.33 1.79134,0.22 1.79133,-0.11 1.79133,0.22 1.79133,-0.33 1.79133,0.22 1.79134,-0.22 1.79133,3.531 1.79133,-3.201 1.79133,-0.33 1.79134,0.33 1.79133,-0.44 1.79133,0.55 1.79133,-0.55 1.79133,0.44 1.79134,-0.33 1.79133,0.33 1.79133,-0.33 1.79133,0.33 1.79134,-0.33 1.79133,-0.11 1.79133,0.55 1.79133,-0.44 1.79134,0.33 1.79133,-0.44 1.79133,0.55 1.79133,-0.55 1.79133,3.641 1.79134,-3.531 1.79133,0.33 1.79133,-0.33 1.79133,0.33 1.79134,-0.33 1.79133,0.33 1.79133,-0.33 3.58266,0.55 1.79134,0.99 1.79133,-0.55 1.79133,0.44 1.79133,-0.22 1.79134,1.32 1.79133,0.44 1.79133,0.66 1.79133,-0.33 1.79133,1.1 1.79134,0.66 1.79133,3.168 1.79133,-2.288 1.79133,-0.44 h 1.79134 l 1.79133,1.21 3.58266,0.99 1.79134,0.33 1.79133,0.11 1.79133,0.99 1.79133,0.44 1.79133,0.77 1.79134,-0.44 1.79133,1.87 1.79133,0.55 1.79133,0.11 1.79134,-0.22 1.79133,0.77 1.79133,0.22 1.79133,0.44 1.79133,2.288 1.79134,-1.078 1.79133,0.66 1.79133,0.33 1.79133,-0.33 1.79134,0.11 1.79133,0.88 1.79133,1.43 1.79133,-0.22 1.79134,0.22 3.58266,-0.11 8.95666,0.11 1.79133,1.1 1.79134,0.11 1.79133,0.99 1.79133,1.199 1.79133,-0.319 1.79133,0.11 1.79134,1.1 3.58266,0.11 3.58267,0.22 1.79133,0.77 1.79133,1.32 1.79133,3.08 3.58267,3.41 1.79133,0.99 1.79133,2.64 1.79133,0.77 h 50.15731 v 0"
         clip-path="url(#p60a4c096aa)"
         style="fill:none;stroke:#800080;stroke-width:1.5;stroke-dasharray:5.55, 2.4;stroke-dashoffset:0"
         id="path394" />
    </g>
    <g
       id="patch_3">
      <path
         d="M 135,256.32 V 34.56"
         style="fill:none;stroke:#000000;stroke-width:0.8;stroke-linecap:square;stroke-linejoin:miter"
         id="path397" />
    </g>
    <g
       id="patch_4">
      <path
         d="M 972,256.32 V 34.56"
         style="fill:none;stroke:#000000;stroke-width:0.8;stroke-linecap:square;stroke-linejoin:miter"
         id="path400" />
    </g>
    <g
       id="patch_5">
      <path
         d="M 135,256.32 H 972"
         style="fill:none;stroke:#000000;stroke-width:0.8;stroke-linecap:square;stroke-linejoin:miter"
         id="path403" />
    </g>
    <g
       id="patch_6">
      <path
         d="M 135,34.56 H 972"
         style="fill:none;stroke:#000000;stroke-width:0.8;stroke-linecap:square;stroke-linejoin:miter"
         id="path406" />
    </g>
    <g
       id="legend_1">
      <g
         id="patch_7">
        <path
           d="M 849.86094,130.62875 H 965 q 2,0 2,-2 V 41.56 q 0,-2 -2,-2 H 849.86094 q -2,0 -2,2 v 87.06875 q 0,2 2,2 z"
           style="opacity:0.8;fill:#ffffff;stroke:#cccccc;stroke-linejoin:miter"
           id="path409" />
      </g>
      <g
         id="line2d_21">
        <path
           d="m 851.86094,47.658438 h 10 10"
           style="fill:none;stroke:#ff0000;stroke-width:1.5;stroke-linecap:square"
           id="path412" />
      </g>
      <g
         id="text_17">
        <!-- 192 free threads -->
        <g
           transform="matrix(0.1,0,0,-0.1,879.86094,51.158438)"
           id="g452">
          <defs
             id="defs418">
            <path
               id="DejaVuSans-39"
               d="m 703,97 v 575 q 238,-113 481,-172 244,-59 479,-59 625,0 954,420 330,420 377,1277 -181,-269 -460,-413 -278,-144 -615,-144 -700,0 -1108,423 -408,424 -408,1159 0,718 425,1152 425,435 1131,435 810,0 1236,-621 427,-620 427,-1801 Q 3622,1225 3098,567 2575,-91 1691,-91 1453,-91 1209,-44 966,3 703,97 Z m 1256,1978 q 425,0 673,290 249,291 249,798 0,503 -249,795 -248,292 -673,292 -425,0 -673,-292 -248,-292 -248,-795 0,-507 248,-798 248,-290 673,-290 z"
               transform="scale(0.015625)" />
            <path
               id="DejaVuSans-66"
               d="m 2375,4863 v -479 h -550 q -309,0 -430,-125 -120,-125 -120,-450 v -309 h 947 V 3053 H 1275 V 0 H 697 V 3053 H 147 v 447 h 550 v 244 q 0,584 272,851 272,268 862,268 z"
               transform="scale(0.015625)" />
            <path
               id="DejaVuSans-68"
               d="M 3513,2113 V 0 h -575 v 2094 q 0,497 -194,743 -194,247 -581,247 -466,0 -735,-297 -269,-296 -269,-809 V 0 H 581 v 4863 h 578 V 2956 q 207,316 486,472 280,156 646,156 603,0 912,-373 310,-373 310,-1098 z"
               transform="scale(0.015625)" />
          </defs>
          <use
             xlink:href="#DejaVuSans-31"
             id="use420"
             x="0"
             y="0"
             width="100%"
             height="100%" />
          <use
             xlink:href="#DejaVuSans-39"
             x="63.623047"
             id="use422"
             y="0"
             width="100%"
             height="100%" />
          <use
             xlink:href="#DejaVuSans-32"
             x="127.24609"
             id="use424"
             y="0"
             width="100%"
             height="100%" />
          <use
             xlink:href="#DejaVuSans-20"
             x="190.86914"
             id="use426"
             y="0"
             width="100%"
             height="100%" />
          <use
             xlink:href="#DejaVuSans-66"
             x="222.65625"
             id="use428"
             y="0"
             width="100%"
             height="100%" />
          <use
             xlink:href="#DejaVuSans-72"
             x="257.86133"
             id="use430"
             y="0"
             width="100%"
             height="100%" />
          <use
             xlink:href="#DejaVuSans-65"
             x="296.72461"
             id="use432"
             y="0"
             width="100%"
             height="100%" />
          <use
             xlink:href="#DejaVuSans-65"
             x="358.24805"
             id="use434"
             y="0"
             width="100%"
             height="100%" />
          <use
             xlink:href="#DejaVuSans-20"
             x="419.77148"
             id="use436"
             y="0"
             width="100%"
             height="100%" />
          <use
             xlink:href="#DejaVuSans-74"
             x="451.55859"
             id="use438"
             y="0"
             width="100%"
             height="100%" />
          <use
             xlink:href="#DejaVuSans-68"
             x="490.76758"
             id="use440"
             y="0"
             width="100%"
             height="100%" />
          <use
             xlink:href="#DejaVuSans-72"
             x="554.14648"
             id="use442"
             y="0"
             width="100%"
             height="100%" />
          <use
             xlink:href="#DejaVuSans-65"
             x="593.00977"
             id="use444"
             y="0"
             width="100%"
             height="100%" />
          <use
             xlink:href="#DejaVuSans-61"
             x="654.5332"
             id="use446"
             y="0"
             width="100%"
             height="100%" />
          <use
             xlink:href="#DejaVuSans-64"
             x="715.8125"
             id="use448"
             y="0"
             width="100%"
             height="100%" />
          <use
             xlink:href="#DejaVuSans-73"
             x="779.28906"
             id="use450"
             y="0"
             width="100%"
             height="100%" />
        </g>
      </g>
      <g
         id="line2d_22">
        <path
           d="m 851.86094,62.336563 h 10 10"
           style="fill:none;stroke:#ffa500;stroke-width:1.5;stroke-dasharray:5.55, 2.4;stroke-dashoffset:0"
           id="path455" />
      </g>
      <g
         id="text_18">
        <!-- 128 free threads -->
        <g
           transform="matrix(0.1,0,0,-0.1,879.86094,65.836563)"
           id="g493">
          <defs
             id="defs459">
            <path
               id="DejaVuSans-38"
               d="m 2034,2216 q -450,0 -708,-241 -257,-241 -257,-662 0,-422 257,-663 258,-241 708,-241 450,0 709,242 260,243 260,662 0,421 -258,662 -257,241 -711,241 z m -631,268 q -406,100 -633,378 -226,279 -226,679 0,559 398,884 399,325 1092,325 697,0 1094,-325 397,-325 397,-884 0,-400 -227,-679 -226,-278 -629,-378 456,-106 710,-416 255,-309 255,-755 Q 3634,634 3220,271 2806,-91 2034,-91 1263,-91 848,271 434,634 434,1313 q 0,446 256,755 257,310 713,416 z m -231,997 q 0,-362 226,-565 227,-203 636,-203 407,0 636,203 230,203 230,565 0,363 -230,566 -229,203 -636,203 -409,0 -636,-203 -226,-203 -226,-566 z"
               transform="scale(0.015625)" />
          </defs>
          <use
             xlink:href="#DejaVuSans-31"
             id="use461"
             x="0"
             y="0"
             width="100%"
             height="100%" />
          <use
             xlink:href="#DejaVuSans-32"
             x="63.623047"
             id="use463"
             y="0"
             width="100%"
             height="100%" />
          <use
             xlink:href="#DejaVuSans-38"
             x="127.24609"
             id="use465"
             y="0"
             width="100%"
             height="100%" />
          <use
             xlink:href="#DejaVuSans-20"
             x="190.86914"
             id="use467"
             y="0"
             width="100%"
             height="100%" />
          <use
             xlink:href="#DejaVuSans-66"
             x="222.65625"
             id="use469"
             y="0"
             width="100%"
             height="100%" />
          <use
             xlink:href="#DejaVuSans-72"
             x="257.86133"
             id="use471"
             y="0"
             width="100%"
             height="100%" />
          <use
             xlink:href="#DejaVuSans-65"
             x="296.72461"
             id="use473"
             y="0"
             width="100%"
             height="100%" />
          <use
             xlink:href="#DejaVuSans-65"
             x="358.24805"
             id="use475"
             y="0"
             width="100%"
             height="100%" />
          <use
             xlink:href="#DejaVuSans-20"
             x="419.77148"
             id="use477"
             y="0"
             width="100%"
             height="100%" />
          <use
             xlink:href="#DejaVuSans-74"
             x="451.55859"
             id="use479"
             y="0"
             width="100%"
             height="100%" />
          <use
             xlink:href="#DejaVuSans-68"
             x="490.76758"
             id="use481"
             y="0"
             width="100%"
             height="100%" />
          <use
             xlink:href="#DejaVuSans-72"
             x="554.14648"
             id="use483"
             y="0"
             width="100%"
             height="100%" />
          <use
             xlink:href="#DejaVuSans-65"
             x="593.00977"
             id="use485"
             y="0"
             width="100%"
             height="100%" />
          <use
             xlink:href="#DejaVuSans-61"
             x="654.5332"
             id="use487"
             y="0"
             width="100%"
             height="100%" />
          <use
             xlink:href="#DejaVuSans-64"
             x="715.8125"
             id="use489"
             y="0"
             width="100%"
             height="100%" />
          <use
             xlink:href="#DejaVuSans-73"
             x="779.28906"
             id="use491"
             y="0"
             width="100%"
             height="100%" />
        </g>
      </g>
      <g
         id="line2d_23">
        <path
           d="m 851.86094,77.014688 h 10 10"
           style="fill:none;stroke:#a52a2a;stroke-width:1.5;stroke-dasharray:1.5, 2.475;stroke-dashoffset:0"
           id="path496" />
      </g>
      <g
         id="text_19">
        <!-- 96 free threads -->
        <g
           transform="matrix(0.1,0,0,-0.1,879.86094,80.514688)"
           id="g532">
          <defs
             id="defs500">
            <path
               id="DejaVuSans-36"
               d="m 2113,2584 q -425,0 -674,-291 -248,-290 -248,-796 0,-503 248,-796 249,-292 674,-292 425,0 673,292 248,293 248,796 0,506 -248,796 -248,291 -673,291 z m 1253,1979 v -575 q -238,112 -480,171 -242,60 -480,60 -625,0 -955,-422 -329,-422 -376,-1275 184,272 462,417 279,145 613,145 703,0 1111,-427 408,-426 408,-1160 0,-719 -425,-1154 -425,-434 -1131,-434 -810,0 -1238,620 -428,621 -428,1799 0,1106 525,1764 525,658 1409,658 238,0 480,-47 242,-47 505,-140 z"
               transform="scale(0.015625)" />
          </defs>
          <use
             xlink:href="#DejaVuSans-39"
             id="use502"
             x="0"
             y="0"
             width="100%"
             height="100%" />
          <use
             xlink:href="#DejaVuSans-36"
             x="63.623047"
             id="use504"
             y="0"
             width="100%"
             height="100%" />
          <use
             xlink:href="#DejaVuSans-20"
             x="127.24609"
             id="use506"
             y="0"
             width="100%"
             height="100%" />
          <use
             xlink:href="#DejaVuSans-66"
             x="159.0332"
             id="use508"
             y="0"
             width="100%"
             height="100%" />
          <use
             xlink:href="#DejaVuSans-72"
             x="194.23828"
             id="use510"
             y="0"
             width="100%"
             height="100%" />
          <use
             xlink:href="#DejaVuSans-65"
             x="233.10156"
             id="use512"
             y="0"
             width="100%"
             height="100%" />
          <use
             xlink:href="#DejaVuSans-65"
             x="294.625"
             id="use514"
             y="0"
             width="100%"
             height="100%" />
          <use
             xlink:href="#DejaVuSans-20"
             x="356.14844"
             id="use516"
             y="0"
             width="100%"
             height="100%" />
          <use
             xlink:href="#DejaVuSans-74"
             x="387.93555"
             id="use518"
             y="0"
             width="100%"
             height="100%" />
          <use
             xlink:href="#DejaVuSans-68"
             x="427.14453"
             id="use520"
             y="0"
             width="100%"
             height="100%" />
          <use
             xlink:href="#DejaVuSans-72"
             x="490.52344"
             id="use522"
             y="0"
             width="100%"
             height="100%" />
          <use
             xlink:href="#DejaVuSans-65"
             x="529.38672"
             id="use524"
             y="0"
             width="100%"
             height="100%" />
          <use
             xlink:href="#DejaVuSans-61"
             x="590.91016"
             id="use526"
             y="0"
             width="100%"
             height="100%" />
          <use
             xlink:href="#DejaVuSans-64"
             x="652.18945"
             id="use528"
             y="0"
             width="100%"
             height="100%" />
          <use
             xlink:href="#DejaVuSans-73"
             x="715.66602"
             id="use530"
             y="0"
             width="100%"
             height="100%" />
        </g>
      </g>
      <g
         id="line2d_24">
        <path
           d="m 851.86094,91.692813 h 10 10"
           style="fill:none;stroke:#008000;stroke-width:1.5;stroke-dasharray:9.6, 2.4, 1.5, 2.4;stroke-dashoffset:0"
           id="path535" />
      </g>
      <g
         id="text_20">
        <!-- 64 free threads -->
        <g
           transform="matrix(0.1,0,0,-0.1,879.86094,95.192813)"
           id="g568">
          <use
             xlink:href="#DejaVuSans-36"
             id="use538"
             x="0"
             y="0"
             width="100%"
             height="100%" />
          <use
             xlink:href="#DejaVuSans-34"
             x="63.623047"
             id="use540"
             y="0"
             width="100%"
             height="100%" />
          <use
             xlink:href="#DejaVuSans-20"
             x="127.24609"
             id="use542"
             y="0"
             width="100%"
             height="100%" />
          <use
             xlink:href="#DejaVuSans-66"
             x="159.0332"
             id="use544"
             y="0"
             width="100%"
             height="100%" />
          <use
             xlink:href="#DejaVuSans-72"
             x="194.23828"
             id="use546"
             y="0"
             width="100%"
             height="100%" />
          <use
             xlink:href="#DejaVuSans-65"
             x="233.10156"
             id="use548"
             y="0"
             width="100%"
             height="100%" />
          <use
             xlink:href="#DejaVuSans-65"
             x="294.625"
             id="use550"
             y="0"
             width="100%"
             height="100%" />
          <use
             xlink:href="#DejaVuSans-20"
             x="356.14844"
             id="use552"
             y="0"
             width="100%"
             height="100%" />
          <use
             xlink:href="#DejaVuSans-74"
             x="387.93555"
             id="use554"
             y="0"
             width="100%"
             height="100%" />
          <use
             xlink:href="#DejaVuSans-68"
             x="427.14453"
             id="use556"
             y="0"
             width="100%"
             height="100%" />
          <use
             xlink:href="#DejaVuSans-72"
             x="490.52344"
             id="use558"
             y="0"
             width="100%"
             height="100%" />
          <use
             xlink:href="#DejaVuSans-65"
             x="529.38672"
             id="use560"
             y="0"
             width="100%"
             height="100%" />
          <use
             xlink:href="#DejaVuSans-61"
             x="590.91016"
             id="use562"
             y="0"
             width="100%"
             height="100%" />
          <use
             xlink:href="#DejaVuSans-64"
             x="652.18945"
             id="use564"
             y="0"
             width="100%"
             height="100%" />
          <use
             xlink:href="#DejaVuSans-73"
             x="715.66602"
             id="use566"
             y="0"
             width="100%"
             height="100%" />
        </g>
      </g>
      <g
         id="line2d_25">
        <path
           d="m 851.86094,106.37094 h 10 10"
           style="fill:none;stroke:#0000ff;stroke-width:1.5;stroke-linecap:square"
           id="path571" />
      </g>
      <g
         id="text_21">
        <!-- 48 free threads -->
        <g
           transform="matrix(0.1,0,0,-0.1,879.86094,109.87094)"
           id="g604">
          <use
             xlink:href="#DejaVuSans-34"
             id="use574"
             x="0"
             y="0"
             width="100%"
             height="100%" />
          <use
             xlink:href="#DejaVuSans-38"
             x="63.623047"
             id="use576"
             y="0"
             width="100%"
             height="100%" />
          <use
             xlink:href="#DejaVuSans-20"
             x="127.24609"
             id="use578"
             y="0"
             width="100%"
             height="100%" />
          <use
             xlink:href="#DejaVuSans-66"
             x="159.0332"
             id="use580"
             y="0"
             width="100%"
             height="100%" />
          <use
             xlink:href="#DejaVuSans-72"
             x="194.23828"
             id="use582"
             y="0"
             width="100%"
             height="100%" />
          <use
             xlink:href="#DejaVuSans-65"
             x="233.10156"
             id="use584"
             y="0"
             width="100%"
             height="100%" />
          <use
             xlink:href="#DejaVuSans-65"
             x="294.625"
             id="use586"
             y="0"
             width="100%"
             height="100%" />
          <use
             xlink:href="#DejaVuSans-20"
             x="356.14844"
             id="use588"
             y="0"
             width="100%"
             height="100%" />
          <use
             xlink:href="#DejaVuSans-74"
             x="387.93555"
             id="use590"
             y="0"
             width="100%"
             height="100%" />
          <use
             xlink:href="#DejaVuSans-68"
             x="427.14453"
             id="use592"
             y="0"
             width="100%"
             height="100%" />
          <use
             xlink:href="#DejaVuSans-72"
             x="490.52344"
             id="use594"
             y="0"
             width="100%"
             height="100%" />
          <use
             xlink:href="#DejaVuSans-65"
             x="529.38672"
             id="use596"
             y="0"
             width="100%"
             height="100%" />
          <use
             xlink:href="#DejaVuSans-61"
             x="590.91016"
             id="use598"
             y="0"
             width="100%"
             height="100%" />
          <use
             xlink:href="#DejaVuSans-64"
             x="652.18945"
             id="use600"
             y="0"
             width="100%"
             height="100%" />
          <use
             xlink:href="#DejaVuSans-73"
             x="715.66602"
             id="use602"
             y="0"
             width="100%"
             height="100%" />
        </g>
      </g>
      <g
         id="line2d_26">
        <path
           d="m 851.86094,121.04906 h 10 10"
           style="fill:none;stroke:#800080;stroke-width:1.5;stroke-dasharray:5.55, 2.4;stroke-dashoffset:0"
           id="path607" />
      </g>
      <g
         id="text_22">
        <!-- 32 free threads -->
        <g
           transform="matrix(0.1,0,0,-0.1,879.86094,124.54906)"
           id="g640">
          <use
             xlink:href="#DejaVuSans-33"
             id="use610"
             x="0"
             y="0"
             width="100%"
             height="100%" />
          <use
             xlink:href="#DejaVuSans-32"
             x="63.623047"
             id="use612"
             y="0"
             width="100%"
             height="100%" />
          <use
             xlink:href="#DejaVuSans-20"
             x="127.24609"
             id="use614"
             y="0"
             width="100%"
             height="100%" />
          <use
             xlink:href="#DejaVuSans-66"
             x="159.0332"
             id="use616"
             y="0"
             width="100%"
             height="100%" />
          <use
             xlink:href="#DejaVuSans-72"
             x="194.23828"
             id="use618"
             y="0"
             width="100%"
             height="100%" />
          <use
             xlink:href="#DejaVuSans-65"
             x="233.10156"
             id="use620"
             y="0"
             width="100%"
             height="100%" />
          <use
             xlink:href="#DejaVuSans-65"
             x="294.625"
             id="use622"
             y="0"
             width="100%"
             height="100%" />
          <use
             xlink:href="#DejaVuSans-20"
             x="356.14844"
             id="use624"
             y="0"
             width="100%"
             height="100%" />
          <use
             xlink:href="#DejaVuSans-74"
             x="387.93555"
             id="use626"
             y="0"
             width="100%"
             height="100%" />
          <use
             xlink:href="#DejaVuSans-68"
             x="427.14453"
             id="use628"
             y="0"
             width="100%"
             height="100%" />
          <use
             xlink:href="#DejaVuSans-72"
             x="490.52344"
             id="use630"
             y="0"
             width="100%"
             height="100%" />
          <use
             xlink:href="#DejaVuSans-65"
             x="529.38672"
             id="use632"
             y="0"
             width="100%"
             height="100%" />
          <use
             xlink:href="#DejaVuSans-61"
             x="590.91016"
             id="use634"
             y="0"
             width="100%"
             height="100%" />
          <use
             xlink:href="#DejaVuSans-64"
             x="652.18945"
             id="use636"
             y="0"
             width="100%"
             height="100%" />
          <use
             xlink:href="#DejaVuSans-73"
             x="715.66602"
             id="use638"
             y="0"
             width="100%"
             height="100%" />
        </g>
      </g>
    </g>
  </g>
  <defs
     id="defs649">
    <clipPath
       id="p60a4c096aa">
      <rect
         x="135"
         y="34.560001"
         width="837"
         height="221.75999"
         id="rect646" />
    </clipPath>
  </defs>
</svg>
