<?xml version="1.0" encoding="utf-8" standalone="no"?>
<!DOCTYPE svg PUBLIC "-//W3C//DTD SVG 1.1//EN"
  "http://www.w3.org/Graphics/SVG/1.1/DTD/svg11.dtd">
<svg xmlns:xlink="http://www.w3.org/1999/xlink" width="1080pt" height="288pt" viewBox="0 0 1080 288" xmlns="http://www.w3.org/2000/svg" version="1.1">
 <metadata>
  <rdf:RDF xmlns:dc="http://purl.org/dc/elements/1.1/" xmlns:cc="http://creativecommons.org/ns#" xmlns:rdf="http://www.w3.org/1999/02/22-rdf-syntax-ns#">
   <cc:Work>
    <dc:type rdf:resource="http://purl.org/dc/dcmitype/StillImage"/>
    <dc:date>2024-10-07T19:07:37.852325</dc:date>
    <dc:format>image/svg+xml</dc:format>
    <dc:creator>
     <cc:Agent>
      <dc:title>Matplotlib v3.8.4, https://matplotlib.org/</dc:title>
     </cc:Agent>
    </dc:creator>
   </cc:Work>
  </rdf:RDF>
 </metadata>
 <defs>
  <style type="text/css">*{stroke-linejoin: round; stroke-linecap: butt}</style>
 </defs>
 <g id="figure_1">
  <g id="patch_1">
   <path d="M 0 288 
L 1080 288 
L 1080 0 
L 0 0 
z
" style="fill: #ffffff"/>
  </g>
  <g id="axes_1">
   <g id="patch_2">
    <path d="M 135 256.32 
L 972 256.32 
L 972 34.56 
L 135 34.56 
z
" style="fill: #ffffff"/>
   </g>
   <g id="matplotlib.axis_1">
    <g id="xtick_1">
     <g id="line2d_1">
      <defs>
       <path id="m14ee233840" d="M 0 0 
L 0 3.5 
" style="stroke: #000000; stroke-width: 0.8"/>
      </defs>
      <g>
       <use xlink:href="#m14ee233840" x="135" y="256.32" style="stroke: #000000; stroke-width: 0.8"/>
      </g>
     </g>
     <g id="text_1">
      <!-- 0 -->
      <g transform="translate(131.81875 270.918437) scale(0.1 -0.1)">
       <defs>
        <path id="DejaVuSans-30" d="M 2034 4250 
Q 1547 4250 1301 3770 
Q 1056 3291 1056 2328 
Q 1056 1369 1301 889 
Q 1547 409 2034 409 
Q 2525 409 2770 889 
Q 3016 1369 3016 2328 
Q 3016 3291 2770 3770 
Q 2525 4250 2034 4250 
z
M 2034 4750 
Q 2819 4750 3233 4129 
Q 3647 3509 3647 2328 
Q 3647 1150 3233 529 
Q 2819 -91 2034 -91 
Q 1250 -91 836 529 
Q 422 1150 422 2328 
Q 422 3509 836 4129 
Q 1250 4750 2034 4750 
z
" transform="scale(0.015625)"/>
       </defs>
       <use xlink:href="#DejaVuSans-30"/>
      </g>
     </g>
    </g>
    <g id="xtick_2">
     <g id="line2d_2">
      <g>
       <use xlink:href="#m14ee233840" x="230.580678" y="256.32" style="stroke: #000000; stroke-width: 0.8"/>
      </g>
     </g>
     <g id="text_2">
      <!-- 5 -->
      <g transform="translate(227.399428 270.918437) scale(0.1 -0.1)">
       <defs>
        <path id="DejaVuSans-35" d="M 691 4666 
L 3169 4666 
L 3169 4134 
L 1269 4134 
L 1269 2991 
Q 1406 3038 1543 3061 
Q 1681 3084 1819 3084 
Q 2600 3084 3056 2656 
Q 3513 2228 3513 1497 
Q 3513 744 3044 326 
Q 2575 -91 1722 -91 
Q 1428 -91 1123 -41 
Q 819 9 494 109 
L 494 744 
Q 775 591 1075 516 
Q 1375 441 1709 441 
Q 2250 441 2565 725 
Q 2881 1009 2881 1497 
Q 2881 1984 2565 2268 
Q 2250 2553 1709 2553 
Q 1456 2553 1204 2497 
Q 953 2441 691 2322 
L 691 4666 
z
" transform="scale(0.015625)"/>
       </defs>
       <use xlink:href="#DejaVuSans-35"/>
      </g>
     </g>
    </g>
    <g id="xtick_3">
     <g id="line2d_3">
      <g>
       <use xlink:href="#m14ee233840" x="326.161357" y="256.32" style="stroke: #000000; stroke-width: 0.8"/>
      </g>
     </g>
     <g id="text_3">
      <!-- 10 -->
      <g transform="translate(319.798857 270.918437) scale(0.1 -0.1)">
       <defs>
        <path id="DejaVuSans-31" d="M 794 531 
L 1825 531 
L 1825 4091 
L 703 3866 
L 703 4441 
L 1819 4666 
L 2450 4666 
L 2450 531 
L 3481 531 
L 3481 0 
L 794 0 
L 794 531 
z
" transform="scale(0.015625)"/>
       </defs>
       <use xlink:href="#DejaVuSans-31"/>
       <use xlink:href="#DejaVuSans-30" x="63.623047"/>
      </g>
     </g>
    </g>
    <g id="xtick_4">
     <g id="line2d_4">
      <g>
       <use xlink:href="#m14ee233840" x="421.742035" y="256.32" style="stroke: #000000; stroke-width: 0.8"/>
      </g>
     </g>
     <g id="text_4">
      <!-- 15 -->
      <g transform="translate(415.379535 270.918437) scale(0.1 -0.1)">
       <use xlink:href="#DejaVuSans-31"/>
       <use xlink:href="#DejaVuSans-35" x="63.623047"/>
      </g>
     </g>
    </g>
    <g id="xtick_5">
     <g id="line2d_5">
      <g>
       <use xlink:href="#m14ee233840" x="517.322713" y="256.32" style="stroke: #000000; stroke-width: 0.8"/>
      </g>
     </g>
     <g id="text_5">
      <!-- 20 -->
      <g transform="translate(510.960213 270.918437) scale(0.1 -0.1)">
       <defs>
        <path id="DejaVuSans-32" d="M 1228 531 
L 3431 531 
L 3431 0 
L 469 0 
L 469 531 
Q 828 903 1448 1529 
Q 2069 2156 2228 2338 
Q 2531 2678 2651 2914 
Q 2772 3150 2772 3378 
Q 2772 3750 2511 3984 
Q 2250 4219 1831 4219 
Q 1534 4219 1204 4116 
Q 875 4013 500 3803 
L 500 4441 
Q 881 4594 1212 4672 
Q 1544 4750 1819 4750 
Q 2544 4750 2975 4387 
Q 3406 4025 3406 3419 
Q 3406 3131 3298 2873 
Q 3191 2616 2906 2266 
Q 2828 2175 2409 1742 
Q 1991 1309 1228 531 
z
" transform="scale(0.015625)"/>
       </defs>
       <use xlink:href="#DejaVuSans-32"/>
       <use xlink:href="#DejaVuSans-30" x="63.623047"/>
      </g>
     </g>
    </g>
    <g id="xtick_6">
     <g id="line2d_6">
      <g>
       <use xlink:href="#m14ee233840" x="612.903392" y="256.32" style="stroke: #000000; stroke-width: 0.8"/>
      </g>
     </g>
     <g id="text_6">
      <!-- 25 -->
      <g transform="translate(606.540892 270.918437) scale(0.1 -0.1)">
       <use xlink:href="#DejaVuSans-32"/>
       <use xlink:href="#DejaVuSans-35" x="63.623047"/>
      </g>
     </g>
    </g>
    <g id="xtick_7">
     <g id="line2d_7">
      <g>
       <use xlink:href="#m14ee233840" x="708.48407" y="256.32" style="stroke: #000000; stroke-width: 0.8"/>
      </g>
     </g>
     <g id="text_7">
      <!-- 30 -->
      <g transform="translate(702.12157 270.918437) scale(0.1 -0.1)">
       <defs>
        <path id="DejaVuSans-33" d="M 2597 2516 
Q 3050 2419 3304 2112 
Q 3559 1806 3559 1356 
Q 3559 666 3084 287 
Q 2609 -91 1734 -91 
Q 1441 -91 1130 -33 
Q 819 25 488 141 
L 488 750 
Q 750 597 1062 519 
Q 1375 441 1716 441 
Q 2309 441 2620 675 
Q 2931 909 2931 1356 
Q 2931 1769 2642 2001 
Q 2353 2234 1838 2234 
L 1294 2234 
L 1294 2753 
L 1863 2753 
Q 2328 2753 2575 2939 
Q 2822 3125 2822 3475 
Q 2822 3834 2567 4026 
Q 2313 4219 1838 4219 
Q 1578 4219 1281 4162 
Q 984 4106 628 3988 
L 628 4550 
Q 988 4650 1302 4700 
Q 1616 4750 1894 4750 
Q 2613 4750 3031 4423 
Q 3450 4097 3450 3541 
Q 3450 3153 3228 2886 
Q 3006 2619 2597 2516 
z
" transform="scale(0.015625)"/>
       </defs>
       <use xlink:href="#DejaVuSans-33"/>
       <use xlink:href="#DejaVuSans-30" x="63.623047"/>
      </g>
     </g>
    </g>
    <g id="xtick_8">
     <g id="line2d_8">
      <g>
       <use xlink:href="#m14ee233840" x="804.064748" y="256.32" style="stroke: #000000; stroke-width: 0.8"/>
      </g>
     </g>
     <g id="text_8">
      <!-- 35 -->
      <g transform="translate(797.702248 270.918437) scale(0.1 -0.1)">
       <use xlink:href="#DejaVuSans-33"/>
       <use xlink:href="#DejaVuSans-35" x="63.623047"/>
      </g>
     </g>
    </g>
    <g id="xtick_9">
     <g id="line2d_9">
      <g>
       <use xlink:href="#m14ee233840" x="899.645427" y="256.32" style="stroke: #000000; stroke-width: 0.8"/>
      </g>
     </g>
     <g id="text_9">
      <!-- 40 -->
      <g transform="translate(893.282927 270.918437) scale(0.1 -0.1)">
       <defs>
        <path id="DejaVuSans-34" d="M 2419 4116 
L 825 1625 
L 2419 1625 
L 2419 4116 
z
M 2253 4666 
L 3047 4666 
L 3047 1625 
L 3713 1625 
L 3713 1100 
L 3047 1100 
L 3047 0 
L 2419 0 
L 2419 1100 
L 313 1100 
L 313 1709 
L 2253 4666 
z
" transform="scale(0.015625)"/>
       </defs>
       <use xlink:href="#DejaVuSans-34"/>
       <use xlink:href="#DejaVuSans-30" x="63.623047"/>
      </g>
     </g>
    </g>
    <g id="text_10">
     <!-- time in process (seconds) -->
     <g transform="translate(489.328125 284.596563) scale(0.1 -0.1)">
      <defs>
       <path id="DejaVuSans-74" d="M 1172 4494 
L 1172 3500 
L 2356 3500 
L 2356 3053 
L 1172 3053 
L 1172 1153 
Q 1172 725 1289 603 
Q 1406 481 1766 481 
L 2356 481 
L 2356 0 
L 1766 0 
Q 1100 0 847 248 
Q 594 497 594 1153 
L 594 3053 
L 172 3053 
L 172 3500 
L 594 3500 
L 594 4494 
L 1172 4494 
z
" transform="scale(0.015625)"/>
       <path id="DejaVuSans-69" d="M 603 3500 
L 1178 3500 
L 1178 0 
L 603 0 
L 603 3500 
z
M 603 4863 
L 1178 4863 
L 1178 4134 
L 603 4134 
L 603 4863 
z
" transform="scale(0.015625)"/>
       <path id="DejaVuSans-6d" d="M 3328 2828 
Q 3544 3216 3844 3400 
Q 4144 3584 4550 3584 
Q 5097 3584 5394 3201 
Q 5691 2819 5691 2113 
L 5691 0 
L 5113 0 
L 5113 2094 
Q 5113 2597 4934 2840 
Q 4756 3084 4391 3084 
Q 3944 3084 3684 2787 
Q 3425 2491 3425 1978 
L 3425 0 
L 2847 0 
L 2847 2094 
Q 2847 2600 2669 2842 
Q 2491 3084 2119 3084 
Q 1678 3084 1418 2786 
Q 1159 2488 1159 1978 
L 1159 0 
L 581 0 
L 581 3500 
L 1159 3500 
L 1159 2956 
Q 1356 3278 1631 3431 
Q 1906 3584 2284 3584 
Q 2666 3584 2933 3390 
Q 3200 3197 3328 2828 
z
" transform="scale(0.015625)"/>
       <path id="DejaVuSans-65" d="M 3597 1894 
L 3597 1613 
L 953 1613 
Q 991 1019 1311 708 
Q 1631 397 2203 397 
Q 2534 397 2845 478 
Q 3156 559 3463 722 
L 3463 178 
Q 3153 47 2828 -22 
Q 2503 -91 2169 -91 
Q 1331 -91 842 396 
Q 353 884 353 1716 
Q 353 2575 817 3079 
Q 1281 3584 2069 3584 
Q 2775 3584 3186 3129 
Q 3597 2675 3597 1894 
z
M 3022 2063 
Q 3016 2534 2758 2815 
Q 2500 3097 2075 3097 
Q 1594 3097 1305 2825 
Q 1016 2553 972 2059 
L 3022 2063 
z
" transform="scale(0.015625)"/>
       <path id="DejaVuSans-20" transform="scale(0.015625)"/>
       <path id="DejaVuSans-6e" d="M 3513 2113 
L 3513 0 
L 2938 0 
L 2938 2094 
Q 2938 2591 2744 2837 
Q 2550 3084 2163 3084 
Q 1697 3084 1428 2787 
Q 1159 2491 1159 1978 
L 1159 0 
L 581 0 
L 581 3500 
L 1159 3500 
L 1159 2956 
Q 1366 3272 1645 3428 
Q 1925 3584 2291 3584 
Q 2894 3584 3203 3211 
Q 3513 2838 3513 2113 
z
" transform="scale(0.015625)"/>
       <path id="DejaVuSans-70" d="M 1159 525 
L 1159 -1331 
L 581 -1331 
L 581 3500 
L 1159 3500 
L 1159 2969 
Q 1341 3281 1617 3432 
Q 1894 3584 2278 3584 
Q 2916 3584 3314 3078 
Q 3713 2572 3713 1747 
Q 3713 922 3314 415 
Q 2916 -91 2278 -91 
Q 1894 -91 1617 61 
Q 1341 213 1159 525 
z
M 3116 1747 
Q 3116 2381 2855 2742 
Q 2594 3103 2138 3103 
Q 1681 3103 1420 2742 
Q 1159 2381 1159 1747 
Q 1159 1113 1420 752 
Q 1681 391 2138 391 
Q 2594 391 2855 752 
Q 3116 1113 3116 1747 
z
" transform="scale(0.015625)"/>
       <path id="DejaVuSans-72" d="M 2631 2963 
Q 2534 3019 2420 3045 
Q 2306 3072 2169 3072 
Q 1681 3072 1420 2755 
Q 1159 2438 1159 1844 
L 1159 0 
L 581 0 
L 581 3500 
L 1159 3500 
L 1159 2956 
Q 1341 3275 1631 3429 
Q 1922 3584 2338 3584 
Q 2397 3584 2469 3576 
Q 2541 3569 2628 3553 
L 2631 2963 
z
" transform="scale(0.015625)"/>
       <path id="DejaVuSans-6f" d="M 1959 3097 
Q 1497 3097 1228 2736 
Q 959 2375 959 1747 
Q 959 1119 1226 758 
Q 1494 397 1959 397 
Q 2419 397 2687 759 
Q 2956 1122 2956 1747 
Q 2956 2369 2687 2733 
Q 2419 3097 1959 3097 
z
M 1959 3584 
Q 2709 3584 3137 3096 
Q 3566 2609 3566 1747 
Q 3566 888 3137 398 
Q 2709 -91 1959 -91 
Q 1206 -91 779 398 
Q 353 888 353 1747 
Q 353 2609 779 3096 
Q 1206 3584 1959 3584 
z
" transform="scale(0.015625)"/>
       <path id="DejaVuSans-63" d="M 3122 3366 
L 3122 2828 
Q 2878 2963 2633 3030 
Q 2388 3097 2138 3097 
Q 1578 3097 1268 2742 
Q 959 2388 959 1747 
Q 959 1106 1268 751 
Q 1578 397 2138 397 
Q 2388 397 2633 464 
Q 2878 531 3122 666 
L 3122 134 
Q 2881 22 2623 -34 
Q 2366 -91 2075 -91 
Q 1284 -91 818 406 
Q 353 903 353 1747 
Q 353 2603 823 3093 
Q 1294 3584 2113 3584 
Q 2378 3584 2631 3529 
Q 2884 3475 3122 3366 
z
" transform="scale(0.015625)"/>
       <path id="DejaVuSans-73" d="M 2834 3397 
L 2834 2853 
Q 2591 2978 2328 3040 
Q 2066 3103 1784 3103 
Q 1356 3103 1142 2972 
Q 928 2841 928 2578 
Q 928 2378 1081 2264 
Q 1234 2150 1697 2047 
L 1894 2003 
Q 2506 1872 2764 1633 
Q 3022 1394 3022 966 
Q 3022 478 2636 193 
Q 2250 -91 1575 -91 
Q 1294 -91 989 -36 
Q 684 19 347 128 
L 347 722 
Q 666 556 975 473 
Q 1284 391 1588 391 
Q 1994 391 2212 530 
Q 2431 669 2431 922 
Q 2431 1156 2273 1281 
Q 2116 1406 1581 1522 
L 1381 1569 
Q 847 1681 609 1914 
Q 372 2147 372 2553 
Q 372 3047 722 3315 
Q 1072 3584 1716 3584 
Q 2034 3584 2315 3537 
Q 2597 3491 2834 3397 
z
" transform="scale(0.015625)"/>
       <path id="DejaVuSans-28" d="M 1984 4856 
Q 1566 4138 1362 3434 
Q 1159 2731 1159 2009 
Q 1159 1288 1364 580 
Q 1569 -128 1984 -844 
L 1484 -844 
Q 1016 -109 783 600 
Q 550 1309 550 2009 
Q 550 2706 781 3412 
Q 1013 4119 1484 4856 
L 1984 4856 
z
" transform="scale(0.015625)"/>
       <path id="DejaVuSans-64" d="M 2906 2969 
L 2906 4863 
L 3481 4863 
L 3481 0 
L 2906 0 
L 2906 525 
Q 2725 213 2448 61 
Q 2172 -91 1784 -91 
Q 1150 -91 751 415 
Q 353 922 353 1747 
Q 353 2572 751 3078 
Q 1150 3584 1784 3584 
Q 2172 3584 2448 3432 
Q 2725 3281 2906 2969 
z
M 947 1747 
Q 947 1113 1208 752 
Q 1469 391 1925 391 
Q 2381 391 2643 752 
Q 2906 1113 2906 1747 
Q 2906 2381 2643 2742 
Q 2381 3103 1925 3103 
Q 1469 3103 1208 2742 
Q 947 2381 947 1747 
z
" transform="scale(0.015625)"/>
       <path id="DejaVuSans-29" d="M 513 4856 
L 1013 4856 
Q 1481 4119 1714 3412 
Q 1947 2706 1947 2009 
Q 1947 1309 1714 600 
Q 1481 -109 1013 -844 
L 513 -844 
Q 928 -128 1133 580 
Q 1338 1288 1338 2009 
Q 1338 2731 1133 3434 
Q 928 4138 513 4856 
z
" transform="scale(0.015625)"/>
      </defs>
      <use xlink:href="#DejaVuSans-74"/>
      <use xlink:href="#DejaVuSans-69" x="39.208984"/>
      <use xlink:href="#DejaVuSans-6d" x="66.992188"/>
      <use xlink:href="#DejaVuSans-65" x="164.404297"/>
      <use xlink:href="#DejaVuSans-20" x="225.927734"/>
      <use xlink:href="#DejaVuSans-69" x="257.714844"/>
      <use xlink:href="#DejaVuSans-6e" x="285.498047"/>
      <use xlink:href="#DejaVuSans-20" x="348.876953"/>
      <use xlink:href="#DejaVuSans-70" x="380.664062"/>
      <use xlink:href="#DejaVuSans-72" x="444.140625"/>
      <use xlink:href="#DejaVuSans-6f" x="483.003906"/>
      <use xlink:href="#DejaVuSans-63" x="544.185547"/>
      <use xlink:href="#DejaVuSans-65" x="599.166016"/>
      <use xlink:href="#DejaVuSans-73" x="660.689453"/>
      <use xlink:href="#DejaVuSans-73" x="712.789062"/>
      <use xlink:href="#DejaVuSans-20" x="764.888672"/>
      <use xlink:href="#DejaVuSans-28" x="796.675781"/>
      <use xlink:href="#DejaVuSans-73" x="835.689453"/>
      <use xlink:href="#DejaVuSans-65" x="887.789062"/>
      <use xlink:href="#DejaVuSans-63" x="949.3125"/>
      <use xlink:href="#DejaVuSans-6f" x="1004.292969"/>
      <use xlink:href="#DejaVuSans-6e" x="1065.474609"/>
      <use xlink:href="#DejaVuSans-64" x="1128.853516"/>
      <use xlink:href="#DejaVuSans-73" x="1192.330078"/>
      <use xlink:href="#DejaVuSans-29" x="1244.429688"/>
     </g>
    </g>
   </g>
   <g id="matplotlib.axis_2">
    <g id="ytick_1">
     <g id="line2d_10">
      <defs>
       <path id="mb2dcee1f4d" d="M 0 0 
L -3.5 0 
" style="stroke: #000000; stroke-width: 0.8"/>
      </defs>
      <g>
       <use xlink:href="#mb2dcee1f4d" x="135" y="256.32" style="stroke: #000000; stroke-width: 0.8"/>
      </g>
     </g>
     <g id="text_11">
      <!-- 0 -->
      <g transform="translate(121.6375 260.119219) scale(0.1 -0.1)">
       <use xlink:href="#DejaVuSans-30"/>
      </g>
     </g>
    </g>
    <g id="ytick_2">
     <g id="line2d_11">
      <g>
       <use xlink:href="#mb2dcee1f4d" x="135" y="223.803871" style="stroke: #000000; stroke-width: 0.8"/>
      </g>
     </g>
     <g id="text_12">
      <!-- 1000 -->
      <g transform="translate(102.55 227.60309) scale(0.1 -0.1)">
       <use xlink:href="#DejaVuSans-31"/>
       <use xlink:href="#DejaVuSans-30" x="63.623047"/>
       <use xlink:href="#DejaVuSans-30" x="127.246094"/>
       <use xlink:href="#DejaVuSans-30" x="190.869141"/>
      </g>
     </g>
    </g>
    <g id="ytick_3">
     <g id="line2d_12">
      <g>
       <use xlink:href="#mb2dcee1f4d" x="135" y="191.287742" style="stroke: #000000; stroke-width: 0.8"/>
      </g>
     </g>
     <g id="text_13">
      <!-- 2000 -->
      <g transform="translate(102.55 195.086961) scale(0.1 -0.1)">
       <use xlink:href="#DejaVuSans-32"/>
       <use xlink:href="#DejaVuSans-30" x="63.623047"/>
       <use xlink:href="#DejaVuSans-30" x="127.246094"/>
       <use xlink:href="#DejaVuSans-30" x="190.869141"/>
      </g>
     </g>
    </g>
    <g id="ytick_4">
     <g id="line2d_13">
      <g>
       <use xlink:href="#mb2dcee1f4d" x="135" y="158.771613" style="stroke: #000000; stroke-width: 0.8"/>
      </g>
     </g>
     <g id="text_14">
      <!-- 3000 -->
      <g transform="translate(102.55 162.570832) scale(0.1 -0.1)">
       <use xlink:href="#DejaVuSans-33"/>
       <use xlink:href="#DejaVuSans-30" x="63.623047"/>
       <use xlink:href="#DejaVuSans-30" x="127.246094"/>
       <use xlink:href="#DejaVuSans-30" x="190.869141"/>
      </g>
     </g>
    </g>
    <g id="ytick_5">
     <g id="line2d_14">
      <g>
       <use xlink:href="#mb2dcee1f4d" x="135" y="126.255484" style="stroke: #000000; stroke-width: 0.8"/>
      </g>
     </g>
     <g id="text_15">
      <!-- 4000 -->
      <g transform="translate(102.55 130.054703) scale(0.1 -0.1)">
       <use xlink:href="#DejaVuSans-34"/>
       <use xlink:href="#DejaVuSans-30" x="63.623047"/>
       <use xlink:href="#DejaVuSans-30" x="127.246094"/>
       <use xlink:href="#DejaVuSans-30" x="190.869141"/>
      </g>
     </g>
    </g>
    <g id="ytick_6">
     <g id="line2d_15">
      <g>
       <use xlink:href="#mb2dcee1f4d" x="135" y="93.739355" style="stroke: #000000; stroke-width: 0.8"/>
      </g>
     </g>
     <g id="text_16">
      <!-- 5000 -->
      <g transform="translate(102.55 97.538574) scale(0.1 -0.1)">
       <use xlink:href="#DejaVuSans-35"/>
       <use xlink:href="#DejaVuSans-30" x="63.623047"/>
       <use xlink:href="#DejaVuSans-30" x="127.246094"/>
       <use xlink:href="#DejaVuSans-30" x="190.869141"/>
      </g>
     </g>
    </g>
    <g id="ytick_7">
     <g id="line2d_16">
      <g>
       <use xlink:href="#mb2dcee1f4d" x="135" y="61.223226" style="stroke: #000000; stroke-width: 0.8"/>
      </g>
     </g>
     <g id="text_17">
      <!-- 6000 -->
      <g transform="translate(102.55 65.022445) scale(0.1 -0.1)">
       <defs>
        <path id="DejaVuSans-36" d="M 2113 2584 
Q 1688 2584 1439 2293 
Q 1191 2003 1191 1497 
Q 1191 994 1439 701 
Q 1688 409 2113 409 
Q 2538 409 2786 701 
Q 3034 994 3034 1497 
Q 3034 2003 2786 2293 
Q 2538 2584 2113 2584 
z
M 3366 4563 
L 3366 3988 
Q 3128 4100 2886 4159 
Q 2644 4219 2406 4219 
Q 1781 4219 1451 3797 
Q 1122 3375 1075 2522 
Q 1259 2794 1537 2939 
Q 1816 3084 2150 3084 
Q 2853 3084 3261 2657 
Q 3669 2231 3669 1497 
Q 3669 778 3244 343 
Q 2819 -91 2113 -91 
Q 1303 -91 875 529 
Q 447 1150 447 2328 
Q 447 3434 972 4092 
Q 1497 4750 2381 4750 
Q 2619 4750 2861 4703 
Q 3103 4656 3366 4563 
z
" transform="scale(0.015625)"/>
       </defs>
       <use xlink:href="#DejaVuSans-36"/>
       <use xlink:href="#DejaVuSans-30" x="63.623047"/>
       <use xlink:href="#DejaVuSans-30" x="127.246094"/>
       <use xlink:href="#DejaVuSans-30" x="190.869141"/>
      </g>
     </g>
    </g>
    <g id="text_18">
     <!-- % CPU usilization -->
     <g transform="translate(96.470312 188.740781) rotate(-90) scale(0.1 -0.1)">
      <defs>
       <path id="DejaVuSans-25" d="M 4653 2053 
Q 4381 2053 4226 1822 
Q 4072 1591 4072 1178 
Q 4072 772 4226 539 
Q 4381 306 4653 306 
Q 4919 306 5073 539 
Q 5228 772 5228 1178 
Q 5228 1588 5073 1820 
Q 4919 2053 4653 2053 
z
M 4653 2450 
Q 5147 2450 5437 2106 
Q 5728 1763 5728 1178 
Q 5728 594 5436 251 
Q 5144 -91 4653 -91 
Q 4153 -91 3862 251 
Q 3572 594 3572 1178 
Q 3572 1766 3864 2108 
Q 4156 2450 4653 2450 
z
M 1428 4353 
Q 1159 4353 1004 4120 
Q 850 3888 850 3481 
Q 850 3069 1003 2837 
Q 1156 2606 1428 2606 
Q 1700 2606 1854 2837 
Q 2009 3069 2009 3481 
Q 2009 3884 1853 4118 
Q 1697 4353 1428 4353 
z
M 4250 4750 
L 4750 4750 
L 1831 -91 
L 1331 -91 
L 4250 4750 
z
M 1428 4750 
Q 1922 4750 2215 4408 
Q 2509 4066 2509 3481 
Q 2509 2891 2217 2550 
Q 1925 2209 1428 2209 
Q 931 2209 642 2551 
Q 353 2894 353 3481 
Q 353 4063 643 4406 
Q 934 4750 1428 4750 
z
" transform="scale(0.015625)"/>
       <path id="DejaVuSans-43" d="M 4122 4306 
L 4122 3641 
Q 3803 3938 3442 4084 
Q 3081 4231 2675 4231 
Q 1875 4231 1450 3742 
Q 1025 3253 1025 2328 
Q 1025 1406 1450 917 
Q 1875 428 2675 428 
Q 3081 428 3442 575 
Q 3803 722 4122 1019 
L 4122 359 
Q 3791 134 3420 21 
Q 3050 -91 2638 -91 
Q 1578 -91 968 557 
Q 359 1206 359 2328 
Q 359 3453 968 4101 
Q 1578 4750 2638 4750 
Q 3056 4750 3426 4639 
Q 3797 4528 4122 4306 
z
" transform="scale(0.015625)"/>
       <path id="DejaVuSans-50" d="M 1259 4147 
L 1259 2394 
L 2053 2394 
Q 2494 2394 2734 2622 
Q 2975 2850 2975 3272 
Q 2975 3691 2734 3919 
Q 2494 4147 2053 4147 
L 1259 4147 
z
M 628 4666 
L 2053 4666 
Q 2838 4666 3239 4311 
Q 3641 3956 3641 3272 
Q 3641 2581 3239 2228 
Q 2838 1875 2053 1875 
L 1259 1875 
L 1259 0 
L 628 0 
L 628 4666 
z
" transform="scale(0.015625)"/>
       <path id="DejaVuSans-55" d="M 556 4666 
L 1191 4666 
L 1191 1831 
Q 1191 1081 1462 751 
Q 1734 422 2344 422 
Q 2950 422 3222 751 
Q 3494 1081 3494 1831 
L 3494 4666 
L 4128 4666 
L 4128 1753 
Q 4128 841 3676 375 
Q 3225 -91 2344 -91 
Q 1459 -91 1007 375 
Q 556 841 556 1753 
L 556 4666 
z
" transform="scale(0.015625)"/>
       <path id="DejaVuSans-75" d="M 544 1381 
L 544 3500 
L 1119 3500 
L 1119 1403 
Q 1119 906 1312 657 
Q 1506 409 1894 409 
Q 2359 409 2629 706 
Q 2900 1003 2900 1516 
L 2900 3500 
L 3475 3500 
L 3475 0 
L 2900 0 
L 2900 538 
Q 2691 219 2414 64 
Q 2138 -91 1772 -91 
Q 1169 -91 856 284 
Q 544 659 544 1381 
z
M 1991 3584 
L 1991 3584 
z
" transform="scale(0.015625)"/>
       <path id="DejaVuSans-6c" d="M 603 4863 
L 1178 4863 
L 1178 0 
L 603 0 
L 603 4863 
z
" transform="scale(0.015625)"/>
       <path id="DejaVuSans-7a" d="M 353 3500 
L 3084 3500 
L 3084 2975 
L 922 459 
L 3084 459 
L 3084 0 
L 275 0 
L 275 525 
L 2438 3041 
L 353 3041 
L 353 3500 
z
" transform="scale(0.015625)"/>
       <path id="DejaVuSans-61" d="M 2194 1759 
Q 1497 1759 1228 1600 
Q 959 1441 959 1056 
Q 959 750 1161 570 
Q 1363 391 1709 391 
Q 2188 391 2477 730 
Q 2766 1069 2766 1631 
L 2766 1759 
L 2194 1759 
z
M 3341 1997 
L 3341 0 
L 2766 0 
L 2766 531 
Q 2569 213 2275 61 
Q 1981 -91 1556 -91 
Q 1019 -91 701 211 
Q 384 513 384 1019 
Q 384 1609 779 1909 
Q 1175 2209 1959 2209 
L 2766 2209 
L 2766 2266 
Q 2766 2663 2505 2880 
Q 2244 3097 1772 3097 
Q 1472 3097 1187 3025 
Q 903 2953 641 2809 
L 641 3341 
Q 956 3463 1253 3523 
Q 1550 3584 1831 3584 
Q 2591 3584 2966 3190 
Q 3341 2797 3341 1997 
z
" transform="scale(0.015625)"/>
      </defs>
      <use xlink:href="#DejaVuSans-25"/>
      <use xlink:href="#DejaVuSans-20" x="95.019531"/>
      <use xlink:href="#DejaVuSans-43" x="126.806641"/>
      <use xlink:href="#DejaVuSans-50" x="196.630859"/>
      <use xlink:href="#DejaVuSans-55" x="256.933594"/>
      <use xlink:href="#DejaVuSans-20" x="330.126953"/>
      <use xlink:href="#DejaVuSans-75" x="361.914062"/>
      <use xlink:href="#DejaVuSans-73" x="425.292969"/>
      <use xlink:href="#DejaVuSans-69" x="477.392578"/>
      <use xlink:href="#DejaVuSans-6c" x="505.175781"/>
      <use xlink:href="#DejaVuSans-69" x="532.958984"/>
      <use xlink:href="#DejaVuSans-7a" x="560.742188"/>
      <use xlink:href="#DejaVuSans-61" x="613.232422"/>
      <use xlink:href="#DejaVuSans-74" x="674.511719"/>
      <use xlink:href="#DejaVuSans-69" x="713.720703"/>
      <use xlink:href="#DejaVuSans-6f" x="741.503906"/>
      <use xlink:href="#DejaVuSans-6e" x="802.685547"/>
     </g>
    </g>
   </g>
   <g id="line2d_17">
    <path d="M 135 168.851613 
L 136.911614 164.624516 
L 138.823227 81.383226 
L 140.734841 118.776774 
L 142.646454 212.098065 
L 144.558068 250.792258 
L 146.469681 118.451613 
L 148.381295 83.334194 
L 150.292909 178.931613 
L 152.204522 194.214194 
L 154.116136 51.468387 
L 156.027749 156.690581 
L 157.939363 173.07871 
L 159.850976 220.877419 
L 161.76259 155.194839 
L 163.674203 106.420645 
L 165.585817 118.126452 
L 167.497431 232.908387 
L 169.409044 103.494194 
L 171.320658 76.180645 
L 173.232271 199.741935 
L 175.143885 85.935484 
L 177.055498 106.745806 
L 178.967112 200.392258 
L 180.878726 74.88 
L 182.790339 99.917419 
L 184.701953 200.717419 
L 186.613566 90.812903 
L 188.52518 225.429677 
L 190.436793 189.987097 
L 192.348407 48.216774 
L 194.260021 140.562581 
L 196.171634 227.380645 
L 198.083248 83.009032 
L 199.994861 109.412129 
L 201.906475 182.833548 
L 203.818088 136.335484 
L 205.729702 114.549677 
L 207.641316 138.936774 
L 209.552929 171.127742 
L 211.464543 217.300645 
L 213.376156 167.550968 
L 215.28777 59.597419 
L 217.199383 159.421935 
L 219.110997 156.170323 
L 221.02261 61.223226 
L 222.934224 167.063226 
L 224.845838 173.729032 
L 226.757451 51.793548 
L 228.669065 148.04129 
L 230.580678 187.060645 
L 232.492292 44.965161 
L 234.403905 145.114839 
L 236.315519 192.263226 
L 238.227133 117.150968 
L 240.138746 249.166452 
L 242.05036 105.770323 
L 243.961973 80.082581 
L 245.873587 177.988645 
L 247.7852 156.820645 
L 249.696814 63.174194 
L 251.608428 153.894194 
L 253.520041 193.23871 
L 255.431655 59.272258 
L 257.343268 135.36 
L 259.254882 183.15871 
L 261.166495 199.091613 
L 263.078109 145.114839 
L 264.989723 76.896 
L 266.901336 175.029677 
L 268.81295 137.96129 
L 270.724563 67.40129 
L 272.636177 174.704516 
L 274.54779 143.489032 
L 276.459404 66.100645 
L 278.371017 172.428387 
L 280.282631 159.747097 
L 282.194245 64.474839 
L 284.105858 167.941161 
L 286.017472 133.409032 
L 287.929085 181.858065 
L 289.840699 208.196129 
L 291.752312 51.793548 
L 293.663926 141.212903 
L 295.57554 224.779355 
L 297.487153 107.396129 
L 299.398767 86.910968 
L 301.31038 174.704516 
L 303.221994 155.845161 
L 305.133607 65.775484 
L 307.045221 164.104258 
L 308.956835 162.348387 
L 310.868448 246.565161 
L 312.780062 51.793548 
L 314.691675 107.72129 
L 316.603289 218.926452 
L 318.514902 56.996129 
L 320.426516 96.340645 
L 322.338129 212.098065 
L 324.249743 56.670968 
L 326.161357 120.337548 
L 328.07297 213.073548 
L 329.984584 50.818065 
L 333.807811 178.931613 
L 335.719424 128.206452 
L 337.631038 253.068387 
L 339.542652 67.726452 
L 341.454265 149.016774 
L 343.365879 156.170323 
L 345.277492 190.962581 
L 347.189106 48.867097 
L 349.100719 155.52 
L 351.012333 212.748387 
L 352.923947 63.499355 
L 354.83556 118.776774 
L 356.747174 192.588387 
L 358.658787 170.802581 
L 360.570401 179.256774 
L 362.482014 54.394839 
L 364.393628 148.691613 
L 366.305242 152.593548 
L 368.216855 85.155097 
L 370.128469 156.495484 
L 372.040082 165.274839 
L 373.951696 54.394839 
L 375.863309 161.372903 
L 377.774923 152.91871 
L 379.686536 56.996129 
L 381.59815 170.477419 
L 383.509764 119.101935 
L 385.421377 198.44129 
L 387.332991 207.220645 
L 389.244604 68.311742 
L 391.156218 140.887742 
L 393.067831 219.576774 
L 394.979445 85.935484 
L 396.891059 101.868387 
L 398.802672 185.434839 
L 400.714286 126.580645 
L 402.625899 81.058065 
L 404.537513 165.274839 
L 406.449126 162.023226 
L 408.36074 241.834065 
L 410.272354 49.842581 
L 412.183967 108.046452 
L 414.095581 211.772903 
L 416.007194 51.793548 
L 417.918808 117.80129 
L 419.830421 213.39871 
L 421.742035 48.867097 
L 423.653649 118.451613 
L 425.565262 213.39871 
L 427.476876 68.604387 
L 429.388489 119.101935 
L 431.300103 182.508387 
L 433.211716 125.930323 
L 435.12333 233.55871 
L 437.034943 252.743226 
L 438.946557 253.068387 
L 450.416238 253.068387 
L 450.416238 253.068387 
" clip-path="url(#p13c7749ab2)" style="fill: none; stroke: #ff7f0e; stroke-width: 1.5; stroke-linecap: square"/>
   </g>
   <g id="line2d_18">
    <path d="M 135 181.207742 
L 136.911614 212.098065 
L 138.823227 202.018065 
L 140.734841 209.171613 
L 142.646454 191.287742 
L 144.558068 206.895484 
L 146.469681 226.405161 
L 148.381295 226.08 
L 150.292909 243.313548 
L 152.204522 233.233548 
L 154.116136 236.485161 
L 156.027749 252.743226 
L 157.939363 253.068387 
L 159.850976 224.395665 
L 161.76259 190.962581 
L 163.674203 204.294194 
L 165.585817 188.686452 
L 167.497431 210.797419 
L 169.409044 222.503226 
L 171.320658 240.387097 
L 173.232271 245.589677 
L 175.143885 240.387097 
L 177.055498 238.110968 
L 178.967112 250.467097 
L 180.878726 226.730323 
L 182.790339 199.579355 
L 184.701953 206.895484 
L 186.613566 189.011613 
L 188.52518 213.39871 
L 190.436793 221.527742 
L 192.348407 251.117419 
L 194.260021 243.63871 
L 196.171634 230.957419 
L 198.083248 238.76129 
L 199.994861 210.147097 
L 201.906475 243.313548 
L 203.818088 252.743226 
L 205.729702 207.870968 
L 207.641316 190.312258 
L 209.552929 179.451871 
L 213.376156 224.454194 
L 215.28777 243.313548 
L 217.199383 230.632258 
L 219.110997 241.362581 
L 221.02261 205.92 
L 222.934224 190.637419 
L 224.845838 172.753548 
L 226.757451 203.31871 
L 228.669065 225.754839 
L 230.580678 244.939355 
L 232.492292 232.671019 
L 234.403905 242.012903 
L 236.315519 238.110968 
L 238.227133 177.956129 
L 240.138746 189.987097 
L 242.05036 179.581935 
L 243.961973 219.576774 
L 245.873587 241.037419 
L 247.7852 234.209032 
L 249.696814 235.509677 
L 251.608428 243.963871 
L 253.520041 180.882581 
L 255.431655 189.661935 
L 257.343268 182.118194 
L 259.254882 221.852903 
L 261.166495 235.509677 
L 263.078109 237.460645 
L 264.989723 232.258065 
L 266.901336 223.803871 
L 268.81295 184.459355 
L 270.724563 227.705806 
L 272.636177 239.086452 
L 274.54779 253.068387 
L 276.459404 248.190968 
L 278.371017 192.263226 
L 280.282631 198.116129 
L 282.194245 182.183226 
L 284.105858 211.675355 
L 286.017472 218.276129 
L 287.929085 244.289032 
L 289.840699 236.810323 
L 291.752312 228.356129 
L 293.663926 251.117419 
L 295.57554 205.594839 
L 297.487153 195.514839 
L 299.398767 191.287742 
L 301.31038 192.263226 
L 303.221994 225.429677 
L 305.133607 234.534194 
L 307.045221 242.663226 
L 308.956835 230.307097 
L 310.868448 245.085677 
L 312.780062 219.901935 
L 314.691675 192.263226 
L 316.603289 239.086452 
L 318.514902 184.134194 
L 320.426516 196.490323 
L 322.338129 222.178065 
L 324.249743 240.387097 
L 326.161357 241.037419 
L 328.07297 230.307097 
L 329.984584 232.583226 
L 331.896197 220.552258 
L 333.807811 249.816774 
L 335.719424 245.973368 
L 337.631038 181.532903 
L 339.542652 189.987097 
L 341.454265 172.753548 
L 343.365879 219.901935 
L 345.277492 234.209032 
L 347.189106 238.76129 
L 349.100719 229.656774 
L 351.012333 250.792258 
L 352.923947 189.011613 
L 354.83556 189.011613 
L 356.747174 170.477419 
L 358.658787 219.251613 
L 360.570401 233.854606 
L 362.482014 238.76129 
L 364.393628 227.705806 
L 366.305242 252.092903 
L 368.216855 201.692903 
L 370.128469 193.563871 
L 372.040082 196.490323 
L 373.951696 190.312258 
L 375.863309 220.227097 
L 377.774923 246.890323 
L 379.686536 231.282581 
L 381.59815 240.061935 
L 383.509764 223.153548 
L 385.421377 186.735484 
L 387.332991 181.858065 
L 389.244604 196.913032 
L 391.156218 216 
L 393.067831 246.890323 
L 394.979445 231.932903 
L 396.891059 237.135484 
L 398.802672 209.821935 
L 400.714286 190.312258 
L 402.625899 235.184516 
L 404.537513 241.362581 
L 406.449126 252.743226 
L 408.36074 219.901935 
L 410.272354 191.938065 
L 412.183967 193.889032 
L 414.095581 185.434839 
L 416.007194 228.534968 
L 417.918808 232.583226 
L 419.830421 245.264516 
L 421.742035 232.908387 
L 423.653649 240.712258 
L 425.565262 227.705806 
L 427.476876 187.385806 
L 429.388489 197.790968 
L 431.300103 186.735484 
L 433.211716 221.852903 
L 435.12333 227.705806 
L 437.034943 245.264516 
L 438.946557 234.150503 
L 440.858171 237.460645 
L 442.769784 252.092903 
L 444.681398 214.049032 
L 446.593011 192.263226 
L 448.504625 190.312258 
L 450.416238 189.987097 
L 452.327852 223.153548 
L 454.239466 235.509677 
L 456.151079 241.362581 
L 458.062693 230.632258 
L 459.974306 240.712258 
L 461.88592 210.472258 
L 463.797533 248.516129 
L 465.709147 244.201239 
L 467.620761 181.532903 
L 469.532374 188.036129 
L 471.443988 174.704516 
L 473.355601 221.852903 
L 475.267215 236.16 
L 477.178828 237.135484 
L 479.090442 232.583226 
L 481.002055 246.24 
L 482.913669 180.882581 
L 484.825283 212.423226 
L 486.736896 173.07871 
L 488.64851 209.496774 
L 492.471737 244.793032 
L 494.38335 228.030968 
L 496.294964 246.565161 
L 498.206578 200.392258 
L 500.118191 193.563871 
L 502.029805 194.864516 
L 503.941418 189.987097 
L 505.853032 219.901935 
L 507.764645 246.565161 
L 509.676259 231.282581 
L 511.587873 240.387097 
L 513.499486 224.454194 
L 515.4111 193.368774 
L 517.322713 202.993548 
L 519.234327 183.809032 
L 521.14594 218.60129 
L 523.057554 231.932903 
L 524.969168 239.086452 
L 526.880781 228.356129 
L 528.792395 250.467097 
L 530.704008 185.434839 
L 532.615622 202.993548 
L 534.527235 242.988387 
L 536.438849 247.865806 
L 538.350462 240.387097 
L 540.262076 195.189677 
L 542.17369 209.334194 
L 544.085303 207.220645 
L 545.996917 192.913548 
L 547.90853 224.454194 
L 549.820144 234.859355 
L 551.731757 241.687742 
L 553.643371 229.981935 
L 555.554985 247.215484 
L 557.466598 225.754839 
L 559.378212 188.036129 
L 561.289825 201.692903 
L 563.201439 181.858065 
L 565.113052 222.178065 
L 567.024666 229.656774 
L 568.93628 246.861058 
L 570.847893 233.233548 
L 572.759507 237.135484 
L 574.67112 242.663226 
L 576.582734 189.987097 
L 578.494347 202.993548 
L 580.405961 184.784516 
L 582.317575 208.196129 
L 584.229188 220.877419 
L 586.140802 246.890323 
L 588.052415 235.184516 
L 589.964029 231.282581 
L 591.875642 232.583226 
L 593.787256 222.178065 
L 595.698869 249.520877 
L 597.610483 235.509677 
L 599.522097 183.483871 
L 601.43371 195.189677 
L 603.345324 177.305806 
L 605.256937 225.429677 
L 607.168551 224.779355 
L 609.080164 249.816774 
L 610.991778 241.037419 
L 612.903392 227.380645 
L 614.815005 238.110968 
L 616.726619 203.969032 
L 618.638232 189.336774 
L 620.549846 171.452903 
L 622.461459 219.674323 
L 624.373073 229.331613 
L 626.284687 241.362581 
L 628.1963 228.68129 
L 630.107914 250.141935 
L 632.019527 182.508387 
L 633.931141 191.938065 
L 635.842754 172.428387 
L 637.754368 219.576774 
L 639.665982 232.258065 
L 641.577595 238.76129 
L 643.489209 230.632258 
L 645.400822 252.418065 
L 647.312436 202.505806 
L 651.135663 173.07871 
L 653.047276 208.846452 
L 654.95889 229.331613 
L 656.870504 243.313548 
L 658.782117 227.380645 
L 660.693731 238.110968 
L 662.605344 181.207742 
L 664.516958 214.699355 
L 666.428571 241.362581 
L 668.340185 250.792258 
L 670.251799 236.485161 
L 672.163412 184.134194 
L 674.075026 204.001548 
L 675.986639 179.907097 
L 677.898253 220.227097 
L 679.809866 226.730323 
L 681.72148 246.24 
L 683.633094 232.258065 
L 685.544707 239.086452 
L 687.456321 239.411613 
L 689.367934 193.23871 
L 691.279548 217.950968 
L 693.191161 189.011613 
L 695.102775 199.416774 
L 697.014388 226.405161 
L 698.926002 238.76129 
L 700.837616 247.452852 
L 702.749229 232.908387 
L 704.660843 240.712258 
L 706.572456 224.129032 
L 708.48407 188.36129 
L 710.395683 197.140645 
L 712.307297 186.735484 
L 714.218911 223.153548 
L 716.130524 231.932903 
L 718.042138 245.589677 
L 719.953751 231.282581 
L 721.865365 239.736774 
L 723.776978 208.52129 
L 725.688592 249.224981 
L 727.600206 250.467097 
L 729.511819 183.483871 
L 731.423433 188.686452 
L 733.335046 171.778065 
L 735.24666 221.202581 
L 737.158273 237.135484 
L 739.069887 236.485161 
L 740.981501 235.509677 
L 742.893114 227.055484 
L 744.804728 184.459355 
L 746.716341 184.459355 
L 748.627955 189.336774 
L 750.539568 216.975484 
L 752.451182 248.044645 
L 754.362795 232.583226 
L 756.274409 235.834839 
L 758.186023 233.233548 
L 760.097636 185.434839 
L 762.00925 225.104516 
L 763.920863 187.060645 
L 765.832477 198.44129 
L 767.74409 223.153548 
L 769.655704 245.914839 
L 771.567318 230.957419 
L 773.478931 242.012903 
L 775.390545 214.049032 
L 777.302158 193.368774 
L 779.213772 174.379355 
L 781.125385 200.392258 
L 783.036999 224.779355 
L 784.948613 244.614194 
L 786.860226 229.331613 
L 788.77184 246.565161 
L 790.683453 188.686452 
L 792.595067 201.692903 
L 794.50668 241.037419 
L 796.418294 246.565161 
L 798.329908 241.687742 
L 800.241521 198.44129 
L 802.153135 209.334194 
L 804.064748 215.674839 
L 805.976362 202.018065 
L 807.887975 215.349677 
L 809.799589 224.779355 
L 811.711202 246.565161 
L 813.622816 232.258065 
L 815.53443 238.110968 
L 817.446043 231.607742 
L 819.357657 185.76 
L 821.26927 200.392258 
L 823.180884 184.134194 
L 825.092497 219.576774 
L 827.004111 229.981935 
L 828.915725 246.890323 
L 830.827338 234.742297 
L 832.738952 239.411613 
L 834.650565 247.540645 
L 836.562179 192.913548 
L 838.473792 199.741935 
L 840.385406 181.532903 
L 842.29702 208.196129 
L 844.208633 222.178065 
L 846.120247 247.865806 
L 848.03186 234.859355 
L 849.943474 235.834839 
L 851.855087 213.39871 
L 853.766701 240.387097 
L 855.678314 252.743226 
L 857.589928 204.001548 
L 859.501542 189.011613 
L 861.413155 172.103226 
L 863.324769 210.147097 
L 865.236382 229.981935 
L 867.147996 242.338065 
L 869.059609 228.030968 
L 870.971223 246.24 
L 872.882837 180.232258 
L 874.79445 197.465806 
L 876.706064 178.606452 
L 878.617677 216.975484 
L 880.529291 232.258065 
L 882.440904 242.721755 
L 884.352518 227.705806 
L 886.264132 251.442581 
L 888.175745 213.39871 
L 890.087359 190.962581 
L 891.998972 181.532903 
L 893.910586 198.116129 
L 895.822199 224.779355 
L 897.733813 244.289032 
L 899.645427 241.362581 
L 901.55704 228.68129 
L 903.468654 250.792258 
L 905.380267 183.809032 
L 907.291881 192.913548 
L 909.203494 179.159226 
L 911.115108 220.227097 
L 913.026721 232.583226 
L 914.938335 239.736774 
L 916.849949 229.006452 
L 918.761562 230.307097 
L 920.673176 183.15871 
L 922.584789 224.129032 
L 924.496403 239.736774 
L 926.408016 252.418065 
L 928.31963 253.068387 
L 932.142857 253.068387 
L 932.142857 253.068387 
" clip-path="url(#p13c7749ab2)" style="fill: none; stroke: #1f77b4; stroke-width: 1.5; stroke-linecap: square"/>
   </g>
   <g id="patch_3">
    <path d="M 135 256.32 
L 135 34.56 
" style="fill: none; stroke: #000000; stroke-width: 0.8; stroke-linejoin: miter; stroke-linecap: square"/>
   </g>
   <g id="patch_4">
    <path d="M 972 256.32 
L 972 34.56 
" style="fill: none; stroke: #000000; stroke-width: 0.8; stroke-linejoin: miter; stroke-linecap: square"/>
   </g>
   <g id="patch_5">
    <path d="M 135 256.32 
L 972 256.32 
" style="fill: none; stroke: #000000; stroke-width: 0.8; stroke-linejoin: miter; stroke-linecap: square"/>
   </g>
   <g id="patch_6">
    <path d="M 135 34.56 
L 972 34.56 
" style="fill: none; stroke: #000000; stroke-width: 0.8; stroke-linejoin: miter; stroke-linecap: square"/>
   </g>
   <g id="legend_1">
    <g id="patch_7">
     <path d="M 806.409375 71.91625 
L 965 71.91625 
Q 967 71.91625 967 69.91625 
L 967 41.56 
Q 967 39.56 965 39.56 
L 806.409375 39.56 
Q 804.409375 39.56 804.409375 41.56 
L 804.409375 69.91625 
Q 804.409375 71.91625 806.409375 71.91625 
z
" style="fill: #ffffff; opacity: 0.8; stroke: #cccccc; stroke-linejoin: miter"/>
    </g>
    <g id="line2d_19">
     <path d="M 808.409375 47.658437 
L 818.409375 47.658437 
L 828.409375 47.658437 
" style="fill: none; stroke: #ff7f0e; stroke-width: 1.5; stroke-linecap: square"/>
    </g>
    <g id="text_19">
     <!-- 64 thread, free-threading -->
     <g transform="translate(836.409375 51.158437) scale(0.1 -0.1)">
      <defs>
       <path id="DejaVuSans-68" d="M 3513 2113 
L 3513 0 
L 2938 0 
L 2938 2094 
Q 2938 2591 2744 2837 
Q 2550 3084 2163 3084 
Q 1697 3084 1428 2787 
Q 1159 2491 1159 1978 
L 1159 0 
L 581 0 
L 581 4863 
L 1159 4863 
L 1159 2956 
Q 1366 3272 1645 3428 
Q 1925 3584 2291 3584 
Q 2894 3584 3203 3211 
Q 3513 2838 3513 2113 
z
" transform="scale(0.015625)"/>
       <path id="DejaVuSans-2c" d="M 750 794 
L 1409 794 
L 1409 256 
L 897 -744 
L 494 -744 
L 750 256 
L 750 794 
z
" transform="scale(0.015625)"/>
       <path id="DejaVuSans-66" d="M 2375 4863 
L 2375 4384 
L 1825 4384 
Q 1516 4384 1395 4259 
Q 1275 4134 1275 3809 
L 1275 3500 
L 2222 3500 
L 2222 3053 
L 1275 3053 
L 1275 0 
L 697 0 
L 697 3053 
L 147 3053 
L 147 3500 
L 697 3500 
L 697 3744 
Q 697 4328 969 4595 
Q 1241 4863 1831 4863 
L 2375 4863 
z
" transform="scale(0.015625)"/>
       <path id="DejaVuSans-2d" d="M 313 2009 
L 1997 2009 
L 1997 1497 
L 313 1497 
L 313 2009 
z
" transform="scale(0.015625)"/>
       <path id="DejaVuSans-67" d="M 2906 1791 
Q 2906 2416 2648 2759 
Q 2391 3103 1925 3103 
Q 1463 3103 1205 2759 
Q 947 2416 947 1791 
Q 947 1169 1205 825 
Q 1463 481 1925 481 
Q 2391 481 2648 825 
Q 2906 1169 2906 1791 
z
M 3481 434 
Q 3481 -459 3084 -895 
Q 2688 -1331 1869 -1331 
Q 1566 -1331 1297 -1286 
Q 1028 -1241 775 -1147 
L 775 -588 
Q 1028 -725 1275 -790 
Q 1522 -856 1778 -856 
Q 2344 -856 2625 -561 
Q 2906 -266 2906 331 
L 2906 616 
Q 2728 306 2450 153 
Q 2172 0 1784 0 
Q 1141 0 747 490 
Q 353 981 353 1791 
Q 353 2603 747 3093 
Q 1141 3584 1784 3584 
Q 2172 3584 2450 3431 
Q 2728 3278 2906 2969 
L 2906 3500 
L 3481 3500 
L 3481 434 
z
" transform="scale(0.015625)"/>
      </defs>
      <use xlink:href="#DejaVuSans-36"/>
      <use xlink:href="#DejaVuSans-34" x="63.623047"/>
      <use xlink:href="#DejaVuSans-20" x="127.246094"/>
      <use xlink:href="#DejaVuSans-74" x="159.033203"/>
      <use xlink:href="#DejaVuSans-68" x="198.242188"/>
      <use xlink:href="#DejaVuSans-72" x="261.621094"/>
      <use xlink:href="#DejaVuSans-65" x="300.484375"/>
      <use xlink:href="#DejaVuSans-61" x="362.007812"/>
      <use xlink:href="#DejaVuSans-64" x="423.287109"/>
      <use xlink:href="#DejaVuSans-2c" x="486.763672"/>
      <use xlink:href="#DejaVuSans-20" x="518.550781"/>
      <use xlink:href="#DejaVuSans-66" x="550.337891"/>
      <use xlink:href="#DejaVuSans-72" x="585.542969"/>
      <use xlink:href="#DejaVuSans-65" x="624.40625"/>
      <use xlink:href="#DejaVuSans-65" x="685.929688"/>
      <use xlink:href="#DejaVuSans-2d" x="747.453125"/>
      <use xlink:href="#DejaVuSans-74" x="783.537109"/>
      <use xlink:href="#DejaVuSans-68" x="822.746094"/>
      <use xlink:href="#DejaVuSans-72" x="886.125"/>
      <use xlink:href="#DejaVuSans-65" x="924.988281"/>
      <use xlink:href="#DejaVuSans-61" x="986.511719"/>
      <use xlink:href="#DejaVuSans-64" x="1047.791016"/>
      <use xlink:href="#DejaVuSans-69" x="1111.267578"/>
      <use xlink:href="#DejaVuSans-6e" x="1139.050781"/>
      <use xlink:href="#DejaVuSans-67" x="1202.429688"/>
     </g>
    </g>
    <g id="line2d_20">
     <path d="M 808.409375 62.336562 
L 818.409375 62.336562 
L 828.409375 62.336562 
" style="fill: none; stroke: #1f77b4; stroke-width: 1.5; stroke-linecap: square"/>
    </g>
    <g id="text_20">
     <!-- 64 thread, GIL-bound -->
     <g transform="translate(836.409375 65.836562) scale(0.1 -0.1)">
      <defs>
       <path id="DejaVuSans-47" d="M 3809 666 
L 3809 1919 
L 2778 1919 
L 2778 2438 
L 4434 2438 
L 4434 434 
Q 4069 175 3628 42 
Q 3188 -91 2688 -91 
Q 1594 -91 976 548 
Q 359 1188 359 2328 
Q 359 3472 976 4111 
Q 1594 4750 2688 4750 
Q 3144 4750 3555 4637 
Q 3966 4525 4313 4306 
L 4313 3634 
Q 3963 3931 3569 4081 
Q 3175 4231 2741 4231 
Q 1884 4231 1454 3753 
Q 1025 3275 1025 2328 
Q 1025 1384 1454 906 
Q 1884 428 2741 428 
Q 3075 428 3337 486 
Q 3600 544 3809 666 
z
" transform="scale(0.015625)"/>
       <path id="DejaVuSans-49" d="M 628 4666 
L 1259 4666 
L 1259 0 
L 628 0 
L 628 4666 
z
" transform="scale(0.015625)"/>
       <path id="DejaVuSans-4c" d="M 628 4666 
L 1259 4666 
L 1259 531 
L 3531 531 
L 3531 0 
L 628 0 
L 628 4666 
z
" transform="scale(0.015625)"/>
       <path id="DejaVuSans-62" d="M 3116 1747 
Q 3116 2381 2855 2742 
Q 2594 3103 2138 3103 
Q 1681 3103 1420 2742 
Q 1159 2381 1159 1747 
Q 1159 1113 1420 752 
Q 1681 391 2138 391 
Q 2594 391 2855 752 
Q 3116 1113 3116 1747 
z
M 1159 2969 
Q 1341 3281 1617 3432 
Q 1894 3584 2278 3584 
Q 2916 3584 3314 3078 
Q 3713 2572 3713 1747 
Q 3713 922 3314 415 
Q 2916 -91 2278 -91 
Q 1894 -91 1617 61 
Q 1341 213 1159 525 
L 1159 0 
L 581 0 
L 581 4863 
L 1159 4863 
L 1159 2969 
z
" transform="scale(0.015625)"/>
      </defs>
      <use xlink:href="#DejaVuSans-36"/>
      <use xlink:href="#DejaVuSans-34" x="63.623047"/>
      <use xlink:href="#DejaVuSans-20" x="127.246094"/>
      <use xlink:href="#DejaVuSans-74" x="159.033203"/>
      <use xlink:href="#DejaVuSans-68" x="198.242188"/>
      <use xlink:href="#DejaVuSans-72" x="261.621094"/>
      <use xlink:href="#DejaVuSans-65" x="300.484375"/>
      <use xlink:href="#DejaVuSans-61" x="362.007812"/>
      <use xlink:href="#DejaVuSans-64" x="423.287109"/>
      <use xlink:href="#DejaVuSans-2c" x="486.763672"/>
      <use xlink:href="#DejaVuSans-20" x="518.550781"/>
      <use xlink:href="#DejaVuSans-47" x="550.337891"/>
      <use xlink:href="#DejaVuSans-49" x="627.828125"/>
      <use xlink:href="#DejaVuSans-4c" x="657.320312"/>
      <use xlink:href="#DejaVuSans-2d" x="711.283203"/>
      <use xlink:href="#DejaVuSans-62" x="747.367188"/>
      <use xlink:href="#DejaVuSans-6f" x="810.84375"/>
      <use xlink:href="#DejaVuSans-75" x="872.025391"/>
      <use xlink:href="#DejaVuSans-6e" x="935.404297"/>
      <use xlink:href="#DejaVuSans-64" x="998.783203"/>
     </g>
    </g>
   </g>
  </g>
 </g>
 <defs>
  <clipPath id="p13c7749ab2">
   <rect x="135" y="34.56" width="837" height="221.76"/>
  </clipPath>
 </defs>
</svg>
