<?xml version="1.0" encoding="utf-8" standalone="no"?>
<!DOCTYPE svg PUBLIC "-//W3C//DTD SVG 1.1//EN"
  "http://www.w3.org/Graphics/SVG/1.1/DTD/svg11.dtd">
<svg xmlns:xlink="http://www.w3.org/1999/xlink" width="1080pt" height="288pt" viewBox="0 0 1080 288" xmlns="http://www.w3.org/2000/svg" version="1.1">
 <metadata>
  <rdf:RDF xmlns:dc="http://purl.org/dc/elements/1.1/" xmlns:cc="http://creativecommons.org/ns#" xmlns:rdf="http://www.w3.org/1999/02/22-rdf-syntax-ns#">
   <cc:Work>
    <dc:type rdf:resource="http://purl.org/dc/dcmitype/StillImage"/>
    <dc:date>2024-10-07T19:07:37.304236</dc:date>
    <dc:format>image/svg+xml</dc:format>
    <dc:creator>
     <cc:Agent>
      <dc:title>Matplotlib v3.8.4, https://matplotlib.org/</dc:title>
     </cc:Agent>
    </dc:creator>
   </cc:Work>
  </rdf:RDF>
 </metadata>
 <defs>
  <style type="text/css">*{stroke-linejoin: round; stroke-linecap: butt}</style>
 </defs>
 <g id="figure_1">
  <g id="patch_1">
   <path d="M 0 288 
L 1080 288 
L 1080 0 
L 0 0 
z
" style="fill: #ffffff"/>
  </g>
  <g id="axes_1">
   <g id="patch_2">
    <path d="M 135 256.32 
L 972 256.32 
L 972 34.56 
L 135 34.56 
z
" style="fill: #ffffff"/>
   </g>
   <g id="matplotlib.axis_1">
    <g id="xtick_1">
     <g id="line2d_1">
      <defs>
       <path id="me688360053" d="M 0 0 
L 0 3.5 
" style="stroke: #000000; stroke-width: 0.8"/>
      </defs>
      <g>
       <use xlink:href="#me688360053" x="135" y="256.32" style="stroke: #000000; stroke-width: 0.8"/>
      </g>
     </g>
     <g id="text_1">
      <!-- 0 -->
      <g transform="translate(131.81875 270.918437) scale(0.1 -0.1)">
       <defs>
        <path id="DejaVuSans-30" d="M 2034 4250 
Q 1547 4250 1301 3770 
Q 1056 3291 1056 2328 
Q 1056 1369 1301 889 
Q 1547 409 2034 409 
Q 2525 409 2770 889 
Q 3016 1369 3016 2328 
Q 3016 3291 2770 3770 
Q 2525 4250 2034 4250 
z
M 2034 4750 
Q 2819 4750 3233 4129 
Q 3647 3509 3647 2328 
Q 3647 1150 3233 529 
Q 2819 -91 2034 -91 
Q 1250 -91 836 529 
Q 422 1150 422 2328 
Q 422 3509 836 4129 
Q 1250 4750 2034 4750 
z
" transform="scale(0.015625)"/>
       </defs>
       <use xlink:href="#DejaVuSans-30"/>
      </g>
     </g>
    </g>
    <g id="xtick_2">
     <g id="line2d_2">
      <g>
       <use xlink:href="#me688360053" x="235.143575" y="256.32" style="stroke: #000000; stroke-width: 0.8"/>
      </g>
     </g>
     <g id="text_2">
      <!-- 5 -->
      <g transform="translate(231.962325 270.918437) scale(0.1 -0.1)">
       <defs>
        <path id="DejaVuSans-35" d="M 691 4666 
L 3169 4666 
L 3169 4134 
L 1269 4134 
L 1269 2991 
Q 1406 3038 1543 3061 
Q 1681 3084 1819 3084 
Q 2600 3084 3056 2656 
Q 3513 2228 3513 1497 
Q 3513 744 3044 326 
Q 2575 -91 1722 -91 
Q 1428 -91 1123 -41 
Q 819 9 494 109 
L 494 744 
Q 775 591 1075 516 
Q 1375 441 1709 441 
Q 2250 441 2565 725 
Q 2881 1009 2881 1497 
Q 2881 1984 2565 2268 
Q 2250 2553 1709 2553 
Q 1456 2553 1204 2497 
Q 953 2441 691 2322 
L 691 4666 
z
" transform="scale(0.015625)"/>
       </defs>
       <use xlink:href="#DejaVuSans-35"/>
      </g>
     </g>
    </g>
    <g id="xtick_3">
     <g id="line2d_3">
      <g>
       <use xlink:href="#me688360053" x="335.28715" y="256.32" style="stroke: #000000; stroke-width: 0.8"/>
      </g>
     </g>
     <g id="text_3">
      <!-- 10 -->
      <g transform="translate(328.92465 270.918437) scale(0.1 -0.1)">
       <defs>
        <path id="DejaVuSans-31" d="M 794 531 
L 1825 531 
L 1825 4091 
L 703 3866 
L 703 4441 
L 1819 4666 
L 2450 4666 
L 2450 531 
L 3481 531 
L 3481 0 
L 794 0 
L 794 531 
z
" transform="scale(0.015625)"/>
       </defs>
       <use xlink:href="#DejaVuSans-31"/>
       <use xlink:href="#DejaVuSans-30" x="63.623047"/>
      </g>
     </g>
    </g>
    <g id="xtick_4">
     <g id="line2d_4">
      <g>
       <use xlink:href="#me688360053" x="435.430725" y="256.32" style="stroke: #000000; stroke-width: 0.8"/>
      </g>
     </g>
     <g id="text_4">
      <!-- 15 -->
      <g transform="translate(429.068225 270.918437) scale(0.1 -0.1)">
       <use xlink:href="#DejaVuSans-31"/>
       <use xlink:href="#DejaVuSans-35" x="63.623047"/>
      </g>
     </g>
    </g>
    <g id="xtick_5">
     <g id="line2d_5">
      <g>
       <use xlink:href="#me688360053" x="535.5743" y="256.32" style="stroke: #000000; stroke-width: 0.8"/>
      </g>
     </g>
     <g id="text_5">
      <!-- 20 -->
      <g transform="translate(529.2118 270.918437) scale(0.1 -0.1)">
       <defs>
        <path id="DejaVuSans-32" d="M 1228 531 
L 3431 531 
L 3431 0 
L 469 0 
L 469 531 
Q 828 903 1448 1529 
Q 2069 2156 2228 2338 
Q 2531 2678 2651 2914 
Q 2772 3150 2772 3378 
Q 2772 3750 2511 3984 
Q 2250 4219 1831 4219 
Q 1534 4219 1204 4116 
Q 875 4013 500 3803 
L 500 4441 
Q 881 4594 1212 4672 
Q 1544 4750 1819 4750 
Q 2544 4750 2975 4387 
Q 3406 4025 3406 3419 
Q 3406 3131 3298 2873 
Q 3191 2616 2906 2266 
Q 2828 2175 2409 1742 
Q 1991 1309 1228 531 
z
" transform="scale(0.015625)"/>
       </defs>
       <use xlink:href="#DejaVuSans-32"/>
       <use xlink:href="#DejaVuSans-30" x="63.623047"/>
      </g>
     </g>
    </g>
    <g id="xtick_6">
     <g id="line2d_6">
      <g>
       <use xlink:href="#me688360053" x="635.717875" y="256.32" style="stroke: #000000; stroke-width: 0.8"/>
      </g>
     </g>
     <g id="text_6">
      <!-- 25 -->
      <g transform="translate(629.355375 270.918437) scale(0.1 -0.1)">
       <use xlink:href="#DejaVuSans-32"/>
       <use xlink:href="#DejaVuSans-35" x="63.623047"/>
      </g>
     </g>
    </g>
    <g id="xtick_7">
     <g id="line2d_7">
      <g>
       <use xlink:href="#me688360053" x="735.86145" y="256.32" style="stroke: #000000; stroke-width: 0.8"/>
      </g>
     </g>
     <g id="text_7">
      <!-- 30 -->
      <g transform="translate(729.49895 270.918437) scale(0.1 -0.1)">
       <defs>
        <path id="DejaVuSans-33" d="M 2597 2516 
Q 3050 2419 3304 2112 
Q 3559 1806 3559 1356 
Q 3559 666 3084 287 
Q 2609 -91 1734 -91 
Q 1441 -91 1130 -33 
Q 819 25 488 141 
L 488 750 
Q 750 597 1062 519 
Q 1375 441 1716 441 
Q 2309 441 2620 675 
Q 2931 909 2931 1356 
Q 2931 1769 2642 2001 
Q 2353 2234 1838 2234 
L 1294 2234 
L 1294 2753 
L 1863 2753 
Q 2328 2753 2575 2939 
Q 2822 3125 2822 3475 
Q 2822 3834 2567 4026 
Q 2313 4219 1838 4219 
Q 1578 4219 1281 4162 
Q 984 4106 628 3988 
L 628 4550 
Q 988 4650 1302 4700 
Q 1616 4750 1894 4750 
Q 2613 4750 3031 4423 
Q 3450 4097 3450 3541 
Q 3450 3153 3228 2886 
Q 3006 2619 2597 2516 
z
" transform="scale(0.015625)"/>
       </defs>
       <use xlink:href="#DejaVuSans-33"/>
       <use xlink:href="#DejaVuSans-30" x="63.623047"/>
      </g>
     </g>
    </g>
    <g id="xtick_8">
     <g id="line2d_8">
      <g>
       <use xlink:href="#me688360053" x="836.005025" y="256.32" style="stroke: #000000; stroke-width: 0.8"/>
      </g>
     </g>
     <g id="text_8">
      <!-- 35 -->
      <g transform="translate(829.642525 270.918437) scale(0.1 -0.1)">
       <use xlink:href="#DejaVuSans-33"/>
       <use xlink:href="#DejaVuSans-35" x="63.623047"/>
      </g>
     </g>
    </g>
    <g id="xtick_9">
     <g id="line2d_9">
      <g>
       <use xlink:href="#me688360053" x="936.1486" y="256.32" style="stroke: #000000; stroke-width: 0.8"/>
      </g>
     </g>
     <g id="text_9">
      <!-- 40 -->
      <g transform="translate(929.7861 270.918437) scale(0.1 -0.1)">
       <defs>
        <path id="DejaVuSans-34" d="M 2419 4116 
L 825 1625 
L 2419 1625 
L 2419 4116 
z
M 2253 4666 
L 3047 4666 
L 3047 1625 
L 3713 1625 
L 3713 1100 
L 3047 1100 
L 3047 0 
L 2419 0 
L 2419 1100 
L 313 1100 
L 313 1709 
L 2253 4666 
z
" transform="scale(0.015625)"/>
       </defs>
       <use xlink:href="#DejaVuSans-34"/>
       <use xlink:href="#DejaVuSans-30" x="63.623047"/>
      </g>
     </g>
    </g>
    <g id="text_10">
     <!-- time in process (seconds) -->
     <g transform="translate(489.328125 284.596563) scale(0.1 -0.1)">
      <defs>
       <path id="DejaVuSans-74" d="M 1172 4494 
L 1172 3500 
L 2356 3500 
L 2356 3053 
L 1172 3053 
L 1172 1153 
Q 1172 725 1289 603 
Q 1406 481 1766 481 
L 2356 481 
L 2356 0 
L 1766 0 
Q 1100 0 847 248 
Q 594 497 594 1153 
L 594 3053 
L 172 3053 
L 172 3500 
L 594 3500 
L 594 4494 
L 1172 4494 
z
" transform="scale(0.015625)"/>
       <path id="DejaVuSans-69" d="M 603 3500 
L 1178 3500 
L 1178 0 
L 603 0 
L 603 3500 
z
M 603 4863 
L 1178 4863 
L 1178 4134 
L 603 4134 
L 603 4863 
z
" transform="scale(0.015625)"/>
       <path id="DejaVuSans-6d" d="M 3328 2828 
Q 3544 3216 3844 3400 
Q 4144 3584 4550 3584 
Q 5097 3584 5394 3201 
Q 5691 2819 5691 2113 
L 5691 0 
L 5113 0 
L 5113 2094 
Q 5113 2597 4934 2840 
Q 4756 3084 4391 3084 
Q 3944 3084 3684 2787 
Q 3425 2491 3425 1978 
L 3425 0 
L 2847 0 
L 2847 2094 
Q 2847 2600 2669 2842 
Q 2491 3084 2119 3084 
Q 1678 3084 1418 2786 
Q 1159 2488 1159 1978 
L 1159 0 
L 581 0 
L 581 3500 
L 1159 3500 
L 1159 2956 
Q 1356 3278 1631 3431 
Q 1906 3584 2284 3584 
Q 2666 3584 2933 3390 
Q 3200 3197 3328 2828 
z
" transform="scale(0.015625)"/>
       <path id="DejaVuSans-65" d="M 3597 1894 
L 3597 1613 
L 953 1613 
Q 991 1019 1311 708 
Q 1631 397 2203 397 
Q 2534 397 2845 478 
Q 3156 559 3463 722 
L 3463 178 
Q 3153 47 2828 -22 
Q 2503 -91 2169 -91 
Q 1331 -91 842 396 
Q 353 884 353 1716 
Q 353 2575 817 3079 
Q 1281 3584 2069 3584 
Q 2775 3584 3186 3129 
Q 3597 2675 3597 1894 
z
M 3022 2063 
Q 3016 2534 2758 2815 
Q 2500 3097 2075 3097 
Q 1594 3097 1305 2825 
Q 1016 2553 972 2059 
L 3022 2063 
z
" transform="scale(0.015625)"/>
       <path id="DejaVuSans-20" transform="scale(0.015625)"/>
       <path id="DejaVuSans-6e" d="M 3513 2113 
L 3513 0 
L 2938 0 
L 2938 2094 
Q 2938 2591 2744 2837 
Q 2550 3084 2163 3084 
Q 1697 3084 1428 2787 
Q 1159 2491 1159 1978 
L 1159 0 
L 581 0 
L 581 3500 
L 1159 3500 
L 1159 2956 
Q 1366 3272 1645 3428 
Q 1925 3584 2291 3584 
Q 2894 3584 3203 3211 
Q 3513 2838 3513 2113 
z
" transform="scale(0.015625)"/>
       <path id="DejaVuSans-70" d="M 1159 525 
L 1159 -1331 
L 581 -1331 
L 581 3500 
L 1159 3500 
L 1159 2969 
Q 1341 3281 1617 3432 
Q 1894 3584 2278 3584 
Q 2916 3584 3314 3078 
Q 3713 2572 3713 1747 
Q 3713 922 3314 415 
Q 2916 -91 2278 -91 
Q 1894 -91 1617 61 
Q 1341 213 1159 525 
z
M 3116 1747 
Q 3116 2381 2855 2742 
Q 2594 3103 2138 3103 
Q 1681 3103 1420 2742 
Q 1159 2381 1159 1747 
Q 1159 1113 1420 752 
Q 1681 391 2138 391 
Q 2594 391 2855 752 
Q 3116 1113 3116 1747 
z
" transform="scale(0.015625)"/>
       <path id="DejaVuSans-72" d="M 2631 2963 
Q 2534 3019 2420 3045 
Q 2306 3072 2169 3072 
Q 1681 3072 1420 2755 
Q 1159 2438 1159 1844 
L 1159 0 
L 581 0 
L 581 3500 
L 1159 3500 
L 1159 2956 
Q 1341 3275 1631 3429 
Q 1922 3584 2338 3584 
Q 2397 3584 2469 3576 
Q 2541 3569 2628 3553 
L 2631 2963 
z
" transform="scale(0.015625)"/>
       <path id="DejaVuSans-6f" d="M 1959 3097 
Q 1497 3097 1228 2736 
Q 959 2375 959 1747 
Q 959 1119 1226 758 
Q 1494 397 1959 397 
Q 2419 397 2687 759 
Q 2956 1122 2956 1747 
Q 2956 2369 2687 2733 
Q 2419 3097 1959 3097 
z
M 1959 3584 
Q 2709 3584 3137 3096 
Q 3566 2609 3566 1747 
Q 3566 888 3137 398 
Q 2709 -91 1959 -91 
Q 1206 -91 779 398 
Q 353 888 353 1747 
Q 353 2609 779 3096 
Q 1206 3584 1959 3584 
z
" transform="scale(0.015625)"/>
       <path id="DejaVuSans-63" d="M 3122 3366 
L 3122 2828 
Q 2878 2963 2633 3030 
Q 2388 3097 2138 3097 
Q 1578 3097 1268 2742 
Q 959 2388 959 1747 
Q 959 1106 1268 751 
Q 1578 397 2138 397 
Q 2388 397 2633 464 
Q 2878 531 3122 666 
L 3122 134 
Q 2881 22 2623 -34 
Q 2366 -91 2075 -91 
Q 1284 -91 818 406 
Q 353 903 353 1747 
Q 353 2603 823 3093 
Q 1294 3584 2113 3584 
Q 2378 3584 2631 3529 
Q 2884 3475 3122 3366 
z
" transform="scale(0.015625)"/>
       <path id="DejaVuSans-73" d="M 2834 3397 
L 2834 2853 
Q 2591 2978 2328 3040 
Q 2066 3103 1784 3103 
Q 1356 3103 1142 2972 
Q 928 2841 928 2578 
Q 928 2378 1081 2264 
Q 1234 2150 1697 2047 
L 1894 2003 
Q 2506 1872 2764 1633 
Q 3022 1394 3022 966 
Q 3022 478 2636 193 
Q 2250 -91 1575 -91 
Q 1294 -91 989 -36 
Q 684 19 347 128 
L 347 722 
Q 666 556 975 473 
Q 1284 391 1588 391 
Q 1994 391 2212 530 
Q 2431 669 2431 922 
Q 2431 1156 2273 1281 
Q 2116 1406 1581 1522 
L 1381 1569 
Q 847 1681 609 1914 
Q 372 2147 372 2553 
Q 372 3047 722 3315 
Q 1072 3584 1716 3584 
Q 2034 3584 2315 3537 
Q 2597 3491 2834 3397 
z
" transform="scale(0.015625)"/>
       <path id="DejaVuSans-28" d="M 1984 4856 
Q 1566 4138 1362 3434 
Q 1159 2731 1159 2009 
Q 1159 1288 1364 580 
Q 1569 -128 1984 -844 
L 1484 -844 
Q 1016 -109 783 600 
Q 550 1309 550 2009 
Q 550 2706 781 3412 
Q 1013 4119 1484 4856 
L 1984 4856 
z
" transform="scale(0.015625)"/>
       <path id="DejaVuSans-64" d="M 2906 2969 
L 2906 4863 
L 3481 4863 
L 3481 0 
L 2906 0 
L 2906 525 
Q 2725 213 2448 61 
Q 2172 -91 1784 -91 
Q 1150 -91 751 415 
Q 353 922 353 1747 
Q 353 2572 751 3078 
Q 1150 3584 1784 3584 
Q 2172 3584 2448 3432 
Q 2725 3281 2906 2969 
z
M 947 1747 
Q 947 1113 1208 752 
Q 1469 391 1925 391 
Q 2381 391 2643 752 
Q 2906 1113 2906 1747 
Q 2906 2381 2643 2742 
Q 2381 3103 1925 3103 
Q 1469 3103 1208 2742 
Q 947 2381 947 1747 
z
" transform="scale(0.015625)"/>
       <path id="DejaVuSans-29" d="M 513 4856 
L 1013 4856 
Q 1481 4119 1714 3412 
Q 1947 2706 1947 2009 
Q 1947 1309 1714 600 
Q 1481 -109 1013 -844 
L 513 -844 
Q 928 -128 1133 580 
Q 1338 1288 1338 2009 
Q 1338 2731 1133 3434 
Q 928 4138 513 4856 
z
" transform="scale(0.015625)"/>
      </defs>
      <use xlink:href="#DejaVuSans-74"/>
      <use xlink:href="#DejaVuSans-69" x="39.208984"/>
      <use xlink:href="#DejaVuSans-6d" x="66.992188"/>
      <use xlink:href="#DejaVuSans-65" x="164.404297"/>
      <use xlink:href="#DejaVuSans-20" x="225.927734"/>
      <use xlink:href="#DejaVuSans-69" x="257.714844"/>
      <use xlink:href="#DejaVuSans-6e" x="285.498047"/>
      <use xlink:href="#DejaVuSans-20" x="348.876953"/>
      <use xlink:href="#DejaVuSans-70" x="380.664062"/>
      <use xlink:href="#DejaVuSans-72" x="444.140625"/>
      <use xlink:href="#DejaVuSans-6f" x="483.003906"/>
      <use xlink:href="#DejaVuSans-63" x="544.185547"/>
      <use xlink:href="#DejaVuSans-65" x="599.166016"/>
      <use xlink:href="#DejaVuSans-73" x="660.689453"/>
      <use xlink:href="#DejaVuSans-73" x="712.789062"/>
      <use xlink:href="#DejaVuSans-20" x="764.888672"/>
      <use xlink:href="#DejaVuSans-28" x="796.675781"/>
      <use xlink:href="#DejaVuSans-73" x="835.689453"/>
      <use xlink:href="#DejaVuSans-65" x="887.789062"/>
      <use xlink:href="#DejaVuSans-63" x="949.3125"/>
      <use xlink:href="#DejaVuSans-6f" x="1004.292969"/>
      <use xlink:href="#DejaVuSans-6e" x="1065.474609"/>
      <use xlink:href="#DejaVuSans-64" x="1128.853516"/>
      <use xlink:href="#DejaVuSans-73" x="1192.330078"/>
      <use xlink:href="#DejaVuSans-29" x="1244.429688"/>
     </g>
    </g>
   </g>
   <g id="matplotlib.axis_2">
    <g id="ytick_1">
     <g id="line2d_10">
      <defs>
       <path id="mb7695c3a26" d="M 0 0 
L -3.5 0 
" style="stroke: #000000; stroke-width: 0.8"/>
      </defs>
      <g>
       <use xlink:href="#mb7695c3a26" x="135" y="256.32" style="stroke: #000000; stroke-width: 0.8"/>
      </g>
     </g>
     <g id="text_11">
      <!-- 0 -->
      <g transform="translate(121.6375 260.119219) scale(0.1 -0.1)">
       <use xlink:href="#DejaVuSans-30"/>
      </g>
     </g>
    </g>
    <g id="ytick_2">
     <g id="line2d_11">
      <g>
       <use xlink:href="#mb7695c3a26" x="135" y="228.82" style="stroke: #000000; stroke-width: 0.8"/>
      </g>
     </g>
     <g id="text_12">
      <!-- 2500 -->
      <g transform="translate(102.55 232.619219) scale(0.1 -0.1)">
       <use xlink:href="#DejaVuSans-32"/>
       <use xlink:href="#DejaVuSans-35" x="63.623047"/>
       <use xlink:href="#DejaVuSans-30" x="127.246094"/>
       <use xlink:href="#DejaVuSans-30" x="190.869141"/>
      </g>
     </g>
    </g>
    <g id="ytick_3">
     <g id="line2d_12">
      <g>
       <use xlink:href="#mb7695c3a26" x="135" y="201.32" style="stroke: #000000; stroke-width: 0.8"/>
      </g>
     </g>
     <g id="text_13">
      <!-- 5000 -->
      <g transform="translate(102.55 205.119219) scale(0.1 -0.1)">
       <use xlink:href="#DejaVuSans-35"/>
       <use xlink:href="#DejaVuSans-30" x="63.623047"/>
       <use xlink:href="#DejaVuSans-30" x="127.246094"/>
       <use xlink:href="#DejaVuSans-30" x="190.869141"/>
      </g>
     </g>
    </g>
    <g id="ytick_4">
     <g id="line2d_13">
      <g>
       <use xlink:href="#mb7695c3a26" x="135" y="173.82" style="stroke: #000000; stroke-width: 0.8"/>
      </g>
     </g>
     <g id="text_14">
      <!-- 7500 -->
      <g transform="translate(102.55 177.619219) scale(0.1 -0.1)">
       <defs>
        <path id="DejaVuSans-37" d="M 525 4666 
L 3525 4666 
L 3525 4397 
L 1831 0 
L 1172 0 
L 2766 4134 
L 525 4134 
L 525 4666 
z
" transform="scale(0.015625)"/>
       </defs>
       <use xlink:href="#DejaVuSans-37"/>
       <use xlink:href="#DejaVuSans-35" x="63.623047"/>
       <use xlink:href="#DejaVuSans-30" x="127.246094"/>
       <use xlink:href="#DejaVuSans-30" x="190.869141"/>
      </g>
     </g>
    </g>
    <g id="ytick_5">
     <g id="line2d_14">
      <g>
       <use xlink:href="#mb7695c3a26" x="135" y="146.32" style="stroke: #000000; stroke-width: 0.8"/>
      </g>
     </g>
     <g id="text_15">
      <!-- 10000 -->
      <g transform="translate(96.1875 150.119219) scale(0.1 -0.1)">
       <use xlink:href="#DejaVuSans-31"/>
       <use xlink:href="#DejaVuSans-30" x="63.623047"/>
       <use xlink:href="#DejaVuSans-30" x="127.246094"/>
       <use xlink:href="#DejaVuSans-30" x="190.869141"/>
       <use xlink:href="#DejaVuSans-30" x="254.492188"/>
      </g>
     </g>
    </g>
    <g id="ytick_6">
     <g id="line2d_15">
      <g>
       <use xlink:href="#mb7695c3a26" x="135" y="118.82" style="stroke: #000000; stroke-width: 0.8"/>
      </g>
     </g>
     <g id="text_16">
      <!-- 12500 -->
      <g transform="translate(96.1875 122.619219) scale(0.1 -0.1)">
       <use xlink:href="#DejaVuSans-31"/>
       <use xlink:href="#DejaVuSans-32" x="63.623047"/>
       <use xlink:href="#DejaVuSans-35" x="127.246094"/>
       <use xlink:href="#DejaVuSans-30" x="190.869141"/>
       <use xlink:href="#DejaVuSans-30" x="254.492188"/>
      </g>
     </g>
    </g>
    <g id="ytick_7">
     <g id="line2d_16">
      <g>
       <use xlink:href="#mb7695c3a26" x="135" y="91.32" style="stroke: #000000; stroke-width: 0.8"/>
      </g>
     </g>
     <g id="text_17">
      <!-- 15000 -->
      <g transform="translate(96.1875 95.119219) scale(0.1 -0.1)">
       <use xlink:href="#DejaVuSans-31"/>
       <use xlink:href="#DejaVuSans-35" x="63.623047"/>
       <use xlink:href="#DejaVuSans-30" x="127.246094"/>
       <use xlink:href="#DejaVuSans-30" x="190.869141"/>
       <use xlink:href="#DejaVuSans-30" x="254.492188"/>
      </g>
     </g>
    </g>
    <g id="ytick_8">
     <g id="line2d_17">
      <g>
       <use xlink:href="#mb7695c3a26" x="135" y="63.82" style="stroke: #000000; stroke-width: 0.8"/>
      </g>
     </g>
     <g id="text_18">
      <!-- 17500 -->
      <g transform="translate(96.1875 67.619219) scale(0.1 -0.1)">
       <use xlink:href="#DejaVuSans-31"/>
       <use xlink:href="#DejaVuSans-37" x="63.623047"/>
       <use xlink:href="#DejaVuSans-35" x="127.246094"/>
       <use xlink:href="#DejaVuSans-30" x="190.869141"/>
       <use xlink:href="#DejaVuSans-30" x="254.492188"/>
      </g>
     </g>
    </g>
    <g id="ytick_9">
     <g id="line2d_18">
      <g>
       <use xlink:href="#mb7695c3a26" x="135" y="36.32" style="stroke: #000000; stroke-width: 0.8"/>
      </g>
     </g>
     <g id="text_19">
      <!-- 20000 -->
      <g transform="translate(96.1875 40.119219) scale(0.1 -0.1)">
       <use xlink:href="#DejaVuSans-32"/>
       <use xlink:href="#DejaVuSans-30" x="63.623047"/>
       <use xlink:href="#DejaVuSans-30" x="127.246094"/>
       <use xlink:href="#DejaVuSans-30" x="190.869141"/>
       <use xlink:href="#DejaVuSans-30" x="254.492188"/>
      </g>
     </g>
    </g>
    <g id="text_20">
     <!-- % CPU usilization -->
     <g transform="translate(90.107812 188.740781) rotate(-90) scale(0.1 -0.1)">
      <defs>
       <path id="DejaVuSans-25" d="M 4653 2053 
Q 4381 2053 4226 1822 
Q 4072 1591 4072 1178 
Q 4072 772 4226 539 
Q 4381 306 4653 306 
Q 4919 306 5073 539 
Q 5228 772 5228 1178 
Q 5228 1588 5073 1820 
Q 4919 2053 4653 2053 
z
M 4653 2450 
Q 5147 2450 5437 2106 
Q 5728 1763 5728 1178 
Q 5728 594 5436 251 
Q 5144 -91 4653 -91 
Q 4153 -91 3862 251 
Q 3572 594 3572 1178 
Q 3572 1766 3864 2108 
Q 4156 2450 4653 2450 
z
M 1428 4353 
Q 1159 4353 1004 4120 
Q 850 3888 850 3481 
Q 850 3069 1003 2837 
Q 1156 2606 1428 2606 
Q 1700 2606 1854 2837 
Q 2009 3069 2009 3481 
Q 2009 3884 1853 4118 
Q 1697 4353 1428 4353 
z
M 4250 4750 
L 4750 4750 
L 1831 -91 
L 1331 -91 
L 4250 4750 
z
M 1428 4750 
Q 1922 4750 2215 4408 
Q 2509 4066 2509 3481 
Q 2509 2891 2217 2550 
Q 1925 2209 1428 2209 
Q 931 2209 642 2551 
Q 353 2894 353 3481 
Q 353 4063 643 4406 
Q 934 4750 1428 4750 
z
" transform="scale(0.015625)"/>
       <path id="DejaVuSans-43" d="M 4122 4306 
L 4122 3641 
Q 3803 3938 3442 4084 
Q 3081 4231 2675 4231 
Q 1875 4231 1450 3742 
Q 1025 3253 1025 2328 
Q 1025 1406 1450 917 
Q 1875 428 2675 428 
Q 3081 428 3442 575 
Q 3803 722 4122 1019 
L 4122 359 
Q 3791 134 3420 21 
Q 3050 -91 2638 -91 
Q 1578 -91 968 557 
Q 359 1206 359 2328 
Q 359 3453 968 4101 
Q 1578 4750 2638 4750 
Q 3056 4750 3426 4639 
Q 3797 4528 4122 4306 
z
" transform="scale(0.015625)"/>
       <path id="DejaVuSans-50" d="M 1259 4147 
L 1259 2394 
L 2053 2394 
Q 2494 2394 2734 2622 
Q 2975 2850 2975 3272 
Q 2975 3691 2734 3919 
Q 2494 4147 2053 4147 
L 1259 4147 
z
M 628 4666 
L 2053 4666 
Q 2838 4666 3239 4311 
Q 3641 3956 3641 3272 
Q 3641 2581 3239 2228 
Q 2838 1875 2053 1875 
L 1259 1875 
L 1259 0 
L 628 0 
L 628 4666 
z
" transform="scale(0.015625)"/>
       <path id="DejaVuSans-55" d="M 556 4666 
L 1191 4666 
L 1191 1831 
Q 1191 1081 1462 751 
Q 1734 422 2344 422 
Q 2950 422 3222 751 
Q 3494 1081 3494 1831 
L 3494 4666 
L 4128 4666 
L 4128 1753 
Q 4128 841 3676 375 
Q 3225 -91 2344 -91 
Q 1459 -91 1007 375 
Q 556 841 556 1753 
L 556 4666 
z
" transform="scale(0.015625)"/>
       <path id="DejaVuSans-75" d="M 544 1381 
L 544 3500 
L 1119 3500 
L 1119 1403 
Q 1119 906 1312 657 
Q 1506 409 1894 409 
Q 2359 409 2629 706 
Q 2900 1003 2900 1516 
L 2900 3500 
L 3475 3500 
L 3475 0 
L 2900 0 
L 2900 538 
Q 2691 219 2414 64 
Q 2138 -91 1772 -91 
Q 1169 -91 856 284 
Q 544 659 544 1381 
z
M 1991 3584 
L 1991 3584 
z
" transform="scale(0.015625)"/>
       <path id="DejaVuSans-6c" d="M 603 4863 
L 1178 4863 
L 1178 0 
L 603 0 
L 603 4863 
z
" transform="scale(0.015625)"/>
       <path id="DejaVuSans-7a" d="M 353 3500 
L 3084 3500 
L 3084 2975 
L 922 459 
L 3084 459 
L 3084 0 
L 275 0 
L 275 525 
L 2438 3041 
L 353 3041 
L 353 3500 
z
" transform="scale(0.015625)"/>
       <path id="DejaVuSans-61" d="M 2194 1759 
Q 1497 1759 1228 1600 
Q 959 1441 959 1056 
Q 959 750 1161 570 
Q 1363 391 1709 391 
Q 2188 391 2477 730 
Q 2766 1069 2766 1631 
L 2766 1759 
L 2194 1759 
z
M 3341 1997 
L 3341 0 
L 2766 0 
L 2766 531 
Q 2569 213 2275 61 
Q 1981 -91 1556 -91 
Q 1019 -91 701 211 
Q 384 513 384 1019 
Q 384 1609 779 1909 
Q 1175 2209 1959 2209 
L 2766 2209 
L 2766 2266 
Q 2766 2663 2505 2880 
Q 2244 3097 1772 3097 
Q 1472 3097 1187 3025 
Q 903 2953 641 2809 
L 641 3341 
Q 956 3463 1253 3523 
Q 1550 3584 1831 3584 
Q 2591 3584 2966 3190 
Q 3341 2797 3341 1997 
z
" transform="scale(0.015625)"/>
      </defs>
      <use xlink:href="#DejaVuSans-25"/>
      <use xlink:href="#DejaVuSans-20" x="95.019531"/>
      <use xlink:href="#DejaVuSans-43" x="126.806641"/>
      <use xlink:href="#DejaVuSans-50" x="196.630859"/>
      <use xlink:href="#DejaVuSans-55" x="256.933594"/>
      <use xlink:href="#DejaVuSans-20" x="330.126953"/>
      <use xlink:href="#DejaVuSans-75" x="361.914062"/>
      <use xlink:href="#DejaVuSans-73" x="425.292969"/>
      <use xlink:href="#DejaVuSans-69" x="477.392578"/>
      <use xlink:href="#DejaVuSans-6c" x="505.175781"/>
      <use xlink:href="#DejaVuSans-69" x="532.958984"/>
      <use xlink:href="#DejaVuSans-7a" x="560.742188"/>
      <use xlink:href="#DejaVuSans-61" x="613.232422"/>
      <use xlink:href="#DejaVuSans-74" x="674.511719"/>
      <use xlink:href="#DejaVuSans-69" x="713.720703"/>
      <use xlink:href="#DejaVuSans-6f" x="741.503906"/>
      <use xlink:href="#DejaVuSans-6e" x="802.685547"/>
     </g>
    </g>
   </g>
   <g id="line2d_19">
    <path d="M 135 256.32 
L 139.005743 256.21 
L 141.008615 256.32 
L 143.011486 256.1 
L 145.014358 256.32 
L 147.017229 256.21 
L 149.020101 256.32 
L 151.022972 256.1 
L 153.025844 192.74 
L 155.028715 45.12 
L 157.031587 47.54 
L 159.034458 62.621 
L 161.03733 46.11 
L 163.040201 45.12 
L 167.045944 45.12 
L 169.048816 62.423 
L 171.051687 45.12 
L 175.05743 45.12 
L 177.060302 56.615 
L 179.063173 45.12 
L 187.074659 45.12 
L 189.077531 62.324 
L 191.080402 45.12 
L 197.089017 45.12 
L 199.091888 58.518 
L 201.09476 45.12 
L 209.106246 45.12 
L 211.109117 58.518 
L 213.111989 45.12 
L 217.117732 45.12 
L 219.120603 56.725 
L 221.123475 45.12 
L 229.134961 45.12 
L 231.137832 56.725 
L 233.140704 45.12 
L 235.143575 45.12 
L 237.146447 54.723 
L 239.149318 45.12 
L 249.163676 45.12 
L 251.166547 58.518 
L 253.169419 45.12 
L 257.175162 45.12 
L 259.178033 58.518 
L 261.180905 45.12 
L 269.192391 45.12 
L 271.195262 58.518 
L 273.198134 45.12 
L 279.206748 45.12 
L 281.20962 62.423 
L 283.212491 45.12 
L 289.221106 45.12 
L 291.223977 62.423 
L 293.226849 45.12 
L 299.235463 45.12 
L 301.238335 62.324 
L 303.241206 45.12 
L 309.249821 45.12 
L 311.252692 62.423 
L 313.255564 45.12 
L 321.26705 45.12 
L 323.269921 62.423 
L 325.272793 45.12 
L 331.281407 45.12 
L 333.284279 62.423 
L 335.28715 45.12 
L 341.295765 45.12 
L 343.298636 58.518 
L 345.301508 45.12 
L 351.310122 45.12 
L 353.312994 62.522 
L 355.315865 45.12 
L 359.321608 45.12 
L 361.32448 54.822 
L 363.327351 45.12 
L 371.338837 45.12 
L 373.341709 62.423 
L 375.34458 45.12 
L 383.356066 45.12 
L 385.358938 62.522 
L 387.361809 45.12 
L 389.364681 45.12 
L 391.367552 48.97 
L 393.370424 61.73 
L 395.373295 70.86 
L 397.376167 84.72 
L 399.379038 94.07 
L 401.38191 106.39 
L 403.384781 119.81 
L 405.387653 152.315 
L 407.390524 150.61 
L 409.393396 149.84 
L 411.396267 152.37 
L 413.399139 174.59 
L 415.40201 193.07 
L 417.404882 217.38 
L 419.407753 244.44 
L 421.410625 255.33 
L 423.413496 255.11 
L 429.422111 255.33 
L 431.424982 255.11 
L 435.430725 255.33 
L 437.433597 255.11 
L 441.43934 255.22 
L 443.442211 255.22 
L 447.447954 256.32 
L 463.470926 256.32 
L 463.470926 256.32 
" clip-path="url(#p837fc7b759)" style="fill: none; stroke: #ff0000; stroke-width: 1.5; stroke-linecap: square"/>
   </g>
   <g id="line2d_20">
    <path d="M 135 256.32 
L 137.002872 256.21 
L 139.005743 256.32 
L 143.011486 256.21 
L 151.022972 256.21 
L 153.025844 206.38 
L 155.028715 115.52 
L 157.031587 114.09 
L 159.034458 115.63 
L 161.03733 113.98 
L 163.040201 115.41 
L 165.043073 127.224 
L 167.045944 114.09 
L 169.048816 115.52 
L 171.051687 114.09 
L 173.054559 115.52 
L 175.05743 114.09 
L 177.060302 115.52 
L 179.063173 114.09 
L 181.066045 115.63 
L 183.068916 114.09 
L 185.071788 115.52 
L 187.074659 114.31 
L 189.077531 115.3 
L 191.080402 114.2 
L 193.083274 115.52 
L 195.086145 114.09 
L 197.089017 115.52 
L 199.091888 114.09 
L 201.09476 115.52 
L 203.097631 127.015 
L 205.100503 114.2 
L 207.103374 115.52 
L 209.106246 114.09 
L 211.109117 115.41 
L 213.111989 114.2 
L 215.11486 115.52 
L 217.117732 114.09 
L 221.123475 114.2 
L 223.126346 115.41 
L 225.129218 114.2 
L 229.134961 114.09 
L 231.137832 115.63 
L 233.140704 126.916 
L 235.143575 114.2 
L 237.146447 115.52 
L 239.149318 114.09 
L 243.155061 114.2 
L 245.157933 115.52 
L 247.160804 114.09 
L 249.163676 114.2 
L 251.166547 113.98 
L 253.169419 115.52 
L 255.17229 114.09 
L 257.175162 114.2 
L 259.178033 127.125 
L 261.180905 115.41 
L 263.183776 114.2 
L 265.186648 113.98 
L 267.189519 114.2 
L 269.192391 115.52 
L 271.195262 113.98 
L 273.198134 114.2 
L 275.201005 114.09 
L 277.203877 115.63 
L 279.206748 114.09 
L 283.212491 114.2 
L 285.215363 126.916 
L 287.218234 114.2 
L 289.221106 115.41 
L 291.223977 114.2 
L 293.226849 114.09 
L 295.22972 114.2 
L 297.232592 114.09 
L 299.235463 115.41 
L 301.238335 114.2 
L 303.241206 114.09 
L 305.244078 114.2 
L 307.246949 114.09 
L 309.249821 115.41 
L 311.252692 127.125 
L 313.255564 114.09 
L 315.258435 114.2 
L 317.261307 115.52 
L 319.264178 113.98 
L 321.26705 114.2 
L 323.269921 114.2 
L 325.272793 113.98 
L 327.275664 114.2 
L 329.278536 114.09 
L 331.281407 115.41 
L 333.284279 114.2 
L 335.28715 127.125 
L 337.290022 113.98 
L 339.292893 114.2 
L 341.295765 115.41 
L 343.298636 114.2 
L 345.301508 114.09 
L 347.304379 114.2 
L 349.307251 113.98 
L 351.310122 115.52 
L 353.312994 114.2 
L 357.318737 114.09 
L 359.321608 127.125 
L 361.32448 114.09 
L 363.327351 115.52 
L 365.330223 114.09 
L 375.34458 114.2 
L 377.347452 114.42 
L 379.350323 115.19 
L 381.353195 114.09 
L 383.356066 127.015 
L 385.358938 114.09 
L 389.364681 114.09 
L 391.367552 115.63 
L 393.370424 114.09 
L 395.373295 114.2 
L 399.379038 114.09 
L 401.38191 114.64 
L 403.384781 119.59 
L 405.387653 119.7 
L 407.390524 132.02 
L 409.393396 121.68 
L 411.396267 126.74 
L 413.399139 128.06 
L 415.40201 132.46 
L 417.404882 136.09 
L 419.407753 139.39 
L 421.410625 142.91 
L 425.416368 148.19 
L 427.419239 147.42 
L 429.422111 149.51 
L 431.424982 148.52 
L 433.427854 149.73 
L 435.430725 148.52 
L 437.433597 150.06 
L 439.436468 150.06 
L 441.43934 152.04 
L 443.442211 161.522 
L 445.445083 152.92 
L 447.447954 151.82 
L 449.450826 152.92 
L 451.453697 151.93 
L 453.456569 153.58 
L 455.45944 153.03 
L 457.462312 154.02 
L 459.465183 153.03 
L 461.468055 154.24 
L 463.470926 154.13 
L 465.473798 155.12 
L 467.476669 154.02 
L 469.479541 155.23 
L 471.482412 154.02 
L 473.485284 155.89 
L 477.491027 156.33 
L 479.493898 157.32 
L 481.49677 156.33 
L 483.499641 166.417 
L 485.502513 156.77 
L 487.505384 158.42 
L 489.508256 157.43 
L 491.511127 158.86 
L 493.513999 159.08 
L 495.51687 161.83 
L 497.519742 161.17 
L 499.522613 163.04 
L 501.525485 162.93 
L 503.528356 164.03 
L 505.531228 162.93 
L 507.534099 163.92 
L 509.536971 162.93 
L 511.539842 164.03 
L 513.542714 162.93 
L 515.545585 164.25 
L 517.548457 164.36 
L 519.551328 166.23 
L 521.5542 174.315 
L 523.557071 167.22 
L 525.559943 166.34 
L 527.562814 167.22 
L 529.565686 166.34 
L 531.568557 167.33 
L 533.571429 166.23 
L 535.5743 167.22 
L 537.577172 166.34 
L 539.580043 167.22 
L 541.582915 166.34 
L 543.585786 167.22 
L 545.588658 166.56 
L 547.591529 169.2 
L 549.594401 168.43 
L 551.597272 169.42 
L 553.600144 168.65 
L 555.603015 169.42 
L 557.605887 168.87 
L 559.608758 171.18 
L 561.61163 179.518 
L 563.614501 172.83 
L 565.617373 172.72 
L 567.620244 173.82 
L 569.623116 174.37 
L 571.625987 177.12 
L 573.628859 177.67 
L 575.63173 179.32 
L 577.634602 178.99 
L 579.637473 181.52 
L 581.640345 181.41 
L 583.643216 185.7 
L 585.646088 185.04 
L 587.648959 186.03 
L 589.651831 186.58 
L 591.654702 188.12 
L 593.657574 187.46 
L 595.660445 188.12 
L 597.663317 187.46 
L 599.666188 188.12 
L 601.66906 187.68 
L 603.671931 195.424 
L 605.674803 188.78 
L 607.677674 190.21 
L 609.680546 190.76 
L 611.683417 192.52 
L 613.686289 195.16 
L 615.68916 199.45 
L 617.692032 208.14 
L 619.694903 213.09 
L 623.700646 224.53 
L 625.703518 229.15 
L 627.706389 235.31 
L 629.709261 246.42 
L 631.712132 254.34 
L 633.715004 255.22 
L 635.717875 255.11 
L 639.723618 255.22 
L 643.729361 255.22 
L 645.732233 255.4202 
L 647.735104 255.11 
L 649.737976 255.55 
L 651.740847 256.32 
L 667.763819 256.32 
L 667.763819 256.32 
" clip-path="url(#p837fc7b759)" style="fill: none; stroke-dasharray: 5.55,2.4; stroke-dashoffset: 0; stroke: #ffa500; stroke-width: 1.5"/>
   </g>
   <g id="line2d_21">
    <path d="M 135 256.32 
L 137.002872 256.21 
L 141.008615 256.32 
L 143.011486 256.21 
L 145.014358 256.32 
L 147.017229 256.1 
L 149.020101 256.32 
L 151.022972 256.21 
L 153.025844 186.58 
L 155.028715 150.72 
L 157.031587 159.421 
L 159.034458 149.62 
L 163.040201 149.73 
L 165.043073 150.61 
L 167.045944 149.73 
L 169.048816 150.83 
L 171.051687 150.61 
L 173.054559 149.62 
L 175.05743 150.83 
L 177.060302 149.62 
L 179.063173 150.72 
L 181.066045 149.62 
L 183.068916 150.83 
L 185.071788 149.62 
L 187.074659 150.72 
L 189.077531 149.73 
L 191.080402 150.61 
L 193.083274 159.421 
L 195.086145 150.61 
L 197.089017 150.83 
L 199.091888 149.62 
L 201.09476 150.72 
L 203.097631 149.73 
L 205.100503 150.72 
L 207.103374 149.62 
L 209.106246 150.72 
L 211.109117 149.73 
L 213.111989 150.72 
L 215.11486 149.62 
L 217.117732 150.72 
L 219.120603 149.73 
L 221.123475 150.61 
L 223.126346 150.83 
L 225.129218 149.62 
L 227.132089 150.72 
L 229.134961 149.62 
L 231.137832 150.72 
L 233.140704 149.73 
L 235.143575 150.61 
L 237.146447 159.52 
L 239.149318 150.61 
L 241.15219 150.72 
L 243.155061 149.73 
L 245.157933 150.72 
L 247.160804 149.62 
L 249.163676 150.72 
L 251.166547 149.73 
L 253.169419 150.72 
L 255.17229 149.62 
L 257.175162 150.72 
L 259.178033 150.72 
L 261.180905 149.62 
L 263.183776 150.72 
L 265.186648 149.73 
L 267.189519 150.72 
L 269.192391 149.62 
L 271.195262 149.62 
L 273.198134 150.83 
L 275.201005 149.62 
L 277.203877 150.72 
L 279.206748 149.62 
L 281.20962 160.422 
L 283.212491 149.62 
L 285.215363 150.72 
L 287.218234 149.62 
L 289.221106 150.83 
L 291.223977 149.62 
L 293.226849 150.72 
L 295.22972 149.62 
L 297.232592 150.72 
L 299.235463 149.95 
L 301.238335 151.82 
L 303.241206 150.83 
L 305.244078 151.82 
L 307.246949 150.83 
L 309.249821 152.04 
L 311.252692 151.93 
L 313.255564 152.81 
L 315.258435 151.82 
L 317.261307 153.03 
L 319.264178 161.324 
L 321.26705 152.92 
L 323.269921 151.93 
L 325.272793 151.82 
L 327.275664 153.69 
L 329.278536 153.03 
L 331.281407 154.02 
L 333.284279 153.58 
L 335.28715 155.01 
L 337.290022 154.24 
L 339.292893 155.12 
L 341.295765 154.24 
L 343.298636 156.33 
L 345.301508 155.23 
L 347.304379 156.11 
L 349.307251 155.34 
L 351.310122 156.22 
L 353.312994 155.23 
L 355.315865 155.23 
L 357.318737 165.218 
L 359.321608 155.34 
L 361.32448 157.98 
L 363.327351 157.43 
L 365.330223 158.42 
L 367.333094 157.54 
L 369.335966 158.31 
L 371.338837 157.54 
L 373.341709 158.42 
L 375.34458 157.43 
L 377.347452 158.42 
L 379.350323 157.98 
L 381.353195 159.63 
L 383.356066 158.75 
L 385.358938 161.61 
L 387.361809 160.84 
L 389.364681 160.73 
L 391.367552 161.72 
L 393.370424 169.519 
L 395.373295 161.61 
L 397.376167 160.84 
L 399.379038 161.72 
L 401.38191 160.84 
L 403.384781 161.61 
L 405.387653 160.84 
L 407.390524 161.72 
L 409.393396 160.84 
L 411.396267 161.61 
L 413.399139 160.84 
L 415.40201 161.72 
L 417.404882 160.73 
L 419.407753 161.72 
L 421.410625 160.73 
L 423.413496 162.16 
L 425.416368 161.94 
L 427.419239 162.82 
L 429.422111 162.82 
L 431.424982 165.02 
L 433.427854 172.522 
L 435.430725 164.14 
L 437.433597 164.91 
L 439.436468 165.9 
L 441.43934 167.22 
L 443.442211 166.23 
L 445.445083 167.33 
L 447.447954 167.33 
L 449.450826 169.09 
L 451.453697 168.87 
L 453.456569 171.51 
L 455.45944 170.85 
L 457.462312 171.84 
L 459.465183 171.95 
L 461.468055 173.49 
L 463.470926 175.25 
L 465.473798 177.23 
L 467.476669 176.24 
L 469.479541 177.12 
L 471.482412 184.424 
L 473.485284 179.32 
L 475.488155 181.3 
L 477.491027 180.86 
L 479.493898 181.52 
L 481.49677 181.3 
L 483.499641 184.49 
L 485.502513 186.25 
L 487.505384 189.44 
L 489.508256 190.76 
L 491.511127 191.53 
L 493.513999 191.86 
L 495.51687 193.84 
L 497.519742 194.83 
L 499.522613 197.8 
L 501.525485 199.12 
L 503.528356 204.51 
L 505.531228 208.91 
L 507.534099 214.41 
L 509.536971 223.419 
L 511.539842 226.07 
L 513.542714 229.81 
L 515.545585 234.43 
L 517.548457 241.8 
L 519.551328 247.19 
L 521.5542 251.81 
L 523.557071 255.22 
L 525.559943 255.33 
L 527.562814 255.11 
L 531.568557 255.22 
L 533.571429 255.66 
L 535.5743 256.32 
L 551.597272 256.32 
L 551.597272 256.32 
" clip-path="url(#p837fc7b759)" style="fill: none; stroke-dasharray: 1.5,2.475; stroke-dashoffset: 0; stroke: #a52a2a; stroke-width: 1.5"/>
   </g>
   <g id="line2d_22">
    <path d="M 135 255.88 
L 137.002872 256.21 
L 139.005743 256.32 
L 141.008615 256.21 
L 143.011486 256.32 
L 145.014358 256.1 
L 147.017229 256.32 
L 149.020101 256.21 
L 151.022972 256.32 
L 153.025844 251.37 
L 155.028715 185.92 
L 157.031587 185.15 
L 159.034458 191.717 
L 161.03733 185.15 
L 165.043073 185.26 
L 167.045944 185.92 
L 169.048816 185.15 
L 171.051687 185.26 
L 173.054559 185.15 
L 175.05743 185.26 
L 177.060302 185.92 
L 179.063173 185.26 
L 181.066045 185.26 
L 183.068916 191.618 
L 185.071788 185.15 
L 187.074659 186.03 
L 189.077531 185.26 
L 193.083274 185.15 
L 195.086145 185.92 
L 197.089017 185.26 
L 203.097631 185.15 
L 205.100503 186.03 
L 207.103374 185.26 
L 209.106246 191.618 
L 211.109117 185.26 
L 213.111989 185.15 
L 215.11486 185.26 
L 217.117732 185.92 
L 219.120603 185.15 
L 227.132089 185.15 
L 229.134961 186.03 
L 231.137832 185.26 
L 233.140704 191.519 
L 235.143575 185.26 
L 241.15219 185.26 
L 243.155061 185.81 
L 245.157933 185.26 
L 253.169419 185.15 
L 255.17229 191.717 
L 257.175162 185.26 
L 259.178033 185.15 
L 261.180905 185.92 
L 263.183776 185.15 
L 267.189519 185.26 
L 269.192391 185.15 
L 273.198134 185.26 
L 275.201005 185.15 
L 277.203877 185.26 
L 279.206748 192.322 
L 281.20962 185.26 
L 285.215363 185.15 
L 287.218234 185.26 
L 289.221106 185.15 
L 293.226849 185.26 
L 295.22972 185.92 
L 297.232592 185.26 
L 299.235463 185.15 
L 301.238335 191.717 
L 303.241206 185.15 
L 305.244078 185.26 
L 307.246949 185.15 
L 311.252692 185.26 
L 313.255564 185.26 
L 315.258435 185.81 
L 317.261307 185.26 
L 319.264178 185.15 
L 321.26705 185.26 
L 323.269921 191.618 
L 325.272793 185.26 
L 341.295765 185.15 
L 343.298636 191.717 
L 345.301508 185.26 
L 347.304379 185.15 
L 349.307251 185.26 
L 351.310122 185.81 
L 353.312994 185.26 
L 363.327351 185.26 
L 365.330223 191.717 
L 367.333094 185.26 
L 369.335966 185.15 
L 371.338837 185.26 
L 373.341709 185.15 
L 375.34458 185.26 
L 377.347452 185.15 
L 379.350323 185.26 
L 381.353195 185.15 
L 383.356066 185.26 
L 385.358938 185.92 
L 387.361809 191.717 
L 389.364681 185.15 
L 391.367552 185.26 
L 393.370424 185.15 
L 397.376167 185.26 
L 399.379038 185.15 
L 401.38191 185.37 
L 403.384781 184.38 
L 405.387653 185.26 
L 407.390524 191.618 
L 409.393396 185.26 
L 411.396267 185.15 
L 415.40201 185.26 
L 417.404882 185.15 
L 419.407753 185.26 
L 421.410625 186.03 
L 423.413496 185.15 
L 425.416368 185.15 
L 427.419239 191.717 
L 429.422111 184.49 
L 431.424982 185.26 
L 433.427854 185.15 
L 437.433597 185.48 
L 439.436468 186.25 
L 441.43934 186.36 
L 443.442211 186.25 
L 445.445083 187.46 
L 447.447954 193.62 
L 449.450826 187.46 
L 461.468055 187.35 
L 463.470926 188.23 
L 465.473798 188.12 
L 467.476669 194.522 
L 469.479541 188.78 
L 471.482412 188.45 
L 473.485284 188.67 
L 475.488155 188.45 
L 477.491027 188.67 
L 479.493898 188.45 
L 483.499641 188.56 
L 485.502513 188.56 
L 487.505384 194.621 
L 489.508256 188.56 
L 495.51687 188.56 
L 497.519742 187.9 
L 499.522613 189.99 
L 501.525485 190.76 
L 505.531228 190.76 
L 507.534099 196.821 
L 509.536971 190.65 
L 513.542714 190.87 
L 515.545585 190.65 
L 521.5542 190.87 
L 523.557071 190.65 
L 525.559943 190.87 
L 527.562814 197.624 
L 529.565686 191.86 
L 531.568557 192.74 
L 533.571429 193.07 
L 537.577172 192.96 
L 539.580043 193.73 
L 541.582915 192.96 
L 547.591529 192.96 
L 549.594401 198.823 
L 551.597272 192.96 
L 553.600144 193.07 
L 555.603015 193.62 
L 557.605887 192.85 
L 559.608758 193.07 
L 561.61163 193.84 
L 563.614501 195.27 
L 567.620244 195.16 
L 569.623116 195.27 
L 571.625987 200.715 
L 573.628859 195.27 
L 575.63173 195.82 
L 577.634602 195.27 
L 579.637473 195.16 
L 581.640345 195.27 
L 585.646088 195.16 
L 589.651831 195.27 
L 591.654702 195.82 
L 593.657574 195.16 
L 595.660445 200.715 
L 597.663317 195.27 
L 599.666188 196.37 
L 601.66906 196.26 
L 603.671931 196.37 
L 605.674803 197.69 
L 607.677674 197.36 
L 611.683417 197.47 
L 613.686289 198.02 
L 615.68916 199.01 
L 617.692032 198.57 
L 619.694903 203.817 
L 621.697775 198.46 
L 623.700646 199.67 
L 625.703518 199.67 
L 627.706389 200.22 
L 629.709261 200.11 
L 631.712132 201.54 
L 635.717875 202.42 
L 637.720747 201.87 
L 639.723618 201.76 
L 641.72649 201.98 
L 643.729361 206.82 
L 645.732233 202.42 
L 647.735104 202.64 
L 649.737976 203.08 
L 651.740847 202.86 
L 653.743719 203.63 
L 655.74659 202.97 
L 659.752333 202.97 
L 661.755205 203.63 
L 663.758076 202.97 
L 665.760948 203.3 
L 667.763819 204.07 
L 669.766691 204.62 
L 671.769562 209.625 
L 673.772434 206.38 
L 675.775305 206.38 
L 677.778177 206.71 
L 679.781048 206.38 
L 681.78392 206.27 
L 683.786791 206.93 
L 685.789663 207.92 
L 689.795406 209.02 
L 691.798277 208.58 
L 693.801149 208.47 
L 695.80402 209.02 
L 697.806892 208.58 
L 699.809763 212.925 
L 701.812635 208.58 
L 703.815506 208.91 
L 705.818378 208.58 
L 707.821249 209.02 
L 711.826992 210.67 
L 713.829864 210.78 
L 715.832735 211.22 
L 717.835607 212.65 
L 721.84135 213.42 
L 723.844221 212.98 
L 725.847093 213.31 
L 727.849964 214.08 
L 729.852836 218.216 
L 731.855707 214.19 
L 733.858579 214.08 
L 735.86145 214.63 
L 737.864322 215.51 
L 743.872936 222 
L 745.875808 226.18 
L 747.878679 227.5 
L 751.884422 227.72 
L 753.887294 233.33 
L 755.890165 239.6 
L 757.893037 243.23 
L 759.895908 244.11 
L 761.89878 244.22 
L 763.901651 245.221 
L 765.904523 244.22 
L 767.907394 244.11 
L 769.910266 244.22 
L 771.913137 244.77 
L 773.916009 245.98 
L 775.91888 246.31 
L 779.924623 246.64 
L 781.927495 248.62 
L 785.933238 250.82 
L 789.938981 255.11 
L 793.944724 255.22 
L 799.953338 255.33 
L 801.95621 256.32 
L 817.979182 256.32 
L 817.979182 256.32 
" clip-path="url(#p837fc7b759)" style="fill: none; stroke-dasharray: 9.6,2.4,1.5,2.4; stroke-dashoffset: 0; stroke: #008000; stroke-width: 1.5"/>
   </g>
   <g id="line2d_23">
    <path d="M 135 256.21 
L 137.002872 256.32 
L 141.008615 256.21 
L 151.022972 256.21 
L 153.025844 207.7 
L 155.028715 202.97 
L 161.03733 203.08 
L 163.040201 203.41 
L 165.043073 203.08 
L 169.048816 202.97 
L 171.051687 203.52 
L 173.054559 207.92 
L 175.05743 202.86 
L 177.060302 203.63 
L 179.063173 202.97 
L 181.066045 202.86 
L 183.068916 203.08 
L 185.071788 202.97 
L 187.074659 203.08 
L 189.077531 202.97 
L 191.080402 203.52 
L 193.083274 202.86 
L 195.086145 203.08 
L 197.089017 207.821 
L 199.091888 202.97 
L 201.09476 203.63 
L 203.097631 202.86 
L 205.100503 203.08 
L 209.106246 202.97 
L 211.109117 202.97 
L 213.111989 203.52 
L 215.11486 202.97 
L 217.117732 203.08 
L 219.120603 202.86 
L 221.123475 207.92 
L 223.126346 202.97 
L 225.129218 203.52 
L 227.132089 202.97 
L 233.140704 202.97 
L 235.143575 203.52 
L 237.146447 202.97 
L 243.155061 203.08 
L 245.157933 203.52 
L 247.160804 207.821 
L 249.163676 202.97 
L 253.169419 202.97 
L 255.17229 203.63 
L 257.175162 202.86 
L 261.180905 203.08 
L 263.183776 202.97 
L 265.186648 203.52 
L 267.189519 202.97 
L 269.192391 202.97 
L 271.195262 207.92 
L 273.198134 202.86 
L 277.203877 203.41 
L 279.206748 203.08 
L 283.212491 202.97 
L 285.215363 203.08 
L 287.218234 202.86 
L 289.221106 203.63 
L 291.223977 202.97 
L 293.226849 202.97 
L 295.22972 207.821 
L 297.232592 202.97 
L 299.235463 203.08 
L 301.238335 203.52 
L 303.241206 202.86 
L 305.244078 203.08 
L 309.249821 202.97 
L 311.252692 203.52 
L 313.255564 202.97 
L 315.258435 203.08 
L 317.261307 202.86 
L 319.264178 203.63 
L 321.26705 207.821 
L 323.269921 202.97 
L 327.275664 203.08 
L 329.278536 203.52 
L 331.281407 202.97 
L 333.284279 202.86 
L 335.28715 203.08 
L 337.290022 203.52 
L 339.292893 202.97 
L 341.295765 203.08 
L 343.298636 202.86 
L 345.301508 207.92 
L 347.304379 203.41 
L 349.307251 203.08 
L 353.312994 202.97 
L 355.315865 202.97 
L 357.318737 203.52 
L 359.321608 202.97 
L 361.32448 203.08 
L 365.330223 202.97 
L 367.333094 203.52 
L 369.335966 202.97 
L 371.338837 207.92 
L 373.341709 203.41 
L 375.34458 203.08 
L 379.350323 202.97 
L 381.353195 203.52 
L 383.356066 202.97 
L 385.358938 202.97 
L 387.361809 203.63 
L 389.364681 202.86 
L 393.370424 203.41 
L 395.373295 203.08 
L 397.376167 203.08 
L 399.379038 203.41 
L 401.38191 207.821 
L 403.384781 203.08 
L 405.387653 203.08 
L 407.390524 203.41 
L 409.393396 202.97 
L 411.396267 202.97 
L 413.399139 203.41 
L 415.40201 203.08 
L 417.404882 203.08 
L 419.407753 203.41 
L 421.410625 202.97 
L 423.413496 203.08 
L 425.416368 203.41 
L 427.419239 203.08 
L 429.422111 207.821 
L 431.424982 203.52 
L 433.427854 203.08 
L 435.430725 202.86 
L 439.436468 203.41 
L 441.43934 203.08 
L 443.442211 203.52 
L 445.445083 202.97 
L 447.447954 202.97 
L 449.450826 203.52 
L 451.453697 203.08 
L 453.456569 202.86 
L 455.45944 203.52 
L 457.462312 202.97 
L 459.465183 203.08 
L 461.468055 208.217 
L 463.470926 203.08 
L 465.473798 203.52 
L 467.476669 202.97 
L 469.479541 203.08 
L 471.482412 203.41 
L 473.485284 203.08 
L 475.488155 203.41 
L 477.491027 202.97 
L 479.493898 202.97 
L 481.49677 203.63 
L 483.499641 202.97 
L 485.502513 203.52 
L 487.505384 202.97 
L 489.508256 203.63 
L 491.511127 202.86 
L 493.513999 203.08 
L 495.51687 208.316 
L 497.519742 202.86 
L 499.522613 203.63 
L 501.525485 202.97 
L 503.528356 203.52 
L 505.531228 202.97 
L 507.534099 203.63 
L 509.536971 202.86 
L 513.542714 203.41 
L 515.545585 203.08 
L 517.548457 203.52 
L 519.551328 202.97 
L 521.5542 203.52 
L 523.557071 202.97 
L 525.559943 203.52 
L 527.562814 202.97 
L 529.565686 203.52 
L 531.568557 207.92 
L 533.571429 203.41 
L 535.5743 203.08 
L 537.577172 202.97 
L 539.580043 203.52 
L 541.582915 202.97 
L 543.585786 203.63 
L 545.588658 202.86 
L 547.591529 203.63 
L 549.594401 203.96 
L 551.597272 204.62 
L 553.600144 204.07 
L 555.603015 204.73 
L 557.605887 203.96 
L 559.608758 204.73 
L 561.61163 204.07 
L 563.614501 204.62 
L 565.617373 204.07 
L 567.620244 204.62 
L 569.623116 208.921 
L 571.625987 204.07 
L 573.628859 204.62 
L 575.63173 204.18 
L 577.634602 205.72 
L 579.637473 205.17 
L 581.640345 205.83 
L 583.643216 205.06 
L 585.646088 205.83 
L 587.648959 205.28 
L 589.651831 205.61 
L 591.654702 205.28 
L 593.657574 205.61 
L 595.660445 205.28 
L 597.663317 205.83 
L 599.666188 205.17 
L 601.66906 205.61 
L 603.671931 205.28 
L 605.674803 205.28 
L 607.677674 210.318 
L 609.680546 205.17 
L 611.683417 205.72 
L 613.686289 205.5 
L 615.68916 206.71 
L 617.692032 206.27 
L 619.694903 206.93 
L 621.697775 206.27 
L 623.700646 207.48 
L 625.703518 207.37 
L 627.706389 207.92 
L 629.709261 207.37 
L 631.712132 208.03 
L 633.715004 207.48 
L 635.717875 207.81 
L 637.720747 207.48 
L 639.723618 207.81 
L 643.729361 207.37 
L 645.732233 212.32 
L 647.735104 207.48 
L 649.737976 207.81 
L 651.740847 208.47 
L 653.743719 208.91 
L 655.74659 208.58 
L 661.755205 210.12 
L 663.758076 210.23 
L 665.760948 211.33 
L 667.763819 210.67 
L 669.766691 211.22 
L 671.769562 211.33 
L 673.772434 212.32 
L 675.775305 211.88 
L 677.778177 212.32 
L 679.781048 211.88 
L 681.78392 212.32 
L 683.786791 215.917 
L 685.789663 212.32 
L 687.792534 211.88 
L 689.795406 211.88 
L 691.798277 212.32 
L 693.801149 211.88 
L 695.80402 212.32 
L 697.806892 211.88 
L 699.809763 212.32 
L 701.812635 211.77 
L 703.815506 212.43 
L 705.818378 211.88 
L 707.821249 212.21 
L 709.824121 211.99 
L 711.826992 212.21 
L 713.829864 211.99 
L 717.835607 212.65 
L 719.838478 213.42 
L 721.84135 217.215 
L 723.844221 214.52 
L 725.847093 215.18 
L 727.849964 215.62 
L 729.852836 215.18 
L 731.855707 215.62 
L 735.86145 215.07 
L 737.864322 215.73 
L 739.867193 215.18 
L 741.870065 215.62 
L 743.872936 215.18 
L 745.875808 215.73 
L 747.878679 215.18 
L 749.881551 215.51 
L 751.884422 215.29 
L 753.887294 215.62 
L 755.890165 215.18 
L 757.893037 215.62 
L 759.895908 219.019 
L 761.89878 216.94 
L 763.901651 217.49 
L 765.904523 217.82 
L 767.907394 217.38 
L 769.910266 217.82 
L 771.913137 217.49 
L 773.916009 217.71 
L 775.91888 217.49 
L 777.921752 218.7 
L 779.924623 218.81 
L 781.927495 220.02 
L 783.930366 219.69 
L 785.933238 220.02 
L 787.936109 219.69 
L 789.938981 220.02 
L 791.941852 219.58 
L 795.947595 220.79 
L 797.950467 221.56 
L 799.953338 225.421 
L 801.95621 221.89 
L 803.959081 222.22 
L 805.961953 221.89 
L 807.964824 222.33 
L 809.967696 222.99 
L 811.970567 223.32 
L 813.973439 222.99 
L 815.97631 223.32 
L 817.979182 222.88 
L 821.984925 224.53 
L 823.987796 225.52 
L 825.990668 225.19 
L 827.993539 225.85 
L 829.996411 227.39 
L 831.999282 228.27 
L 834.002154 228.6 
L 836.005025 228.71 
L 838.007897 231.724 
L 840.010768 229.92 
L 842.01364 229.7 
L 844.016511 230.14 
L 846.019383 230.8 
L 848.022254 231.02 
L 850.025126 230.8 
L 854.030869 231.79 
L 856.03374 232.89 
L 858.036612 233.66 
L 860.039483 234.87 
L 862.042355 236.63 
L 864.045226 237.62 
L 866.048098 238.28 
L 868.050969 242.13 
L 870.053841 243.45 
L 872.056712 244.22 
L 874.059584 246.53 
L 876.062455 250.6 
L 878.065327 254.0199 
L 880.068198 255.22 
L 882.07107 255.33 
L 884.073941 255.11 
L 888.079684 256.32 
L 904.102656 256.32 
L 904.102656 256.32 
" clip-path="url(#p837fc7b759)" style="fill: none; stroke: #0000ff; stroke-width: 1.5; stroke-linecap: square"/>
   </g>
   <g id="line2d_24">
    <path d="M 135 256.21 
L 137.002872 256.32 
L 141.008615 256.21 
L 145.014358 256.32 
L 147.017229 256.21 
L 149.020101 256.32 
L 151.022972 256.21 
L 153.025844 230.36 
L 155.028715 220.79 
L 157.031587 221.12 
L 159.034458 224.024 
L 161.03733 221.12 
L 163.040201 220.68 
L 165.043073 221.12 
L 167.045944 220.79 
L 169.048816 221.12 
L 171.051687 220.79 
L 173.054559 221.12 
L 175.05743 220.79 
L 177.060302 221.12 
L 179.063173 220.79 
L 181.066045 221.01 
L 183.068916 220.79 
L 185.071788 221.12 
L 187.074659 220.79 
L 189.077531 221.12 
L 191.080402 220.79 
L 193.083274 221.01 
L 195.086145 220.79 
L 197.089017 221.12 
L 199.091888 224.024 
L 201.09476 221.12 
L 203.097631 220.79 
L 205.100503 221.12 
L 207.103374 220.79 
L 209.106246 221.01 
L 211.109117 220.79 
L 213.111989 221.23 
L 215.11486 220.79 
L 217.117732 221.12 
L 219.120603 220.68 
L 221.123475 221.12 
L 223.126346 220.79 
L 225.129218 221.12 
L 227.132089 220.68 
L 229.134961 221.23 
L 231.137832 220.68 
L 233.140704 221.12 
L 235.143575 220.9 
L 237.146447 221.01 
L 239.149318 224.024 
L 241.15219 221.12 
L 243.155061 220.79 
L 245.157933 221.12 
L 247.160804 220.68 
L 249.163676 221.23 
L 251.166547 220.79 
L 253.169419 221.01 
L 255.17229 220.79 
L 257.175162 221.12 
L 259.178033 220.79 
L 261.180905 221.12 
L 263.183776 220.68 
L 265.186648 221.12 
L 267.189519 220.9 
L 269.192391 221.01 
L 271.195262 220.79 
L 273.198134 221.23 
L 275.201005 220.68 
L 277.203877 221.12 
L 279.206748 223.925 
L 281.20962 221.23 
L 283.212491 220.79 
L 285.215363 221.01 
L 287.218234 220.79 
L 289.221106 221.23 
L 291.223977 220.68 
L 293.226849 221.12 
L 295.22972 220.79 
L 297.232592 221.12 
L 299.235463 220.68 
L 301.238335 221.23 
L 303.241206 220.79 
L 305.244078 220.68 
L 307.246949 221.12 
L 309.249821 220.79 
L 311.252692 221.12 
L 313.255564 220.68 
L 315.258435 221.23 
L 317.261307 220.79 
L 319.264178 224.222 
L 321.26705 220.79 
L 323.269921 221.23 
L 325.272793 220.68 
L 327.275664 221.12 
L 329.278536 220.79 
L 331.281407 221.12 
L 333.284279 220.68 
L 335.28715 221.23 
L 337.290022 220.79 
L 339.292893 221.01 
L 341.295765 220.9 
L 343.298636 221.01 
L 345.301508 220.79 
L 347.304379 221.12 
L 349.307251 220.79 
L 351.310122 221.12 
L 353.312994 220.68 
L 355.315865 221.23 
L 357.318737 224.024 
L 359.321608 221.01 
L 361.32448 220.79 
L 363.327351 221.23 
L 365.330223 220.68 
L 367.333094 221.12 
L 369.335966 220.79 
L 371.338837 221.12 
L 373.341709 220.68 
L 375.34458 221.23 
L 377.347452 220.68 
L 379.350323 221.23 
L 381.353195 220.68 
L 383.356066 221.12 
L 385.358938 220.79 
L 387.361809 221.12 
L 389.364681 220.68 
L 391.367552 221.23 
L 393.370424 220.79 
L 395.373295 221.01 
L 397.376167 220.79 
L 399.379038 224.321 
L 401.38191 220.79 
L 403.384781 221.12 
L 405.387653 220.68 
L 407.390524 221.12 
L 409.393396 220.79 
L 411.396267 221.12 
L 413.399139 220.79 
L 415.40201 221.23 
L 417.404882 220.68 
L 419.407753 221.12 
L 421.410625 220.79 
L 423.413496 221.01 
L 425.416368 220.79 
L 427.419239 221.23 
L 429.422111 220.79 
L 431.424982 221.01 
L 433.427854 220.79 
L 435.430725 221.12 
L 437.433597 220.79 
L 439.436468 224.321 
L 441.43934 220.68 
L 443.442211 221.23 
L 445.445083 220.79 
L 447.447954 221.01 
L 449.450826 220.79 
L 451.453697 221.12 
L 453.456569 220.79 
L 455.45944 221.12 
L 457.462312 220.79 
L 459.465183 221.12 
L 461.468055 220.68 
L 463.470926 221.12 
L 465.473798 220.79 
L 467.476669 221.23 
L 469.479541 220.68 
L 471.482412 221.12 
L 473.485284 220.79 
L 475.488155 221.01 
L 477.491027 224.123 
L 479.493898 221.12 
L 481.49677 220.79 
L 483.499641 221.01 
L 485.502513 220.79 
L 487.505384 221.12 
L 489.508256 220.79 
L 491.511127 221.12 
L 493.513999 220.79 
L 495.51687 221.01 
L 497.519742 220.79 
L 499.522613 221.23 
L 501.525485 220.79 
L 503.528356 221.01 
L 505.531228 220.79 
L 507.534099 221.12 
L 509.536971 220.79 
L 511.539842 221.12 
L 513.542714 220.79 
L 515.545585 221.12 
L 517.548457 224.024 
L 519.551328 221.01 
L 521.5542 220.79 
L 523.557071 221.12 
L 525.559943 220.68 
L 527.562814 221.23 
L 529.565686 220.79 
L 531.568557 221.01 
L 533.571429 220.79 
L 535.5743 221.23 
L 537.577172 220.68 
L 539.580043 221.12 
L 541.582915 220.79 
L 543.585786 221.12 
L 545.588658 220.68 
L 547.591529 221.12 
L 549.594401 220.9 
L 551.597272 221.01 
L 553.600144 220.79 
L 555.603015 221.12 
L 557.605887 224.024 
L 559.608758 221.12 
L 561.61163 220.79 
L 563.614501 221.01 
L 565.617373 220.9 
L 567.620244 221.12 
L 569.623116 220.68 
L 571.625987 221.12 
L 573.628859 220.79 
L 575.63173 221.12 
L 577.634602 220.79 
L 579.637473 221.12 
L 581.640345 220.68 
L 583.643216 221.23 
L 585.646088 220.79 
L 587.648959 221.12 
L 589.651831 220.68 
L 591.654702 221.12 
L 593.657574 220.79 
L 595.660445 221.12 
L 597.663317 223.925 
L 599.666188 221.23 
L 601.66906 220.79 
L 603.671931 221.01 
L 605.674803 220.79 
L 607.677674 221.12 
L 609.680546 220.79 
L 611.683417 221.12 
L 613.686289 220.68 
L 615.68916 221.23 
L 617.692032 220.79 
L 619.694903 221.01 
L 621.697775 220.79 
L 623.700646 221.12 
L 625.703518 220.9 
L 627.706389 221.01 
L 629.709261 220.79 
L 631.712132 221.12 
L 633.715004 220.68 
L 635.717875 221.23 
L 637.720747 223.925 
L 639.723618 221.12 
L 641.72649 220.9 
L 643.729361 221.01 
L 645.732233 220.79 
L 647.735104 221.12 
L 649.737976 220.79 
L 651.740847 221.01 
L 653.743719 220.79 
L 655.74659 221.12 
L 657.749462 220.9 
L 659.752333 221.12 
L 661.755205 220.68 
L 663.758076 221.12 
L 665.760948 220.79 
L 667.763819 221.12 
L 669.766691 220.79 
L 671.769562 221.01 
L 673.772434 220.9 
L 675.775305 221.01 
L 677.778177 224.024 
L 679.781048 221.56 
L 681.78392 221.78 
L 683.786791 222.22 
L 685.789663 221.89 
L 687.792534 222.33 
L 689.795406 221.78 
L 691.798277 222.22 
L 693.801149 221.89 
L 695.80402 222.22 
L 697.806892 221.89 
L 699.809763 222.22 
L 701.812635 221.89 
L 703.815506 222.88 
L 707.821249 223.21 
L 709.824121 222.99 
L 711.826992 223.32 
L 713.829864 222.99 
L 715.832735 223.32 
L 717.835607 226.015 
L 719.838478 223.32 
L 721.84135 222.99 
L 723.844221 223.32 
L 725.847093 222.99 
L 727.849964 223.32 
L 729.852836 223.1 
L 731.855707 225.41 
L 733.858579 225.19 
L 735.86145 225.63 
L 737.864322 225.08 
L 739.867193 225.52 
L 741.870065 225.3 
L 743.872936 225.52 
L 745.875808 225.19 
L 749.881551 225.96 
L 751.884422 228.82 
L 753.887294 228.49 
L 755.890165 228.82 
L 757.893037 231.119 
L 759.895908 228.82 
L 761.89878 228.49 
L 763.901651 228.93 
L 765.904523 228.49 
L 767.907394 228.82 
L 769.910266 228.49 
L 771.913137 228.93 
L 773.916009 228.38 
L 775.91888 228.82 
L 777.921752 228.6 
L 779.924623 228.82 
L 781.927495 230.14 
L 783.930366 231.24 
L 785.933238 231.9 
L 787.936109 232.12 
L 789.938981 231.9 
L 791.941852 232.12 
L 795.947595 234.43 
L 797.950467 235.42 
L 799.953338 237.125 
L 801.95621 235.42 
L 803.959081 235.2 
L 805.961953 235.53 
L 807.964824 236.85 
L 809.967696 237.51 
L 811.970567 237.51 
L 813.973439 238.5 
L 817.979182 238.72 
L 819.982053 238.5 
L 821.984925 238.72 
L 823.987796 238.5 
L 825.990668 238.72 
L 827.993539 238.61 
L 829.996411 238.72 
L 831.999282 238.5 
L 834.002154 238.72 
L 836.005025 238.5 
L 838.007897 238.72 
L 840.010768 240.216 
L 842.01364 238.72 
L 846.019383 238.61 
L 856.03374 238.5 
L 858.036612 239.38 
L 862.042355 239.82 
L 864.045226 239.71 
L 866.048098 239.82 
L 868.050969 239.6 
L 870.053841 239.82 
L 872.056712 239.6 
L 874.059584 239.82 
L 876.062455 239.71 
L 878.065327 240.59 
L 880.068198 242.317 
L 882.07107 242.02 
L 884.073941 242.24 
L 886.076813 243.01 
L 888.079684 244.11 
L 890.082556 244.77 
L 892.085427 245.76 
L 896.09117 247.08 
L 898.094042 249.06 
L 900.096913 250.82 
L 902.099785 250.71 
L 904.102656 250.82 
L 908.108399 253.79 
L 910.111271 255.33 
L 912.114142 255.11 
L 914.117014 255.55 
L 916.119885 256.32 
L 932.142857 256.32 
L 932.142857 256.32 
" clip-path="url(#p837fc7b759)" style="fill: none; stroke-dasharray: 5.55,2.4; stroke-dashoffset: 0; stroke: #800080; stroke-width: 1.5"/>
   </g>
   <g id="patch_3">
    <path d="M 135 256.32 
L 135 34.56 
" style="fill: none; stroke: #000000; stroke-width: 0.8; stroke-linejoin: miter; stroke-linecap: square"/>
   </g>
   <g id="patch_4">
    <path d="M 972 256.32 
L 972 34.56 
" style="fill: none; stroke: #000000; stroke-width: 0.8; stroke-linejoin: miter; stroke-linecap: square"/>
   </g>
   <g id="patch_5">
    <path d="M 135 256.32 
L 972 256.32 
" style="fill: none; stroke: #000000; stroke-width: 0.8; stroke-linejoin: miter; stroke-linecap: square"/>
   </g>
   <g id="patch_6">
    <path d="M 135 34.56 
L 972 34.56 
" style="fill: none; stroke: #000000; stroke-width: 0.8; stroke-linejoin: miter; stroke-linecap: square"/>
   </g>
   <g id="legend_1">
    <g id="patch_7">
     <path d="M 833.757812 130.62875 
L 965 130.62875 
Q 967 130.62875 967 128.62875 
L 967 41.56 
Q 967 39.56 965 39.56 
L 833.757812 39.56 
Q 831.757812 39.56 831.757812 41.56 
L 831.757812 128.62875 
Q 831.757812 130.62875 833.757812 130.62875 
z
" style="fill: #ffffff; opacity: 0.8; stroke: #cccccc; stroke-linejoin: miter"/>
    </g>
    <g id="line2d_25">
     <path d="M 835.757812 47.658438 
L 845.757812 47.658438 
L 855.757812 47.658438 
" style="fill: none; stroke: #ff0000; stroke-width: 1.5; stroke-linecap: square"/>
    </g>
    <g id="text_21">
     <!-- 192 subinterpreters -->
     <g transform="translate(863.757812 51.158438) scale(0.1 -0.1)">
      <defs>
       <path id="DejaVuSans-39" d="M 703 97 
L 703 672 
Q 941 559 1184 500 
Q 1428 441 1663 441 
Q 2288 441 2617 861 
Q 2947 1281 2994 2138 
Q 2813 1869 2534 1725 
Q 2256 1581 1919 1581 
Q 1219 1581 811 2004 
Q 403 2428 403 3163 
Q 403 3881 828 4315 
Q 1253 4750 1959 4750 
Q 2769 4750 3195 4129 
Q 3622 3509 3622 2328 
Q 3622 1225 3098 567 
Q 2575 -91 1691 -91 
Q 1453 -91 1209 -44 
Q 966 3 703 97 
z
M 1959 2075 
Q 2384 2075 2632 2365 
Q 2881 2656 2881 3163 
Q 2881 3666 2632 3958 
Q 2384 4250 1959 4250 
Q 1534 4250 1286 3958 
Q 1038 3666 1038 3163 
Q 1038 2656 1286 2365 
Q 1534 2075 1959 2075 
z
" transform="scale(0.015625)"/>
       <path id="DejaVuSans-62" d="M 3116 1747 
Q 3116 2381 2855 2742 
Q 2594 3103 2138 3103 
Q 1681 3103 1420 2742 
Q 1159 2381 1159 1747 
Q 1159 1113 1420 752 
Q 1681 391 2138 391 
Q 2594 391 2855 752 
Q 3116 1113 3116 1747 
z
M 1159 2969 
Q 1341 3281 1617 3432 
Q 1894 3584 2278 3584 
Q 2916 3584 3314 3078 
Q 3713 2572 3713 1747 
Q 3713 922 3314 415 
Q 2916 -91 2278 -91 
Q 1894 -91 1617 61 
Q 1341 213 1159 525 
L 1159 0 
L 581 0 
L 581 4863 
L 1159 4863 
L 1159 2969 
z
" transform="scale(0.015625)"/>
      </defs>
      <use xlink:href="#DejaVuSans-31"/>
      <use xlink:href="#DejaVuSans-39" x="63.623047"/>
      <use xlink:href="#DejaVuSans-32" x="127.246094"/>
      <use xlink:href="#DejaVuSans-20" x="190.869141"/>
      <use xlink:href="#DejaVuSans-73" x="222.65625"/>
      <use xlink:href="#DejaVuSans-75" x="274.755859"/>
      <use xlink:href="#DejaVuSans-62" x="338.134766"/>
      <use xlink:href="#DejaVuSans-69" x="401.611328"/>
      <use xlink:href="#DejaVuSans-6e" x="429.394531"/>
      <use xlink:href="#DejaVuSans-74" x="492.773438"/>
      <use xlink:href="#DejaVuSans-65" x="531.982422"/>
      <use xlink:href="#DejaVuSans-72" x="593.505859"/>
      <use xlink:href="#DejaVuSans-70" x="634.619141"/>
      <use xlink:href="#DejaVuSans-72" x="698.095703"/>
      <use xlink:href="#DejaVuSans-65" x="736.958984"/>
      <use xlink:href="#DejaVuSans-74" x="798.482422"/>
      <use xlink:href="#DejaVuSans-65" x="837.691406"/>
      <use xlink:href="#DejaVuSans-72" x="899.214844"/>
      <use xlink:href="#DejaVuSans-73" x="940.328125"/>
     </g>
    </g>
    <g id="line2d_26">
     <path d="M 835.757812 62.336563 
L 845.757812 62.336563 
L 855.757812 62.336563 
" style="fill: none; stroke-dasharray: 5.55,2.4; stroke-dashoffset: 0; stroke: #ffa500; stroke-width: 1.5"/>
    </g>
    <g id="text_22">
     <!-- 128 subinterpreters -->
     <g transform="translate(863.757812 65.836563) scale(0.1 -0.1)">
      <defs>
       <path id="DejaVuSans-38" d="M 2034 2216 
Q 1584 2216 1326 1975 
Q 1069 1734 1069 1313 
Q 1069 891 1326 650 
Q 1584 409 2034 409 
Q 2484 409 2743 651 
Q 3003 894 3003 1313 
Q 3003 1734 2745 1975 
Q 2488 2216 2034 2216 
z
M 1403 2484 
Q 997 2584 770 2862 
Q 544 3141 544 3541 
Q 544 4100 942 4425 
Q 1341 4750 2034 4750 
Q 2731 4750 3128 4425 
Q 3525 4100 3525 3541 
Q 3525 3141 3298 2862 
Q 3072 2584 2669 2484 
Q 3125 2378 3379 2068 
Q 3634 1759 3634 1313 
Q 3634 634 3220 271 
Q 2806 -91 2034 -91 
Q 1263 -91 848 271 
Q 434 634 434 1313 
Q 434 1759 690 2068 
Q 947 2378 1403 2484 
z
M 1172 3481 
Q 1172 3119 1398 2916 
Q 1625 2713 2034 2713 
Q 2441 2713 2670 2916 
Q 2900 3119 2900 3481 
Q 2900 3844 2670 4047 
Q 2441 4250 2034 4250 
Q 1625 4250 1398 4047 
Q 1172 3844 1172 3481 
z
" transform="scale(0.015625)"/>
      </defs>
      <use xlink:href="#DejaVuSans-31"/>
      <use xlink:href="#DejaVuSans-32" x="63.623047"/>
      <use xlink:href="#DejaVuSans-38" x="127.246094"/>
      <use xlink:href="#DejaVuSans-20" x="190.869141"/>
      <use xlink:href="#DejaVuSans-73" x="222.65625"/>
      <use xlink:href="#DejaVuSans-75" x="274.755859"/>
      <use xlink:href="#DejaVuSans-62" x="338.134766"/>
      <use xlink:href="#DejaVuSans-69" x="401.611328"/>
      <use xlink:href="#DejaVuSans-6e" x="429.394531"/>
      <use xlink:href="#DejaVuSans-74" x="492.773438"/>
      <use xlink:href="#DejaVuSans-65" x="531.982422"/>
      <use xlink:href="#DejaVuSans-72" x="593.505859"/>
      <use xlink:href="#DejaVuSans-70" x="634.619141"/>
      <use xlink:href="#DejaVuSans-72" x="698.095703"/>
      <use xlink:href="#DejaVuSans-65" x="736.958984"/>
      <use xlink:href="#DejaVuSans-74" x="798.482422"/>
      <use xlink:href="#DejaVuSans-65" x="837.691406"/>
      <use xlink:href="#DejaVuSans-72" x="899.214844"/>
      <use xlink:href="#DejaVuSans-73" x="940.328125"/>
     </g>
    </g>
    <g id="line2d_27">
     <path d="M 835.757812 77.014688 
L 845.757812 77.014688 
L 855.757812 77.014688 
" style="fill: none; stroke-dasharray: 1.5,2.475; stroke-dashoffset: 0; stroke: #a52a2a; stroke-width: 1.5"/>
    </g>
    <g id="text_23">
     <!-- 96 subinterpreters -->
     <g transform="translate(863.757812 80.514688) scale(0.1 -0.1)">
      <defs>
       <path id="DejaVuSans-36" d="M 2113 2584 
Q 1688 2584 1439 2293 
Q 1191 2003 1191 1497 
Q 1191 994 1439 701 
Q 1688 409 2113 409 
Q 2538 409 2786 701 
Q 3034 994 3034 1497 
Q 3034 2003 2786 2293 
Q 2538 2584 2113 2584 
z
M 3366 4563 
L 3366 3988 
Q 3128 4100 2886 4159 
Q 2644 4219 2406 4219 
Q 1781 4219 1451 3797 
Q 1122 3375 1075 2522 
Q 1259 2794 1537 2939 
Q 1816 3084 2150 3084 
Q 2853 3084 3261 2657 
Q 3669 2231 3669 1497 
Q 3669 778 3244 343 
Q 2819 -91 2113 -91 
Q 1303 -91 875 529 
Q 447 1150 447 2328 
Q 447 3434 972 4092 
Q 1497 4750 2381 4750 
Q 2619 4750 2861 4703 
Q 3103 4656 3366 4563 
z
" transform="scale(0.015625)"/>
      </defs>
      <use xlink:href="#DejaVuSans-39"/>
      <use xlink:href="#DejaVuSans-36" x="63.623047"/>
      <use xlink:href="#DejaVuSans-20" x="127.246094"/>
      <use xlink:href="#DejaVuSans-73" x="159.033203"/>
      <use xlink:href="#DejaVuSans-75" x="211.132812"/>
      <use xlink:href="#DejaVuSans-62" x="274.511719"/>
      <use xlink:href="#DejaVuSans-69" x="337.988281"/>
      <use xlink:href="#DejaVuSans-6e" x="365.771484"/>
      <use xlink:href="#DejaVuSans-74" x="429.150391"/>
      <use xlink:href="#DejaVuSans-65" x="468.359375"/>
      <use xlink:href="#DejaVuSans-72" x="529.882812"/>
      <use xlink:href="#DejaVuSans-70" x="570.996094"/>
      <use xlink:href="#DejaVuSans-72" x="634.472656"/>
      <use xlink:href="#DejaVuSans-65" x="673.335938"/>
      <use xlink:href="#DejaVuSans-74" x="734.859375"/>
      <use xlink:href="#DejaVuSans-65" x="774.068359"/>
      <use xlink:href="#DejaVuSans-72" x="835.591797"/>
      <use xlink:href="#DejaVuSans-73" x="876.705078"/>
     </g>
    </g>
    <g id="line2d_28">
     <path d="M 835.757812 91.692813 
L 845.757812 91.692813 
L 855.757812 91.692813 
" style="fill: none; stroke-dasharray: 9.6,2.4,1.5,2.4; stroke-dashoffset: 0; stroke: #008000; stroke-width: 1.5"/>
    </g>
    <g id="text_24">
     <!-- 64 subinterpreters -->
     <g transform="translate(863.757812 95.192813) scale(0.1 -0.1)">
      <use xlink:href="#DejaVuSans-36"/>
      <use xlink:href="#DejaVuSans-34" x="63.623047"/>
      <use xlink:href="#DejaVuSans-20" x="127.246094"/>
      <use xlink:href="#DejaVuSans-73" x="159.033203"/>
      <use xlink:href="#DejaVuSans-75" x="211.132812"/>
      <use xlink:href="#DejaVuSans-62" x="274.511719"/>
      <use xlink:href="#DejaVuSans-69" x="337.988281"/>
      <use xlink:href="#DejaVuSans-6e" x="365.771484"/>
      <use xlink:href="#DejaVuSans-74" x="429.150391"/>
      <use xlink:href="#DejaVuSans-65" x="468.359375"/>
      <use xlink:href="#DejaVuSans-72" x="529.882812"/>
      <use xlink:href="#DejaVuSans-70" x="570.996094"/>
      <use xlink:href="#DejaVuSans-72" x="634.472656"/>
      <use xlink:href="#DejaVuSans-65" x="673.335938"/>
      <use xlink:href="#DejaVuSans-74" x="734.859375"/>
      <use xlink:href="#DejaVuSans-65" x="774.068359"/>
      <use xlink:href="#DejaVuSans-72" x="835.591797"/>
      <use xlink:href="#DejaVuSans-73" x="876.705078"/>
     </g>
    </g>
    <g id="line2d_29">
     <path d="M 835.757812 106.370938 
L 845.757812 106.370938 
L 855.757812 106.370938 
" style="fill: none; stroke: #0000ff; stroke-width: 1.5; stroke-linecap: square"/>
    </g>
    <g id="text_25">
     <!-- 48 subinterpreters -->
     <g transform="translate(863.757812 109.870938) scale(0.1 -0.1)">
      <use xlink:href="#DejaVuSans-34"/>
      <use xlink:href="#DejaVuSans-38" x="63.623047"/>
      <use xlink:href="#DejaVuSans-20" x="127.246094"/>
      <use xlink:href="#DejaVuSans-73" x="159.033203"/>
      <use xlink:href="#DejaVuSans-75" x="211.132812"/>
      <use xlink:href="#DejaVuSans-62" x="274.511719"/>
      <use xlink:href="#DejaVuSans-69" x="337.988281"/>
      <use xlink:href="#DejaVuSans-6e" x="365.771484"/>
      <use xlink:href="#DejaVuSans-74" x="429.150391"/>
      <use xlink:href="#DejaVuSans-65" x="468.359375"/>
      <use xlink:href="#DejaVuSans-72" x="529.882812"/>
      <use xlink:href="#DejaVuSans-70" x="570.996094"/>
      <use xlink:href="#DejaVuSans-72" x="634.472656"/>
      <use xlink:href="#DejaVuSans-65" x="673.335938"/>
      <use xlink:href="#DejaVuSans-74" x="734.859375"/>
      <use xlink:href="#DejaVuSans-65" x="774.068359"/>
      <use xlink:href="#DejaVuSans-72" x="835.591797"/>
      <use xlink:href="#DejaVuSans-73" x="876.705078"/>
     </g>
    </g>
    <g id="line2d_30">
     <path d="M 835.757812 121.049063 
L 845.757812 121.049063 
L 855.757812 121.049063 
" style="fill: none; stroke-dasharray: 5.55,2.4; stroke-dashoffset: 0; stroke: #800080; stroke-width: 1.5"/>
    </g>
    <g id="text_26">
     <!-- 32 subinterpreters -->
     <g transform="translate(863.757812 124.549063) scale(0.1 -0.1)">
      <use xlink:href="#DejaVuSans-33"/>
      <use xlink:href="#DejaVuSans-32" x="63.623047"/>
      <use xlink:href="#DejaVuSans-20" x="127.246094"/>
      <use xlink:href="#DejaVuSans-73" x="159.033203"/>
      <use xlink:href="#DejaVuSans-75" x="211.132812"/>
      <use xlink:href="#DejaVuSans-62" x="274.511719"/>
      <use xlink:href="#DejaVuSans-69" x="337.988281"/>
      <use xlink:href="#DejaVuSans-6e" x="365.771484"/>
      <use xlink:href="#DejaVuSans-74" x="429.150391"/>
      <use xlink:href="#DejaVuSans-65" x="468.359375"/>
      <use xlink:href="#DejaVuSans-72" x="529.882812"/>
      <use xlink:href="#DejaVuSans-70" x="570.996094"/>
      <use xlink:href="#DejaVuSans-72" x="634.472656"/>
      <use xlink:href="#DejaVuSans-65" x="673.335938"/>
      <use xlink:href="#DejaVuSans-74" x="734.859375"/>
      <use xlink:href="#DejaVuSans-65" x="774.068359"/>
      <use xlink:href="#DejaVuSans-72" x="835.591797"/>
      <use xlink:href="#DejaVuSans-73" x="876.705078"/>
     </g>
    </g>
   </g>
  </g>
 </g>
 <defs>
  <clipPath id="p837fc7b759">
   <rect x="135" y="34.56" width="837" height="221.76"/>
  </clipPath>
 </defs>
</svg>
