<?xml version="1.0" encoding="utf-8" standalone="no"?>
<!DOCTYPE svg PUBLIC "-//W3C//DTD SVG 1.1//EN"
  "http://www.w3.org/Graphics/SVG/1.1/DTD/svg11.dtd">
<svg xmlns:xlink="http://www.w3.org/1999/xlink" width="1080pt" height="288pt" viewBox="0 0 1080 288" xmlns="http://www.w3.org/2000/svg" version="1.1">
 <metadata>
  <rdf:RDF xmlns:dc="http://purl.org/dc/elements/1.1/" xmlns:cc="http://creativecommons.org/ns#" xmlns:rdf="http://www.w3.org/1999/02/22-rdf-syntax-ns#">
   <cc:Work>
    <dc:type rdf:resource="http://purl.org/dc/dcmitype/StillImage"/>
    <dc:date>2024-10-07T19:07:12.175701</dc:date>
    <dc:format>image/svg+xml</dc:format>
    <dc:creator>
     <cc:Agent>
      <dc:title>Matplotlib v3.8.4, https://matplotlib.org/</dc:title>
     </cc:Agent>
    </dc:creator>
   </cc:Work>
  </rdf:RDF>
 </metadata>
 <defs>
  <style type="text/css">*{stroke-linejoin: round; stroke-linecap: butt}</style>
 </defs>
 <g id="figure_1">
  <g id="patch_1">
   <path d="M 0 288 
L 1080 288 
L 1080 0 
L 0 0 
z
" style="fill: #ffffff"/>
  </g>
  <g id="axes_1">
   <g id="patch_2">
    <path d="M 135 256.32 
L 972 256.32 
L 972 34.56 
L 135 34.56 
z
" style="fill: #ffffff"/>
   </g>
   <g id="matplotlib.axis_1">
    <g id="xtick_1">
     <g id="line2d_1">
      <defs>
       <path id="m13aa7aa5ba" d="M 0 0 
L 0 3.5 
" style="stroke: #000000; stroke-width: 0.8"/>
      </defs>
      <g>
       <use xlink:href="#m13aa7aa5ba" x="135" y="256.32" style="stroke: #000000; stroke-width: 0.8"/>
      </g>
     </g>
     <g id="text_1">
      <!-- 0 -->
      <g transform="translate(131.81875 270.918437) scale(0.1 -0.1)">
       <defs>
        <path id="DejaVuSans-30" d="M 2034 4250 
Q 1547 4250 1301 3770 
Q 1056 3291 1056 2328 
Q 1056 1369 1301 889 
Q 1547 409 2034 409 
Q 2525 409 2770 889 
Q 3016 1369 3016 2328 
Q 3016 3291 2770 3770 
Q 2525 4250 2034 4250 
z
M 2034 4750 
Q 2819 4750 3233 4129 
Q 3647 3509 3647 2328 
Q 3647 1150 3233 529 
Q 2819 -91 2034 -91 
Q 1250 -91 836 529 
Q 422 1150 422 2328 
Q 422 3509 836 4129 
Q 1250 4750 2034 4750 
z
" transform="scale(0.015625)"/>
       </defs>
       <use xlink:href="#DejaVuSans-30"/>
      </g>
     </g>
    </g>
    <g id="xtick_2">
     <g id="line2d_2">
      <g>
       <use xlink:href="#m13aa7aa5ba" x="282.009748" y="256.32" style="stroke: #000000; stroke-width: 0.8"/>
      </g>
     </g>
     <g id="text_2">
      <!-- 20 -->
      <g transform="translate(275.647248 270.918437) scale(0.1 -0.1)">
       <defs>
        <path id="DejaVuSans-32" d="M 1228 531 
L 3431 531 
L 3431 0 
L 469 0 
L 469 531 
Q 828 903 1448 1529 
Q 2069 2156 2228 2338 
Q 2531 2678 2651 2914 
Q 2772 3150 2772 3378 
Q 2772 3750 2511 3984 
Q 2250 4219 1831 4219 
Q 1534 4219 1204 4116 
Q 875 4013 500 3803 
L 500 4441 
Q 881 4594 1212 4672 
Q 1544 4750 1819 4750 
Q 2544 4750 2975 4387 
Q 3406 4025 3406 3419 
Q 3406 3131 3298 2873 
Q 3191 2616 2906 2266 
Q 2828 2175 2409 1742 
Q 1991 1309 1228 531 
z
" transform="scale(0.015625)"/>
       </defs>
       <use xlink:href="#DejaVuSans-32"/>
       <use xlink:href="#DejaVuSans-30" x="63.623047"/>
      </g>
     </g>
    </g>
    <g id="xtick_3">
     <g id="line2d_3">
      <g>
       <use xlink:href="#m13aa7aa5ba" x="429.019496" y="256.32" style="stroke: #000000; stroke-width: 0.8"/>
      </g>
     </g>
     <g id="text_3">
      <!-- 40 -->
      <g transform="translate(422.656996 270.918437) scale(0.1 -0.1)">
       <defs>
        <path id="DejaVuSans-34" d="M 2419 4116 
L 825 1625 
L 2419 1625 
L 2419 4116 
z
M 2253 4666 
L 3047 4666 
L 3047 1625 
L 3713 1625 
L 3713 1100 
L 3047 1100 
L 3047 0 
L 2419 0 
L 2419 1100 
L 313 1100 
L 313 1709 
L 2253 4666 
z
" transform="scale(0.015625)"/>
       </defs>
       <use xlink:href="#DejaVuSans-34"/>
       <use xlink:href="#DejaVuSans-30" x="63.623047"/>
      </g>
     </g>
    </g>
    <g id="xtick_4">
     <g id="line2d_4">
      <g>
       <use xlink:href="#m13aa7aa5ba" x="576.029244" y="256.32" style="stroke: #000000; stroke-width: 0.8"/>
      </g>
     </g>
     <g id="text_4">
      <!-- 60 -->
      <g transform="translate(569.666744 270.918437) scale(0.1 -0.1)">
       <defs>
        <path id="DejaVuSans-36" d="M 2113 2584 
Q 1688 2584 1439 2293 
Q 1191 2003 1191 1497 
Q 1191 994 1439 701 
Q 1688 409 2113 409 
Q 2538 409 2786 701 
Q 3034 994 3034 1497 
Q 3034 2003 2786 2293 
Q 2538 2584 2113 2584 
z
M 3366 4563 
L 3366 3988 
Q 3128 4100 2886 4159 
Q 2644 4219 2406 4219 
Q 1781 4219 1451 3797 
Q 1122 3375 1075 2522 
Q 1259 2794 1537 2939 
Q 1816 3084 2150 3084 
Q 2853 3084 3261 2657 
Q 3669 2231 3669 1497 
Q 3669 778 3244 343 
Q 2819 -91 2113 -91 
Q 1303 -91 875 529 
Q 447 1150 447 2328 
Q 447 3434 972 4092 
Q 1497 4750 2381 4750 
Q 2619 4750 2861 4703 
Q 3103 4656 3366 4563 
z
" transform="scale(0.015625)"/>
       </defs>
       <use xlink:href="#DejaVuSans-36"/>
       <use xlink:href="#DejaVuSans-30" x="63.623047"/>
      </g>
     </g>
    </g>
    <g id="xtick_5">
     <g id="line2d_5">
      <g>
       <use xlink:href="#m13aa7aa5ba" x="723.038992" y="256.32" style="stroke: #000000; stroke-width: 0.8"/>
      </g>
     </g>
     <g id="text_5">
      <!-- 80 -->
      <g transform="translate(716.676492 270.918437) scale(0.1 -0.1)">
       <defs>
        <path id="DejaVuSans-38" d="M 2034 2216 
Q 1584 2216 1326 1975 
Q 1069 1734 1069 1313 
Q 1069 891 1326 650 
Q 1584 409 2034 409 
Q 2484 409 2743 651 
Q 3003 894 3003 1313 
Q 3003 1734 2745 1975 
Q 2488 2216 2034 2216 
z
M 1403 2484 
Q 997 2584 770 2862 
Q 544 3141 544 3541 
Q 544 4100 942 4425 
Q 1341 4750 2034 4750 
Q 2731 4750 3128 4425 
Q 3525 4100 3525 3541 
Q 3525 3141 3298 2862 
Q 3072 2584 2669 2484 
Q 3125 2378 3379 2068 
Q 3634 1759 3634 1313 
Q 3634 634 3220 271 
Q 2806 -91 2034 -91 
Q 1263 -91 848 271 
Q 434 634 434 1313 
Q 434 1759 690 2068 
Q 947 2378 1403 2484 
z
M 1172 3481 
Q 1172 3119 1398 2916 
Q 1625 2713 2034 2713 
Q 2441 2713 2670 2916 
Q 2900 3119 2900 3481 
Q 2900 3844 2670 4047 
Q 2441 4250 2034 4250 
Q 1625 4250 1398 4047 
Q 1172 3844 1172 3481 
z
" transform="scale(0.015625)"/>
       </defs>
       <use xlink:href="#DejaVuSans-38"/>
       <use xlink:href="#DejaVuSans-30" x="63.623047"/>
      </g>
     </g>
    </g>
    <g id="xtick_6">
     <g id="line2d_6">
      <g>
       <use xlink:href="#m13aa7aa5ba" x="870.04874" y="256.32" style="stroke: #000000; stroke-width: 0.8"/>
      </g>
     </g>
     <g id="text_6">
      <!-- 100 -->
      <g transform="translate(860.50499 270.918437) scale(0.1 -0.1)">
       <defs>
        <path id="DejaVuSans-31" d="M 794 531 
L 1825 531 
L 1825 4091 
L 703 3866 
L 703 4441 
L 1819 4666 
L 2450 4666 
L 2450 531 
L 3481 531 
L 3481 0 
L 794 0 
L 794 531 
z
" transform="scale(0.015625)"/>
       </defs>
       <use xlink:href="#DejaVuSans-31"/>
       <use xlink:href="#DejaVuSans-30" x="63.623047"/>
       <use xlink:href="#DejaVuSans-30" x="127.246094"/>
      </g>
     </g>
    </g>
    <g id="text_7">
     <!-- time in process (seconds) -->
     <g transform="translate(489.328125 284.596563) scale(0.1 -0.1)">
      <defs>
       <path id="DejaVuSans-74" d="M 1172 4494 
L 1172 3500 
L 2356 3500 
L 2356 3053 
L 1172 3053 
L 1172 1153 
Q 1172 725 1289 603 
Q 1406 481 1766 481 
L 2356 481 
L 2356 0 
L 1766 0 
Q 1100 0 847 248 
Q 594 497 594 1153 
L 594 3053 
L 172 3053 
L 172 3500 
L 594 3500 
L 594 4494 
L 1172 4494 
z
" transform="scale(0.015625)"/>
       <path id="DejaVuSans-69" d="M 603 3500 
L 1178 3500 
L 1178 0 
L 603 0 
L 603 3500 
z
M 603 4863 
L 1178 4863 
L 1178 4134 
L 603 4134 
L 603 4863 
z
" transform="scale(0.015625)"/>
       <path id="DejaVuSans-6d" d="M 3328 2828 
Q 3544 3216 3844 3400 
Q 4144 3584 4550 3584 
Q 5097 3584 5394 3201 
Q 5691 2819 5691 2113 
L 5691 0 
L 5113 0 
L 5113 2094 
Q 5113 2597 4934 2840 
Q 4756 3084 4391 3084 
Q 3944 3084 3684 2787 
Q 3425 2491 3425 1978 
L 3425 0 
L 2847 0 
L 2847 2094 
Q 2847 2600 2669 2842 
Q 2491 3084 2119 3084 
Q 1678 3084 1418 2786 
Q 1159 2488 1159 1978 
L 1159 0 
L 581 0 
L 581 3500 
L 1159 3500 
L 1159 2956 
Q 1356 3278 1631 3431 
Q 1906 3584 2284 3584 
Q 2666 3584 2933 3390 
Q 3200 3197 3328 2828 
z
" transform="scale(0.015625)"/>
       <path id="DejaVuSans-65" d="M 3597 1894 
L 3597 1613 
L 953 1613 
Q 991 1019 1311 708 
Q 1631 397 2203 397 
Q 2534 397 2845 478 
Q 3156 559 3463 722 
L 3463 178 
Q 3153 47 2828 -22 
Q 2503 -91 2169 -91 
Q 1331 -91 842 396 
Q 353 884 353 1716 
Q 353 2575 817 3079 
Q 1281 3584 2069 3584 
Q 2775 3584 3186 3129 
Q 3597 2675 3597 1894 
z
M 3022 2063 
Q 3016 2534 2758 2815 
Q 2500 3097 2075 3097 
Q 1594 3097 1305 2825 
Q 1016 2553 972 2059 
L 3022 2063 
z
" transform="scale(0.015625)"/>
       <path id="DejaVuSans-20" transform="scale(0.015625)"/>
       <path id="DejaVuSans-6e" d="M 3513 2113 
L 3513 0 
L 2938 0 
L 2938 2094 
Q 2938 2591 2744 2837 
Q 2550 3084 2163 3084 
Q 1697 3084 1428 2787 
Q 1159 2491 1159 1978 
L 1159 0 
L 581 0 
L 581 3500 
L 1159 3500 
L 1159 2956 
Q 1366 3272 1645 3428 
Q 1925 3584 2291 3584 
Q 2894 3584 3203 3211 
Q 3513 2838 3513 2113 
z
" transform="scale(0.015625)"/>
       <path id="DejaVuSans-70" d="M 1159 525 
L 1159 -1331 
L 581 -1331 
L 581 3500 
L 1159 3500 
L 1159 2969 
Q 1341 3281 1617 3432 
Q 1894 3584 2278 3584 
Q 2916 3584 3314 3078 
Q 3713 2572 3713 1747 
Q 3713 922 3314 415 
Q 2916 -91 2278 -91 
Q 1894 -91 1617 61 
Q 1341 213 1159 525 
z
M 3116 1747 
Q 3116 2381 2855 2742 
Q 2594 3103 2138 3103 
Q 1681 3103 1420 2742 
Q 1159 2381 1159 1747 
Q 1159 1113 1420 752 
Q 1681 391 2138 391 
Q 2594 391 2855 752 
Q 3116 1113 3116 1747 
z
" transform="scale(0.015625)"/>
       <path id="DejaVuSans-72" d="M 2631 2963 
Q 2534 3019 2420 3045 
Q 2306 3072 2169 3072 
Q 1681 3072 1420 2755 
Q 1159 2438 1159 1844 
L 1159 0 
L 581 0 
L 581 3500 
L 1159 3500 
L 1159 2956 
Q 1341 3275 1631 3429 
Q 1922 3584 2338 3584 
Q 2397 3584 2469 3576 
Q 2541 3569 2628 3553 
L 2631 2963 
z
" transform="scale(0.015625)"/>
       <path id="DejaVuSans-6f" d="M 1959 3097 
Q 1497 3097 1228 2736 
Q 959 2375 959 1747 
Q 959 1119 1226 758 
Q 1494 397 1959 397 
Q 2419 397 2687 759 
Q 2956 1122 2956 1747 
Q 2956 2369 2687 2733 
Q 2419 3097 1959 3097 
z
M 1959 3584 
Q 2709 3584 3137 3096 
Q 3566 2609 3566 1747 
Q 3566 888 3137 398 
Q 2709 -91 1959 -91 
Q 1206 -91 779 398 
Q 353 888 353 1747 
Q 353 2609 779 3096 
Q 1206 3584 1959 3584 
z
" transform="scale(0.015625)"/>
       <path id="DejaVuSans-63" d="M 3122 3366 
L 3122 2828 
Q 2878 2963 2633 3030 
Q 2388 3097 2138 3097 
Q 1578 3097 1268 2742 
Q 959 2388 959 1747 
Q 959 1106 1268 751 
Q 1578 397 2138 397 
Q 2388 397 2633 464 
Q 2878 531 3122 666 
L 3122 134 
Q 2881 22 2623 -34 
Q 2366 -91 2075 -91 
Q 1284 -91 818 406 
Q 353 903 353 1747 
Q 353 2603 823 3093 
Q 1294 3584 2113 3584 
Q 2378 3584 2631 3529 
Q 2884 3475 3122 3366 
z
" transform="scale(0.015625)"/>
       <path id="DejaVuSans-73" d="M 2834 3397 
L 2834 2853 
Q 2591 2978 2328 3040 
Q 2066 3103 1784 3103 
Q 1356 3103 1142 2972 
Q 928 2841 928 2578 
Q 928 2378 1081 2264 
Q 1234 2150 1697 2047 
L 1894 2003 
Q 2506 1872 2764 1633 
Q 3022 1394 3022 966 
Q 3022 478 2636 193 
Q 2250 -91 1575 -91 
Q 1294 -91 989 -36 
Q 684 19 347 128 
L 347 722 
Q 666 556 975 473 
Q 1284 391 1588 391 
Q 1994 391 2212 530 
Q 2431 669 2431 922 
Q 2431 1156 2273 1281 
Q 2116 1406 1581 1522 
L 1381 1569 
Q 847 1681 609 1914 
Q 372 2147 372 2553 
Q 372 3047 722 3315 
Q 1072 3584 1716 3584 
Q 2034 3584 2315 3537 
Q 2597 3491 2834 3397 
z
" transform="scale(0.015625)"/>
       <path id="DejaVuSans-28" d="M 1984 4856 
Q 1566 4138 1362 3434 
Q 1159 2731 1159 2009 
Q 1159 1288 1364 580 
Q 1569 -128 1984 -844 
L 1484 -844 
Q 1016 -109 783 600 
Q 550 1309 550 2009 
Q 550 2706 781 3412 
Q 1013 4119 1484 4856 
L 1984 4856 
z
" transform="scale(0.015625)"/>
       <path id="DejaVuSans-64" d="M 2906 2969 
L 2906 4863 
L 3481 4863 
L 3481 0 
L 2906 0 
L 2906 525 
Q 2725 213 2448 61 
Q 2172 -91 1784 -91 
Q 1150 -91 751 415 
Q 353 922 353 1747 
Q 353 2572 751 3078 
Q 1150 3584 1784 3584 
Q 2172 3584 2448 3432 
Q 2725 3281 2906 2969 
z
M 947 1747 
Q 947 1113 1208 752 
Q 1469 391 1925 391 
Q 2381 391 2643 752 
Q 2906 1113 2906 1747 
Q 2906 2381 2643 2742 
Q 2381 3103 1925 3103 
Q 1469 3103 1208 2742 
Q 947 2381 947 1747 
z
" transform="scale(0.015625)"/>
       <path id="DejaVuSans-29" d="M 513 4856 
L 1013 4856 
Q 1481 4119 1714 3412 
Q 1947 2706 1947 2009 
Q 1947 1309 1714 600 
Q 1481 -109 1013 -844 
L 513 -844 
Q 928 -128 1133 580 
Q 1338 1288 1338 2009 
Q 1338 2731 1133 3434 
Q 928 4138 513 4856 
z
" transform="scale(0.015625)"/>
      </defs>
      <use xlink:href="#DejaVuSans-74"/>
      <use xlink:href="#DejaVuSans-69" x="39.208984"/>
      <use xlink:href="#DejaVuSans-6d" x="66.992188"/>
      <use xlink:href="#DejaVuSans-65" x="164.404297"/>
      <use xlink:href="#DejaVuSans-20" x="225.927734"/>
      <use xlink:href="#DejaVuSans-69" x="257.714844"/>
      <use xlink:href="#DejaVuSans-6e" x="285.498047"/>
      <use xlink:href="#DejaVuSans-20" x="348.876953"/>
      <use xlink:href="#DejaVuSans-70" x="380.664062"/>
      <use xlink:href="#DejaVuSans-72" x="444.140625"/>
      <use xlink:href="#DejaVuSans-6f" x="483.003906"/>
      <use xlink:href="#DejaVuSans-63" x="544.185547"/>
      <use xlink:href="#DejaVuSans-65" x="599.166016"/>
      <use xlink:href="#DejaVuSans-73" x="660.689453"/>
      <use xlink:href="#DejaVuSans-73" x="712.789062"/>
      <use xlink:href="#DejaVuSans-20" x="764.888672"/>
      <use xlink:href="#DejaVuSans-28" x="796.675781"/>
      <use xlink:href="#DejaVuSans-73" x="835.689453"/>
      <use xlink:href="#DejaVuSans-65" x="887.789062"/>
      <use xlink:href="#DejaVuSans-63" x="949.3125"/>
      <use xlink:href="#DejaVuSans-6f" x="1004.292969"/>
      <use xlink:href="#DejaVuSans-6e" x="1065.474609"/>
      <use xlink:href="#DejaVuSans-64" x="1128.853516"/>
      <use xlink:href="#DejaVuSans-73" x="1192.330078"/>
      <use xlink:href="#DejaVuSans-29" x="1244.429688"/>
     </g>
    </g>
   </g>
   <g id="matplotlib.axis_2">
    <g id="ytick_1">
     <g id="line2d_7">
      <defs>
       <path id="md178b596e7" d="M 0 0 
L -3.5 0 
" style="stroke: #000000; stroke-width: 0.8"/>
      </defs>
      <g>
       <use xlink:href="#md178b596e7" x="135" y="256.32" style="stroke: #000000; stroke-width: 0.8"/>
      </g>
     </g>
     <g id="text_8">
      <!-- 0 -->
      <g transform="translate(121.6375 260.119219) scale(0.1 -0.1)">
       <use xlink:href="#DejaVuSans-30"/>
      </g>
     </g>
    </g>
    <g id="ytick_2">
     <g id="line2d_8">
      <g>
       <use xlink:href="#md178b596e7" x="135" y="221.12" style="stroke: #000000; stroke-width: 0.8"/>
      </g>
     </g>
     <g id="text_9">
      <!-- 20 -->
      <g transform="translate(115.275 224.919219) scale(0.1 -0.1)">
       <use xlink:href="#DejaVuSans-32"/>
       <use xlink:href="#DejaVuSans-30" x="63.623047"/>
      </g>
     </g>
    </g>
    <g id="ytick_3">
     <g id="line2d_9">
      <g>
       <use xlink:href="#md178b596e7" x="135" y="185.92" style="stroke: #000000; stroke-width: 0.8"/>
      </g>
     </g>
     <g id="text_10">
      <!-- 40 -->
      <g transform="translate(115.275 189.719219) scale(0.1 -0.1)">
       <use xlink:href="#DejaVuSans-34"/>
       <use xlink:href="#DejaVuSans-30" x="63.623047"/>
      </g>
     </g>
    </g>
    <g id="ytick_4">
     <g id="line2d_10">
      <g>
       <use xlink:href="#md178b596e7" x="135" y="150.72" style="stroke: #000000; stroke-width: 0.8"/>
      </g>
     </g>
     <g id="text_11">
      <!-- 60 -->
      <g transform="translate(115.275 154.519219) scale(0.1 -0.1)">
       <use xlink:href="#DejaVuSans-36"/>
       <use xlink:href="#DejaVuSans-30" x="63.623047"/>
      </g>
     </g>
    </g>
    <g id="ytick_5">
     <g id="line2d_11">
      <g>
       <use xlink:href="#md178b596e7" x="135" y="115.52" style="stroke: #000000; stroke-width: 0.8"/>
      </g>
     </g>
     <g id="text_12">
      <!-- 80 -->
      <g transform="translate(115.275 119.319219) scale(0.1 -0.1)">
       <use xlink:href="#DejaVuSans-38"/>
       <use xlink:href="#DejaVuSans-30" x="63.623047"/>
      </g>
     </g>
    </g>
    <g id="ytick_6">
     <g id="line2d_12">
      <g>
       <use xlink:href="#md178b596e7" x="135" y="80.32" style="stroke: #000000; stroke-width: 0.8"/>
      </g>
     </g>
     <g id="text_13">
      <!-- 100 -->
      <g transform="translate(108.9125 84.119219) scale(0.1 -0.1)">
       <use xlink:href="#DejaVuSans-31"/>
       <use xlink:href="#DejaVuSans-30" x="63.623047"/>
       <use xlink:href="#DejaVuSans-30" x="127.246094"/>
      </g>
     </g>
    </g>
    <g id="ytick_7">
     <g id="line2d_13">
      <g>
       <use xlink:href="#md178b596e7" x="135" y="45.12" style="stroke: #000000; stroke-width: 0.8"/>
      </g>
     </g>
     <g id="text_14">
      <!-- 120 -->
      <g transform="translate(108.9125 48.919219) scale(0.1 -0.1)">
       <use xlink:href="#DejaVuSans-31"/>
       <use xlink:href="#DejaVuSans-32" x="63.623047"/>
       <use xlink:href="#DejaVuSans-30" x="127.246094"/>
      </g>
     </g>
    </g>
    <g id="text_15">
     <!-- % CPU usilization -->
     <g transform="translate(102.832812 188.740781) rotate(-90) scale(0.1 -0.1)">
      <defs>
       <path id="DejaVuSans-25" d="M 4653 2053 
Q 4381 2053 4226 1822 
Q 4072 1591 4072 1178 
Q 4072 772 4226 539 
Q 4381 306 4653 306 
Q 4919 306 5073 539 
Q 5228 772 5228 1178 
Q 5228 1588 5073 1820 
Q 4919 2053 4653 2053 
z
M 4653 2450 
Q 5147 2450 5437 2106 
Q 5728 1763 5728 1178 
Q 5728 594 5436 251 
Q 5144 -91 4653 -91 
Q 4153 -91 3862 251 
Q 3572 594 3572 1178 
Q 3572 1766 3864 2108 
Q 4156 2450 4653 2450 
z
M 1428 4353 
Q 1159 4353 1004 4120 
Q 850 3888 850 3481 
Q 850 3069 1003 2837 
Q 1156 2606 1428 2606 
Q 1700 2606 1854 2837 
Q 2009 3069 2009 3481 
Q 2009 3884 1853 4118 
Q 1697 4353 1428 4353 
z
M 4250 4750 
L 4750 4750 
L 1831 -91 
L 1331 -91 
L 4250 4750 
z
M 1428 4750 
Q 1922 4750 2215 4408 
Q 2509 4066 2509 3481 
Q 2509 2891 2217 2550 
Q 1925 2209 1428 2209 
Q 931 2209 642 2551 
Q 353 2894 353 3481 
Q 353 4063 643 4406 
Q 934 4750 1428 4750 
z
" transform="scale(0.015625)"/>
       <path id="DejaVuSans-43" d="M 4122 4306 
L 4122 3641 
Q 3803 3938 3442 4084 
Q 3081 4231 2675 4231 
Q 1875 4231 1450 3742 
Q 1025 3253 1025 2328 
Q 1025 1406 1450 917 
Q 1875 428 2675 428 
Q 3081 428 3442 575 
Q 3803 722 4122 1019 
L 4122 359 
Q 3791 134 3420 21 
Q 3050 -91 2638 -91 
Q 1578 -91 968 557 
Q 359 1206 359 2328 
Q 359 3453 968 4101 
Q 1578 4750 2638 4750 
Q 3056 4750 3426 4639 
Q 3797 4528 4122 4306 
z
" transform="scale(0.015625)"/>
       <path id="DejaVuSans-50" d="M 1259 4147 
L 1259 2394 
L 2053 2394 
Q 2494 2394 2734 2622 
Q 2975 2850 2975 3272 
Q 2975 3691 2734 3919 
Q 2494 4147 2053 4147 
L 1259 4147 
z
M 628 4666 
L 2053 4666 
Q 2838 4666 3239 4311 
Q 3641 3956 3641 3272 
Q 3641 2581 3239 2228 
Q 2838 1875 2053 1875 
L 1259 1875 
L 1259 0 
L 628 0 
L 628 4666 
z
" transform="scale(0.015625)"/>
       <path id="DejaVuSans-55" d="M 556 4666 
L 1191 4666 
L 1191 1831 
Q 1191 1081 1462 751 
Q 1734 422 2344 422 
Q 2950 422 3222 751 
Q 3494 1081 3494 1831 
L 3494 4666 
L 4128 4666 
L 4128 1753 
Q 4128 841 3676 375 
Q 3225 -91 2344 -91 
Q 1459 -91 1007 375 
Q 556 841 556 1753 
L 556 4666 
z
" transform="scale(0.015625)"/>
       <path id="DejaVuSans-75" d="M 544 1381 
L 544 3500 
L 1119 3500 
L 1119 1403 
Q 1119 906 1312 657 
Q 1506 409 1894 409 
Q 2359 409 2629 706 
Q 2900 1003 2900 1516 
L 2900 3500 
L 3475 3500 
L 3475 0 
L 2900 0 
L 2900 538 
Q 2691 219 2414 64 
Q 2138 -91 1772 -91 
Q 1169 -91 856 284 
Q 544 659 544 1381 
z
M 1991 3584 
L 1991 3584 
z
" transform="scale(0.015625)"/>
       <path id="DejaVuSans-6c" d="M 603 4863 
L 1178 4863 
L 1178 0 
L 603 0 
L 603 4863 
z
" transform="scale(0.015625)"/>
       <path id="DejaVuSans-7a" d="M 353 3500 
L 3084 3500 
L 3084 2975 
L 922 459 
L 3084 459 
L 3084 0 
L 275 0 
L 275 525 
L 2438 3041 
L 353 3041 
L 353 3500 
z
" transform="scale(0.015625)"/>
       <path id="DejaVuSans-61" d="M 2194 1759 
Q 1497 1759 1228 1600 
Q 959 1441 959 1056 
Q 959 750 1161 570 
Q 1363 391 1709 391 
Q 2188 391 2477 730 
Q 2766 1069 2766 1631 
L 2766 1759 
L 2194 1759 
z
M 3341 1997 
L 3341 0 
L 2766 0 
L 2766 531 
Q 2569 213 2275 61 
Q 1981 -91 1556 -91 
Q 1019 -91 701 211 
Q 384 513 384 1019 
Q 384 1609 779 1909 
Q 1175 2209 1959 2209 
L 2766 2209 
L 2766 2266 
Q 2766 2663 2505 2880 
Q 2244 3097 1772 3097 
Q 1472 3097 1187 3025 
Q 903 2953 641 2809 
L 641 3341 
Q 956 3463 1253 3523 
Q 1550 3584 1831 3584 
Q 2591 3584 2966 3190 
Q 3341 2797 3341 1997 
z
" transform="scale(0.015625)"/>
      </defs>
      <use xlink:href="#DejaVuSans-25"/>
      <use xlink:href="#DejaVuSans-20" x="95.019531"/>
      <use xlink:href="#DejaVuSans-43" x="126.806641"/>
      <use xlink:href="#DejaVuSans-50" x="196.630859"/>
      <use xlink:href="#DejaVuSans-55" x="256.933594"/>
      <use xlink:href="#DejaVuSans-20" x="330.126953"/>
      <use xlink:href="#DejaVuSans-75" x="361.914062"/>
      <use xlink:href="#DejaVuSans-73" x="425.292969"/>
      <use xlink:href="#DejaVuSans-69" x="477.392578"/>
      <use xlink:href="#DejaVuSans-6c" x="505.175781"/>
      <use xlink:href="#DejaVuSans-69" x="532.958984"/>
      <use xlink:href="#DejaVuSans-7a" x="560.742188"/>
      <use xlink:href="#DejaVuSans-61" x="613.232422"/>
      <use xlink:href="#DejaVuSans-74" x="674.511719"/>
      <use xlink:href="#DejaVuSans-69" x="713.720703"/>
      <use xlink:href="#DejaVuSans-6f" x="741.503906"/>
      <use xlink:href="#DejaVuSans-6e" x="802.685547"/>
     </g>
    </g>
   </g>
   <g id="line2d_14">
    <path d="M 135 256.32 
L 135.735049 256.32 
L 136.470097 240.304 
L 137.205146 80.32 
L 140.145341 80.32 
L 140.88039 62.72 
L 141.615439 80.32 
L 142.350487 62.72 
L 143.085536 80.32 
L 146.025731 80.32 
L 146.76078 96.336 
L 147.495829 80.32 
L 148.230877 80.32 
L 148.965926 62.72 
L 149.700975 80.32 
L 150.436024 80.32 
L 151.171072 62.72 
L 151.906121 80.32 
L 152.64117 62.72 
L 153.376218 80.32 
L 154.846316 80.32 
L 155.581365 62.72 
L 156.316413 80.32 
L 157.051462 80.32 
L 157.786511 96.336 
L 159.256608 62.72 
L 159.991657 80.32 
L 161.461755 80.32 
L 162.196803 62.72 
L 162.931852 80.32 
L 163.666901 62.72 
L 164.40195 80.32 
L 165.136998 80.32 
L 165.872047 62.72 
L 166.607096 80.32 
L 168.812242 80.32 
L 169.547291 96.336 
L 170.28234 62.72 
L 171.017388 62.72 
L 171.752437 80.32 
L 172.487486 80.32 
L 173.222534 62.72 
L 173.957583 97.92 
L 174.692632 62.72 
L 175.427681 62.72 
L 176.162729 80.32 
L 177.632827 80.32 
L 178.367876 62.72 
L 179.102924 80.32 
L 179.837973 80.32 
L 180.573022 62.72 
L 181.308071 96.336 
L 182.778168 62.72 
L 183.513217 80.32 
L 184.248266 80.32 
L 184.983314 62.72 
L 185.718363 80.32 
L 186.453412 80.32 
L 187.188461 62.72 
L 187.923509 80.32 
L 189.393607 80.32 
L 190.128655 62.72 
L 191.598753 96.336 
L 192.333802 80.32 
L 193.06885 80.32 
L 193.803899 62.72 
L 194.538948 62.72 
L 195.273997 80.32 
L 198.214192 80.32 
L 198.94924 62.72 
L 199.684289 62.72 
L 200.419338 80.32 
L 201.154387 80.32 
L 201.889435 96.336 
L 203.359533 62.72 
L 204.094582 80.32 
L 204.82963 62.72 
L 205.564679 80.32 
L 207.769825 80.32 
L 208.504874 62.72 
L 209.239923 62.72 
L 210.71002 96.336 
L 211.445069 80.32 
L 212.915166 80.32 
L 213.650215 62.72 
L 214.385264 62.72 
L 215.120313 80.32 
L 216.59041 80.32 
L 217.325459 62.72 
L 218.060508 80.32 
L 218.795556 62.72 
L 219.530605 97.92 
L 220.265654 62.72 
L 221.000703 80.32 
L 223.205849 80.32 
L 223.940898 62.72 
L 224.675946 80.32 
L 226.881092 80.32 
L 227.616141 62.72 
L 228.35119 80.32 
L 229.086239 62.72 
L 229.821287 80.32 
L 234.23158 80.32 
L 234.966629 62.72 
L 235.701677 80.32 
L 236.436726 80.32 
L 237.171775 62.72 
L 237.906824 80.32 
L 238.641872 80.32 
L 239.376921 62.72 
L 240.11197 80.32 
L 242.317116 80.32 
L 243.052165 62.72 
L 243.787213 80.32 
L 245.257311 80.32 
L 245.99236 62.72 
L 246.727408 80.32 
L 248.197506 80.32 
L 248.932555 62.72 
L 249.667603 80.32 
L 250.402652 62.72 
L 251.137701 96.336 
L 251.87275 80.32 
L 254.077896 80.32 
L 254.812945 45.12 
L 255.547993 80.32 
L 258.488188 80.32 
L 259.223237 62.72 
L 260.693335 96.336 
L 261.428383 62.72 
L 262.163432 62.72 
L 262.898481 80.32 
L 265.103627 80.32 
L 265.838676 62.72 
L 266.573724 80.32 
L 268.043822 80.32 
L 268.778871 62.72 
L 269.513919 80.32 
L 270.248968 80.32 
L 270.984017 62.72 
L 271.719066 80.32 
L 276.129358 80.32 
L 276.864407 62.72 
L 277.599456 62.72 
L 278.334504 80.32 
L 280.53965 80.32 
L 281.274699 62.72 
L 282.009748 80.32 
L 284.949943 80.32 
L 285.684992 62.72 
L 286.42004 80.32 
L 288.625187 80.32 
L 289.360235 62.72 
L 290.095284 80.32 
L 290.830333 62.72 
L 292.30043 96.336 
L 293.035479 62.72 
L 293.770528 80.32 
L 295.975674 80.32 
L 296.710723 62.72 
L 297.445771 62.72 
L 298.18082 80.32 
L 299.650918 80.32 
L 300.385966 62.72 
L 301.121015 80.32 
L 301.856064 62.72 
L 302.591113 96.336 
L 303.326161 80.32 
L 304.06121 80.32 
L 304.796259 62.72 
L 305.531308 80.32 
L 307.001405 80.32 
L 307.736454 62.72 
L 308.471503 80.32 
L 309.9416 80.32 
L 310.676649 62.72 
L 311.411698 80.32 
L 312.881795 80.32 
L 313.616844 96.336 
L 314.351893 62.72 
L 315.086941 62.72 
L 315.82199 80.32 
L 318.027136 80.32 
L 318.762185 62.72 
L 319.497234 80.32 
L 320.232282 80.32 
L 320.967331 62.72 
L 321.70238 80.32 
L 322.437429 62.72 
L 323.907526 96.336 
L 325.377624 62.72 
L 326.112672 80.32 
L 326.847721 80.32 
L 327.58277 62.72 
L 328.317819 80.32 
L 331.258014 80.32 
L 331.993062 45.12 
L 332.728111 80.32 
L 337.873452 80.32 
L 338.608501 45.12 
L 339.34355 80.32 
L 343.018793 80.32 
L 343.753842 62.72 
L 344.488891 62.72 
L 345.22394 80.32 
L 346.694037 80.32 
L 347.429086 96.336 
L 348.899183 62.72 
L 349.634232 80.32 
L 352.574427 80.32 
L 353.309476 62.72 
L 354.044524 62.72 
L 354.779573 80.32 
L 357.719768 80.32 
L 358.454817 62.72 
L 359.189866 80.32 
L 362.130061 80.32 
L 362.865109 62.72 
L 364.335207 97.92 
L 365.070256 45.12 
L 365.805304 80.32 
L 367.275402 80.32 
L 368.010451 62.72 
L 368.745499 97.92 
L 369.480548 80.32 
L 370.950645 80.32 
L 371.685694 62.72 
L 372.420743 80.32 
L 373.155792 62.72 
L 373.89084 80.32 
L 375.360938 80.32 
L 376.095987 62.72 
L 376.831035 80.32 
L 379.036182 80.32 
L 379.77123 62.72 
L 380.506279 80.32 
L 382.711425 80.32 
L 383.446474 62.72 
L 384.181523 80.32 
L 384.916572 80.32 
L 385.65162 62.72 
L 386.386669 80.32 
L 392.267059 80.32 
L 393.002108 62.72 
L 393.737156 62.72 
L 394.472205 80.32 
L 397.4124 80.32 
L 398.147449 62.72 
L 398.882498 80.32 
L 399.617546 62.72 
L 400.352595 80.32 
L 401.087644 80.32 
L 401.822693 96.336 
L 402.557741 80.32 
L 403.29279 80.32 
L 404.027839 62.72 
L 404.762888 80.32 
L 406.232985 80.32 
L 406.968034 62.72 
L 407.703082 80.32 
L 408.438131 62.72 
L 409.17318 80.32 
L 410.643277 80.32 
L 411.378326 62.72 
L 412.848424 96.336 
L 413.583472 80.32 
L 414.318521 80.32 
L 415.05357 62.72 
L 415.788619 80.32 
L 416.523667 62.72 
L 417.258716 80.32 
L 418.728814 80.32 
L 419.463862 62.72 
L 420.198911 97.92 
L 420.93396 62.72 
L 421.669009 80.32 
L 422.404057 62.72 
L 423.139106 80.32 
L 423.874155 80.32 
L 424.609203 96.336 
L 426.079301 62.72 
L 426.81435 62.72 
L 428.284447 97.92 
L 429.019496 62.72 
L 429.754545 62.72 
L 430.489593 80.32 
L 431.959691 80.32 
L 432.69474 62.72 
L 433.429788 80.32 
L 436.369983 80.32 
L 437.105032 62.72 
L 437.840081 80.32 
L 440.045227 80.32 
L 440.780276 62.72 
L 441.515324 62.72 
L 442.250373 80.32 
L 443.720471 80.32 
L 444.455519 96.336 
L 445.190568 62.72 
L 445.925617 80.32 
L 446.660666 80.32 
L 447.395714 62.72 
L 448.130763 80.32 
L 448.865812 80.32 
L 449.600861 62.72 
L 450.335909 80.32 
L 451.070958 80.32 
L 451.806007 62.72 
L 452.541056 96.336 
L 453.276104 80.32 
L 454.746202 80.32 
L 455.481251 62.72 
L 456.216299 62.72 
L 456.951348 80.32 
L 460.626592 80.32 
L 461.36164 62.72 
L 462.096689 62.72 
L 462.831738 80.32 
L 463.566787 80.32 
L 464.301835 96.336 
L 465.771933 62.72 
L 466.506982 80.32 
L 467.977079 80.32 
L 468.712128 62.72 
L 469.447177 80.32 
L 470.182225 80.32 
L 470.917274 62.72 
L 471.652323 80.32 
L 473.12242 80.32 
L 473.857469 62.72 
L 474.592518 80.32 
L 476.062615 80.32 
L 476.797664 96.336 
L 477.532713 62.72 
L 478.267761 80.32 
L 479.00281 62.72 
L 479.737859 80.32 
L 481.207956 80.32 
L 481.943005 62.72 
L 482.678054 80.32 
L 483.413103 62.72 
L 484.148151 80.32 
L 486.353298 80.32 
L 487.088346 96.336 
L 487.823395 62.72 
L 488.558444 80.32 
L 489.293493 80.32 
L 490.028541 62.72 
L 490.76359 80.32 
L 492.233688 80.32 
L 492.968736 62.72 
L 493.703785 80.32 
L 494.438834 80.32 
L 495.173882 62.72 
L 495.908931 80.32 
L 501.054272 80.32 
L 501.789321 62.72 
L 502.52437 80.32 
L 503.259419 62.72 
L 503.994467 80.32 
L 505.464565 80.32 
L 506.199614 62.72 
L 506.934662 80.32 
L 507.669711 62.72 
L 508.40476 80.32 
L 509.139809 80.32 
L 509.874857 96.336 
L 510.609906 62.72 
L 511.344955 80.32 
L 512.815052 80.32 
L 513.550101 62.72 
L 514.28515 62.72 
L 515.020198 80.32 
L 517.225345 80.32 
L 517.960393 62.72 
L 519.430491 96.336 
L 520.900588 62.72 
L 521.635637 62.72 
L 522.370686 80.32 
L 523.840783 80.32 
L 524.575832 62.72 
L 525.310881 80.32 
L 526.780978 80.32 
L 527.516027 62.72 
L 528.251076 62.72 
L 528.986125 96.336 
L 530.456222 62.72 
L 531.191271 80.32 
L 533.396417 80.32 
L 534.131466 62.72 
L 534.866514 80.32 
L 536.336612 80.32 
L 537.071661 62.72 
L 537.806709 62.72 
L 539.276807 96.336 
L 540.746904 62.72 
L 541.481953 80.32 
L 542.952051 80.32 
L 543.687099 62.72 
L 544.422148 80.32 
L 545.157197 62.72 
L 545.892246 80.32 
L 546.627294 80.32 
L 547.362343 62.72 
L 548.097392 80.32 
L 548.832441 80.32 
L 549.567489 96.336 
L 551.037587 62.72 
L 551.772635 80.32 
L 552.507684 80.32 
L 553.242733 62.72 
L 553.977782 80.32 
L 554.71283 80.32 
L 555.447879 62.72 
L 556.182928 80.32 
L 556.917977 80.32 
L 557.653025 62.72 
L 558.388074 80.32 
L 559.123123 80.32 
L 559.858172 62.72 
L 560.59322 96.336 
L 561.328269 80.32 
L 562.063318 80.32 
L 562.798367 62.72 
L 563.533415 80.32 
L 566.47361 80.32 
L 567.208659 62.72 
L 567.943708 62.72 
L 568.678756 80.32 
L 569.413805 80.32 
L 570.148854 62.72 
L 570.883903 96.336 
L 571.618951 80.32 
L 573.089049 80.32 
L 573.824098 62.72 
L 574.559146 80.32 
L 575.294195 80.32 
L 576.029244 62.72 
L 576.764293 80.32 
L 577.499341 80.32 
L 578.23439 62.72 
L 578.969439 80.32 
L 580.439536 80.32 
L 581.174585 62.72 
L 582.644683 96.336 
L 583.379731 80.32 
L 584.849829 80.32 
L 585.584877 45.12 
L 586.319926 80.32 
L 589.99517 80.32 
L 590.730219 62.72 
L 591.465267 80.32 
L 595.140511 80.32 
L 595.87556 62.72 
L 596.610609 62.72 
L 597.345657 80.32 
L 599.550804 80.32 
L 600.285852 62.72 
L 601.020901 80.32 
L 601.75595 80.32 
L 602.490999 96.336 
L 603.961096 62.72 
L 604.696145 62.72 
L 605.431193 80.32 
L 607.63634 80.32 
L 608.371388 62.72 
L 609.106437 80.32 
L 609.841486 80.32 
L 610.576535 62.72 
L 611.311583 80.32 
L 613.51673 80.32 
L 614.251778 96.336 
L 614.986827 62.72 
L 615.721876 80.32 
L 618.662071 80.32 
L 619.39712 62.72 
L 620.132168 80.32 
L 620.867217 62.72 
L 621.602266 80.32 
L 622.337314 80.32 
L 623.072363 62.72 
L 624.542461 96.336 
L 626.012558 62.72 
L 626.747607 80.32 
L 627.482656 80.32 
L 628.217704 62.72 
L 628.952753 80.32 
L 630.422851 80.32 
L 631.157899 62.72 
L 631.892948 80.32 
L 634.098094 80.32 
L 634.833143 62.72 
L 635.568192 80.32 
L 639.978484 80.32 
L 640.713533 62.72 
L 641.448582 80.32 
L 642.918679 80.32 
L 643.653728 45.12 
L 644.388777 80.32 
L 645.123825 80.32 
L 645.858874 96.336 
L 646.593923 80.32 
L 647.328972 80.32 
L 648.06402 62.72 
L 648.799069 80.32 
L 650.269167 80.32 
L 651.004215 62.72 
L 651.739264 80.32 
L 653.94441 80.32 
L 654.679459 62.72 
L 655.414508 96.336 
L 656.149557 80.32 
L 657.619654 80.32 
L 658.354703 62.72 
L 659.089751 80.32 
L 659.8248 80.32 
L 660.559849 62.72 
L 661.294898 80.32 
L 662.029946 62.72 
L 662.764995 80.32 
L 663.500044 80.32 
L 664.235093 96.336 
L 664.970141 80.32 
L 667.175288 80.32 
L 667.910336 62.72 
L 668.645385 62.72 
L 669.380434 80.32 
L 672.320629 80.32 
L 673.055678 62.72 
L 673.790726 96.336 
L 674.525775 80.32 
L 676.730921 80.32 
L 677.46597 62.72 
L 678.201019 80.32 
L 678.936067 80.32 
L 679.671116 62.72 
L 680.406165 80.32 
L 682.611311 80.32 
L 683.34636 62.72 
L 684.816457 96.336 
L 686.286555 62.72 
L 687.021604 80.32 
L 690.696847 80.32 
L 691.431896 62.72 
L 692.166945 80.32 
L 692.901994 62.72 
L 694.372091 96.336 
L 695.10714 80.32 
L 695.842188 80.32 
L 696.577237 62.72 
L 697.312286 80.32 
L 698.047335 80.32 
L 698.782383 62.72 
L 699.517432 80.32 
L 703.192676 80.32 
L 703.927725 45.12 
L 704.662773 96.336 
L 705.397822 80.32 
L 709.073066 80.32 
L 709.808115 62.72 
L 710.543163 80.32 
L 712.013261 80.32 
L 712.748309 62.72 
L 714.218407 96.336 
L 715.688504 62.72 
L 716.423553 80.32 
L 719.363748 80.32 
L 720.098797 62.72 
L 720.833846 80.32 
L 721.568894 80.32 
L 722.303943 62.72 
L 723.038992 96.336 
L 723.774041 80.32 
L 727.449284 80.32 
L 728.184333 45.12 
L 728.919382 80.32 
L 731.859577 80.32 
L 732.594625 96.336 
L 733.329674 62.72 
L 734.064723 80.32 
L 736.269869 80.32 
L 737.004918 62.72 
L 737.739967 80.32 
L 739.945113 80.32 
L 740.680162 62.72 
L 742.150259 96.336 
L 743.620357 62.72 
L 744.355405 80.32 
L 749.500746 80.32 
L 750.235795 62.72 
L 750.970844 80.32 
L 756.116185 80.32 
L 756.851234 62.72 
L 757.586283 80.32 
L 761.261526 80.32 
L 761.996575 62.72 
L 762.731624 96.336 
L 763.466673 80.32 
L 764.93677 80.32 
L 765.671819 62.72 
L 766.406867 80.32 
L 771.552209 80.32 
L 772.287257 96.336 
L 773.022306 62.72 
L 773.757355 80.32 
L 775.962501 80.32 
L 776.69755 62.72 
L 777.432599 80.32 
L 781.107842 80.32 
L 781.842891 96.336 
L 782.57794 80.32 
L 784.783086 80.32 
L 785.518135 62.72 
L 786.253183 80.32 
L 786.988232 62.72 
L 787.723281 80.32 
L 789.928427 80.32 
L 790.663476 256.32 
L 792.133573 256.32 
L 792.133573 256.32 
" clip-path="url(#p955992c5c7)" style="fill: none; stroke: #1f77b4; stroke-width: 1.5; stroke-linecap: square"/>
   </g>
   <g id="line2d_15">
    <path d="M 135 256.32 
L 135.735049 256.32 
L 136.470097 97.92 
L 137.205146 80.32 
L 138.675244 80.32 
L 139.410292 96.336 
L 140.145341 80.32 
L 142.350487 80.32 
L 143.085536 62.72 
L 143.820585 80.32 
L 151.171072 80.32 
L 151.906121 96.336 
L 152.64117 80.32 
L 159.256608 80.32 
L 159.991657 62.72 
L 160.726706 80.32 
L 171.752437 80.32 
L 172.487486 96.336 
L 173.222534 80.32 
L 176.162729 80.32 
L 176.897778 62.72 
L 177.632827 97.92 
L 178.367876 62.72 
L 179.102924 80.32 
L 192.333802 80.32 
L 193.06885 96.336 
L 193.803899 80.32 
L 194.538948 80.32 
L 195.273997 62.72 
L 196.009045 80.32 
L 209.974971 80.32 
L 210.71002 62.72 
L 211.445069 80.32 
L 214.385264 80.32 
L 215.120313 96.336 
L 215.855361 80.32 
L 224.675946 80.32 
L 225.410995 62.72 
L 226.146044 97.92 
L 226.881092 62.72 
L 227.616141 80.32 
L 228.35119 80.32 
L 229.086239 62.72 
L 230.556336 97.92 
L 231.291385 62.72 
L 232.026434 80.32 
L 234.966629 80.32 
L 235.701677 96.336 
L 236.436726 80.32 
L 251.87275 80.32 
L 252.607798 62.72 
L 253.342847 80.32 
L 254.077896 80.32 
L 254.812945 62.72 
L 255.547993 80.32 
L 257.018091 80.32 
L 257.75314 96.336 
L 258.488188 80.32 
L 268.778871 80.32 
L 269.513919 62.72 
L 270.248968 80.32 
L 276.129358 80.32 
L 276.864407 96.336 
L 277.599456 80.32 
L 282.744797 80.32 
L 283.479845 62.72 
L 284.214894 80.32 
L 296.710723 80.32 
L 297.445771 96.336 
L 298.18082 62.72 
L 298.915869 80.32 
L 312.146746 80.32 
L 312.881795 62.72 
L 313.616844 80.32 
L 318.762185 80.32 
L 319.497234 96.336 
L 320.232282 80.32 
L 330.522965 80.32 
L 331.258014 62.72 
L 331.993062 80.32 
L 340.078598 80.32 
L 340.813647 96.336 
L 341.548696 80.32 
L 347.429086 80.32 
L 348.164135 62.72 
L 348.899183 80.32 
L 359.924914 80.32 
L 360.659963 96.336 
L 361.395012 80.32 
L 362.130061 80.32 
L 362.865109 62.72 
L 363.600158 80.32 
L 373.155792 80.32 
L 373.89084 62.72 
L 374.625889 80.32 
L 381.241328 80.32 
L 381.976377 96.336 
L 382.711425 80.32 
L 385.65162 80.32 
L 386.386669 62.72 
L 387.121718 80.32 
L 402.557741 80.32 
L 403.29279 96.336 
L 404.027839 80.32 
L 406.232985 80.32 
L 406.968034 62.72 
L 407.703082 80.32 
L 410.643277 80.32 
L 411.378326 62.72 
L 412.113375 80.32 
L 422.404057 80.32 
L 423.139106 96.336 
L 423.874155 80.32 
L 426.81435 80.32 
L 427.549398 62.72 
L 428.284447 80.32 
L 442.985422 80.32 
L 443.720471 62.72 
L 444.455519 96.336 
L 445.190568 80.32 
L 460.626592 80.32 
L 461.36164 62.72 
L 462.096689 80.32 
L 462.831738 80.32 
L 463.566787 62.72 
L 464.301835 80.32 
L 465.036884 80.32 
L 465.771933 96.336 
L 466.506982 80.32 
L 482.678054 80.32 
L 483.413103 62.72 
L 484.148151 80.32 
L 486.353298 80.32 
L 487.088346 96.336 
L 487.823395 80.32 
L 503.259419 80.32 
L 503.994467 62.72 
L 504.729516 80.32 
L 506.934662 80.32 
L 507.669711 62.72 
L 508.40476 96.336 
L 509.139809 80.32 
L 528.251076 80.32 
L 528.986125 96.336 
L 529.721173 80.32 
L 531.191271 80.32 
L 531.926319 62.72 
L 532.661368 80.32 
L 533.396417 80.32 
L 534.131466 62.72 
L 534.866514 80.32 
L 548.097392 80.32 
L 548.832441 96.336 
L 549.567489 80.32 
L 556.182928 80.32 
L 556.917977 62.72 
L 557.653025 80.32 
L 567.208659 80.32 
L 567.943708 96.336 
L 569.413805 62.72 
L 570.148854 80.32 
L 572.354 80.32 
L 573.089049 62.72 
L 573.824098 80.32 
L 587.054975 80.32 
L 587.790024 96.336 
L 588.525072 80.32 
L 590.730219 80.32 
L 591.465267 62.72 
L 592.200316 97.92 
L 593.670414 62.72 
L 594.405462 97.92 
L 595.87556 62.72 
L 596.610609 80.32 
L 607.63634 80.32 
L 608.371388 96.336 
L 609.106437 80.32 
L 610.576535 80.32 
L 611.311583 62.72 
L 612.046632 80.32 
L 612.781681 80.32 
L 613.51673 62.72 
L 614.251778 80.32 
L 626.012558 80.32 
L 626.747607 62.72 
L 627.482656 97.92 
L 628.217704 62.72 
L 628.952753 96.336 
L 629.687802 80.32 
L 642.918679 80.32 
L 643.653728 62.72 
L 644.388777 80.32 
L 647.328972 80.32 
L 648.06402 96.336 
L 648.799069 80.32 
L 653.94441 80.32 
L 654.679459 62.72 
L 655.414508 80.32 
L 665.70519 80.32 
L 666.440239 96.336 
L 667.175288 80.32 
L 668.645385 80.32 
L 669.380434 62.72 
L 670.115483 80.32 
L 686.286555 80.32 
L 687.021604 62.72 
L 687.756652 80.32 
L 688.491701 80.32 
L 689.22675 96.336 
L 689.961799 80.32 
L 702.457627 80.32 
L 703.192676 62.72 
L 703.927725 80.32 
L 709.073066 80.32 
L 709.808115 96.336 
L 710.543163 80.32 
L 720.098797 80.32 
L 720.833846 62.72 
L 721.568894 80.32 
L 722.303943 80.32 
L 723.038992 62.72 
L 723.774041 80.32 
L 728.919382 80.32 
L 729.65443 96.336 
L 730.389479 80.32 
L 739.210064 80.32 
L 739.945113 62.72 
L 740.680162 97.92 
L 742.150259 62.72 
L 742.885308 80.32 
L 750.970844 80.32 
L 751.705893 96.336 
L 752.440941 80.32 
L 753.911039 80.32 
L 754.646088 256.32 
L 756.116185 256.32 
L 756.116185 256.32 
" clip-path="url(#p955992c5c7)" style="fill: none; stroke-dasharray: 9.6,2.4,1.5,2.4; stroke-dashoffset: 0; stroke: #1f77b4; stroke-width: 1.5"/>
   </g>
   <g id="line2d_16">
    <path d="M 135 256.32 
L 135.735049 256.32 
L 136.470097 97.92 
L 137.205146 80.32 
L 139.410292 80.32 
L 140.145341 62.72 
L 140.88039 80.32 
L 143.820585 80.32 
L 144.555634 96.336 
L 145.290682 80.32 
L 151.906121 80.32 
L 152.64117 62.72 
L 153.376218 80.32 
L 154.846316 80.32 
L 155.581365 96.336 
L 156.316413 80.32 
L 163.666901 80.32 
L 164.40195 62.72 
L 165.136998 96.336 
L 165.872047 80.32 
L 174.692632 80.32 
L 175.427681 96.336 
L 176.162729 62.72 
L 176.897778 80.32 
L 179.837973 80.32 
L 180.573022 62.72 
L 181.308071 80.32 
L 183.513217 80.32 
L 184.248266 96.336 
L 185.718363 62.72 
L 186.453412 80.32 
L 193.803899 80.32 
L 194.538948 96.336 
L 195.273997 80.32 
L 208.504874 80.32 
L 209.239923 62.72 
L 209.974971 80.32 
L 213.650215 80.32 
L 214.385264 96.336 
L 215.120313 80.32 
L 225.410995 80.32 
L 226.146044 62.72 
L 226.881092 80.32 
L 234.966629 80.32 
L 235.701677 96.336 
L 236.436726 80.32 
L 251.137701 80.32 
L 251.87275 62.72 
L 252.607798 80.32 
L 258.488188 80.32 
L 259.223237 96.336 
L 259.958286 80.32 
L 280.53965 80.32 
L 281.274699 96.336 
L 282.009748 80.32 
L 291.565382 80.32 
L 292.30043 62.72 
L 293.035479 80.32 
L 295.975674 80.32 
L 296.710723 62.72 
L 297.445771 80.32 
L 301.856064 80.32 
L 302.591113 96.336 
L 303.326161 80.32 
L 343.018793 80.32 
L 343.753842 96.336 
L 344.488891 80.32 
L 354.044524 80.32 
L 354.779573 62.72 
L 355.514622 80.32 
L 363.600158 80.32 
L 364.335207 96.336 
L 365.070256 80.32 
L 365.805304 80.32 
L 366.540353 62.72 
L 367.275402 97.92 
L 368.010451 80.32 
L 368.745499 80.32 
L 369.480548 62.72 
L 370.215597 80.32 
L 385.65162 80.32 
L 386.386669 96.336 
L 387.121718 80.32 
L 404.762888 80.32 
L 405.497936 62.72 
L 406.232985 80.32 
L 428.284447 80.32 
L 429.019496 96.336 
L 429.754545 80.32 
L 437.105032 80.32 
L 437.840081 62.72 
L 438.57513 80.32 
L 440.045227 80.32 
L 440.780276 97.92 
L 441.515324 80.32 
L 442.250373 80.32 
L 442.985422 62.72 
L 443.720471 80.32 
L 450.335909 80.32 
L 451.070958 96.336 
L 451.806007 80.32 
L 504.729516 80.32 
L 505.464565 62.72 
L 506.199614 80.32 
L 515.755247 80.32 
L 516.490296 96.336 
L 517.225345 80.32 
L 532.661368 80.32 
L 533.396417 62.72 
L 534.131466 80.32 
L 537.071661 80.32 
L 537.806709 96.336 
L 538.541758 80.32 
L 558.388074 80.32 
L 559.123123 96.336 
L 559.858172 80.32 
L 560.59322 80.32 
L 561.328269 62.72 
L 562.063318 80.32 
L 579.704488 80.32 
L 580.439536 96.336 
L 581.174585 80.32 
L 587.790024 80.32 
L 588.525072 62.72 
L 589.260121 80.32 
L 590.730219 80.32 
L 591.465267 62.72 
L 592.200316 97.92 
L 593.670414 62.72 
L 594.405462 80.32 
L 601.020901 80.32 
L 601.75595 96.336 
L 602.490999 80.32 
L 620.867217 80.32 
L 621.602266 62.72 
L 623.072363 96.336 
L 623.807412 80.32 
L 639.978484 80.32 
L 640.713533 62.72 
L 641.448582 80.32 
L 644.388777 80.32 
L 645.123825 96.336 
L 645.858874 80.32 
L 666.440239 80.32 
L 667.175288 96.336 
L 667.910336 80.32 
L 675.995872 80.32 
L 676.730921 62.72 
L 677.46597 80.32 
L 680.406165 80.32 
L 681.141214 62.72 
L 681.876262 80.32 
L 687.756652 80.32 
L 688.491701 96.336 
L 689.22675 80.32 
L 708.338017 80.32 
L 709.073066 96.336 
L 709.808115 80.32 
L 722.303943 80.32 
L 723.038992 62.72 
L 723.774041 80.32 
L 728.184333 80.32 
L 728.919382 96.336 
L 729.65443 80.32 
L 734.064723 80.32 
L 734.799772 62.72 
L 735.53482 80.32 
L 763.466673 80.32 
L 764.201721 238.72 
L 764.93677 256.32 
L 766.406867 256.32 
L 766.406867 256.32 
" clip-path="url(#p955992c5c7)" style="fill: none; stroke-dasharray: 1.5,2.475; stroke-dashoffset: 0; stroke: #1f77b4; stroke-width: 1.5"/>
   </g>
   <g id="patch_3">
    <path d="M 135 256.32 
L 135 34.56 
" style="fill: none; stroke: #000000; stroke-width: 0.8; stroke-linejoin: miter; stroke-linecap: square"/>
   </g>
   <g id="patch_4">
    <path d="M 972 256.32 
L 972 34.56 
" style="fill: none; stroke: #000000; stroke-width: 0.8; stroke-linejoin: miter; stroke-linecap: square"/>
   </g>
   <g id="patch_5">
    <path d="M 135 256.32 
L 972 256.32 
" style="fill: none; stroke: #000000; stroke-width: 0.8; stroke-linejoin: miter; stroke-linecap: square"/>
   </g>
   <g id="patch_6">
    <path d="M 135 34.56 
L 972 34.56 
" style="fill: none; stroke: #000000; stroke-width: 0.8; stroke-linejoin: miter; stroke-linecap: square"/>
   </g>
   <g id="legend_1">
    <g id="patch_7">
     <path d="M 824.742188 86.594375 
L 965 86.594375 
Q 967 86.594375 967 84.594375 
L 967 41.56 
Q 967 39.56 965 39.56 
L 824.742188 39.56 
Q 822.742188 39.56 822.742188 41.56 
L 822.742188 84.594375 
Q 822.742188 86.594375 824.742188 86.594375 
z
" style="fill: #ffffff; opacity: 0.8; stroke: #cccccc; stroke-linejoin: miter"/>
    </g>
    <g id="line2d_17">
     <path d="M 826.742188 47.658438 
L 836.742188 47.658438 
L 846.742188 47.658438 
" style="fill: none; stroke: #1f77b4; stroke-width: 1.5; stroke-linecap: square"/>
    </g>
    <g id="text_16">
     <!-- 16 GIL-bound threads -->
     <g transform="translate(854.742188 51.158438) scale(0.1 -0.1)">
      <defs>
       <path id="DejaVuSans-47" d="M 3809 666 
L 3809 1919 
L 2778 1919 
L 2778 2438 
L 4434 2438 
L 4434 434 
Q 4069 175 3628 42 
Q 3188 -91 2688 -91 
Q 1594 -91 976 548 
Q 359 1188 359 2328 
Q 359 3472 976 4111 
Q 1594 4750 2688 4750 
Q 3144 4750 3555 4637 
Q 3966 4525 4313 4306 
L 4313 3634 
Q 3963 3931 3569 4081 
Q 3175 4231 2741 4231 
Q 1884 4231 1454 3753 
Q 1025 3275 1025 2328 
Q 1025 1384 1454 906 
Q 1884 428 2741 428 
Q 3075 428 3337 486 
Q 3600 544 3809 666 
z
" transform="scale(0.015625)"/>
       <path id="DejaVuSans-49" d="M 628 4666 
L 1259 4666 
L 1259 0 
L 628 0 
L 628 4666 
z
" transform="scale(0.015625)"/>
       <path id="DejaVuSans-4c" d="M 628 4666 
L 1259 4666 
L 1259 531 
L 3531 531 
L 3531 0 
L 628 0 
L 628 4666 
z
" transform="scale(0.015625)"/>
       <path id="DejaVuSans-2d" d="M 313 2009 
L 1997 2009 
L 1997 1497 
L 313 1497 
L 313 2009 
z
" transform="scale(0.015625)"/>
       <path id="DejaVuSans-62" d="M 3116 1747 
Q 3116 2381 2855 2742 
Q 2594 3103 2138 3103 
Q 1681 3103 1420 2742 
Q 1159 2381 1159 1747 
Q 1159 1113 1420 752 
Q 1681 391 2138 391 
Q 2594 391 2855 752 
Q 3116 1113 3116 1747 
z
M 1159 2969 
Q 1341 3281 1617 3432 
Q 1894 3584 2278 3584 
Q 2916 3584 3314 3078 
Q 3713 2572 3713 1747 
Q 3713 922 3314 415 
Q 2916 -91 2278 -91 
Q 1894 -91 1617 61 
Q 1341 213 1159 525 
L 1159 0 
L 581 0 
L 581 4863 
L 1159 4863 
L 1159 2969 
z
" transform="scale(0.015625)"/>
       <path id="DejaVuSans-68" d="M 3513 2113 
L 3513 0 
L 2938 0 
L 2938 2094 
Q 2938 2591 2744 2837 
Q 2550 3084 2163 3084 
Q 1697 3084 1428 2787 
Q 1159 2491 1159 1978 
L 1159 0 
L 581 0 
L 581 4863 
L 1159 4863 
L 1159 2956 
Q 1366 3272 1645 3428 
Q 1925 3584 2291 3584 
Q 2894 3584 3203 3211 
Q 3513 2838 3513 2113 
z
" transform="scale(0.015625)"/>
      </defs>
      <use xlink:href="#DejaVuSans-31"/>
      <use xlink:href="#DejaVuSans-36" x="63.623047"/>
      <use xlink:href="#DejaVuSans-20" x="127.246094"/>
      <use xlink:href="#DejaVuSans-47" x="159.033203"/>
      <use xlink:href="#DejaVuSans-49" x="236.523438"/>
      <use xlink:href="#DejaVuSans-4c" x="266.015625"/>
      <use xlink:href="#DejaVuSans-2d" x="319.978516"/>
      <use xlink:href="#DejaVuSans-62" x="356.0625"/>
      <use xlink:href="#DejaVuSans-6f" x="419.539062"/>
      <use xlink:href="#DejaVuSans-75" x="480.720703"/>
      <use xlink:href="#DejaVuSans-6e" x="544.099609"/>
      <use xlink:href="#DejaVuSans-64" x="607.478516"/>
      <use xlink:href="#DejaVuSans-20" x="670.955078"/>
      <use xlink:href="#DejaVuSans-74" x="702.742188"/>
      <use xlink:href="#DejaVuSans-68" x="741.951172"/>
      <use xlink:href="#DejaVuSans-72" x="805.330078"/>
      <use xlink:href="#DejaVuSans-65" x="844.193359"/>
      <use xlink:href="#DejaVuSans-61" x="905.716797"/>
      <use xlink:href="#DejaVuSans-64" x="966.996094"/>
      <use xlink:href="#DejaVuSans-73" x="1030.472656"/>
     </g>
    </g>
    <g id="line2d_18">
     <path d="M 826.742188 62.336563 
L 836.742188 62.336563 
L 846.742188 62.336563 
" style="fill: none; stroke-dasharray: 9.6,2.4,1.5,2.4; stroke-dashoffset: 0; stroke: #1f77b4; stroke-width: 1.5"/>
    </g>
    <g id="text_17">
     <!-- 2 GIL-bound threads -->
     <g transform="translate(854.742188 65.836563) scale(0.1 -0.1)">
      <use xlink:href="#DejaVuSans-32"/>
      <use xlink:href="#DejaVuSans-20" x="63.623047"/>
      <use xlink:href="#DejaVuSans-47" x="95.410156"/>
      <use xlink:href="#DejaVuSans-49" x="172.900391"/>
      <use xlink:href="#DejaVuSans-4c" x="202.392578"/>
      <use xlink:href="#DejaVuSans-2d" x="256.355469"/>
      <use xlink:href="#DejaVuSans-62" x="292.439453"/>
      <use xlink:href="#DejaVuSans-6f" x="355.916016"/>
      <use xlink:href="#DejaVuSans-75" x="417.097656"/>
      <use xlink:href="#DejaVuSans-6e" x="480.476562"/>
      <use xlink:href="#DejaVuSans-64" x="543.855469"/>
      <use xlink:href="#DejaVuSans-20" x="607.332031"/>
      <use xlink:href="#DejaVuSans-74" x="639.119141"/>
      <use xlink:href="#DejaVuSans-68" x="678.328125"/>
      <use xlink:href="#DejaVuSans-72" x="741.707031"/>
      <use xlink:href="#DejaVuSans-65" x="780.570312"/>
      <use xlink:href="#DejaVuSans-61" x="842.09375"/>
      <use xlink:href="#DejaVuSans-64" x="903.373047"/>
      <use xlink:href="#DejaVuSans-73" x="966.849609"/>
     </g>
    </g>
    <g id="line2d_19">
     <path d="M 826.742188 77.014688 
L 836.742188 77.014688 
L 846.742188 77.014688 
" style="fill: none; stroke-dasharray: 1.5,2.475; stroke-dashoffset: 0; stroke: #1f77b4; stroke-width: 1.5"/>
    </g>
    <g id="text_18">
     <!-- 1 GIL-bound thread -->
     <g transform="translate(854.742188 80.514688) scale(0.1 -0.1)">
      <use xlink:href="#DejaVuSans-31"/>
      <use xlink:href="#DejaVuSans-20" x="63.623047"/>
      <use xlink:href="#DejaVuSans-47" x="95.410156"/>
      <use xlink:href="#DejaVuSans-49" x="172.900391"/>
      <use xlink:href="#DejaVuSans-4c" x="202.392578"/>
      <use xlink:href="#DejaVuSans-2d" x="256.355469"/>
      <use xlink:href="#DejaVuSans-62" x="292.439453"/>
      <use xlink:href="#DejaVuSans-6f" x="355.916016"/>
      <use xlink:href="#DejaVuSans-75" x="417.097656"/>
      <use xlink:href="#DejaVuSans-6e" x="480.476562"/>
      <use xlink:href="#DejaVuSans-64" x="543.855469"/>
      <use xlink:href="#DejaVuSans-20" x="607.332031"/>
      <use xlink:href="#DejaVuSans-74" x="639.119141"/>
      <use xlink:href="#DejaVuSans-68" x="678.328125"/>
      <use xlink:href="#DejaVuSans-72" x="741.707031"/>
      <use xlink:href="#DejaVuSans-65" x="780.570312"/>
      <use xlink:href="#DejaVuSans-61" x="842.09375"/>
      <use xlink:href="#DejaVuSans-64" x="903.373047"/>
     </g>
    </g>
   </g>
  </g>
 </g>
 <defs>
  <clipPath id="p955992c5c7">
   <rect x="135" y="34.56" width="837" height="221.76"/>
  </clipPath>
 </defs>
</svg>
