<?xml version="1.0" encoding="utf-8" standalone="no"?>
<!DOCTYPE svg PUBLIC "-//W3C//DTD SVG 1.1//EN"
  "http://www.w3.org/Graphics/SVG/1.1/DTD/svg11.dtd">
<svg xmlns:xlink="http://www.w3.org/1999/xlink" width="576pt" height="360pt" viewBox="0 0 576 360" xmlns="http://www.w3.org/2000/svg" version="1.1">
 <metadata>
  <rdf:RDF xmlns:dc="http://purl.org/dc/elements/1.1/" xmlns:cc="http://creativecommons.org/ns#" xmlns:rdf="http://www.w3.org/1999/02/22-rdf-syntax-ns#">
   <cc:Work>
    <dc:type rdf:resource="http://purl.org/dc/dcmitype/StillImage"/>
    <dc:date>2024-10-07T19:07:37.078755</dc:date>
    <dc:format>image/svg+xml</dc:format>
    <dc:creator>
     <cc:Agent>
      <dc:title>Matplotlib v3.8.4, https://matplotlib.org/</dc:title>
     </cc:Agent>
    </dc:creator>
   </cc:Work>
  </rdf:RDF>
 </metadata>
 <defs>
  <style type="text/css">*{stroke-linejoin: round; stroke-linecap: butt}</style>
 </defs>
 <g id="figure_1">
  <g id="patch_1">
   <path d="M 0 360 
L 576 360 
L 576 0 
L 0 0 
z
" style="fill: #ffffff"/>
  </g>
  <g id="axes_1">
   <g id="patch_2">
    <path d="M 72 320.4 
L 518.4 320.4 
L 518.4 43.2 
L 72 43.2 
z
" style="fill: #ffffff"/>
   </g>
   <g id="matplotlib.axis_1">
    <g id="xtick_1">
     <g id="line2d_1">
      <defs>
       <path id="m862382aa2e" d="M 0 0 
L 0 3.5 
" style="stroke: #000000; stroke-width: 0.8"/>
      </defs>
      <g>
       <use xlink:href="#m862382aa2e" x="72" y="320.4" style="stroke: #000000; stroke-width: 0.8"/>
      </g>
     </g>
     <g id="text_1">
      <!-- 0 -->
      <g transform="translate(68.81875 334.998438) scale(0.1 -0.1)">
       <defs>
        <path id="DejaVuSans-30" d="M 2034 4250 
Q 1547 4250 1301 3770 
Q 1056 3291 1056 2328 
Q 1056 1369 1301 889 
Q 1547 409 2034 409 
Q 2525 409 2770 889 
Q 3016 1369 3016 2328 
Q 3016 3291 2770 3770 
Q 2525 4250 2034 4250 
z
M 2034 4750 
Q 2819 4750 3233 4129 
Q 3647 3509 3647 2328 
Q 3647 1150 3233 529 
Q 2819 -91 2034 -91 
Q 1250 -91 836 529 
Q 422 1150 422 2328 
Q 422 3509 836 4129 
Q 1250 4750 2034 4750 
z
" transform="scale(0.015625)"/>
       </defs>
       <use xlink:href="#DejaVuSans-30"/>
      </g>
     </g>
    </g>
    <g id="xtick_2">
     <g id="line2d_2">
      <g>
       <use xlink:href="#m862382aa2e" x="127.8" y="320.4" style="stroke: #000000; stroke-width: 0.8"/>
      </g>
     </g>
     <g id="text_2">
      <!-- 25 -->
      <g transform="translate(121.4375 334.998438) scale(0.1 -0.1)">
       <defs>
        <path id="DejaVuSans-32" d="M 1228 531 
L 3431 531 
L 3431 0 
L 469 0 
L 469 531 
Q 828 903 1448 1529 
Q 2069 2156 2228 2338 
Q 2531 2678 2651 2914 
Q 2772 3150 2772 3378 
Q 2772 3750 2511 3984 
Q 2250 4219 1831 4219 
Q 1534 4219 1204 4116 
Q 875 4013 500 3803 
L 500 4441 
Q 881 4594 1212 4672 
Q 1544 4750 1819 4750 
Q 2544 4750 2975 4387 
Q 3406 4025 3406 3419 
Q 3406 3131 3298 2873 
Q 3191 2616 2906 2266 
Q 2828 2175 2409 1742 
Q 1991 1309 1228 531 
z
" transform="scale(0.015625)"/>
        <path id="DejaVuSans-35" d="M 691 4666 
L 3169 4666 
L 3169 4134 
L 1269 4134 
L 1269 2991 
Q 1406 3038 1543 3061 
Q 1681 3084 1819 3084 
Q 2600 3084 3056 2656 
Q 3513 2228 3513 1497 
Q 3513 744 3044 326 
Q 2575 -91 1722 -91 
Q 1428 -91 1123 -41 
Q 819 9 494 109 
L 494 744 
Q 775 591 1075 516 
Q 1375 441 1709 441 
Q 2250 441 2565 725 
Q 2881 1009 2881 1497 
Q 2881 1984 2565 2268 
Q 2250 2553 1709 2553 
Q 1456 2553 1204 2497 
Q 953 2441 691 2322 
L 691 4666 
z
" transform="scale(0.015625)"/>
       </defs>
       <use xlink:href="#DejaVuSans-32"/>
       <use xlink:href="#DejaVuSans-35" x="63.623047"/>
      </g>
     </g>
    </g>
    <g id="xtick_3">
     <g id="line2d_3">
      <g>
       <use xlink:href="#m862382aa2e" x="183.6" y="320.4" style="stroke: #000000; stroke-width: 0.8"/>
      </g>
     </g>
     <g id="text_3">
      <!-- 50 -->
      <g transform="translate(177.2375 334.998438) scale(0.1 -0.1)">
       <use xlink:href="#DejaVuSans-35"/>
       <use xlink:href="#DejaVuSans-30" x="63.623047"/>
      </g>
     </g>
    </g>
    <g id="xtick_4">
     <g id="line2d_4">
      <g>
       <use xlink:href="#m862382aa2e" x="239.4" y="320.4" style="stroke: #000000; stroke-width: 0.8"/>
      </g>
     </g>
     <g id="text_4">
      <!-- 75 -->
      <g transform="translate(233.0375 334.998438) scale(0.1 -0.1)">
       <defs>
        <path id="DejaVuSans-37" d="M 525 4666 
L 3525 4666 
L 3525 4397 
L 1831 0 
L 1172 0 
L 2766 4134 
L 525 4134 
L 525 4666 
z
" transform="scale(0.015625)"/>
       </defs>
       <use xlink:href="#DejaVuSans-37"/>
       <use xlink:href="#DejaVuSans-35" x="63.623047"/>
      </g>
     </g>
    </g>
    <g id="xtick_5">
     <g id="line2d_5">
      <g>
       <use xlink:href="#m862382aa2e" x="295.2" y="320.4" style="stroke: #000000; stroke-width: 0.8"/>
      </g>
     </g>
     <g id="text_5">
      <!-- 100 -->
      <g transform="translate(285.65625 334.998438) scale(0.1 -0.1)">
       <defs>
        <path id="DejaVuSans-31" d="M 794 531 
L 1825 531 
L 1825 4091 
L 703 3866 
L 703 4441 
L 1819 4666 
L 2450 4666 
L 2450 531 
L 3481 531 
L 3481 0 
L 794 0 
L 794 531 
z
" transform="scale(0.015625)"/>
       </defs>
       <use xlink:href="#DejaVuSans-31"/>
       <use xlink:href="#DejaVuSans-30" x="63.623047"/>
       <use xlink:href="#DejaVuSans-30" x="127.246094"/>
      </g>
     </g>
    </g>
    <g id="xtick_6">
     <g id="line2d_6">
      <g>
       <use xlink:href="#m862382aa2e" x="351" y="320.4" style="stroke: #000000; stroke-width: 0.8"/>
      </g>
     </g>
     <g id="text_6">
      <!-- 125 -->
      <g transform="translate(341.45625 334.998438) scale(0.1 -0.1)">
       <use xlink:href="#DejaVuSans-31"/>
       <use xlink:href="#DejaVuSans-32" x="63.623047"/>
       <use xlink:href="#DejaVuSans-35" x="127.246094"/>
      </g>
     </g>
    </g>
    <g id="xtick_7">
     <g id="line2d_7">
      <g>
       <use xlink:href="#m862382aa2e" x="406.8" y="320.4" style="stroke: #000000; stroke-width: 0.8"/>
      </g>
     </g>
     <g id="text_7">
      <!-- 150 -->
      <g transform="translate(397.25625 334.998438) scale(0.1 -0.1)">
       <use xlink:href="#DejaVuSans-31"/>
       <use xlink:href="#DejaVuSans-35" x="63.623047"/>
       <use xlink:href="#DejaVuSans-30" x="127.246094"/>
      </g>
     </g>
    </g>
    <g id="xtick_8">
     <g id="line2d_8">
      <g>
       <use xlink:href="#m862382aa2e" x="462.6" y="320.4" style="stroke: #000000; stroke-width: 0.8"/>
      </g>
     </g>
     <g id="text_8">
      <!-- 175 -->
      <g transform="translate(453.05625 334.998438) scale(0.1 -0.1)">
       <use xlink:href="#DejaVuSans-31"/>
       <use xlink:href="#DejaVuSans-37" x="63.623047"/>
       <use xlink:href="#DejaVuSans-35" x="127.246094"/>
      </g>
     </g>
    </g>
    <g id="xtick_9">
     <g id="line2d_9">
      <g>
       <use xlink:href="#m862382aa2e" x="518.4" y="320.4" style="stroke: #000000; stroke-width: 0.8"/>
      </g>
     </g>
     <g id="text_9">
      <!-- 200 -->
      <g transform="translate(508.85625 334.998438) scale(0.1 -0.1)">
       <use xlink:href="#DejaVuSans-32"/>
       <use xlink:href="#DejaVuSans-30" x="63.623047"/>
       <use xlink:href="#DejaVuSans-30" x="127.246094"/>
      </g>
     </g>
    </g>
    <g id="text_10">
     <!-- number of threads -->
     <g transform="translate(248.696875 348.676562) scale(0.1 -0.1)">
      <defs>
       <path id="DejaVuSans-6e" d="M 3513 2113 
L 3513 0 
L 2938 0 
L 2938 2094 
Q 2938 2591 2744 2837 
Q 2550 3084 2163 3084 
Q 1697 3084 1428 2787 
Q 1159 2491 1159 1978 
L 1159 0 
L 581 0 
L 581 3500 
L 1159 3500 
L 1159 2956 
Q 1366 3272 1645 3428 
Q 1925 3584 2291 3584 
Q 2894 3584 3203 3211 
Q 3513 2838 3513 2113 
z
" transform="scale(0.015625)"/>
       <path id="DejaVuSans-75" d="M 544 1381 
L 544 3500 
L 1119 3500 
L 1119 1403 
Q 1119 906 1312 657 
Q 1506 409 1894 409 
Q 2359 409 2629 706 
Q 2900 1003 2900 1516 
L 2900 3500 
L 3475 3500 
L 3475 0 
L 2900 0 
L 2900 538 
Q 2691 219 2414 64 
Q 2138 -91 1772 -91 
Q 1169 -91 856 284 
Q 544 659 544 1381 
z
M 1991 3584 
L 1991 3584 
z
" transform="scale(0.015625)"/>
       <path id="DejaVuSans-6d" d="M 3328 2828 
Q 3544 3216 3844 3400 
Q 4144 3584 4550 3584 
Q 5097 3584 5394 3201 
Q 5691 2819 5691 2113 
L 5691 0 
L 5113 0 
L 5113 2094 
Q 5113 2597 4934 2840 
Q 4756 3084 4391 3084 
Q 3944 3084 3684 2787 
Q 3425 2491 3425 1978 
L 3425 0 
L 2847 0 
L 2847 2094 
Q 2847 2600 2669 2842 
Q 2491 3084 2119 3084 
Q 1678 3084 1418 2786 
Q 1159 2488 1159 1978 
L 1159 0 
L 581 0 
L 581 3500 
L 1159 3500 
L 1159 2956 
Q 1356 3278 1631 3431 
Q 1906 3584 2284 3584 
Q 2666 3584 2933 3390 
Q 3200 3197 3328 2828 
z
" transform="scale(0.015625)"/>
       <path id="DejaVuSans-62" d="M 3116 1747 
Q 3116 2381 2855 2742 
Q 2594 3103 2138 3103 
Q 1681 3103 1420 2742 
Q 1159 2381 1159 1747 
Q 1159 1113 1420 752 
Q 1681 391 2138 391 
Q 2594 391 2855 752 
Q 3116 1113 3116 1747 
z
M 1159 2969 
Q 1341 3281 1617 3432 
Q 1894 3584 2278 3584 
Q 2916 3584 3314 3078 
Q 3713 2572 3713 1747 
Q 3713 922 3314 415 
Q 2916 -91 2278 -91 
Q 1894 -91 1617 61 
Q 1341 213 1159 525 
L 1159 0 
L 581 0 
L 581 4863 
L 1159 4863 
L 1159 2969 
z
" transform="scale(0.015625)"/>
       <path id="DejaVuSans-65" d="M 3597 1894 
L 3597 1613 
L 953 1613 
Q 991 1019 1311 708 
Q 1631 397 2203 397 
Q 2534 397 2845 478 
Q 3156 559 3463 722 
L 3463 178 
Q 3153 47 2828 -22 
Q 2503 -91 2169 -91 
Q 1331 -91 842 396 
Q 353 884 353 1716 
Q 353 2575 817 3079 
Q 1281 3584 2069 3584 
Q 2775 3584 3186 3129 
Q 3597 2675 3597 1894 
z
M 3022 2063 
Q 3016 2534 2758 2815 
Q 2500 3097 2075 3097 
Q 1594 3097 1305 2825 
Q 1016 2553 972 2059 
L 3022 2063 
z
" transform="scale(0.015625)"/>
       <path id="DejaVuSans-72" d="M 2631 2963 
Q 2534 3019 2420 3045 
Q 2306 3072 2169 3072 
Q 1681 3072 1420 2755 
Q 1159 2438 1159 1844 
L 1159 0 
L 581 0 
L 581 3500 
L 1159 3500 
L 1159 2956 
Q 1341 3275 1631 3429 
Q 1922 3584 2338 3584 
Q 2397 3584 2469 3576 
Q 2541 3569 2628 3553 
L 2631 2963 
z
" transform="scale(0.015625)"/>
       <path id="DejaVuSans-20" transform="scale(0.015625)"/>
       <path id="DejaVuSans-6f" d="M 1959 3097 
Q 1497 3097 1228 2736 
Q 959 2375 959 1747 
Q 959 1119 1226 758 
Q 1494 397 1959 397 
Q 2419 397 2687 759 
Q 2956 1122 2956 1747 
Q 2956 2369 2687 2733 
Q 2419 3097 1959 3097 
z
M 1959 3584 
Q 2709 3584 3137 3096 
Q 3566 2609 3566 1747 
Q 3566 888 3137 398 
Q 2709 -91 1959 -91 
Q 1206 -91 779 398 
Q 353 888 353 1747 
Q 353 2609 779 3096 
Q 1206 3584 1959 3584 
z
" transform="scale(0.015625)"/>
       <path id="DejaVuSans-66" d="M 2375 4863 
L 2375 4384 
L 1825 4384 
Q 1516 4384 1395 4259 
Q 1275 4134 1275 3809 
L 1275 3500 
L 2222 3500 
L 2222 3053 
L 1275 3053 
L 1275 0 
L 697 0 
L 697 3053 
L 147 3053 
L 147 3500 
L 697 3500 
L 697 3744 
Q 697 4328 969 4595 
Q 1241 4863 1831 4863 
L 2375 4863 
z
" transform="scale(0.015625)"/>
       <path id="DejaVuSans-74" d="M 1172 4494 
L 1172 3500 
L 2356 3500 
L 2356 3053 
L 1172 3053 
L 1172 1153 
Q 1172 725 1289 603 
Q 1406 481 1766 481 
L 2356 481 
L 2356 0 
L 1766 0 
Q 1100 0 847 248 
Q 594 497 594 1153 
L 594 3053 
L 172 3053 
L 172 3500 
L 594 3500 
L 594 4494 
L 1172 4494 
z
" transform="scale(0.015625)"/>
       <path id="DejaVuSans-68" d="M 3513 2113 
L 3513 0 
L 2938 0 
L 2938 2094 
Q 2938 2591 2744 2837 
Q 2550 3084 2163 3084 
Q 1697 3084 1428 2787 
Q 1159 2491 1159 1978 
L 1159 0 
L 581 0 
L 581 4863 
L 1159 4863 
L 1159 2956 
Q 1366 3272 1645 3428 
Q 1925 3584 2291 3584 
Q 2894 3584 3203 3211 
Q 3513 2838 3513 2113 
z
" transform="scale(0.015625)"/>
       <path id="DejaVuSans-61" d="M 2194 1759 
Q 1497 1759 1228 1600 
Q 959 1441 959 1056 
Q 959 750 1161 570 
Q 1363 391 1709 391 
Q 2188 391 2477 730 
Q 2766 1069 2766 1631 
L 2766 1759 
L 2194 1759 
z
M 3341 1997 
L 3341 0 
L 2766 0 
L 2766 531 
Q 2569 213 2275 61 
Q 1981 -91 1556 -91 
Q 1019 -91 701 211 
Q 384 513 384 1019 
Q 384 1609 779 1909 
Q 1175 2209 1959 2209 
L 2766 2209 
L 2766 2266 
Q 2766 2663 2505 2880 
Q 2244 3097 1772 3097 
Q 1472 3097 1187 3025 
Q 903 2953 641 2809 
L 641 3341 
Q 956 3463 1253 3523 
Q 1550 3584 1831 3584 
Q 2591 3584 2966 3190 
Q 3341 2797 3341 1997 
z
" transform="scale(0.015625)"/>
       <path id="DejaVuSans-64" d="M 2906 2969 
L 2906 4863 
L 3481 4863 
L 3481 0 
L 2906 0 
L 2906 525 
Q 2725 213 2448 61 
Q 2172 -91 1784 -91 
Q 1150 -91 751 415 
Q 353 922 353 1747 
Q 353 2572 751 3078 
Q 1150 3584 1784 3584 
Q 2172 3584 2448 3432 
Q 2725 3281 2906 2969 
z
M 947 1747 
Q 947 1113 1208 752 
Q 1469 391 1925 391 
Q 2381 391 2643 752 
Q 2906 1113 2906 1747 
Q 2906 2381 2643 2742 
Q 2381 3103 1925 3103 
Q 1469 3103 1208 2742 
Q 947 2381 947 1747 
z
" transform="scale(0.015625)"/>
       <path id="DejaVuSans-73" d="M 2834 3397 
L 2834 2853 
Q 2591 2978 2328 3040 
Q 2066 3103 1784 3103 
Q 1356 3103 1142 2972 
Q 928 2841 928 2578 
Q 928 2378 1081 2264 
Q 1234 2150 1697 2047 
L 1894 2003 
Q 2506 1872 2764 1633 
Q 3022 1394 3022 966 
Q 3022 478 2636 193 
Q 2250 -91 1575 -91 
Q 1294 -91 989 -36 
Q 684 19 347 128 
L 347 722 
Q 666 556 975 473 
Q 1284 391 1588 391 
Q 1994 391 2212 530 
Q 2431 669 2431 922 
Q 2431 1156 2273 1281 
Q 2116 1406 1581 1522 
L 1381 1569 
Q 847 1681 609 1914 
Q 372 2147 372 2553 
Q 372 3047 722 3315 
Q 1072 3584 1716 3584 
Q 2034 3584 2315 3537 
Q 2597 3491 2834 3397 
z
" transform="scale(0.015625)"/>
      </defs>
      <use xlink:href="#DejaVuSans-6e"/>
      <use xlink:href="#DejaVuSans-75" x="63.378906"/>
      <use xlink:href="#DejaVuSans-6d" x="126.757812"/>
      <use xlink:href="#DejaVuSans-62" x="224.169922"/>
      <use xlink:href="#DejaVuSans-65" x="287.646484"/>
      <use xlink:href="#DejaVuSans-72" x="349.169922"/>
      <use xlink:href="#DejaVuSans-20" x="390.283203"/>
      <use xlink:href="#DejaVuSans-6f" x="422.070312"/>
      <use xlink:href="#DejaVuSans-66" x="483.251953"/>
      <use xlink:href="#DejaVuSans-20" x="518.457031"/>
      <use xlink:href="#DejaVuSans-74" x="550.244141"/>
      <use xlink:href="#DejaVuSans-68" x="589.453125"/>
      <use xlink:href="#DejaVuSans-72" x="652.832031"/>
      <use xlink:href="#DejaVuSans-65" x="691.695312"/>
      <use xlink:href="#DejaVuSans-61" x="753.21875"/>
      <use xlink:href="#DejaVuSans-64" x="814.498047"/>
      <use xlink:href="#DejaVuSans-73" x="877.974609"/>
     </g>
    </g>
   </g>
   <g id="matplotlib.axis_2">
    <g id="ytick_1">
     <g id="line2d_10">
      <defs>
       <path id="mba13aa9534" d="M 0 0 
L -3.5 0 
" style="stroke: #000000; stroke-width: 0.8"/>
      </defs>
      <g>
       <use xlink:href="#mba13aa9534" x="72" y="320.4" style="stroke: #000000; stroke-width: 0.8"/>
      </g>
     </g>
     <g id="text_11">
      <!-- 0.00 -->
      <g transform="translate(42.734375 324.199219) scale(0.1 -0.1)">
       <defs>
        <path id="DejaVuSans-2e" d="M 684 794 
L 1344 794 
L 1344 0 
L 684 0 
L 684 794 
z
" transform="scale(0.015625)"/>
       </defs>
       <use xlink:href="#DejaVuSans-30"/>
       <use xlink:href="#DejaVuSans-2e" x="63.623047"/>
       <use xlink:href="#DejaVuSans-30" x="95.410156"/>
       <use xlink:href="#DejaVuSans-30" x="159.033203"/>
      </g>
     </g>
    </g>
    <g id="ytick_2">
     <g id="line2d_11">
      <g>
       <use xlink:href="#mba13aa9534" x="72" y="286.809182" style="stroke: #000000; stroke-width: 0.8"/>
      </g>
     </g>
     <g id="text_12">
      <!-- 0.01 -->
      <g transform="translate(42.734375 290.608401) scale(0.1 -0.1)">
       <use xlink:href="#DejaVuSans-30"/>
       <use xlink:href="#DejaVuSans-2e" x="63.623047"/>
       <use xlink:href="#DejaVuSans-30" x="95.410156"/>
       <use xlink:href="#DejaVuSans-31" x="159.033203"/>
      </g>
     </g>
    </g>
    <g id="ytick_3">
     <g id="line2d_12">
      <g>
       <use xlink:href="#mba13aa9534" x="72" y="253.218364" style="stroke: #000000; stroke-width: 0.8"/>
      </g>
     </g>
     <g id="text_13">
      <!-- 0.02 -->
      <g transform="translate(42.734375 257.017583) scale(0.1 -0.1)">
       <use xlink:href="#DejaVuSans-30"/>
       <use xlink:href="#DejaVuSans-2e" x="63.623047"/>
       <use xlink:href="#DejaVuSans-30" x="95.410156"/>
       <use xlink:href="#DejaVuSans-32" x="159.033203"/>
      </g>
     </g>
    </g>
    <g id="ytick_4">
     <g id="line2d_13">
      <g>
       <use xlink:href="#mba13aa9534" x="72" y="219.627546" style="stroke: #000000; stroke-width: 0.8"/>
      </g>
     </g>
     <g id="text_14">
      <!-- 0.03 -->
      <g transform="translate(42.734375 223.426765) scale(0.1 -0.1)">
       <defs>
        <path id="DejaVuSans-33" d="M 2597 2516 
Q 3050 2419 3304 2112 
Q 3559 1806 3559 1356 
Q 3559 666 3084 287 
Q 2609 -91 1734 -91 
Q 1441 -91 1130 -33 
Q 819 25 488 141 
L 488 750 
Q 750 597 1062 519 
Q 1375 441 1716 441 
Q 2309 441 2620 675 
Q 2931 909 2931 1356 
Q 2931 1769 2642 2001 
Q 2353 2234 1838 2234 
L 1294 2234 
L 1294 2753 
L 1863 2753 
Q 2328 2753 2575 2939 
Q 2822 3125 2822 3475 
Q 2822 3834 2567 4026 
Q 2313 4219 1838 4219 
Q 1578 4219 1281 4162 
Q 984 4106 628 3988 
L 628 4550 
Q 988 4650 1302 4700 
Q 1616 4750 1894 4750 
Q 2613 4750 3031 4423 
Q 3450 4097 3450 3541 
Q 3450 3153 3228 2886 
Q 3006 2619 2597 2516 
z
" transform="scale(0.015625)"/>
       </defs>
       <use xlink:href="#DejaVuSans-30"/>
       <use xlink:href="#DejaVuSans-2e" x="63.623047"/>
       <use xlink:href="#DejaVuSans-30" x="95.410156"/>
       <use xlink:href="#DejaVuSans-33" x="159.033203"/>
      </g>
     </g>
    </g>
    <g id="ytick_5">
     <g id="line2d_14">
      <g>
       <use xlink:href="#mba13aa9534" x="72" y="186.036728" style="stroke: #000000; stroke-width: 0.8"/>
      </g>
     </g>
     <g id="text_15">
      <!-- 0.04 -->
      <g transform="translate(42.734375 189.835947) scale(0.1 -0.1)">
       <defs>
        <path id="DejaVuSans-34" d="M 2419 4116 
L 825 1625 
L 2419 1625 
L 2419 4116 
z
M 2253 4666 
L 3047 4666 
L 3047 1625 
L 3713 1625 
L 3713 1100 
L 3047 1100 
L 3047 0 
L 2419 0 
L 2419 1100 
L 313 1100 
L 313 1709 
L 2253 4666 
z
" transform="scale(0.015625)"/>
       </defs>
       <use xlink:href="#DejaVuSans-30"/>
       <use xlink:href="#DejaVuSans-2e" x="63.623047"/>
       <use xlink:href="#DejaVuSans-30" x="95.410156"/>
       <use xlink:href="#DejaVuSans-34" x="159.033203"/>
      </g>
     </g>
    </g>
    <g id="ytick_6">
     <g id="line2d_15">
      <g>
       <use xlink:href="#mba13aa9534" x="72" y="152.44591" style="stroke: #000000; stroke-width: 0.8"/>
      </g>
     </g>
     <g id="text_16">
      <!-- 0.05 -->
      <g transform="translate(42.734375 156.245129) scale(0.1 -0.1)">
       <use xlink:href="#DejaVuSans-30"/>
       <use xlink:href="#DejaVuSans-2e" x="63.623047"/>
       <use xlink:href="#DejaVuSans-30" x="95.410156"/>
       <use xlink:href="#DejaVuSans-35" x="159.033203"/>
      </g>
     </g>
    </g>
    <g id="ytick_7">
     <g id="line2d_16">
      <g>
       <use xlink:href="#mba13aa9534" x="72" y="118.855092" style="stroke: #000000; stroke-width: 0.8"/>
      </g>
     </g>
     <g id="text_17">
      <!-- 0.06 -->
      <g transform="translate(42.734375 122.65431) scale(0.1 -0.1)">
       <defs>
        <path id="DejaVuSans-36" d="M 2113 2584 
Q 1688 2584 1439 2293 
Q 1191 2003 1191 1497 
Q 1191 994 1439 701 
Q 1688 409 2113 409 
Q 2538 409 2786 701 
Q 3034 994 3034 1497 
Q 3034 2003 2786 2293 
Q 2538 2584 2113 2584 
z
M 3366 4563 
L 3366 3988 
Q 3128 4100 2886 4159 
Q 2644 4219 2406 4219 
Q 1781 4219 1451 3797 
Q 1122 3375 1075 2522 
Q 1259 2794 1537 2939 
Q 1816 3084 2150 3084 
Q 2853 3084 3261 2657 
Q 3669 2231 3669 1497 
Q 3669 778 3244 343 
Q 2819 -91 2113 -91 
Q 1303 -91 875 529 
Q 447 1150 447 2328 
Q 447 3434 972 4092 
Q 1497 4750 2381 4750 
Q 2619 4750 2861 4703 
Q 3103 4656 3366 4563 
z
" transform="scale(0.015625)"/>
       </defs>
       <use xlink:href="#DejaVuSans-30"/>
       <use xlink:href="#DejaVuSans-2e" x="63.623047"/>
       <use xlink:href="#DejaVuSans-30" x="95.410156"/>
       <use xlink:href="#DejaVuSans-36" x="159.033203"/>
      </g>
     </g>
    </g>
    <g id="ytick_8">
     <g id="line2d_17">
      <g>
       <use xlink:href="#mba13aa9534" x="72" y="85.264274" style="stroke: #000000; stroke-width: 0.8"/>
      </g>
     </g>
     <g id="text_18">
      <!-- 0.07 -->
      <g transform="translate(42.734375 89.063492) scale(0.1 -0.1)">
       <use xlink:href="#DejaVuSans-30"/>
       <use xlink:href="#DejaVuSans-2e" x="63.623047"/>
       <use xlink:href="#DejaVuSans-30" x="95.410156"/>
       <use xlink:href="#DejaVuSans-37" x="159.033203"/>
      </g>
     </g>
    </g>
    <g id="ytick_9">
     <g id="line2d_18">
      <g>
       <use xlink:href="#mba13aa9534" x="72" y="51.673456" style="stroke: #000000; stroke-width: 0.8"/>
      </g>
     </g>
     <g id="text_19">
      <!-- 0.08 -->
      <g transform="translate(42.734375 55.472674) scale(0.1 -0.1)">
       <defs>
        <path id="DejaVuSans-38" d="M 2034 2216 
Q 1584 2216 1326 1975 
Q 1069 1734 1069 1313 
Q 1069 891 1326 650 
Q 1584 409 2034 409 
Q 2484 409 2743 651 
Q 3003 894 3003 1313 
Q 3003 1734 2745 1975 
Q 2488 2216 2034 2216 
z
M 1403 2484 
Q 997 2584 770 2862 
Q 544 3141 544 3541 
Q 544 4100 942 4425 
Q 1341 4750 2034 4750 
Q 2731 4750 3128 4425 
Q 3525 4100 3525 3541 
Q 3525 3141 3298 2862 
Q 3072 2584 2669 2484 
Q 3125 2378 3379 2068 
Q 3634 1759 3634 1313 
Q 3634 634 3220 271 
Q 2806 -91 2034 -91 
Q 1263 -91 848 271 
Q 434 634 434 1313 
Q 434 1759 690 2068 
Q 947 2378 1403 2484 
z
M 1172 3481 
Q 1172 3119 1398 2916 
Q 1625 2713 2034 2713 
Q 2441 2713 2670 2916 
Q 2900 3119 2900 3481 
Q 2900 3844 2670 4047 
Q 2441 4250 2034 4250 
Q 1625 4250 1398 4047 
Q 1172 3844 1172 3481 
z
" transform="scale(0.015625)"/>
       </defs>
       <use xlink:href="#DejaVuSans-30"/>
       <use xlink:href="#DejaVuSans-2e" x="63.623047"/>
       <use xlink:href="#DejaVuSans-30" x="95.410156"/>
       <use xlink:href="#DejaVuSans-38" x="159.033203"/>
      </g>
     </g>
    </g>
    <g id="text_20">
     <!-- rate (1/seconds to complete) -->
     <g transform="translate(36.654687 254.303125) rotate(-90) scale(0.1 -0.1)">
      <defs>
       <path id="DejaVuSans-28" d="M 1984 4856 
Q 1566 4138 1362 3434 
Q 1159 2731 1159 2009 
Q 1159 1288 1364 580 
Q 1569 -128 1984 -844 
L 1484 -844 
Q 1016 -109 783 600 
Q 550 1309 550 2009 
Q 550 2706 781 3412 
Q 1013 4119 1484 4856 
L 1984 4856 
z
" transform="scale(0.015625)"/>
       <path id="DejaVuSans-2f" d="M 1625 4666 
L 2156 4666 
L 531 -594 
L 0 -594 
L 1625 4666 
z
" transform="scale(0.015625)"/>
       <path id="DejaVuSans-63" d="M 3122 3366 
L 3122 2828 
Q 2878 2963 2633 3030 
Q 2388 3097 2138 3097 
Q 1578 3097 1268 2742 
Q 959 2388 959 1747 
Q 959 1106 1268 751 
Q 1578 397 2138 397 
Q 2388 397 2633 464 
Q 2878 531 3122 666 
L 3122 134 
Q 2881 22 2623 -34 
Q 2366 -91 2075 -91 
Q 1284 -91 818 406 
Q 353 903 353 1747 
Q 353 2603 823 3093 
Q 1294 3584 2113 3584 
Q 2378 3584 2631 3529 
Q 2884 3475 3122 3366 
z
" transform="scale(0.015625)"/>
       <path id="DejaVuSans-70" d="M 1159 525 
L 1159 -1331 
L 581 -1331 
L 581 3500 
L 1159 3500 
L 1159 2969 
Q 1341 3281 1617 3432 
Q 1894 3584 2278 3584 
Q 2916 3584 3314 3078 
Q 3713 2572 3713 1747 
Q 3713 922 3314 415 
Q 2916 -91 2278 -91 
Q 1894 -91 1617 61 
Q 1341 213 1159 525 
z
M 3116 1747 
Q 3116 2381 2855 2742 
Q 2594 3103 2138 3103 
Q 1681 3103 1420 2742 
Q 1159 2381 1159 1747 
Q 1159 1113 1420 752 
Q 1681 391 2138 391 
Q 2594 391 2855 752 
Q 3116 1113 3116 1747 
z
" transform="scale(0.015625)"/>
       <path id="DejaVuSans-6c" d="M 603 4863 
L 1178 4863 
L 1178 0 
L 603 0 
L 603 4863 
z
" transform="scale(0.015625)"/>
       <path id="DejaVuSans-29" d="M 513 4856 
L 1013 4856 
Q 1481 4119 1714 3412 
Q 1947 2706 1947 2009 
Q 1947 1309 1714 600 
Q 1481 -109 1013 -844 
L 513 -844 
Q 928 -128 1133 580 
Q 1338 1288 1338 2009 
Q 1338 2731 1133 3434 
Q 928 4138 513 4856 
z
" transform="scale(0.015625)"/>
      </defs>
      <use xlink:href="#DejaVuSans-72"/>
      <use xlink:href="#DejaVuSans-61" x="41.113281"/>
      <use xlink:href="#DejaVuSans-74" x="102.392578"/>
      <use xlink:href="#DejaVuSans-65" x="141.601562"/>
      <use xlink:href="#DejaVuSans-20" x="203.125"/>
      <use xlink:href="#DejaVuSans-28" x="234.912109"/>
      <use xlink:href="#DejaVuSans-31" x="273.925781"/>
      <use xlink:href="#DejaVuSans-2f" x="337.548828"/>
      <use xlink:href="#DejaVuSans-73" x="371.240234"/>
      <use xlink:href="#DejaVuSans-65" x="423.339844"/>
      <use xlink:href="#DejaVuSans-63" x="484.863281"/>
      <use xlink:href="#DejaVuSans-6f" x="539.84375"/>
      <use xlink:href="#DejaVuSans-6e" x="601.025391"/>
      <use xlink:href="#DejaVuSans-64" x="664.404297"/>
      <use xlink:href="#DejaVuSans-73" x="727.880859"/>
      <use xlink:href="#DejaVuSans-20" x="779.980469"/>
      <use xlink:href="#DejaVuSans-74" x="811.767578"/>
      <use xlink:href="#DejaVuSans-6f" x="850.976562"/>
      <use xlink:href="#DejaVuSans-20" x="912.158203"/>
      <use xlink:href="#DejaVuSans-63" x="943.945312"/>
      <use xlink:href="#DejaVuSans-6f" x="998.925781"/>
      <use xlink:href="#DejaVuSans-6d" x="1060.107422"/>
      <use xlink:href="#DejaVuSans-70" x="1157.519531"/>
      <use xlink:href="#DejaVuSans-6c" x="1220.996094"/>
      <use xlink:href="#DejaVuSans-65" x="1248.779297"/>
      <use xlink:href="#DejaVuSans-74" x="1310.302734"/>
      <use xlink:href="#DejaVuSans-65" x="1349.511719"/>
      <use xlink:href="#DejaVuSans-29" x="1411.035156"/>
     </g>
    </g>
   </g>
   <g id="line2d_19">
    <path d="M 72 320.4 
L 164.997376 -1 
L 164.997376 -1 
" clip-path="url(#pccbbb33c1f)" style="fill: none; stroke: #808080; stroke-width: 1.5; stroke-linecap: square"/>
   </g>
   <g id="line2d_20">
    <path d="M 74.232 312.686182 
L 76.464 305.720304 
L 78.696 300.973362 
L 80.928 293.536991 
L 83.16 291.628845 
L 85.392 286.929052 
L 87.624 284.22296 
L 89.856 278.256479 
L 92.088 276.695444 
L 94.32 274.361703 
L 96.552 267.88921 
L 98.784 266.163266 
L 101.016 264.899315 
L 103.248 258.081701 
L 105.48 240.63772 
L 107.712 254.083768 
L 109.944 254.594163 
L 112.176 248.901837 
L 116.64 248.619153 
L 121.104 237.248871 
L 125.568 241.30254 
L 130.032 246.089923 
L 134.496 235.670021 
L 138.96 222.731476 
L 141.192 221.83484 
L 143.424 239.097441 
L 145.656 219.4218 
L 152.352 230.345369 
L 161.28 210.541376 
L 170.208 227.371069 
L 179.136 210.837813 
L 188.064 208.843419 
L 196.992 206.275672 
L 205.92 223.032469 
L 212.616 210.382104 
L 214.848 225.594706 
L 217.08 201.795766 
L 232.704 217.297256 
L 250.56 192.464672 
L 268.416 185.644585 
L 286.272 174.536986 
L 304.128 174.02929 
L 321.984 165.277308 
L 339.84 167.396881 
L 355.464 173.4178 
L 357.696 169.194699 
L 359.928 150.167765 
L 375.552 137.07408 
L 393.408 171.02141 
L 411.264 158.861557 
L 429.12 150.336913 
L 446.976 143.285688 
L 464.832 131.195049 
L 482.688 113.242464 
L 498.312 88.581261 
L 500.544 89.4 
" clip-path="url(#pccbbb33c1f)" style="fill: none; stroke: #2ca02c; stroke-width: 1.5; stroke-linecap: square"/>
    <defs>
     <path id="m3b7f08fc67" d="M 0 3 
C 0.795609 3 1.55874 2.683901 2.12132 2.12132 
C 2.683901 1.55874 3 0.795609 3 0 
C 3 -0.795609 2.683901 -1.55874 2.12132 -2.12132 
C 1.55874 -2.683901 0.795609 -3 0 -3 
C -0.795609 -3 -1.55874 -2.683901 -2.12132 -2.12132 
C -2.683901 -1.55874 -3 -0.795609 -3 0 
C -3 0.795609 -2.683901 1.55874 -2.12132 2.12132 
C -1.55874 2.683901 -0.795609 3 0 3 
z
" style="stroke: #2ca02c"/>
    </defs>
    <g clip-path="url(#pccbbb33c1f)">
     <use xlink:href="#m3b7f08fc67" x="74.232" y="312.686182" style="fill: #2ca02c; stroke: #2ca02c"/>
     <use xlink:href="#m3b7f08fc67" x="76.464" y="305.720304" style="fill: #2ca02c; stroke: #2ca02c"/>
     <use xlink:href="#m3b7f08fc67" x="78.696" y="300.973362" style="fill: #2ca02c; stroke: #2ca02c"/>
     <use xlink:href="#m3b7f08fc67" x="80.928" y="293.536991" style="fill: #2ca02c; stroke: #2ca02c"/>
     <use xlink:href="#m3b7f08fc67" x="83.16" y="291.628845" style="fill: #2ca02c; stroke: #2ca02c"/>
     <use xlink:href="#m3b7f08fc67" x="85.392" y="286.929052" style="fill: #2ca02c; stroke: #2ca02c"/>
     <use xlink:href="#m3b7f08fc67" x="87.624" y="284.22296" style="fill: #2ca02c; stroke: #2ca02c"/>
     <use xlink:href="#m3b7f08fc67" x="89.856" y="278.256479" style="fill: #2ca02c; stroke: #2ca02c"/>
     <use xlink:href="#m3b7f08fc67" x="92.088" y="276.695444" style="fill: #2ca02c; stroke: #2ca02c"/>
     <use xlink:href="#m3b7f08fc67" x="94.32" y="274.361703" style="fill: #2ca02c; stroke: #2ca02c"/>
     <use xlink:href="#m3b7f08fc67" x="96.552" y="267.88921" style="fill: #2ca02c; stroke: #2ca02c"/>
     <use xlink:href="#m3b7f08fc67" x="98.784" y="266.163266" style="fill: #2ca02c; stroke: #2ca02c"/>
     <use xlink:href="#m3b7f08fc67" x="101.016" y="264.899315" style="fill: #2ca02c; stroke: #2ca02c"/>
     <use xlink:href="#m3b7f08fc67" x="103.248" y="258.081701" style="fill: #2ca02c; stroke: #2ca02c"/>
     <use xlink:href="#m3b7f08fc67" x="105.48" y="240.63772" style="fill: #2ca02c; stroke: #2ca02c"/>
     <use xlink:href="#m3b7f08fc67" x="107.712" y="254.083768" style="fill: #2ca02c; stroke: #2ca02c"/>
     <use xlink:href="#m3b7f08fc67" x="109.944" y="254.594163" style="fill: #2ca02c; stroke: #2ca02c"/>
     <use xlink:href="#m3b7f08fc67" x="112.176" y="248.901837" style="fill: #2ca02c; stroke: #2ca02c"/>
     <use xlink:href="#m3b7f08fc67" x="116.64" y="248.619153" style="fill: #2ca02c; stroke: #2ca02c"/>
     <use xlink:href="#m3b7f08fc67" x="121.104" y="237.248871" style="fill: #2ca02c; stroke: #2ca02c"/>
     <use xlink:href="#m3b7f08fc67" x="125.568" y="241.30254" style="fill: #2ca02c; stroke: #2ca02c"/>
     <use xlink:href="#m3b7f08fc67" x="130.032" y="246.089923" style="fill: #2ca02c; stroke: #2ca02c"/>
     <use xlink:href="#m3b7f08fc67" x="134.496" y="235.670021" style="fill: #2ca02c; stroke: #2ca02c"/>
     <use xlink:href="#m3b7f08fc67" x="138.96" y="222.731476" style="fill: #2ca02c; stroke: #2ca02c"/>
     <use xlink:href="#m3b7f08fc67" x="141.192" y="221.83484" style="fill: #2ca02c; stroke: #2ca02c"/>
     <use xlink:href="#m3b7f08fc67" x="143.424" y="239.097441" style="fill: #2ca02c; stroke: #2ca02c"/>
     <use xlink:href="#m3b7f08fc67" x="145.656" y="219.4218" style="fill: #2ca02c; stroke: #2ca02c"/>
     <use xlink:href="#m3b7f08fc67" x="152.352" y="230.345369" style="fill: #2ca02c; stroke: #2ca02c"/>
     <use xlink:href="#m3b7f08fc67" x="161.28" y="210.541376" style="fill: #2ca02c; stroke: #2ca02c"/>
     <use xlink:href="#m3b7f08fc67" x="170.208" y="227.371069" style="fill: #2ca02c; stroke: #2ca02c"/>
     <use xlink:href="#m3b7f08fc67" x="179.136" y="210.837813" style="fill: #2ca02c; stroke: #2ca02c"/>
     <use xlink:href="#m3b7f08fc67" x="188.064" y="208.843419" style="fill: #2ca02c; stroke: #2ca02c"/>
     <use xlink:href="#m3b7f08fc67" x="196.992" y="206.275672" style="fill: #2ca02c; stroke: #2ca02c"/>
     <use xlink:href="#m3b7f08fc67" x="205.92" y="223.032469" style="fill: #2ca02c; stroke: #2ca02c"/>
     <use xlink:href="#m3b7f08fc67" x="212.616" y="210.382104" style="fill: #2ca02c; stroke: #2ca02c"/>
     <use xlink:href="#m3b7f08fc67" x="214.848" y="225.594706" style="fill: #2ca02c; stroke: #2ca02c"/>
     <use xlink:href="#m3b7f08fc67" x="217.08" y="201.795766" style="fill: #2ca02c; stroke: #2ca02c"/>
     <use xlink:href="#m3b7f08fc67" x="232.704" y="217.297256" style="fill: #2ca02c; stroke: #2ca02c"/>
     <use xlink:href="#m3b7f08fc67" x="250.56" y="192.464672" style="fill: #2ca02c; stroke: #2ca02c"/>
     <use xlink:href="#m3b7f08fc67" x="268.416" y="185.644585" style="fill: #2ca02c; stroke: #2ca02c"/>
     <use xlink:href="#m3b7f08fc67" x="286.272" y="174.536986" style="fill: #2ca02c; stroke: #2ca02c"/>
     <use xlink:href="#m3b7f08fc67" x="304.128" y="174.02929" style="fill: #2ca02c; stroke: #2ca02c"/>
     <use xlink:href="#m3b7f08fc67" x="321.984" y="165.277308" style="fill: #2ca02c; stroke: #2ca02c"/>
     <use xlink:href="#m3b7f08fc67" x="339.84" y="167.396881" style="fill: #2ca02c; stroke: #2ca02c"/>
     <use xlink:href="#m3b7f08fc67" x="355.464" y="173.4178" style="fill: #2ca02c; stroke: #2ca02c"/>
     <use xlink:href="#m3b7f08fc67" x="357.696" y="169.194699" style="fill: #2ca02c; stroke: #2ca02c"/>
     <use xlink:href="#m3b7f08fc67" x="359.928" y="150.167765" style="fill: #2ca02c; stroke: #2ca02c"/>
     <use xlink:href="#m3b7f08fc67" x="375.552" y="137.07408" style="fill: #2ca02c; stroke: #2ca02c"/>
     <use xlink:href="#m3b7f08fc67" x="393.408" y="171.02141" style="fill: #2ca02c; stroke: #2ca02c"/>
     <use xlink:href="#m3b7f08fc67" x="411.264" y="158.861557" style="fill: #2ca02c; stroke: #2ca02c"/>
     <use xlink:href="#m3b7f08fc67" x="429.12" y="150.336913" style="fill: #2ca02c; stroke: #2ca02c"/>
     <use xlink:href="#m3b7f08fc67" x="446.976" y="143.285688" style="fill: #2ca02c; stroke: #2ca02c"/>
     <use xlink:href="#m3b7f08fc67" x="464.832" y="131.195049" style="fill: #2ca02c; stroke: #2ca02c"/>
     <use xlink:href="#m3b7f08fc67" x="482.688" y="113.242464" style="fill: #2ca02c; stroke: #2ca02c"/>
     <use xlink:href="#m3b7f08fc67" x="498.312" y="88.581261" style="fill: #2ca02c; stroke: #2ca02c"/>
     <use xlink:href="#m3b7f08fc67" x="500.544" y="89.4" style="fill: #2ca02c; stroke: #2ca02c"/>
    </g>
   </g>
   <g id="line2d_21">
    <path d="M 74.232 314.654238 
L 76.464 309.247574 
L 78.696 304.566171 
L 80.928 301.039303 
L 83.16 294.973474 
L 85.392 292.248626 
L 87.624 287.32188 
L 89.856 284.319574 
L 92.088 280.721387 
L 94.32 279.182799 
L 96.552 278.436556 
L 98.784 271.836818 
L 101.016 272.104356 
L 103.248 265.047322 
L 105.48 264.010018 
L 107.712 260.957197 
L 109.944 262.678619 
L 112.176 259.122055 
L 116.64 257.972422 
L 121.104 253.591852 
L 125.568 249.593995 
L 130.032 237.246952 
L 134.496 229.921141 
L 138.96 234.0963 
L 141.192 231.143508 
L 143.424 224.630086 
L 145.656 228.763994 
L 152.352 216.436855 
L 161.28 203.925833 
L 170.208 214.39942 
L 179.136 203.990699 
L 188.064 207.806647 
L 196.992 200.841068 
L 205.92 206.484565 
L 212.616 200.113766 
L 214.848 203.202376 
L 217.08 203.371478 
L 232.704 200.988406 
L 250.56 190.779856 
L 268.416 182.915732 
L 286.272 143.170521 
L 304.128 172.728095 
L 321.984 160.548593 
L 339.84 169.376466 
L 355.464 147.441096 
L 357.696 145.811343 
L 359.928 140.512267 
L 375.552 156.82256 
L 393.408 134.608105 
L 411.264 156.709571 
L 429.12 155.811921 
L 446.976 132.50414 
L 464.832 120.891483 
L 482.688 109.803127 
L 498.312 94.248616 
L 500.544 92.119428 
" clip-path="url(#pccbbb33c1f)" style="fill: none; stroke: #ff7f0e; stroke-width: 1.5; stroke-linecap: square"/>
    <defs>
     <path id="m2443df4d28" d="M -3 3 
L 3 3 
L 3 -3 
L -3 -3 
z
" style="stroke: #ff7f0e; stroke-linejoin: miter"/>
    </defs>
    <g clip-path="url(#pccbbb33c1f)">
     <use xlink:href="#m2443df4d28" x="74.232" y="314.654238" style="fill: #ff7f0e; stroke: #ff7f0e; stroke-linejoin: miter"/>
     <use xlink:href="#m2443df4d28" x="76.464" y="309.247574" style="fill: #ff7f0e; stroke: #ff7f0e; stroke-linejoin: miter"/>
     <use xlink:href="#m2443df4d28" x="78.696" y="304.566171" style="fill: #ff7f0e; stroke: #ff7f0e; stroke-linejoin: miter"/>
     <use xlink:href="#m2443df4d28" x="80.928" y="301.039303" style="fill: #ff7f0e; stroke: #ff7f0e; stroke-linejoin: miter"/>
     <use xlink:href="#m2443df4d28" x="83.16" y="294.973474" style="fill: #ff7f0e; stroke: #ff7f0e; stroke-linejoin: miter"/>
     <use xlink:href="#m2443df4d28" x="85.392" y="292.248626" style="fill: #ff7f0e; stroke: #ff7f0e; stroke-linejoin: miter"/>
     <use xlink:href="#m2443df4d28" x="87.624" y="287.32188" style="fill: #ff7f0e; stroke: #ff7f0e; stroke-linejoin: miter"/>
     <use xlink:href="#m2443df4d28" x="89.856" y="284.319574" style="fill: #ff7f0e; stroke: #ff7f0e; stroke-linejoin: miter"/>
     <use xlink:href="#m2443df4d28" x="92.088" y="280.721387" style="fill: #ff7f0e; stroke: #ff7f0e; stroke-linejoin: miter"/>
     <use xlink:href="#m2443df4d28" x="94.32" y="279.182799" style="fill: #ff7f0e; stroke: #ff7f0e; stroke-linejoin: miter"/>
     <use xlink:href="#m2443df4d28" x="96.552" y="278.436556" style="fill: #ff7f0e; stroke: #ff7f0e; stroke-linejoin: miter"/>
     <use xlink:href="#m2443df4d28" x="98.784" y="271.836818" style="fill: #ff7f0e; stroke: #ff7f0e; stroke-linejoin: miter"/>
     <use xlink:href="#m2443df4d28" x="101.016" y="272.104356" style="fill: #ff7f0e; stroke: #ff7f0e; stroke-linejoin: miter"/>
     <use xlink:href="#m2443df4d28" x="103.248" y="265.047322" style="fill: #ff7f0e; stroke: #ff7f0e; stroke-linejoin: miter"/>
     <use xlink:href="#m2443df4d28" x="105.48" y="264.010018" style="fill: #ff7f0e; stroke: #ff7f0e; stroke-linejoin: miter"/>
     <use xlink:href="#m2443df4d28" x="107.712" y="260.957197" style="fill: #ff7f0e; stroke: #ff7f0e; stroke-linejoin: miter"/>
     <use xlink:href="#m2443df4d28" x="109.944" y="262.678619" style="fill: #ff7f0e; stroke: #ff7f0e; stroke-linejoin: miter"/>
     <use xlink:href="#m2443df4d28" x="112.176" y="259.122055" style="fill: #ff7f0e; stroke: #ff7f0e; stroke-linejoin: miter"/>
     <use xlink:href="#m2443df4d28" x="116.64" y="257.972422" style="fill: #ff7f0e; stroke: #ff7f0e; stroke-linejoin: miter"/>
     <use xlink:href="#m2443df4d28" x="121.104" y="253.591852" style="fill: #ff7f0e; stroke: #ff7f0e; stroke-linejoin: miter"/>
     <use xlink:href="#m2443df4d28" x="125.568" y="249.593995" style="fill: #ff7f0e; stroke: #ff7f0e; stroke-linejoin: miter"/>
     <use xlink:href="#m2443df4d28" x="130.032" y="237.246952" style="fill: #ff7f0e; stroke: #ff7f0e; stroke-linejoin: miter"/>
     <use xlink:href="#m2443df4d28" x="134.496" y="229.921141" style="fill: #ff7f0e; stroke: #ff7f0e; stroke-linejoin: miter"/>
     <use xlink:href="#m2443df4d28" x="138.96" y="234.0963" style="fill: #ff7f0e; stroke: #ff7f0e; stroke-linejoin: miter"/>
     <use xlink:href="#m2443df4d28" x="141.192" y="231.143508" style="fill: #ff7f0e; stroke: #ff7f0e; stroke-linejoin: miter"/>
     <use xlink:href="#m2443df4d28" x="143.424" y="224.630086" style="fill: #ff7f0e; stroke: #ff7f0e; stroke-linejoin: miter"/>
     <use xlink:href="#m2443df4d28" x="145.656" y="228.763994" style="fill: #ff7f0e; stroke: #ff7f0e; stroke-linejoin: miter"/>
     <use xlink:href="#m2443df4d28" x="152.352" y="216.436855" style="fill: #ff7f0e; stroke: #ff7f0e; stroke-linejoin: miter"/>
     <use xlink:href="#m2443df4d28" x="161.28" y="203.925833" style="fill: #ff7f0e; stroke: #ff7f0e; stroke-linejoin: miter"/>
     <use xlink:href="#m2443df4d28" x="170.208" y="214.39942" style="fill: #ff7f0e; stroke: #ff7f0e; stroke-linejoin: miter"/>
     <use xlink:href="#m2443df4d28" x="179.136" y="203.990699" style="fill: #ff7f0e; stroke: #ff7f0e; stroke-linejoin: miter"/>
     <use xlink:href="#m2443df4d28" x="188.064" y="207.806647" style="fill: #ff7f0e; stroke: #ff7f0e; stroke-linejoin: miter"/>
     <use xlink:href="#m2443df4d28" x="196.992" y="200.841068" style="fill: #ff7f0e; stroke: #ff7f0e; stroke-linejoin: miter"/>
     <use xlink:href="#m2443df4d28" x="205.92" y="206.484565" style="fill: #ff7f0e; stroke: #ff7f0e; stroke-linejoin: miter"/>
     <use xlink:href="#m2443df4d28" x="212.616" y="200.113766" style="fill: #ff7f0e; stroke: #ff7f0e; stroke-linejoin: miter"/>
     <use xlink:href="#m2443df4d28" x="214.848" y="203.202376" style="fill: #ff7f0e; stroke: #ff7f0e; stroke-linejoin: miter"/>
     <use xlink:href="#m2443df4d28" x="217.08" y="203.371478" style="fill: #ff7f0e; stroke: #ff7f0e; stroke-linejoin: miter"/>
     <use xlink:href="#m2443df4d28" x="232.704" y="200.988406" style="fill: #ff7f0e; stroke: #ff7f0e; stroke-linejoin: miter"/>
     <use xlink:href="#m2443df4d28" x="250.56" y="190.779856" style="fill: #ff7f0e; stroke: #ff7f0e; stroke-linejoin: miter"/>
     <use xlink:href="#m2443df4d28" x="268.416" y="182.915732" style="fill: #ff7f0e; stroke: #ff7f0e; stroke-linejoin: miter"/>
     <use xlink:href="#m2443df4d28" x="286.272" y="143.170521" style="fill: #ff7f0e; stroke: #ff7f0e; stroke-linejoin: miter"/>
     <use xlink:href="#m2443df4d28" x="304.128" y="172.728095" style="fill: #ff7f0e; stroke: #ff7f0e; stroke-linejoin: miter"/>
     <use xlink:href="#m2443df4d28" x="321.984" y="160.548593" style="fill: #ff7f0e; stroke: #ff7f0e; stroke-linejoin: miter"/>
     <use xlink:href="#m2443df4d28" x="339.84" y="169.376466" style="fill: #ff7f0e; stroke: #ff7f0e; stroke-linejoin: miter"/>
     <use xlink:href="#m2443df4d28" x="355.464" y="147.441096" style="fill: #ff7f0e; stroke: #ff7f0e; stroke-linejoin: miter"/>
     <use xlink:href="#m2443df4d28" x="357.696" y="145.811343" style="fill: #ff7f0e; stroke: #ff7f0e; stroke-linejoin: miter"/>
     <use xlink:href="#m2443df4d28" x="359.928" y="140.512267" style="fill: #ff7f0e; stroke: #ff7f0e; stroke-linejoin: miter"/>
     <use xlink:href="#m2443df4d28" x="375.552" y="156.82256" style="fill: #ff7f0e; stroke: #ff7f0e; stroke-linejoin: miter"/>
     <use xlink:href="#m2443df4d28" x="393.408" y="134.608105" style="fill: #ff7f0e; stroke: #ff7f0e; stroke-linejoin: miter"/>
     <use xlink:href="#m2443df4d28" x="411.264" y="156.709571" style="fill: #ff7f0e; stroke: #ff7f0e; stroke-linejoin: miter"/>
     <use xlink:href="#m2443df4d28" x="429.12" y="155.811921" style="fill: #ff7f0e; stroke: #ff7f0e; stroke-linejoin: miter"/>
     <use xlink:href="#m2443df4d28" x="446.976" y="132.50414" style="fill: #ff7f0e; stroke: #ff7f0e; stroke-linejoin: miter"/>
     <use xlink:href="#m2443df4d28" x="464.832" y="120.891483" style="fill: #ff7f0e; stroke: #ff7f0e; stroke-linejoin: miter"/>
     <use xlink:href="#m2443df4d28" x="482.688" y="109.803127" style="fill: #ff7f0e; stroke: #ff7f0e; stroke-linejoin: miter"/>
     <use xlink:href="#m2443df4d28" x="498.312" y="94.248616" style="fill: #ff7f0e; stroke: #ff7f0e; stroke-linejoin: miter"/>
     <use xlink:href="#m2443df4d28" x="500.544" y="92.119428" style="fill: #ff7f0e; stroke: #ff7f0e; stroke-linejoin: miter"/>
    </g>
   </g>
   <g id="line2d_22">
    <path d="M 180.252 320.4 
L 180.252 43.2 
" clip-path="url(#pccbbb33c1f)" style="fill: none; stroke-dasharray: 1.5,2.475; stroke-dashoffset: 0; stroke: #d3d3d3; stroke-width: 1.5"/>
   </g>
   <g id="patch_3">
    <path d="M 72 320.4 
L 72 43.2 
" style="fill: none; stroke: #000000; stroke-width: 0.8; stroke-linejoin: miter; stroke-linecap: square"/>
   </g>
   <g id="patch_4">
    <path d="M 518.4 320.4 
L 518.4 43.2 
" style="fill: none; stroke: #000000; stroke-width: 0.8; stroke-linejoin: miter; stroke-linecap: square"/>
   </g>
   <g id="patch_5">
    <path d="M 72 320.4 
L 518.4 320.4 
" style="fill: none; stroke: #000000; stroke-width: 0.8; stroke-linejoin: miter; stroke-linecap: square"/>
   </g>
   <g id="patch_6">
    <path d="M 72 43.2 
L 518.4 43.2 
" style="fill: none; stroke: #000000; stroke-width: 0.8; stroke-linejoin: miter; stroke-linecap: square"/>
   </g>
   <g id="text_21">
    <!--  -->
    <g style="fill: #808080" transform="translate(177.412469 270.013773) rotate(-90) scale(0.1 -0.1)"/>
    <!-- hyperthreading -->
    <g style="fill: #808080" transform="translate(188.610281 308.566898) rotate(-90) scale(0.1 -0.1)">
     <defs>
      <path id="DejaVuSans-79" d="M 2059 -325 
Q 1816 -950 1584 -1140 
Q 1353 -1331 966 -1331 
L 506 -1331 
L 506 -850 
L 844 -850 
Q 1081 -850 1212 -737 
Q 1344 -625 1503 -206 
L 1606 56 
L 191 3500 
L 800 3500 
L 1894 763 
L 2988 3500 
L 3597 3500 
L 2059 -325 
z
" transform="scale(0.015625)"/>
      <path id="DejaVuSans-69" d="M 603 3500 
L 1178 3500 
L 1178 0 
L 603 0 
L 603 3500 
z
M 603 4863 
L 1178 4863 
L 1178 4134 
L 603 4134 
L 603 4863 
z
" transform="scale(0.015625)"/>
      <path id="DejaVuSans-67" d="M 2906 1791 
Q 2906 2416 2648 2759 
Q 2391 3103 1925 3103 
Q 1463 3103 1205 2759 
Q 947 2416 947 1791 
Q 947 1169 1205 825 
Q 1463 481 1925 481 
Q 2391 481 2648 825 
Q 2906 1169 2906 1791 
z
M 3481 434 
Q 3481 -459 3084 -895 
Q 2688 -1331 1869 -1331 
Q 1566 -1331 1297 -1286 
Q 1028 -1241 775 -1147 
L 775 -588 
Q 1028 -725 1275 -790 
Q 1522 -856 1778 -856 
Q 2344 -856 2625 -561 
Q 2906 -266 2906 331 
L 2906 616 
Q 2728 306 2450 153 
Q 2172 0 1784 0 
Q 1141 0 747 490 
Q 353 981 353 1791 
Q 353 2603 747 3093 
Q 1141 3584 1784 3584 
Q 2172 3584 2450 3431 
Q 2728 3278 2906 2969 
L 2906 3500 
L 3481 3500 
L 3481 434 
z
" transform="scale(0.015625)"/>
     </defs>
     <use xlink:href="#DejaVuSans-68"/>
     <use xlink:href="#DejaVuSans-79" x="63.378906"/>
     <use xlink:href="#DejaVuSans-70" x="122.558594"/>
     <use xlink:href="#DejaVuSans-65" x="186.035156"/>
     <use xlink:href="#DejaVuSans-72" x="247.558594"/>
     <use xlink:href="#DejaVuSans-74" x="288.671875"/>
     <use xlink:href="#DejaVuSans-68" x="327.880859"/>
     <use xlink:href="#DejaVuSans-72" x="391.259766"/>
     <use xlink:href="#DejaVuSans-65" x="430.123047"/>
     <use xlink:href="#DejaVuSans-61" x="491.646484"/>
     <use xlink:href="#DejaVuSans-64" x="552.925781"/>
     <use xlink:href="#DejaVuSans-69" x="616.402344"/>
     <use xlink:href="#DejaVuSans-6e" x="644.185547"/>
     <use xlink:href="#DejaVuSans-67" x="707.564453"/>
    </g>
   </g>
   <g id="legend_1">
    <g id="patch_7">
     <path d="M 79 95.234375 
L 187.976562 95.234375 
Q 189.976562 95.234375 189.976562 93.234375 
L 189.976562 50.2 
Q 189.976562 48.2 187.976562 48.2 
L 79 48.2 
Q 77 48.2 77 50.2 
L 77 93.234375 
Q 77 95.234375 79 95.234375 
z
" style="fill: #ffffff; stroke: #cccccc; stroke-linejoin: miter"/>
    </g>
    <g id="line2d_23">
     <path d="M 81 56.298437 
L 91 56.298437 
L 101 56.298437 
" style="fill: none; stroke: #808080; stroke-width: 1.5; stroke-linecap: square"/>
    </g>
    <g id="text_22">
     <!-- perfect scaling -->
     <g transform="translate(109 59.798437) scale(0.1 -0.1)">
      <use xlink:href="#DejaVuSans-70"/>
      <use xlink:href="#DejaVuSans-65" x="63.476562"/>
      <use xlink:href="#DejaVuSans-72" x="125"/>
      <use xlink:href="#DejaVuSans-66" x="166.113281"/>
      <use xlink:href="#DejaVuSans-65" x="201.318359"/>
      <use xlink:href="#DejaVuSans-63" x="262.841797"/>
      <use xlink:href="#DejaVuSans-74" x="317.822266"/>
      <use xlink:href="#DejaVuSans-20" x="357.03125"/>
      <use xlink:href="#DejaVuSans-73" x="388.818359"/>
      <use xlink:href="#DejaVuSans-63" x="440.917969"/>
      <use xlink:href="#DejaVuSans-61" x="495.898438"/>
      <use xlink:href="#DejaVuSans-6c" x="557.177734"/>
      <use xlink:href="#DejaVuSans-69" x="584.960938"/>
      <use xlink:href="#DejaVuSans-6e" x="612.744141"/>
      <use xlink:href="#DejaVuSans-67" x="676.123047"/>
     </g>
    </g>
    <g id="line2d_24">
     <path d="M 81 70.976562 
L 91 70.976562 
L 101 70.976562 
" style="fill: none; stroke: #2ca02c; stroke-width: 1.5; stroke-linecap: square"/>
     <g>
      <use xlink:href="#m3b7f08fc67" x="91" y="70.976562" style="fill: #2ca02c; stroke: #2ca02c"/>
     </g>
    </g>
    <g id="text_23">
     <!-- subinterpreters -->
     <g transform="translate(109 74.476562) scale(0.1 -0.1)">
      <use xlink:href="#DejaVuSans-73"/>
      <use xlink:href="#DejaVuSans-75" x="52.099609"/>
      <use xlink:href="#DejaVuSans-62" x="115.478516"/>
      <use xlink:href="#DejaVuSans-69" x="178.955078"/>
      <use xlink:href="#DejaVuSans-6e" x="206.738281"/>
      <use xlink:href="#DejaVuSans-74" x="270.117188"/>
      <use xlink:href="#DejaVuSans-65" x="309.326172"/>
      <use xlink:href="#DejaVuSans-72" x="370.849609"/>
      <use xlink:href="#DejaVuSans-70" x="411.962891"/>
      <use xlink:href="#DejaVuSans-72" x="475.439453"/>
      <use xlink:href="#DejaVuSans-65" x="514.302734"/>
      <use xlink:href="#DejaVuSans-74" x="575.826172"/>
      <use xlink:href="#DejaVuSans-65" x="615.035156"/>
      <use xlink:href="#DejaVuSans-72" x="676.558594"/>
      <use xlink:href="#DejaVuSans-73" x="717.671875"/>
     </g>
    </g>
    <g id="line2d_25">
     <path d="M 81 85.654687 
L 91 85.654687 
L 101 85.654687 
" style="fill: none; stroke: #ff7f0e; stroke-width: 1.5; stroke-linecap: square"/>
     <g>
      <use xlink:href="#m2443df4d28" x="91" y="85.654687" style="fill: #ff7f0e; stroke: #ff7f0e; stroke-linejoin: miter"/>
     </g>
    </g>
    <g id="text_24">
     <!-- free-threading -->
     <g transform="translate(109 89.154687) scale(0.1 -0.1)">
      <defs>
       <path id="DejaVuSans-2d" d="M 313 2009 
L 1997 2009 
L 1997 1497 
L 313 1497 
L 313 2009 
z
" transform="scale(0.015625)"/>
      </defs>
      <use xlink:href="#DejaVuSans-66"/>
      <use xlink:href="#DejaVuSans-72" x="35.205078"/>
      <use xlink:href="#DejaVuSans-65" x="74.068359"/>
      <use xlink:href="#DejaVuSans-65" x="135.591797"/>
      <use xlink:href="#DejaVuSans-2d" x="197.115234"/>
      <use xlink:href="#DejaVuSans-74" x="233.199219"/>
      <use xlink:href="#DejaVuSans-68" x="272.408203"/>
      <use xlink:href="#DejaVuSans-72" x="335.787109"/>
      <use xlink:href="#DejaVuSans-65" x="374.650391"/>
      <use xlink:href="#DejaVuSans-61" x="436.173828"/>
      <use xlink:href="#DejaVuSans-64" x="497.453125"/>
      <use xlink:href="#DejaVuSans-69" x="560.929688"/>
      <use xlink:href="#DejaVuSans-6e" x="588.712891"/>
      <use xlink:href="#DejaVuSans-67" x="652.091797"/>
     </g>
    </g>
   </g>
  </g>
 </g>
 <defs>
  <clipPath id="pccbbb33c1f">
   <rect x="72" y="43.2" width="446.4" height="277.2"/>
  </clipPath>
 </defs>
</svg>
