<?xml version="1.0" encoding="utf-8" standalone="no"?>
<!DOCTYPE svg PUBLIC "-//W3C//DTD SVG 1.1//EN"
  "http://www.w3.org/Graphics/SVG/1.1/DTD/svg11.dtd">
<svg xmlns:xlink="http://www.w3.org/1999/xlink" width="460.8pt" height="345.6pt" viewBox="0 0 460.8 345.6" xmlns="http://www.w3.org/2000/svg" version="1.1">
 <metadata>
  <rdf:RDF xmlns:dc="http://purl.org/dc/elements/1.1/" xmlns:cc="http://creativecommons.org/ns#" xmlns:rdf="http://www.w3.org/1999/02/22-rdf-syntax-ns#">
   <cc:Work>
    <dc:type rdf:resource="http://purl.org/dc/dcmitype/StillImage"/>
    <dc:date>2024-10-07T19:07:37.703577</dc:date>
    <dc:format>image/svg+xml</dc:format>
    <dc:creator>
     <cc:Agent>
      <dc:title>Matplotlib v3.8.4, https://matplotlib.org/</dc:title>
     </cc:Agent>
    </dc:creator>
   </cc:Work>
  </rdf:RDF>
 </metadata>
 <defs>
  <style type="text/css">*{stroke-linejoin: round; stroke-linecap: butt}</style>
 </defs>
 <g id="figure_1">
  <g id="patch_1">
   <path d="M 0 345.6 
L 460.8 345.6 
L 460.8 0 
L 0 0 
z
" style="fill: #ffffff"/>
  </g>
  <g id="axes_1">
   <g id="patch_2">
    <path d="M 57.6 307.584 
L 414.72 307.584 
L 414.72 41.472 
L 57.6 41.472 
z
" style="fill: #ffffff"/>
   </g>
   <g id="matplotlib.axis_1">
    <g id="xtick_1">
     <g id="line2d_1">
      <defs>
       <path id="me470745fad" d="M 0 0 
L 0 3.5 
" style="stroke: #000000; stroke-width: 0.8"/>
      </defs>
      <g>
       <use xlink:href="#me470745fad" x="57.6" y="307.584" style="stroke: #000000; stroke-width: 0.8"/>
      </g>
     </g>
     <g id="text_1">
      <!-- 0 -->
      <g transform="translate(54.41875 322.182437) scale(0.1 -0.1)">
       <defs>
        <path id="DejaVuSans-30" d="M 2034 4250 
Q 1547 4250 1301 3770 
Q 1056 3291 1056 2328 
Q 1056 1369 1301 889 
Q 1547 409 2034 409 
Q 2525 409 2770 889 
Q 3016 1369 3016 2328 
Q 3016 3291 2770 3770 
Q 2525 4250 2034 4250 
z
M 2034 4750 
Q 2819 4750 3233 4129 
Q 3647 3509 3647 2328 
Q 3647 1150 3233 529 
Q 2819 -91 2034 -91 
Q 1250 -91 836 529 
Q 422 1150 422 2328 
Q 422 3509 836 4129 
Q 1250 4750 2034 4750 
z
" transform="scale(0.015625)"/>
       </defs>
       <use xlink:href="#DejaVuSans-30"/>
      </g>
     </g>
    </g>
    <g id="xtick_2">
     <g id="line2d_2">
      <g>
       <use xlink:href="#me470745fad" x="102.24" y="307.584" style="stroke: #000000; stroke-width: 0.8"/>
      </g>
     </g>
     <g id="text_2">
      <!-- 25 -->
      <g transform="translate(95.8775 322.182437) scale(0.1 -0.1)">
       <defs>
        <path id="DejaVuSans-32" d="M 1228 531 
L 3431 531 
L 3431 0 
L 469 0 
L 469 531 
Q 828 903 1448 1529 
Q 2069 2156 2228 2338 
Q 2531 2678 2651 2914 
Q 2772 3150 2772 3378 
Q 2772 3750 2511 3984 
Q 2250 4219 1831 4219 
Q 1534 4219 1204 4116 
Q 875 4013 500 3803 
L 500 4441 
Q 881 4594 1212 4672 
Q 1544 4750 1819 4750 
Q 2544 4750 2975 4387 
Q 3406 4025 3406 3419 
Q 3406 3131 3298 2873 
Q 3191 2616 2906 2266 
Q 2828 2175 2409 1742 
Q 1991 1309 1228 531 
z
" transform="scale(0.015625)"/>
        <path id="DejaVuSans-35" d="M 691 4666 
L 3169 4666 
L 3169 4134 
L 1269 4134 
L 1269 2991 
Q 1406 3038 1543 3061 
Q 1681 3084 1819 3084 
Q 2600 3084 3056 2656 
Q 3513 2228 3513 1497 
Q 3513 744 3044 326 
Q 2575 -91 1722 -91 
Q 1428 -91 1123 -41 
Q 819 9 494 109 
L 494 744 
Q 775 591 1075 516 
Q 1375 441 1709 441 
Q 2250 441 2565 725 
Q 2881 1009 2881 1497 
Q 2881 1984 2565 2268 
Q 2250 2553 1709 2553 
Q 1456 2553 1204 2497 
Q 953 2441 691 2322 
L 691 4666 
z
" transform="scale(0.015625)"/>
       </defs>
       <use xlink:href="#DejaVuSans-32"/>
       <use xlink:href="#DejaVuSans-35" x="63.623047"/>
      </g>
     </g>
    </g>
    <g id="xtick_3">
     <g id="line2d_3">
      <g>
       <use xlink:href="#me470745fad" x="146.88" y="307.584" style="stroke: #000000; stroke-width: 0.8"/>
      </g>
     </g>
     <g id="text_3">
      <!-- 50 -->
      <g transform="translate(140.5175 322.182437) scale(0.1 -0.1)">
       <use xlink:href="#DejaVuSans-35"/>
       <use xlink:href="#DejaVuSans-30" x="63.623047"/>
      </g>
     </g>
    </g>
    <g id="xtick_4">
     <g id="line2d_4">
      <g>
       <use xlink:href="#me470745fad" x="191.52" y="307.584" style="stroke: #000000; stroke-width: 0.8"/>
      </g>
     </g>
     <g id="text_4">
      <!-- 75 -->
      <g transform="translate(185.1575 322.182437) scale(0.1 -0.1)">
       <defs>
        <path id="DejaVuSans-37" d="M 525 4666 
L 3525 4666 
L 3525 4397 
L 1831 0 
L 1172 0 
L 2766 4134 
L 525 4134 
L 525 4666 
z
" transform="scale(0.015625)"/>
       </defs>
       <use xlink:href="#DejaVuSans-37"/>
       <use xlink:href="#DejaVuSans-35" x="63.623047"/>
      </g>
     </g>
    </g>
    <g id="xtick_5">
     <g id="line2d_5">
      <g>
       <use xlink:href="#me470745fad" x="236.16" y="307.584" style="stroke: #000000; stroke-width: 0.8"/>
      </g>
     </g>
     <g id="text_5">
      <!-- 100 -->
      <g transform="translate(226.61625 322.182437) scale(0.1 -0.1)">
       <defs>
        <path id="DejaVuSans-31" d="M 794 531 
L 1825 531 
L 1825 4091 
L 703 3866 
L 703 4441 
L 1819 4666 
L 2450 4666 
L 2450 531 
L 3481 531 
L 3481 0 
L 794 0 
L 794 531 
z
" transform="scale(0.015625)"/>
       </defs>
       <use xlink:href="#DejaVuSans-31"/>
       <use xlink:href="#DejaVuSans-30" x="63.623047"/>
       <use xlink:href="#DejaVuSans-30" x="127.246094"/>
      </g>
     </g>
    </g>
    <g id="xtick_6">
     <g id="line2d_6">
      <g>
       <use xlink:href="#me470745fad" x="280.8" y="307.584" style="stroke: #000000; stroke-width: 0.8"/>
      </g>
     </g>
     <g id="text_6">
      <!-- 125 -->
      <g transform="translate(271.25625 322.182437) scale(0.1 -0.1)">
       <use xlink:href="#DejaVuSans-31"/>
       <use xlink:href="#DejaVuSans-32" x="63.623047"/>
       <use xlink:href="#DejaVuSans-35" x="127.246094"/>
      </g>
     </g>
    </g>
    <g id="xtick_7">
     <g id="line2d_7">
      <g>
       <use xlink:href="#me470745fad" x="325.44" y="307.584" style="stroke: #000000; stroke-width: 0.8"/>
      </g>
     </g>
     <g id="text_7">
      <!-- 150 -->
      <g transform="translate(315.89625 322.182437) scale(0.1 -0.1)">
       <use xlink:href="#DejaVuSans-31"/>
       <use xlink:href="#DejaVuSans-35" x="63.623047"/>
       <use xlink:href="#DejaVuSans-30" x="127.246094"/>
      </g>
     </g>
    </g>
    <g id="xtick_8">
     <g id="line2d_8">
      <g>
       <use xlink:href="#me470745fad" x="370.08" y="307.584" style="stroke: #000000; stroke-width: 0.8"/>
      </g>
     </g>
     <g id="text_8">
      <!-- 175 -->
      <g transform="translate(360.53625 322.182437) scale(0.1 -0.1)">
       <use xlink:href="#DejaVuSans-31"/>
       <use xlink:href="#DejaVuSans-37" x="63.623047"/>
       <use xlink:href="#DejaVuSans-35" x="127.246094"/>
      </g>
     </g>
    </g>
    <g id="xtick_9">
     <g id="line2d_9">
      <g>
       <use xlink:href="#me470745fad" x="414.72" y="307.584" style="stroke: #000000; stroke-width: 0.8"/>
      </g>
     </g>
     <g id="text_9">
      <!-- 200 -->
      <g transform="translate(405.17625 322.182437) scale(0.1 -0.1)">
       <use xlink:href="#DejaVuSans-32"/>
       <use xlink:href="#DejaVuSans-30" x="63.623047"/>
       <use xlink:href="#DejaVuSans-30" x="127.246094"/>
      </g>
     </g>
    </g>
    <g id="text_10">
     <!-- number of threads -->
     <g transform="translate(189.656875 335.860562) scale(0.1 -0.1)">
      <defs>
       <path id="DejaVuSans-6e" d="M 3513 2113 
L 3513 0 
L 2938 0 
L 2938 2094 
Q 2938 2591 2744 2837 
Q 2550 3084 2163 3084 
Q 1697 3084 1428 2787 
Q 1159 2491 1159 1978 
L 1159 0 
L 581 0 
L 581 3500 
L 1159 3500 
L 1159 2956 
Q 1366 3272 1645 3428 
Q 1925 3584 2291 3584 
Q 2894 3584 3203 3211 
Q 3513 2838 3513 2113 
z
" transform="scale(0.015625)"/>
       <path id="DejaVuSans-75" d="M 544 1381 
L 544 3500 
L 1119 3500 
L 1119 1403 
Q 1119 906 1312 657 
Q 1506 409 1894 409 
Q 2359 409 2629 706 
Q 2900 1003 2900 1516 
L 2900 3500 
L 3475 3500 
L 3475 0 
L 2900 0 
L 2900 538 
Q 2691 219 2414 64 
Q 2138 -91 1772 -91 
Q 1169 -91 856 284 
Q 544 659 544 1381 
z
M 1991 3584 
L 1991 3584 
z
" transform="scale(0.015625)"/>
       <path id="DejaVuSans-6d" d="M 3328 2828 
Q 3544 3216 3844 3400 
Q 4144 3584 4550 3584 
Q 5097 3584 5394 3201 
Q 5691 2819 5691 2113 
L 5691 0 
L 5113 0 
L 5113 2094 
Q 5113 2597 4934 2840 
Q 4756 3084 4391 3084 
Q 3944 3084 3684 2787 
Q 3425 2491 3425 1978 
L 3425 0 
L 2847 0 
L 2847 2094 
Q 2847 2600 2669 2842 
Q 2491 3084 2119 3084 
Q 1678 3084 1418 2786 
Q 1159 2488 1159 1978 
L 1159 0 
L 581 0 
L 581 3500 
L 1159 3500 
L 1159 2956 
Q 1356 3278 1631 3431 
Q 1906 3584 2284 3584 
Q 2666 3584 2933 3390 
Q 3200 3197 3328 2828 
z
" transform="scale(0.015625)"/>
       <path id="DejaVuSans-62" d="M 3116 1747 
Q 3116 2381 2855 2742 
Q 2594 3103 2138 3103 
Q 1681 3103 1420 2742 
Q 1159 2381 1159 1747 
Q 1159 1113 1420 752 
Q 1681 391 2138 391 
Q 2594 391 2855 752 
Q 3116 1113 3116 1747 
z
M 1159 2969 
Q 1341 3281 1617 3432 
Q 1894 3584 2278 3584 
Q 2916 3584 3314 3078 
Q 3713 2572 3713 1747 
Q 3713 922 3314 415 
Q 2916 -91 2278 -91 
Q 1894 -91 1617 61 
Q 1341 213 1159 525 
L 1159 0 
L 581 0 
L 581 4863 
L 1159 4863 
L 1159 2969 
z
" transform="scale(0.015625)"/>
       <path id="DejaVuSans-65" d="M 3597 1894 
L 3597 1613 
L 953 1613 
Q 991 1019 1311 708 
Q 1631 397 2203 397 
Q 2534 397 2845 478 
Q 3156 559 3463 722 
L 3463 178 
Q 3153 47 2828 -22 
Q 2503 -91 2169 -91 
Q 1331 -91 842 396 
Q 353 884 353 1716 
Q 353 2575 817 3079 
Q 1281 3584 2069 3584 
Q 2775 3584 3186 3129 
Q 3597 2675 3597 1894 
z
M 3022 2063 
Q 3016 2534 2758 2815 
Q 2500 3097 2075 3097 
Q 1594 3097 1305 2825 
Q 1016 2553 972 2059 
L 3022 2063 
z
" transform="scale(0.015625)"/>
       <path id="DejaVuSans-72" d="M 2631 2963 
Q 2534 3019 2420 3045 
Q 2306 3072 2169 3072 
Q 1681 3072 1420 2755 
Q 1159 2438 1159 1844 
L 1159 0 
L 581 0 
L 581 3500 
L 1159 3500 
L 1159 2956 
Q 1341 3275 1631 3429 
Q 1922 3584 2338 3584 
Q 2397 3584 2469 3576 
Q 2541 3569 2628 3553 
L 2631 2963 
z
" transform="scale(0.015625)"/>
       <path id="DejaVuSans-20" transform="scale(0.015625)"/>
       <path id="DejaVuSans-6f" d="M 1959 3097 
Q 1497 3097 1228 2736 
Q 959 2375 959 1747 
Q 959 1119 1226 758 
Q 1494 397 1959 397 
Q 2419 397 2687 759 
Q 2956 1122 2956 1747 
Q 2956 2369 2687 2733 
Q 2419 3097 1959 3097 
z
M 1959 3584 
Q 2709 3584 3137 3096 
Q 3566 2609 3566 1747 
Q 3566 888 3137 398 
Q 2709 -91 1959 -91 
Q 1206 -91 779 398 
Q 353 888 353 1747 
Q 353 2609 779 3096 
Q 1206 3584 1959 3584 
z
" transform="scale(0.015625)"/>
       <path id="DejaVuSans-66" d="M 2375 4863 
L 2375 4384 
L 1825 4384 
Q 1516 4384 1395 4259 
Q 1275 4134 1275 3809 
L 1275 3500 
L 2222 3500 
L 2222 3053 
L 1275 3053 
L 1275 0 
L 697 0 
L 697 3053 
L 147 3053 
L 147 3500 
L 697 3500 
L 697 3744 
Q 697 4328 969 4595 
Q 1241 4863 1831 4863 
L 2375 4863 
z
" transform="scale(0.015625)"/>
       <path id="DejaVuSans-74" d="M 1172 4494 
L 1172 3500 
L 2356 3500 
L 2356 3053 
L 1172 3053 
L 1172 1153 
Q 1172 725 1289 603 
Q 1406 481 1766 481 
L 2356 481 
L 2356 0 
L 1766 0 
Q 1100 0 847 248 
Q 594 497 594 1153 
L 594 3053 
L 172 3053 
L 172 3500 
L 594 3500 
L 594 4494 
L 1172 4494 
z
" transform="scale(0.015625)"/>
       <path id="DejaVuSans-68" d="M 3513 2113 
L 3513 0 
L 2938 0 
L 2938 2094 
Q 2938 2591 2744 2837 
Q 2550 3084 2163 3084 
Q 1697 3084 1428 2787 
Q 1159 2491 1159 1978 
L 1159 0 
L 581 0 
L 581 4863 
L 1159 4863 
L 1159 2956 
Q 1366 3272 1645 3428 
Q 1925 3584 2291 3584 
Q 2894 3584 3203 3211 
Q 3513 2838 3513 2113 
z
" transform="scale(0.015625)"/>
       <path id="DejaVuSans-61" d="M 2194 1759 
Q 1497 1759 1228 1600 
Q 959 1441 959 1056 
Q 959 750 1161 570 
Q 1363 391 1709 391 
Q 2188 391 2477 730 
Q 2766 1069 2766 1631 
L 2766 1759 
L 2194 1759 
z
M 3341 1997 
L 3341 0 
L 2766 0 
L 2766 531 
Q 2569 213 2275 61 
Q 1981 -91 1556 -91 
Q 1019 -91 701 211 
Q 384 513 384 1019 
Q 384 1609 779 1909 
Q 1175 2209 1959 2209 
L 2766 2209 
L 2766 2266 
Q 2766 2663 2505 2880 
Q 2244 3097 1772 3097 
Q 1472 3097 1187 3025 
Q 903 2953 641 2809 
L 641 3341 
Q 956 3463 1253 3523 
Q 1550 3584 1831 3584 
Q 2591 3584 2966 3190 
Q 3341 2797 3341 1997 
z
" transform="scale(0.015625)"/>
       <path id="DejaVuSans-64" d="M 2906 2969 
L 2906 4863 
L 3481 4863 
L 3481 0 
L 2906 0 
L 2906 525 
Q 2725 213 2448 61 
Q 2172 -91 1784 -91 
Q 1150 -91 751 415 
Q 353 922 353 1747 
Q 353 2572 751 3078 
Q 1150 3584 1784 3584 
Q 2172 3584 2448 3432 
Q 2725 3281 2906 2969 
z
M 947 1747 
Q 947 1113 1208 752 
Q 1469 391 1925 391 
Q 2381 391 2643 752 
Q 2906 1113 2906 1747 
Q 2906 2381 2643 2742 
Q 2381 3103 1925 3103 
Q 1469 3103 1208 2742 
Q 947 2381 947 1747 
z
" transform="scale(0.015625)"/>
       <path id="DejaVuSans-73" d="M 2834 3397 
L 2834 2853 
Q 2591 2978 2328 3040 
Q 2066 3103 1784 3103 
Q 1356 3103 1142 2972 
Q 928 2841 928 2578 
Q 928 2378 1081 2264 
Q 1234 2150 1697 2047 
L 1894 2003 
Q 2506 1872 2764 1633 
Q 3022 1394 3022 966 
Q 3022 478 2636 193 
Q 2250 -91 1575 -91 
Q 1294 -91 989 -36 
Q 684 19 347 128 
L 347 722 
Q 666 556 975 473 
Q 1284 391 1588 391 
Q 1994 391 2212 530 
Q 2431 669 2431 922 
Q 2431 1156 2273 1281 
Q 2116 1406 1581 1522 
L 1381 1569 
Q 847 1681 609 1914 
Q 372 2147 372 2553 
Q 372 3047 722 3315 
Q 1072 3584 1716 3584 
Q 2034 3584 2315 3537 
Q 2597 3491 2834 3397 
z
" transform="scale(0.015625)"/>
      </defs>
      <use xlink:href="#DejaVuSans-6e"/>
      <use xlink:href="#DejaVuSans-75" x="63.378906"/>
      <use xlink:href="#DejaVuSans-6d" x="126.757812"/>
      <use xlink:href="#DejaVuSans-62" x="224.169922"/>
      <use xlink:href="#DejaVuSans-65" x="287.646484"/>
      <use xlink:href="#DejaVuSans-72" x="349.169922"/>
      <use xlink:href="#DejaVuSans-20" x="390.283203"/>
      <use xlink:href="#DejaVuSans-6f" x="422.070312"/>
      <use xlink:href="#DejaVuSans-66" x="483.251953"/>
      <use xlink:href="#DejaVuSans-20" x="518.457031"/>
      <use xlink:href="#DejaVuSans-74" x="550.244141"/>
      <use xlink:href="#DejaVuSans-68" x="589.453125"/>
      <use xlink:href="#DejaVuSans-72" x="652.832031"/>
      <use xlink:href="#DejaVuSans-65" x="691.695312"/>
      <use xlink:href="#DejaVuSans-61" x="753.21875"/>
      <use xlink:href="#DejaVuSans-64" x="814.498047"/>
      <use xlink:href="#DejaVuSans-73" x="877.974609"/>
     </g>
    </g>
   </g>
   <g id="matplotlib.axis_2">
    <g id="ytick_1">
     <g id="line2d_10">
      <defs>
       <path id="m228daa6e1f" d="M 0 0 
L -3.5 0 
" style="stroke: #000000; stroke-width: 0.8"/>
      </defs>
      <g>
       <use xlink:href="#m228daa6e1f" x="57.6" y="307.584" style="stroke: #000000; stroke-width: 0.8"/>
      </g>
     </g>
     <g id="text_11">
      <!-- 0.00 -->
      <g transform="translate(28.334375 311.383219) scale(0.1 -0.1)">
       <defs>
        <path id="DejaVuSans-2e" d="M 684 794 
L 1344 794 
L 1344 0 
L 684 0 
L 684 794 
z
" transform="scale(0.015625)"/>
       </defs>
       <use xlink:href="#DejaVuSans-30"/>
       <use xlink:href="#DejaVuSans-2e" x="63.623047"/>
       <use xlink:href="#DejaVuSans-30" x="95.410156"/>
       <use xlink:href="#DejaVuSans-30" x="159.033203"/>
      </g>
     </g>
    </g>
    <g id="ytick_2">
     <g id="line2d_11">
      <g>
       <use xlink:href="#m228daa6e1f" x="57.6" y="256.6923" style="stroke: #000000; stroke-width: 0.8"/>
      </g>
     </g>
     <g id="text_12">
      <!-- 0.02 -->
      <g transform="translate(28.334375 260.491519) scale(0.1 -0.1)">
       <use xlink:href="#DejaVuSans-30"/>
       <use xlink:href="#DejaVuSans-2e" x="63.623047"/>
       <use xlink:href="#DejaVuSans-30" x="95.410156"/>
       <use xlink:href="#DejaVuSans-32" x="159.033203"/>
      </g>
     </g>
    </g>
    <g id="ytick_3">
     <g id="line2d_12">
      <g>
       <use xlink:href="#m228daa6e1f" x="57.6" y="205.800601" style="stroke: #000000; stroke-width: 0.8"/>
      </g>
     </g>
     <g id="text_13">
      <!-- 0.04 -->
      <g transform="translate(28.334375 209.599819) scale(0.1 -0.1)">
       <defs>
        <path id="DejaVuSans-34" d="M 2419 4116 
L 825 1625 
L 2419 1625 
L 2419 4116 
z
M 2253 4666 
L 3047 4666 
L 3047 1625 
L 3713 1625 
L 3713 1100 
L 3047 1100 
L 3047 0 
L 2419 0 
L 2419 1100 
L 313 1100 
L 313 1709 
L 2253 4666 
z
" transform="scale(0.015625)"/>
       </defs>
       <use xlink:href="#DejaVuSans-30"/>
       <use xlink:href="#DejaVuSans-2e" x="63.623047"/>
       <use xlink:href="#DejaVuSans-30" x="95.410156"/>
       <use xlink:href="#DejaVuSans-34" x="159.033203"/>
      </g>
     </g>
    </g>
    <g id="ytick_4">
     <g id="line2d_13">
      <g>
       <use xlink:href="#m228daa6e1f" x="57.6" y="154.908901" style="stroke: #000000; stroke-width: 0.8"/>
      </g>
     </g>
     <g id="text_14">
      <!-- 0.06 -->
      <g transform="translate(28.334375 158.70812) scale(0.1 -0.1)">
       <defs>
        <path id="DejaVuSans-36" d="M 2113 2584 
Q 1688 2584 1439 2293 
Q 1191 2003 1191 1497 
Q 1191 994 1439 701 
Q 1688 409 2113 409 
Q 2538 409 2786 701 
Q 3034 994 3034 1497 
Q 3034 2003 2786 2293 
Q 2538 2584 2113 2584 
z
M 3366 4563 
L 3366 3988 
Q 3128 4100 2886 4159 
Q 2644 4219 2406 4219 
Q 1781 4219 1451 3797 
Q 1122 3375 1075 2522 
Q 1259 2794 1537 2939 
Q 1816 3084 2150 3084 
Q 2853 3084 3261 2657 
Q 3669 2231 3669 1497 
Q 3669 778 3244 343 
Q 2819 -91 2113 -91 
Q 1303 -91 875 529 
Q 447 1150 447 2328 
Q 447 3434 972 4092 
Q 1497 4750 2381 4750 
Q 2619 4750 2861 4703 
Q 3103 4656 3366 4563 
z
" transform="scale(0.015625)"/>
       </defs>
       <use xlink:href="#DejaVuSans-30"/>
       <use xlink:href="#DejaVuSans-2e" x="63.623047"/>
       <use xlink:href="#DejaVuSans-30" x="95.410156"/>
       <use xlink:href="#DejaVuSans-36" x="159.033203"/>
      </g>
     </g>
    </g>
    <g id="ytick_5">
     <g id="line2d_14">
      <g>
       <use xlink:href="#m228daa6e1f" x="57.6" y="104.017201" style="stroke: #000000; stroke-width: 0.8"/>
      </g>
     </g>
     <g id="text_15">
      <!-- 0.08 -->
      <g transform="translate(28.334375 107.81642) scale(0.1 -0.1)">
       <defs>
        <path id="DejaVuSans-38" d="M 2034 2216 
Q 1584 2216 1326 1975 
Q 1069 1734 1069 1313 
Q 1069 891 1326 650 
Q 1584 409 2034 409 
Q 2484 409 2743 651 
Q 3003 894 3003 1313 
Q 3003 1734 2745 1975 
Q 2488 2216 2034 2216 
z
M 1403 2484 
Q 997 2584 770 2862 
Q 544 3141 544 3541 
Q 544 4100 942 4425 
Q 1341 4750 2034 4750 
Q 2731 4750 3128 4425 
Q 3525 4100 3525 3541 
Q 3525 3141 3298 2862 
Q 3072 2584 2669 2484 
Q 3125 2378 3379 2068 
Q 3634 1759 3634 1313 
Q 3634 634 3220 271 
Q 2806 -91 2034 -91 
Q 1263 -91 848 271 
Q 434 634 434 1313 
Q 434 1759 690 2068 
Q 947 2378 1403 2484 
z
M 1172 3481 
Q 1172 3119 1398 2916 
Q 1625 2713 2034 2713 
Q 2441 2713 2670 2916 
Q 2900 3119 2900 3481 
Q 2900 3844 2670 4047 
Q 2441 4250 2034 4250 
Q 1625 4250 1398 4047 
Q 1172 3844 1172 3481 
z
" transform="scale(0.015625)"/>
       </defs>
       <use xlink:href="#DejaVuSans-30"/>
       <use xlink:href="#DejaVuSans-2e" x="63.623047"/>
       <use xlink:href="#DejaVuSans-30" x="95.410156"/>
       <use xlink:href="#DejaVuSans-38" x="159.033203"/>
      </g>
     </g>
    </g>
    <g id="ytick_6">
     <g id="line2d_15">
      <g>
       <use xlink:href="#m228daa6e1f" x="57.6" y="53.125502" style="stroke: #000000; stroke-width: 0.8"/>
      </g>
     </g>
     <g id="text_16">
      <!-- 0.10 -->
      <g transform="translate(28.334375 56.924721) scale(0.1 -0.1)">
       <use xlink:href="#DejaVuSans-30"/>
       <use xlink:href="#DejaVuSans-2e" x="63.623047"/>
       <use xlink:href="#DejaVuSans-31" x="95.410156"/>
       <use xlink:href="#DejaVuSans-30" x="159.033203"/>
      </g>
     </g>
    </g>
    <g id="text_17">
     <!-- rate (1/seconds to complete) -->
     <g transform="translate(22.254687 247.031125) rotate(-90) scale(0.1 -0.1)">
      <defs>
       <path id="DejaVuSans-28" d="M 1984 4856 
Q 1566 4138 1362 3434 
Q 1159 2731 1159 2009 
Q 1159 1288 1364 580 
Q 1569 -128 1984 -844 
L 1484 -844 
Q 1016 -109 783 600 
Q 550 1309 550 2009 
Q 550 2706 781 3412 
Q 1013 4119 1484 4856 
L 1984 4856 
z
" transform="scale(0.015625)"/>
       <path id="DejaVuSans-2f" d="M 1625 4666 
L 2156 4666 
L 531 -594 
L 0 -594 
L 1625 4666 
z
" transform="scale(0.015625)"/>
       <path id="DejaVuSans-63" d="M 3122 3366 
L 3122 2828 
Q 2878 2963 2633 3030 
Q 2388 3097 2138 3097 
Q 1578 3097 1268 2742 
Q 959 2388 959 1747 
Q 959 1106 1268 751 
Q 1578 397 2138 397 
Q 2388 397 2633 464 
Q 2878 531 3122 666 
L 3122 134 
Q 2881 22 2623 -34 
Q 2366 -91 2075 -91 
Q 1284 -91 818 406 
Q 353 903 353 1747 
Q 353 2603 823 3093 
Q 1294 3584 2113 3584 
Q 2378 3584 2631 3529 
Q 2884 3475 3122 3366 
z
" transform="scale(0.015625)"/>
       <path id="DejaVuSans-70" d="M 1159 525 
L 1159 -1331 
L 581 -1331 
L 581 3500 
L 1159 3500 
L 1159 2969 
Q 1341 3281 1617 3432 
Q 1894 3584 2278 3584 
Q 2916 3584 3314 3078 
Q 3713 2572 3713 1747 
Q 3713 922 3314 415 
Q 2916 -91 2278 -91 
Q 1894 -91 1617 61 
Q 1341 213 1159 525 
z
M 3116 1747 
Q 3116 2381 2855 2742 
Q 2594 3103 2138 3103 
Q 1681 3103 1420 2742 
Q 1159 2381 1159 1747 
Q 1159 1113 1420 752 
Q 1681 391 2138 391 
Q 2594 391 2855 752 
Q 3116 1113 3116 1747 
z
" transform="scale(0.015625)"/>
       <path id="DejaVuSans-6c" d="M 603 4863 
L 1178 4863 
L 1178 0 
L 603 0 
L 603 4863 
z
" transform="scale(0.015625)"/>
       <path id="DejaVuSans-29" d="M 513 4856 
L 1013 4856 
Q 1481 4119 1714 3412 
Q 1947 2706 1947 2009 
Q 1947 1309 1714 600 
Q 1481 -109 1013 -844 
L 513 -844 
Q 928 -128 1133 580 
Q 1338 1288 1338 2009 
Q 1338 2731 1133 3434 
Q 928 4138 513 4856 
z
" transform="scale(0.015625)"/>
      </defs>
      <use xlink:href="#DejaVuSans-72"/>
      <use xlink:href="#DejaVuSans-61" x="41.113281"/>
      <use xlink:href="#DejaVuSans-74" x="102.392578"/>
      <use xlink:href="#DejaVuSans-65" x="141.601562"/>
      <use xlink:href="#DejaVuSans-20" x="203.125"/>
      <use xlink:href="#DejaVuSans-28" x="234.912109"/>
      <use xlink:href="#DejaVuSans-31" x="273.925781"/>
      <use xlink:href="#DejaVuSans-2f" x="337.548828"/>
      <use xlink:href="#DejaVuSans-73" x="371.240234"/>
      <use xlink:href="#DejaVuSans-65" x="423.339844"/>
      <use xlink:href="#DejaVuSans-63" x="484.863281"/>
      <use xlink:href="#DejaVuSans-6f" x="539.84375"/>
      <use xlink:href="#DejaVuSans-6e" x="601.025391"/>
      <use xlink:href="#DejaVuSans-64" x="664.404297"/>
      <use xlink:href="#DejaVuSans-73" x="727.880859"/>
      <use xlink:href="#DejaVuSans-20" x="779.980469"/>
      <use xlink:href="#DejaVuSans-74" x="811.767578"/>
      <use xlink:href="#DejaVuSans-6f" x="850.976562"/>
      <use xlink:href="#DejaVuSans-20" x="912.158203"/>
      <use xlink:href="#DejaVuSans-63" x="943.945312"/>
      <use xlink:href="#DejaVuSans-6f" x="998.925781"/>
      <use xlink:href="#DejaVuSans-6d" x="1060.107422"/>
      <use xlink:href="#DejaVuSans-70" x="1157.519531"/>
      <use xlink:href="#DejaVuSans-6c" x="1220.996094"/>
      <use xlink:href="#DejaVuSans-65" x="1248.779297"/>
      <use xlink:href="#DejaVuSans-74" x="1310.302734"/>
      <use xlink:href="#DejaVuSans-65" x="1349.511719"/>
      <use xlink:href="#DejaVuSans-29" x="1411.035156"/>
     </g>
    </g>
   </g>
   <g id="line2d_16">
    <path d="M 57.6 307.584 
L 145.317769 -1 
L 145.317769 -1 
" clip-path="url(#p0882719af0)" style="fill: none; stroke: #808080; stroke-width: 1.5; stroke-linecap: square"/>
   </g>
   <g id="line2d_17">
    <path d="M 59.3856 301.766661 
L 61.1712 296.02583 
L 62.9568 290.730257 
L 64.7424 285.396698 
L 66.528 280.074389 
L 68.3136 274.902313 
L 70.0992 269.969265 
L 71.8848 265.205154 
L 73.6704 260.028876 
L 75.456 255.593225 
L 77.2416 251.037074 
L 79.0272 247.132361 
L 80.8128 241.95439 
L 82.5984 238.114278 
L 84.384 233.912896 
L 86.1696 229.898363 
L 87.9552 226.062022 
L 89.7408 222.259208 
L 93.312 215.158758 
L 96.8832 207.737957 
L 100.4544 201.708287 
L 104.0256 196.281028 
L 107.5968 191.289657 
L 111.168 186.046886 
L 112.9536 183.881835 
L 114.7392 181.235593 
L 116.5248 179.850938 
L 121.8816 173.380948 
L 129.024 166.651491 
L 136.1664 160.475877 
L 143.3088 155.13261 
L 150.4512 150.118907 
L 157.5936 146.272194 
L 164.736 142.267199 
L 170.0928 138.432093 
L 171.8784 140.193776 
L 173.664 138.517875 
L 186.1632 133.802171 
L 200.448 131.545729 
L 214.7328 132.977025 
L 229.0176 129.369683 
L 243.3024 143.099564 
L 257.5872 135.077093 
L 271.872 135.273576 
L 284.3712 137.888973 
L 286.1568 135.766606 
L 287.9424 140.469768 
L 300.4416 138.550623 
L 314.7264 139.180109 
L 329.0112 145.062604 
L 343.296 202.864549 
L 357.5808 141.001371 
L 371.8656 140.603831 
L 386.1504 142.202934 
L 398.6496 139.979246 
L 400.4352 180.864 
" clip-path="url(#p0882719af0)" style="fill: none; stroke-dasharray: 1.5,2.475; stroke-dashoffset: 0; stroke: #ff7f0e; stroke-width: 1.5"/>
    <defs>
     <path id="m1b262db4a6" d="M 0 1.5 
C 0.397805 1.5 0.77937 1.341951 1.06066 1.06066 
C 1.341951 0.77937 1.5 0.397805 1.5 0 
C 1.5 -0.397805 1.341951 -0.77937 1.06066 -1.06066 
C 0.77937 -1.341951 0.397805 -1.5 0 -1.5 
C -0.397805 -1.5 -0.77937 -1.341951 -1.06066 -1.06066 
C -1.341951 -0.77937 -1.5 -0.397805 -1.5 0 
C -1.5 0.397805 -1.341951 0.77937 -1.06066 1.06066 
C -0.77937 1.341951 -0.397805 1.5 0 1.5 
z
" style="stroke: #ff7f0e"/>
    </defs>
    <g clip-path="url(#p0882719af0)">
     <use xlink:href="#m1b262db4a6" x="59.3856" y="301.766661" style="fill: #ff7f0e; stroke: #ff7f0e"/>
     <use xlink:href="#m1b262db4a6" x="61.1712" y="296.02583" style="fill: #ff7f0e; stroke: #ff7f0e"/>
     <use xlink:href="#m1b262db4a6" x="62.9568" y="290.730257" style="fill: #ff7f0e; stroke: #ff7f0e"/>
     <use xlink:href="#m1b262db4a6" x="64.7424" y="285.396698" style="fill: #ff7f0e; stroke: #ff7f0e"/>
     <use xlink:href="#m1b262db4a6" x="66.528" y="280.074389" style="fill: #ff7f0e; stroke: #ff7f0e"/>
     <use xlink:href="#m1b262db4a6" x="68.3136" y="274.902313" style="fill: #ff7f0e; stroke: #ff7f0e"/>
     <use xlink:href="#m1b262db4a6" x="70.0992" y="269.969265" style="fill: #ff7f0e; stroke: #ff7f0e"/>
     <use xlink:href="#m1b262db4a6" x="71.8848" y="265.205154" style="fill: #ff7f0e; stroke: #ff7f0e"/>
     <use xlink:href="#m1b262db4a6" x="73.6704" y="260.028876" style="fill: #ff7f0e; stroke: #ff7f0e"/>
     <use xlink:href="#m1b262db4a6" x="75.456" y="255.593225" style="fill: #ff7f0e; stroke: #ff7f0e"/>
     <use xlink:href="#m1b262db4a6" x="77.2416" y="251.037074" style="fill: #ff7f0e; stroke: #ff7f0e"/>
     <use xlink:href="#m1b262db4a6" x="79.0272" y="247.132361" style="fill: #ff7f0e; stroke: #ff7f0e"/>
     <use xlink:href="#m1b262db4a6" x="80.8128" y="241.95439" style="fill: #ff7f0e; stroke: #ff7f0e"/>
     <use xlink:href="#m1b262db4a6" x="82.5984" y="238.114278" style="fill: #ff7f0e; stroke: #ff7f0e"/>
     <use xlink:href="#m1b262db4a6" x="84.384" y="233.912896" style="fill: #ff7f0e; stroke: #ff7f0e"/>
     <use xlink:href="#m1b262db4a6" x="86.1696" y="229.898363" style="fill: #ff7f0e; stroke: #ff7f0e"/>
     <use xlink:href="#m1b262db4a6" x="87.9552" y="226.062022" style="fill: #ff7f0e; stroke: #ff7f0e"/>
     <use xlink:href="#m1b262db4a6" x="89.7408" y="222.259208" style="fill: #ff7f0e; stroke: #ff7f0e"/>
     <use xlink:href="#m1b262db4a6" x="93.312" y="215.158758" style="fill: #ff7f0e; stroke: #ff7f0e"/>
     <use xlink:href="#m1b262db4a6" x="96.8832" y="207.737957" style="fill: #ff7f0e; stroke: #ff7f0e"/>
     <use xlink:href="#m1b262db4a6" x="100.4544" y="201.708287" style="fill: #ff7f0e; stroke: #ff7f0e"/>
     <use xlink:href="#m1b262db4a6" x="104.0256" y="196.281028" style="fill: #ff7f0e; stroke: #ff7f0e"/>
     <use xlink:href="#m1b262db4a6" x="107.5968" y="191.289657" style="fill: #ff7f0e; stroke: #ff7f0e"/>
     <use xlink:href="#m1b262db4a6" x="111.168" y="186.046886" style="fill: #ff7f0e; stroke: #ff7f0e"/>
     <use xlink:href="#m1b262db4a6" x="112.9536" y="183.881835" style="fill: #ff7f0e; stroke: #ff7f0e"/>
     <use xlink:href="#m1b262db4a6" x="114.7392" y="181.235593" style="fill: #ff7f0e; stroke: #ff7f0e"/>
     <use xlink:href="#m1b262db4a6" x="116.5248" y="179.850938" style="fill: #ff7f0e; stroke: #ff7f0e"/>
     <use xlink:href="#m1b262db4a6" x="121.8816" y="173.380948" style="fill: #ff7f0e; stroke: #ff7f0e"/>
     <use xlink:href="#m1b262db4a6" x="129.024" y="166.651491" style="fill: #ff7f0e; stroke: #ff7f0e"/>
     <use xlink:href="#m1b262db4a6" x="136.1664" y="160.475877" style="fill: #ff7f0e; stroke: #ff7f0e"/>
     <use xlink:href="#m1b262db4a6" x="143.3088" y="155.13261" style="fill: #ff7f0e; stroke: #ff7f0e"/>
     <use xlink:href="#m1b262db4a6" x="150.4512" y="150.118907" style="fill: #ff7f0e; stroke: #ff7f0e"/>
     <use xlink:href="#m1b262db4a6" x="157.5936" y="146.272194" style="fill: #ff7f0e; stroke: #ff7f0e"/>
     <use xlink:href="#m1b262db4a6" x="164.736" y="142.267199" style="fill: #ff7f0e; stroke: #ff7f0e"/>
     <use xlink:href="#m1b262db4a6" x="170.0928" y="138.432093" style="fill: #ff7f0e; stroke: #ff7f0e"/>
     <use xlink:href="#m1b262db4a6" x="171.8784" y="140.193776" style="fill: #ff7f0e; stroke: #ff7f0e"/>
     <use xlink:href="#m1b262db4a6" x="173.664" y="138.517875" style="fill: #ff7f0e; stroke: #ff7f0e"/>
     <use xlink:href="#m1b262db4a6" x="186.1632" y="133.802171" style="fill: #ff7f0e; stroke: #ff7f0e"/>
     <use xlink:href="#m1b262db4a6" x="200.448" y="131.545729" style="fill: #ff7f0e; stroke: #ff7f0e"/>
     <use xlink:href="#m1b262db4a6" x="214.7328" y="132.977025" style="fill: #ff7f0e; stroke: #ff7f0e"/>
     <use xlink:href="#m1b262db4a6" x="229.0176" y="129.369683" style="fill: #ff7f0e; stroke: #ff7f0e"/>
     <use xlink:href="#m1b262db4a6" x="243.3024" y="143.099564" style="fill: #ff7f0e; stroke: #ff7f0e"/>
     <use xlink:href="#m1b262db4a6" x="257.5872" y="135.077093" style="fill: #ff7f0e; stroke: #ff7f0e"/>
     <use xlink:href="#m1b262db4a6" x="271.872" y="135.273576" style="fill: #ff7f0e; stroke: #ff7f0e"/>
     <use xlink:href="#m1b262db4a6" x="284.3712" y="137.888973" style="fill: #ff7f0e; stroke: #ff7f0e"/>
     <use xlink:href="#m1b262db4a6" x="286.1568" y="135.766606" style="fill: #ff7f0e; stroke: #ff7f0e"/>
     <use xlink:href="#m1b262db4a6" x="287.9424" y="140.469768" style="fill: #ff7f0e; stroke: #ff7f0e"/>
     <use xlink:href="#m1b262db4a6" x="300.4416" y="138.550623" style="fill: #ff7f0e; stroke: #ff7f0e"/>
     <use xlink:href="#m1b262db4a6" x="314.7264" y="139.180109" style="fill: #ff7f0e; stroke: #ff7f0e"/>
     <use xlink:href="#m1b262db4a6" x="329.0112" y="145.062604" style="fill: #ff7f0e; stroke: #ff7f0e"/>
     <use xlink:href="#m1b262db4a6" x="343.296" y="202.864549" style="fill: #ff7f0e; stroke: #ff7f0e"/>
     <use xlink:href="#m1b262db4a6" x="357.5808" y="141.001371" style="fill: #ff7f0e; stroke: #ff7f0e"/>
     <use xlink:href="#m1b262db4a6" x="371.8656" y="140.603831" style="fill: #ff7f0e; stroke: #ff7f0e"/>
     <use xlink:href="#m1b262db4a6" x="386.1504" y="142.202934" style="fill: #ff7f0e; stroke: #ff7f0e"/>
     <use xlink:href="#m1b262db4a6" x="398.6496" y="139.979246" style="fill: #ff7f0e; stroke: #ff7f0e"/>
     <use xlink:href="#m1b262db4a6" x="400.4352" y="180.864" style="fill: #ff7f0e; stroke: #ff7f0e"/>
    </g>
   </g>
   <g id="line2d_18">
    <path d="M 59.3856 301.302404 
L 61.1712 295.46281 
L 62.9568 290.334192 
L 64.7424 285.308221 
L 66.528 281.00291 
L 68.3136 276.689419 
L 70.0992 272.670956 
L 71.8848 268.967239 
L 73.6704 265.212342 
L 75.456 262.956612 
L 77.2416 260.476868 
L 79.0272 258.151304 
L 80.8128 253.846384 
L 82.5984 254.128275 
L 84.384 251.000792 
L 86.1696 248.990839 
L 87.9552 245.901434 
L 89.7408 245.228237 
L 93.312 244.889131 
L 96.8832 241.896178 
L 100.4544 239.10606 
L 104.0256 240.711299 
L 107.5968 242.66548 
L 111.168 238.191915 
L 112.9536 241.222416 
L 114.7392 240.927623 
L 116.5248 240.579773 
L 121.8816 241.994416 
L 129.024 239.383046 
L 136.1664 244.17021 
L 143.3088 244.976893 
L 150.4512 244.713717 
L 157.5936 245.893132 
L 164.736 247.075109 
L 170.0928 246.336012 
L 171.8784 246.524744 
L 173.664 245.333009 
L 186.1632 247.362661 
L 200.448 246.837461 
L 214.7328 250.078502 
L 229.0176 249.541362 
L 243.3024 253.094282 
L 257.5872 252.927409 
L 271.872 253.541892 
L 284.3712 255.709029 
L 286.1568 254.924339 
L 287.9424 253.846067 
L 300.4416 256.278996 
L 314.7264 255.883985 
L 329.0112 256.655875 
L 343.296 257.191185 
L 357.5808 256.829566 
L 371.8656 256.974021 
L 386.1504 257.091128 
L 398.6496 257.324574 
L 400.4352 256.980181 
" clip-path="url(#p0882719af0)" style="fill: none; stroke-dasharray: 1.5,2.475; stroke-dashoffset: 0; stroke: #1f77b4; stroke-width: 1.5"/>
    <defs>
     <path id="mdd88554027" d="M 0 1.5 
C 0.397805 1.5 0.77937 1.341951 1.06066 1.06066 
C 1.341951 0.77937 1.5 0.397805 1.5 0 
C 1.5 -0.397805 1.341951 -0.77937 1.06066 -1.06066 
C 0.77937 -1.341951 0.397805 -1.5 0 -1.5 
C -0.397805 -1.5 -0.77937 -1.341951 -1.06066 -1.06066 
C -1.341951 -0.77937 -1.5 -0.397805 -1.5 0 
C -1.5 0.397805 -1.341951 0.77937 -1.06066 1.06066 
C -0.77937 1.341951 -0.397805 1.5 0 1.5 
z
" style="stroke: #1f77b4"/>
    </defs>
    <g clip-path="url(#p0882719af0)">
     <use xlink:href="#mdd88554027" x="59.3856" y="301.302404" style="fill: #1f77b4; stroke: #1f77b4"/>
     <use xlink:href="#mdd88554027" x="61.1712" y="295.46281" style="fill: #1f77b4; stroke: #1f77b4"/>
     <use xlink:href="#mdd88554027" x="62.9568" y="290.334192" style="fill: #1f77b4; stroke: #1f77b4"/>
     <use xlink:href="#mdd88554027" x="64.7424" y="285.308221" style="fill: #1f77b4; stroke: #1f77b4"/>
     <use xlink:href="#mdd88554027" x="66.528" y="281.00291" style="fill: #1f77b4; stroke: #1f77b4"/>
     <use xlink:href="#mdd88554027" x="68.3136" y="276.689419" style="fill: #1f77b4; stroke: #1f77b4"/>
     <use xlink:href="#mdd88554027" x="70.0992" y="272.670956" style="fill: #1f77b4; stroke: #1f77b4"/>
     <use xlink:href="#mdd88554027" x="71.8848" y="268.967239" style="fill: #1f77b4; stroke: #1f77b4"/>
     <use xlink:href="#mdd88554027" x="73.6704" y="265.212342" style="fill: #1f77b4; stroke: #1f77b4"/>
     <use xlink:href="#mdd88554027" x="75.456" y="262.956612" style="fill: #1f77b4; stroke: #1f77b4"/>
     <use xlink:href="#mdd88554027" x="77.2416" y="260.476868" style="fill: #1f77b4; stroke: #1f77b4"/>
     <use xlink:href="#mdd88554027" x="79.0272" y="258.151304" style="fill: #1f77b4; stroke: #1f77b4"/>
     <use xlink:href="#mdd88554027" x="80.8128" y="253.846384" style="fill: #1f77b4; stroke: #1f77b4"/>
     <use xlink:href="#mdd88554027" x="82.5984" y="254.128275" style="fill: #1f77b4; stroke: #1f77b4"/>
     <use xlink:href="#mdd88554027" x="84.384" y="251.000792" style="fill: #1f77b4; stroke: #1f77b4"/>
     <use xlink:href="#mdd88554027" x="86.1696" y="248.990839" style="fill: #1f77b4; stroke: #1f77b4"/>
     <use xlink:href="#mdd88554027" x="87.9552" y="245.901434" style="fill: #1f77b4; stroke: #1f77b4"/>
     <use xlink:href="#mdd88554027" x="89.7408" y="245.228237" style="fill: #1f77b4; stroke: #1f77b4"/>
     <use xlink:href="#mdd88554027" x="93.312" y="244.889131" style="fill: #1f77b4; stroke: #1f77b4"/>
     <use xlink:href="#mdd88554027" x="96.8832" y="241.896178" style="fill: #1f77b4; stroke: #1f77b4"/>
     <use xlink:href="#mdd88554027" x="100.4544" y="239.10606" style="fill: #1f77b4; stroke: #1f77b4"/>
     <use xlink:href="#mdd88554027" x="104.0256" y="240.711299" style="fill: #1f77b4; stroke: #1f77b4"/>
     <use xlink:href="#mdd88554027" x="107.5968" y="242.66548" style="fill: #1f77b4; stroke: #1f77b4"/>
     <use xlink:href="#mdd88554027" x="111.168" y="238.191915" style="fill: #1f77b4; stroke: #1f77b4"/>
     <use xlink:href="#mdd88554027" x="112.9536" y="241.222416" style="fill: #1f77b4; stroke: #1f77b4"/>
     <use xlink:href="#mdd88554027" x="114.7392" y="240.927623" style="fill: #1f77b4; stroke: #1f77b4"/>
     <use xlink:href="#mdd88554027" x="116.5248" y="240.579773" style="fill: #1f77b4; stroke: #1f77b4"/>
     <use xlink:href="#mdd88554027" x="121.8816" y="241.994416" style="fill: #1f77b4; stroke: #1f77b4"/>
     <use xlink:href="#mdd88554027" x="129.024" y="239.383046" style="fill: #1f77b4; stroke: #1f77b4"/>
     <use xlink:href="#mdd88554027" x="136.1664" y="244.17021" style="fill: #1f77b4; stroke: #1f77b4"/>
     <use xlink:href="#mdd88554027" x="143.3088" y="244.976893" style="fill: #1f77b4; stroke: #1f77b4"/>
     <use xlink:href="#mdd88554027" x="150.4512" y="244.713717" style="fill: #1f77b4; stroke: #1f77b4"/>
     <use xlink:href="#mdd88554027" x="157.5936" y="245.893132" style="fill: #1f77b4; stroke: #1f77b4"/>
     <use xlink:href="#mdd88554027" x="164.736" y="247.075109" style="fill: #1f77b4; stroke: #1f77b4"/>
     <use xlink:href="#mdd88554027" x="170.0928" y="246.336012" style="fill: #1f77b4; stroke: #1f77b4"/>
     <use xlink:href="#mdd88554027" x="171.8784" y="246.524744" style="fill: #1f77b4; stroke: #1f77b4"/>
     <use xlink:href="#mdd88554027" x="173.664" y="245.333009" style="fill: #1f77b4; stroke: #1f77b4"/>
     <use xlink:href="#mdd88554027" x="186.1632" y="247.362661" style="fill: #1f77b4; stroke: #1f77b4"/>
     <use xlink:href="#mdd88554027" x="200.448" y="246.837461" style="fill: #1f77b4; stroke: #1f77b4"/>
     <use xlink:href="#mdd88554027" x="214.7328" y="250.078502" style="fill: #1f77b4; stroke: #1f77b4"/>
     <use xlink:href="#mdd88554027" x="229.0176" y="249.541362" style="fill: #1f77b4; stroke: #1f77b4"/>
     <use xlink:href="#mdd88554027" x="243.3024" y="253.094282" style="fill: #1f77b4; stroke: #1f77b4"/>
     <use xlink:href="#mdd88554027" x="257.5872" y="252.927409" style="fill: #1f77b4; stroke: #1f77b4"/>
     <use xlink:href="#mdd88554027" x="271.872" y="253.541892" style="fill: #1f77b4; stroke: #1f77b4"/>
     <use xlink:href="#mdd88554027" x="284.3712" y="255.709029" style="fill: #1f77b4; stroke: #1f77b4"/>
     <use xlink:href="#mdd88554027" x="286.1568" y="254.924339" style="fill: #1f77b4; stroke: #1f77b4"/>
     <use xlink:href="#mdd88554027" x="287.9424" y="253.846067" style="fill: #1f77b4; stroke: #1f77b4"/>
     <use xlink:href="#mdd88554027" x="300.4416" y="256.278996" style="fill: #1f77b4; stroke: #1f77b4"/>
     <use xlink:href="#mdd88554027" x="314.7264" y="255.883985" style="fill: #1f77b4; stroke: #1f77b4"/>
     <use xlink:href="#mdd88554027" x="329.0112" y="256.655875" style="fill: #1f77b4; stroke: #1f77b4"/>
     <use xlink:href="#mdd88554027" x="343.296" y="257.191185" style="fill: #1f77b4; stroke: #1f77b4"/>
     <use xlink:href="#mdd88554027" x="357.5808" y="256.829566" style="fill: #1f77b4; stroke: #1f77b4"/>
     <use xlink:href="#mdd88554027" x="371.8656" y="256.974021" style="fill: #1f77b4; stroke: #1f77b4"/>
     <use xlink:href="#mdd88554027" x="386.1504" y="257.091128" style="fill: #1f77b4; stroke: #1f77b4"/>
     <use xlink:href="#mdd88554027" x="398.6496" y="257.324574" style="fill: #1f77b4; stroke: #1f77b4"/>
     <use xlink:href="#mdd88554027" x="400.4352" y="256.980181" style="fill: #1f77b4; stroke: #1f77b4"/>
    </g>
   </g>
   <g id="line2d_19">
    <path d="M 57.6 141.110733 
L 414.72 141.110733 
" clip-path="url(#p0882719af0)" style="fill: none; stroke-dasharray: 1.5,2.475; stroke-dashoffset: 0; stroke: #d3d3d3; stroke-width: 1.5"/>
   </g>
   <g id="line2d_20">
    <path d="M 57.6 252.092911 
L 414.72 252.092911 
" clip-path="url(#p0882719af0)" style="fill: none; stroke-dasharray: 1.5,2.475; stroke-dashoffset: 0; stroke: #d3d3d3; stroke-width: 1.5"/>
   </g>
   <g id="patch_3">
    <path d="M 57.6 307.584 
L 57.6 41.472 
" style="fill: none; stroke: #000000; stroke-width: 0.8; stroke-linejoin: miter; stroke-linecap: square"/>
   </g>
   <g id="patch_4">
    <path d="M 414.72 307.584 
L 414.72 41.472 
" style="fill: none; stroke: #000000; stroke-width: 0.8; stroke-linejoin: miter; stroke-linecap: square"/>
   </g>
   <g id="patch_5">
    <path d="M 57.6 307.584 
L 414.72 307.584 
" style="fill: none; stroke: #000000; stroke-width: 0.8; stroke-linejoin: miter; stroke-linecap: square"/>
   </g>
   <g id="patch_6">
    <path d="M 57.6 41.472 
L 414.72 41.472 
" style="fill: none; stroke: #000000; stroke-width: 0.8; stroke-linejoin: miter; stroke-linecap: square"/>
   </g>
   <g id="text_18">
    <!-- 3 GB/second -->
    <g style="fill: #808080" transform="translate(293.847813 132.672295) scale(0.1 -0.1)">
     <defs>
      <path id="DejaVuSans-33" d="M 2597 2516 
Q 3050 2419 3304 2112 
Q 3559 1806 3559 1356 
Q 3559 666 3084 287 
Q 2609 -91 1734 -91 
Q 1441 -91 1130 -33 
Q 819 25 488 141 
L 488 750 
Q 750 597 1062 519 
Q 1375 441 1716 441 
Q 2309 441 2620 675 
Q 2931 909 2931 1356 
Q 2931 1769 2642 2001 
Q 2353 2234 1838 2234 
L 1294 2234 
L 1294 2753 
L 1863 2753 
Q 2328 2753 2575 2939 
Q 2822 3125 2822 3475 
Q 2822 3834 2567 4026 
Q 2313 4219 1838 4219 
Q 1578 4219 1281 4162 
Q 984 4106 628 3988 
L 628 4550 
Q 988 4650 1302 4700 
Q 1616 4750 1894 4750 
Q 2613 4750 3031 4423 
Q 3450 4097 3450 3541 
Q 3450 3153 3228 2886 
Q 3006 2619 2597 2516 
z
" transform="scale(0.015625)"/>
      <path id="DejaVuSans-47" d="M 3809 666 
L 3809 1919 
L 2778 1919 
L 2778 2438 
L 4434 2438 
L 4434 434 
Q 4069 175 3628 42 
Q 3188 -91 2688 -91 
Q 1594 -91 976 548 
Q 359 1188 359 2328 
Q 359 3472 976 4111 
Q 1594 4750 2688 4750 
Q 3144 4750 3555 4637 
Q 3966 4525 4313 4306 
L 4313 3634 
Q 3963 3931 3569 4081 
Q 3175 4231 2741 4231 
Q 1884 4231 1454 3753 
Q 1025 3275 1025 2328 
Q 1025 1384 1454 906 
Q 1884 428 2741 428 
Q 3075 428 3337 486 
Q 3600 544 3809 666 
z
" transform="scale(0.015625)"/>
      <path id="DejaVuSans-42" d="M 1259 2228 
L 1259 519 
L 2272 519 
Q 2781 519 3026 730 
Q 3272 941 3272 1375 
Q 3272 1813 3026 2020 
Q 2781 2228 2272 2228 
L 1259 2228 
z
M 1259 4147 
L 1259 2741 
L 2194 2741 
Q 2656 2741 2882 2914 
Q 3109 3088 3109 3444 
Q 3109 3797 2882 3972 
Q 2656 4147 2194 4147 
L 1259 4147 
z
M 628 4666 
L 2241 4666 
Q 2963 4666 3353 4366 
Q 3744 4066 3744 3513 
Q 3744 3084 3544 2831 
Q 3344 2578 2956 2516 
Q 3422 2416 3680 2098 
Q 3938 1781 3938 1306 
Q 3938 681 3513 340 
Q 3088 0 2303 0 
L 628 0 
L 628 4666 
z
" transform="scale(0.015625)"/>
     </defs>
     <use xlink:href="#DejaVuSans-33"/>
     <use xlink:href="#DejaVuSans-20" x="63.623047"/>
     <use xlink:href="#DejaVuSans-47" x="95.410156"/>
     <use xlink:href="#DejaVuSans-42" x="172.900391"/>
     <use xlink:href="#DejaVuSans-2f" x="241.503906"/>
     <use xlink:href="#DejaVuSans-73" x="275.195312"/>
     <use xlink:href="#DejaVuSans-65" x="327.294922"/>
     <use xlink:href="#DejaVuSans-63" x="388.818359"/>
     <use xlink:href="#DejaVuSans-6f" x="443.798828"/>
     <use xlink:href="#DejaVuSans-6e" x="504.980469"/>
     <use xlink:href="#DejaVuSans-64" x="568.359375"/>
    </g>
    <!--  -->
    <g style="fill: #808080" transform="translate(325.44 143.870108) scale(0.1 -0.1)"/>
    <!--  -->
    <g style="fill: #808080" transform="translate(325.44 155.06792) scale(0.1 -0.1)"/>
   </g>
   <g id="text_19">
    <!-- 1 GB/second -->
    <g style="fill: #808080" transform="translate(293.847813 243.654473) scale(0.1 -0.1)">
     <use xlink:href="#DejaVuSans-31"/>
     <use xlink:href="#DejaVuSans-20" x="63.623047"/>
     <use xlink:href="#DejaVuSans-47" x="95.410156"/>
     <use xlink:href="#DejaVuSans-42" x="172.900391"/>
     <use xlink:href="#DejaVuSans-2f" x="241.503906"/>
     <use xlink:href="#DejaVuSans-73" x="275.195312"/>
     <use xlink:href="#DejaVuSans-65" x="327.294922"/>
     <use xlink:href="#DejaVuSans-63" x="388.818359"/>
     <use xlink:href="#DejaVuSans-6f" x="443.798828"/>
     <use xlink:href="#DejaVuSans-6e" x="504.980469"/>
     <use xlink:href="#DejaVuSans-64" x="568.359375"/>
    </g>
    <!--  -->
    <g style="fill: #808080" transform="translate(325.44 254.852286) scale(0.1 -0.1)"/>
    <!--  -->
    <g style="fill: #808080" transform="translate(325.44 266.050098) scale(0.1 -0.1)"/>
   </g>
   <g id="legend_1">
    <g id="patch_7">
     <path d="M 64.6 93.506375 
L 260.220312 93.506375 
Q 262.220312 93.506375 262.220312 91.506375 
L 262.220312 48.472 
Q 262.220312 46.472 260.220312 46.472 
L 64.6 46.472 
Q 62.6 46.472 62.6 48.472 
L 62.6 91.506375 
Q 62.6 93.506375 64.6 93.506375 
z
" style="fill: #ffffff; stroke: #cccccc; stroke-linejoin: miter"/>
    </g>
    <g id="line2d_21">
     <path d="M 66.6 54.570438 
L 76.6 54.570438 
L 86.6 54.570438 
" style="fill: none; stroke: #808080; stroke-width: 1.5; stroke-linecap: square"/>
    </g>
    <g id="text_20">
     <!-- perfect scaling -->
     <g transform="translate(94.6 58.070438) scale(0.1 -0.1)">
      <defs>
       <path id="DejaVuSans-69" d="M 603 3500 
L 1178 3500 
L 1178 0 
L 603 0 
L 603 3500 
z
M 603 4863 
L 1178 4863 
L 1178 4134 
L 603 4134 
L 603 4863 
z
" transform="scale(0.015625)"/>
       <path id="DejaVuSans-67" d="M 2906 1791 
Q 2906 2416 2648 2759 
Q 2391 3103 1925 3103 
Q 1463 3103 1205 2759 
Q 947 2416 947 1791 
Q 947 1169 1205 825 
Q 1463 481 1925 481 
Q 2391 481 2648 825 
Q 2906 1169 2906 1791 
z
M 3481 434 
Q 3481 -459 3084 -895 
Q 2688 -1331 1869 -1331 
Q 1566 -1331 1297 -1286 
Q 1028 -1241 775 -1147 
L 775 -588 
Q 1028 -725 1275 -790 
Q 1522 -856 1778 -856 
Q 2344 -856 2625 -561 
Q 2906 -266 2906 331 
L 2906 616 
Q 2728 306 2450 153 
Q 2172 0 1784 0 
Q 1141 0 747 490 
Q 353 981 353 1791 
Q 353 2603 747 3093 
Q 1141 3584 1784 3584 
Q 2172 3584 2450 3431 
Q 2728 3278 2906 2969 
L 2906 3500 
L 3481 3500 
L 3481 434 
z
" transform="scale(0.015625)"/>
      </defs>
      <use xlink:href="#DejaVuSans-70"/>
      <use xlink:href="#DejaVuSans-65" x="63.476562"/>
      <use xlink:href="#DejaVuSans-72" x="125"/>
      <use xlink:href="#DejaVuSans-66" x="166.113281"/>
      <use xlink:href="#DejaVuSans-65" x="201.318359"/>
      <use xlink:href="#DejaVuSans-63" x="262.841797"/>
      <use xlink:href="#DejaVuSans-74" x="317.822266"/>
      <use xlink:href="#DejaVuSans-20" x="357.03125"/>
      <use xlink:href="#DejaVuSans-73" x="388.818359"/>
      <use xlink:href="#DejaVuSans-63" x="440.917969"/>
      <use xlink:href="#DejaVuSans-61" x="495.898438"/>
      <use xlink:href="#DejaVuSans-6c" x="557.177734"/>
      <use xlink:href="#DejaVuSans-69" x="584.960938"/>
      <use xlink:href="#DejaVuSans-6e" x="612.744141"/>
      <use xlink:href="#DejaVuSans-67" x="676.123047"/>
     </g>
    </g>
    <g id="line2d_22">
     <path d="M 66.6 69.248563 
L 76.6 69.248563 
L 86.6 69.248563 
" style="fill: none; stroke-dasharray: 1.5,2.475; stroke-dashoffset: 0; stroke: #ff7f0e; stroke-width: 1.5"/>
     <g>
      <use xlink:href="#m1b262db4a6" x="76.6" y="69.248563" style="fill: #ff7f0e; stroke: #ff7f0e"/>
     </g>
    </g>
    <g id="text_21">
     <!-- free-threading (MemmapSource) -->
     <g transform="translate(94.6 72.748563) scale(0.1 -0.1)">
      <defs>
       <path id="DejaVuSans-2d" d="M 313 2009 
L 1997 2009 
L 1997 1497 
L 313 1497 
L 313 2009 
z
" transform="scale(0.015625)"/>
       <path id="DejaVuSans-4d" d="M 628 4666 
L 1569 4666 
L 2759 1491 
L 3956 4666 
L 4897 4666 
L 4897 0 
L 4281 0 
L 4281 4097 
L 3078 897 
L 2444 897 
L 1241 4097 
L 1241 0 
L 628 0 
L 628 4666 
z
" transform="scale(0.015625)"/>
       <path id="DejaVuSans-53" d="M 3425 4513 
L 3425 3897 
Q 3066 4069 2747 4153 
Q 2428 4238 2131 4238 
Q 1616 4238 1336 4038 
Q 1056 3838 1056 3469 
Q 1056 3159 1242 3001 
Q 1428 2844 1947 2747 
L 2328 2669 
Q 3034 2534 3370 2195 
Q 3706 1856 3706 1288 
Q 3706 609 3251 259 
Q 2797 -91 1919 -91 
Q 1588 -91 1214 -16 
Q 841 59 441 206 
L 441 856 
Q 825 641 1194 531 
Q 1563 422 1919 422 
Q 2459 422 2753 634 
Q 3047 847 3047 1241 
Q 3047 1584 2836 1778 
Q 2625 1972 2144 2069 
L 1759 2144 
Q 1053 2284 737 2584 
Q 422 2884 422 3419 
Q 422 4038 858 4394 
Q 1294 4750 2059 4750 
Q 2388 4750 2728 4690 
Q 3069 4631 3425 4513 
z
" transform="scale(0.015625)"/>
      </defs>
      <use xlink:href="#DejaVuSans-66"/>
      <use xlink:href="#DejaVuSans-72" x="35.205078"/>
      <use xlink:href="#DejaVuSans-65" x="74.068359"/>
      <use xlink:href="#DejaVuSans-65" x="135.591797"/>
      <use xlink:href="#DejaVuSans-2d" x="197.115234"/>
      <use xlink:href="#DejaVuSans-74" x="233.199219"/>
      <use xlink:href="#DejaVuSans-68" x="272.408203"/>
      <use xlink:href="#DejaVuSans-72" x="335.787109"/>
      <use xlink:href="#DejaVuSans-65" x="374.650391"/>
      <use xlink:href="#DejaVuSans-61" x="436.173828"/>
      <use xlink:href="#DejaVuSans-64" x="497.453125"/>
      <use xlink:href="#DejaVuSans-69" x="560.929688"/>
      <use xlink:href="#DejaVuSans-6e" x="588.712891"/>
      <use xlink:href="#DejaVuSans-67" x="652.091797"/>
      <use xlink:href="#DejaVuSans-20" x="715.568359"/>
      <use xlink:href="#DejaVuSans-28" x="747.355469"/>
      <use xlink:href="#DejaVuSans-4d" x="786.369141"/>
      <use xlink:href="#DejaVuSans-65" x="872.648438"/>
      <use xlink:href="#DejaVuSans-6d" x="934.171875"/>
      <use xlink:href="#DejaVuSans-6d" x="1031.583984"/>
      <use xlink:href="#DejaVuSans-61" x="1128.996094"/>
      <use xlink:href="#DejaVuSans-70" x="1190.275391"/>
      <use xlink:href="#DejaVuSans-53" x="1253.751953"/>
      <use xlink:href="#DejaVuSans-6f" x="1317.228516"/>
      <use xlink:href="#DejaVuSans-75" x="1378.410156"/>
      <use xlink:href="#DejaVuSans-72" x="1441.789062"/>
      <use xlink:href="#DejaVuSans-63" x="1480.652344"/>
      <use xlink:href="#DejaVuSans-65" x="1535.632812"/>
      <use xlink:href="#DejaVuSans-29" x="1597.15625"/>
     </g>
    </g>
    <g id="line2d_23">
     <path d="M 66.6 83.926688 
L 76.6 83.926688 
L 86.6 83.926688 
" style="fill: none; stroke-dasharray: 1.5,2.475; stroke-dashoffset: 0; stroke: #1f77b4; stroke-width: 1.5"/>
     <g>
      <use xlink:href="#mdd88554027" x="76.6" y="83.926688" style="fill: #1f77b4; stroke: #1f77b4"/>
     </g>
    </g>
    <g id="text_22">
     <!-- GIL-bound (MemmapSource) -->
     <g transform="translate(94.6 87.426688) scale(0.1 -0.1)">
      <defs>
       <path id="DejaVuSans-49" d="M 628 4666 
L 1259 4666 
L 1259 0 
L 628 0 
L 628 4666 
z
" transform="scale(0.015625)"/>
       <path id="DejaVuSans-4c" d="M 628 4666 
L 1259 4666 
L 1259 531 
L 3531 531 
L 3531 0 
L 628 0 
L 628 4666 
z
" transform="scale(0.015625)"/>
      </defs>
      <use xlink:href="#DejaVuSans-47"/>
      <use xlink:href="#DejaVuSans-49" x="77.490234"/>
      <use xlink:href="#DejaVuSans-4c" x="106.982422"/>
      <use xlink:href="#DejaVuSans-2d" x="160.945312"/>
      <use xlink:href="#DejaVuSans-62" x="197.029297"/>
      <use xlink:href="#DejaVuSans-6f" x="260.505859"/>
      <use xlink:href="#DejaVuSans-75" x="321.6875"/>
      <use xlink:href="#DejaVuSans-6e" x="385.066406"/>
      <use xlink:href="#DejaVuSans-64" x="448.445312"/>
      <use xlink:href="#DejaVuSans-20" x="511.921875"/>
      <use xlink:href="#DejaVuSans-28" x="543.708984"/>
      <use xlink:href="#DejaVuSans-4d" x="582.722656"/>
      <use xlink:href="#DejaVuSans-65" x="669.001953"/>
      <use xlink:href="#DejaVuSans-6d" x="730.525391"/>
      <use xlink:href="#DejaVuSans-6d" x="827.9375"/>
      <use xlink:href="#DejaVuSans-61" x="925.349609"/>
      <use xlink:href="#DejaVuSans-70" x="986.628906"/>
      <use xlink:href="#DejaVuSans-53" x="1050.105469"/>
      <use xlink:href="#DejaVuSans-6f" x="1113.582031"/>
      <use xlink:href="#DejaVuSans-75" x="1174.763672"/>
      <use xlink:href="#DejaVuSans-72" x="1238.142578"/>
      <use xlink:href="#DejaVuSans-63" x="1277.005859"/>
      <use xlink:href="#DejaVuSans-65" x="1331.986328"/>
      <use xlink:href="#DejaVuSans-29" x="1393.509766"/>
     </g>
    </g>
   </g>
  </g>
 </g>
 <defs>
  <clipPath id="p0882719af0">
   <rect x="57.6" y="41.472" width="357.12" height="266.112"/>
  </clipPath>
 </defs>
</svg>
